<svg xmlns="http://www.w3.org/2000/svg" width="1497" height="565.9" viewBox="0 0 1497 565.9">
  <path id="Path_785" data-name="Path 785" d="M1668.462,928.11c-.058,2.964-.173,5.876-.289,8.782-.173,2.906-.347,5.755-.52,8.6-.468,6.1-1.1,12.151-1.918,18.021-.988,7.557-2.207,15-3.605,22.152-.41,2.034-.815,4.01-1.219,5.991-.174.815-.347,1.571-.526,2.323l-.116.41q-.347,1.569-.7,3.137c-.173.988-.4,1.976-.641,2.906-.872,3.605-1.8,7.153-2.733,10.579-.058.289-.173.578-.231.872-.116.352-.173.7-.289,1.046-1.046,3.894-2.15,7.615-3.258,11.278-1.513,4.94-3.08,9.654-4.651,14.242-.468,1.335-.93,2.675-1.4,3.952-.7,1.918-1.4,3.836-2.034,5.7v.058c-.641,1.514-1.161,2.906-1.745,4.362-.872,2.323-1.8,4.535-2.675,6.743-1.335,3.258-2.675,6.4-3.952,9.3-.289.7-.583,1.335-.872,1.976-.583,1.335-1.161,2.617-1.687,3.836-1.161,2.559-2.323,5-3.432,7.268s-2.15,4.42-3.137,6.4c-3.721,7.326-6.858,13.37-8.256,15.987-.468.93-.757,1.456-.757,1.456s-1432.46.173-1432.518.116c-37.85-84.591,5.056-149.244,94.829-222.326,67.212-54.825,192.039-73.781,159.476-189.538C401.18,557.291,582.75,512.641,763.974,555.258c141.745,33.314,272.211,151.572,370.472,111.92,190.41-76.861,281.692-42.616,334.425-20.465,1.687.7,3.374,1.4,5,2.149q11.6,5.053,23.371,11.452c1.629.872,3.258,1.8,4.94,2.733,5.466,3.08,10.989,6.4,16.513,9.943,2.56,1.687,5.119,3.374,7.731,5.114a3.487,3.487,0,0,1,.583.41c3.547,2.381,7.095,4.825,10.642,7.442,4.126,3.022,8.256,6.165,12.44,9.476q11.076,8.719,22.209,18.778c2.848,2.559,5.639,5.177,8.487,7.852q4.974,4.62,9.591,9.418c2.848,2.964,5.639,5.928,8.314,8.892.93.988,1.86,2.034,2.791,3.085,2.27,2.559,4.42,5.171,6.569,7.731,1.976,2.381,3.836,4.825,5.7,7.21.7.93,1.4,1.86,2.092,2.733,1.1,1.513,2.207,2.964,3.253,4.478,2.265,3.2,4.478,6.338,6.511,9.533q4.186,6.37,7.852,12.734c.347.583.7,1.161,1.046,1.8.289.52.583,1.046.872,1.566.815,1.456,1.629,2.969,2.444,4.42a265.069,265.069,0,0,1,14.011,30.986c.231.641.462,1.277.7,1.918.4,1.046.757,2.092,1.1,3.138.7,1.918,1.335,3.836,1.976,5.755.583,1.86,1.161,3.779,1.745,5.639.058.231.173.526.231.757.468,1.566.872,3.08,1.335,4.651.757,2.791,1.514,5.581,2.15,8.372,1.046,4.42,1.976,8.782,2.791,13.2.058.4.173.872.231,1.282.757,4.246,1.4,8.43,1.976,12.618A290.812,290.812,0,0,1,1668.462,928.11Z" transform="translate(-171.525 -539.714)" fill="#434343" opacity="0.7"/>
</svg>
