<svg xmlns="http://www.w3.org/2000/svg" width="601.847" height="374.635" viewBox="0 0 601.847 374.635">
  <g id="Group_3598" data-name="Group 3598" transform="translate(-10992.369 -980.739)">
    <g id="Group_3570" data-name="Group 3570" transform="translate(11163.501 1256.265)">
      <path id="Path_5260" data-name="Path 5260" d="M1842.5,1519.309l.167,0a2.349,2.349,0,0,0,2.292-2.569l-9.114-96.389-7.953.752,13.087,96.907A1.5,1.5,0,0,0,1842.5,1519.309Z" transform="translate(-1827.891 -1420.347)" fill="#c8dbf4"/>
    </g>
    <g id="Group_3571" data-name="Group 3571" transform="translate(11087.879 1256.265)">
      <path id="Path_5261" data-name="Path 5261" d="M2076.742,1519.309l-.167,0a2.349,2.349,0,0,1-2.293-2.569l9.114-96.389,7.953.752-13.087,96.907A1.5,1.5,0,0,1,2076.742,1519.309Z" transform="translate(-2074.271 -1420.347)" fill="#c8dbf4"/>
    </g>
    <g id="Group_3572" data-name="Group 3572" transform="translate(11227.8 1256.265)">
      <path id="Path_5262" data-name="Path 5262" d="M1633.008,1519.309l.167,0a2.349,2.349,0,0,0,2.292-2.569l-9.114-96.389-7.953.752,13.087,96.907A1.5,1.5,0,0,0,1633.008,1519.309Z" transform="translate(-1618.401 -1420.347)" fill="#bad4f4"/>
    </g>
    <path id="Path_5263" data-name="Path 5263" d="M1888.571,1087.692,1851.3,953.9h82.322l35.276,129.146Z" transform="translate(9204.493 159.194)" fill="#c8dbf4"/>
    <path id="Path_5264" data-name="Path 5264" d="M1686.1,1390.1h123.177a4.654,4.654,0,0,0,4.64-4.64v-6.15a4.654,4.654,0,0,0-4.64-4.64H1686.1a4.654,4.654,0,0,0-4.64,4.64v6.15A4.656,4.656,0,0,0,1686.1,1390.1Z" transform="translate(9411.599 -132.423)" fill="#c8dbf4"/>
    <path id="Path_5265" data-name="Path 5265" d="M1561.99,1390.1h86.091a3.918,3.918,0,0,0,3.907-3.907v-7.616a3.919,3.919,0,0,0-3.907-3.907H1561.99a3.919,3.919,0,0,0-3.907,3.907v7.616A3.919,3.919,0,0,0,1561.99,1390.1Z" transform="translate(9611.402 -132.423)" fill="#bad4f4"/>
    <g id="Group_3574" data-name="Group 3574" transform="translate(11066.664 1042.967)">
      <path id="Path_5266" data-name="Path 5266" d="M2128.636,986.039a45.241,45.241,0,0,0,4.265,11.98c1.631,4.044,10.575-18.134,10.575-18.134l1.336-8.543,2.171-13.877.61-3.9,2.43-15.528-.6-2.36-2.921-11.471.263-2.616s-9.016,4.99-11.471,14.459c-.87,3.353-2.125,10.461-3.317,18.414-.186,1.245-1.235,1.761-1.417,3.037C2129.026,968.332,2127.7,980.692,2128.636,986.039Z" transform="translate(-2128.326 -861.379)" fill="#ed975d"/>
      <path id="Path_5267" data-name="Path 5267" d="M1740.961,997.727a14.716,14.716,0,0,0-4.7-1.527c-12.4-1.067-39.281-10.268-42.126-12.374-5.251-3.888-27.194-22.347-35.844-31.663-.008-.006-7.245-8.515-7.245-8.515-8.186-8.812-.762-24.194-.762-24.194s14.057,5.969,19.142,11.843c3.319,3.834,28.727,35.3,31.9,36.843,10.33,5.036,39.621,22.227,42.677,23.576C1744,991.717,1747.965,994.473,1740.961,997.727Z" transform="translate(-1575.745 -859.897)" fill="#ffb27d"/>
      <path id="Path_5268" data-name="Path 5268" d="M1262.318,1656.489s-1.7,22.044,2.082,22.337c.5.039,19.187.039,19.187.039l23.851-.145s-.156-6-7.128-7.264-20.77-7.389-24.993-17C1270.875,1644.338,1262.318,1656.489,1262.318,1656.489Z" transform="translate(-1019.816 -1366.512)" fill="#163560"/>
      <path id="Path_5269" data-name="Path 5269" d="M1351.941,1211.994s2.1,39.967,5.759,46.929c0,0,1.636-.576,13.574-.683,14.446-.129,83.436-.405,91.71,3.781,2.588,1.31,10.007,32.458,54.325,86.054a18.888,18.888,0,0,0,11.149,2.477c6.429-.467,6.97-1.658,6.97-1.658s-42.162-107.764-51.5-116.64c-14.261-13.56-87.276-27.51-97.959-27.822S1351.941,1211.994,1351.941,1211.994Z" transform="translate(-1275.431 -1057.399)" fill="#ed7d2b"/>
      <path id="Path_5270" data-name="Path 5270" d="M1423.409,1660.089s-1.7,21.127,2.082,21.407c.5.037,19.187.037,19.187.037l23.851-.138s-.156-5.747-7.128-6.962-20.77-7.082-24.993-16.3C1431.963,1648.444,1423.409,1660.089,1423.409,1660.089Z" transform="translate(-1230.351 -1369.182)" fill="#163560"/>
      <path id="Path_5271" data-name="Path 5271" d="M1509.817,1229.09s.58,11.049,1.663,22.541c1.333,14.155,10.111,23.154,24.252,24.631,9.521.994,20.773.468,28.207.427,35.849-.2,48.647-1.757,56.921,2.43,2.588,1.31-9.72,20.965,32.239,86.054,0,0,3.163,2.532,10.177,3.529a23.324,23.324,0,0,0,9.011-1s-13.021-102.355-23.629-114.193c-7.584-8.464-67.737-18.392-78.42-18.7S1509.817,1229.09,1509.817,1229.09Z" transform="translate(-1460.747 -1074.495)" fill="#f99746"/>
      <path id="Path_5272" data-name="Path 5272" d="M1807.475,941.345s7.35,6.652,19.607,5.506c.694,3.552,1.561,7.5,2.574,11.682.084.347.169.7.256,1.048,1.6,6.505,3.535,13.533,5.713,20.466,6.319,20.14,14.652,39.533,22.549,43.348.827.4,24.3.179,40.36-6.07a55.639,55.639,0,0,0,13.158-7.645,102.8,102.8,0,0,0,14.045-13.144,6.339,6.339,0,0,0-.522-8.953c-6.046-5.39-16.114-14.915-18.38-20.5-1.911-4.71-4.731-14.617-6.986-23.005,11.871-3.149,14.582-16.061,14.582-16.061s-19.435-21.161-25.523-25.053c-7.967-5.092-18.509-5.744-22.637-6.453-10.131-1.739-22.062-1.438-40.666,7.109,0,0-10.534,5.7-13.34,16.682S1807.475,941.345,1807.475,941.345Z" transform="translate(-1807.164 -843.41)" fill="#1c468a"/>
      <path id="Path_5273" data-name="Path 5273" d="M2020.643,885.256c9.985.756,10.851-7.305,10.851-7.305l-.225-5.346-.263-6.279s-7.231-3.815-12.932-6.458c-3.638-1.685-6.656-2.893-6.775-2.327-.834,3.907-3.239,11.693-5.737,15.2C2004.1,878.8,2010.656,884.5,2020.643,885.256Z" transform="translate(-1972.052 -816.888)" fill="#ed975d"/>
      <g id="Group_3573" data-name="Group 3573" transform="translate(25.546)">
        <path id="Path_5274" data-name="Path 5274" d="M2001.534,797.606s-25.077,2.268-26.249-13.371-5.2-25.877,10.763-27.987,19.522,3.625,21.184,8.75S2008.025,796.613,2001.534,797.606Z" transform="translate(-1964.434 -746.473)" fill="#ffac73"/>
        <path id="Path_5275" data-name="Path 5275" d="M1947.994,734.112c-.232-.263-.764-.474-1.947-.535a4.8,4.8,0,0,1,2.207-.63c.241-1.645,1.105-4.559,3.933-5.277a3.546,3.546,0,0,0-1.71,2.566c3.266-3.379,10.281-5.856,29.737-4.393,25.642,1.928,17.254,18.372,13.943,20.341s-11.685-3.364-17.866-2.85-7.324,9.453-9.417,10.686-1.276-.937-4.119-2.209-3.1,3.432-2.264,6.486-3.054,7.1-3.054,7.1l-3.957-4.229c-3.957-4.229-7.737-22.191-5.959-26.03C1947.677,734.8,1947.831,734.457,1947.994,734.112Z" transform="translate(-1946.047 -725.413)" fill="#2c3a64"/>
      </g>
      <path id="Path_5276" data-name="Path 5276" d="M1994.873,860.246a3.907,3.907,0,0,1-3.66,2.521,6.35,6.35,0,0,1-5.543-2.739S1991.049,858.691,1994.873,860.246Z" transform="translate(-1929.389 -818.339)" fill="#fff"/>
      <path id="Path_5277" data-name="Path 5277" d="M2036.748,877.482s1.987-3.3,0-3.967c-10.2-3.419-13.175-1.489-13.175-1.489Z" transform="translate(-1983.78 -826.65)" fill="#ed975d"/>
      <path id="Path_5278" data-name="Path 5278" d="M2026.512,887.609s-.9-15.092,4.4-14.978,11.848,1.8,12.1,3.156c.7,3.793-5.406,16.654-8.438,17.226S2026.512,887.609,2026.512,887.609Z" transform="translate(-1990.104 -827.445)" fill="#ffb27d"/>
      <path id="Path_5279" data-name="Path 5279" d="M1858.466,1019.885c1.6,6.505,3.535,13.533,5.712,20.466,6.32,20.14,14.652,39.533,22.55,43.348.827.4,24.3.179,40.36-6.07a55.641,55.641,0,0,0,13.158-7.645c-10.759,3.237-28.475.211-45.088-5.46-17.8-6.081-18.671-28.055-18.671-28.055-5.144-12.158,1.547-53.8,1.547-53.8Z" transform="translate(-1835.718 -903.712)" fill="#143d7a"/>
      <path id="Path_5280" data-name="Path 5280" d="M2095.554,926.121s-14.255,77.487-33.09,77.533c-7.257.017-16.141-18.838-6.555-29.57,13.76-15.405,30.842-52.991,30.842-52.991S2089.143,919.591,2095.554,926.121Z" transform="translate(-2050.343 -860.93)" fill="#ffb27d"/>
      <path id="Path_5281" data-name="Path 5281" d="M1560.207,1154.675s5.943,1.008,9.049,0,22.093,6.312,19.814,6.488-13.655-1.505-16.307-1.283-4.066.347-3.027,1.3,8.4,1.214,5.832,2.033-8.884.584-11.573,0a32.58,32.58,0,0,1-7.381-2.8C1554.62,1159.38,1560.207,1154.675,1560.207,1154.675Z" transform="translate(-1391.952 -1022.854)" fill="#ffb27d"/>
    </g>
    <g id="Group_3575" data-name="Group 3575" transform="translate(11209.206 1134.113)">
      <path id="Path_5282" data-name="Path 5282" d="M1626.964,1182.959H1579.29a3.8,3.8,0,0,1,3.8-3.8h43.874Z" transform="translate(-1579.29 -1131.036)" fill="#b24940"/>
      <path id="Path_5283" data-name="Path 5283" d="M1357.748,1022.37h73.71l-17.682,51.924H1339.59Z" transform="translate(-1310.212 -1022.37)" fill="#b24940"/>
      <path id="Path_5284" data-name="Path 5284" d="M1427.925,1022.37l-17.679,51.924H1336.06l18.158-51.924Z" transform="translate(-1305.595 -1022.37)" fill="#c65447"/>
      <path id="Path_5285" data-name="Path 5285" d="M1472.5,1097.279a4.792,4.792,0,0,1-4.421,3.592,2.766,2.766,0,0,1-2.763-3.592,4.792,4.792,0,0,1,4.422-3.592A2.767,2.767,0,0,1,1472.5,1097.279Z" transform="translate(-1389.909 -1071.797)" fill="#f9ddbf"/>
    </g>
    <g id="Group_3582" data-name="Group 3582" transform="translate(11402.719 1184.137)">
      <g id="Group_3577" data-name="Group 3577" transform="translate(91.127 68.058)">
        <path id="Path_5287" data-name="Path 5287" d="M532.231,1435.937s-11.926-13.913-.736-22.751c0,0,8.174-4.949,14.839-4.547,0,0-9.444,15.837-6.389,17.412s9.252-18.405,9.252-18.405,18.6-1.8,24.585,1.073c0,0-15.9,13.013-12.553,13.788s20.525-12,20.525-12,17.313,2.946,16.39,13.507-6.888,13.822-9.51,13.542-17.959-6.136-18.293-3.987,8.9,9.169,15.363,9.5c0,0-12.206,13.461-20.318,9.576s-8.8-10.043-13.861-12.352-9.373-2.3-7.286.052,11.239,4.645,14.131,9.76,5.486,8.565-2.906,7.3-22.035-7.4-22.634-14.436Z" transform="translate(-512.073 -1407.088)" fill="#c8dbf4"/>
        <g id="Group_3576" data-name="Group 3576" transform="translate(0 17.132)">
          <path id="Path_5288" data-name="Path 5288" d="M622.41,1462.986s-47.023-1.812-57.407,11.636a34.011,34.011,0,0,1-9.364,13.141l-1.1,3s8.148-8.591,11.064-9.111C565.6,1481.653,561.042,1464.993,622.41,1462.986Z" transform="translate(-544.845 -1462.904)" fill="#c8dbf4"/>
          <path id="Path_5289" data-name="Path 5289" d="M774.226,1541.226s-10.093,7.464-10.794,20.8l1.832.164s3.223-13.791,9.05-19.183S774.226,1541.226,774.226,1541.226Z" transform="translate(-763.431 -1516.366)" fill="#c8dbf4"/>
        </g>
      </g>
      <g id="Group_3579" data-name="Group 3579" transform="translate(0 30.282)">
        <path id="Path_5290" data-name="Path 5290" d="M906.378,1333.137s18.971-10.624,10.118-25.042c0,0-7.082-8.854-14.671-11.13,0,0,4.047,21.5,0,22.006s-2.782-24.283-2.782-24.283-19.983-9.612-27.825-8.853c0,0,12.395,20.995,8.347,20.489s-17.96-21.754-17.96-21.754-20.489-3.794-23.778,8.347,2.024,18.212,5.059,18.971,22.513.506,22.007,3.036-13.659,6.577-20.995,4.3c0,0,8.094,19.983,18.718,18.972s13.912-7.589,20.489-8.094,11.383,1.265,8.094,3.036-14.418.581-19.73,5.1-9.612,7.3.253,9.322,27.572.759,31.113-6.83Z" transform="translate(-836.791 -1284.009)" fill="#c8dbf4"/>
        <g id="Group_3578" data-name="Group 3578" transform="translate(10.397 12.704)">
          <path id="Path_5291" data-name="Path 5291" d="M860.943,1325.4s53.119,17.2,59.19,36.425a40.355,40.355,0,0,0,5.059,18.465v3.794s-5.565-12.9-8.6-14.671C916.592,1369.414,928.481,1352.717,860.943,1325.4Z" transform="translate(-860.943 -1325.4)" fill="#c8dbf4"/>
          <path id="Path_5292" data-name="Path 5292" d="M847.318,1498.9s8.192,12.44,3.522,27.582l-2.108-.566s2.046-16.679-2.24-25.067S847.318,1498.9,847.318,1498.9Z" transform="translate(-783.069 -1444.009)" fill="#c8dbf4"/>
        </g>
      </g>
      <g id="Group_3581" data-name="Group 3581" transform="translate(83.328)">
        <path id="Path_5293" data-name="Path 5293" d="M496.677,1250.11s-25.008-14-13.337-33.01c0,0,9.336-11.67,19.339-14.671,0,0-5.335,28.342,0,29.009s3.668-32.01,3.668-32.01,26.341-12.67,36.678-11.67c0,0-16.338,27.675-11,27.008s23.674-28.676,23.674-28.676,27.008-5,31.343,11-2.668,24.008-6.669,25.008-29.676.667-29.009,4,18.006,8.669,27.675,5.669c0,0-10.67,26.341-24.674,25.008s-18.339-10-27.008-10.67-15,1.667-10.67,4,19.006.765,26.008,6.718,12.67,9.621-.333,12.288-36.344,1-41.013-9Z" transform="translate(-480.237 -1185.351)" fill="#d4e4f8"/>
        <g id="Group_3580" data-name="Group 3580" transform="translate(3.232 16.743)">
          <path id="Path_5294" data-name="Path 5294" d="M609.579,1239.9s-70.021,22.673-78.024,48.015c0,0,.333,11.337-6.669,24.341v5s7.336-17.005,11.337-19.339C536.223,1297.919,520.551,1275.912,609.579,1239.9Z" transform="translate(-518.347 -1239.9)" fill="#d4e4f8"/>
          <path id="Path_5295" data-name="Path 5295" d="M796.458,1468.61s-10.8,16.4-4.642,36.359l2.778-.746s-2.7-21.986,2.953-33.043S796.458,1468.61,796.458,1468.61Z" transform="translate(-789.919 -1396.253)" fill="#d4e4f8"/>
        </g>
      </g>
      <path id="Path_5296" data-name="Path 5296" d="M671.224,1624.517a48.986,48.986,0,0,0,48.986-48.986H622.238A48.986,48.986,0,0,0,671.224,1624.517Z" transform="translate(-572.298 -1455.772)" fill="#d4e4f8"/>
      <path id="Path_5297" data-name="Path 5297" d="M719.359,1729.6H620.034a6.043,6.043,0,0,1,6.044-6.043h87.238a6.043,6.043,0,0,1,6.044,6.043Z" transform="translate(-570.771 -1558.366)" fill="#d4e4f8"/>
      <rect id="Rectangle_615" data-name="Rectangle 615" width="100.697" height="1.503" transform="translate(48.329 119.759)" fill="#9fc1f4"/>
    </g>
    <g id="Group_3594" data-name="Group 3594" transform="translate(10992.369 998.852)">
      <path id="Path_5304" data-name="Path 5304" d="M2235.148,644.383h55.381a4.636,4.636,0,0,0,4.623-4.623V586.309a4.636,4.636,0,0,0-4.623-4.623h-55.381a4.636,4.636,0,0,0-4.622,4.623v53.452A4.635,4.635,0,0,0,2235.148,644.383Z" transform="translate(-2230.526 -581.686)" fill="#c0d8fb"/>
      <path id="Path_5305" data-name="Path 5305" d="M2243.875,647.8h50.582a4.235,4.235,0,0,0,4.222-4.222V594.757a4.235,4.235,0,0,0-4.222-4.222h-50.582a4.234,4.234,0,0,0-4.222,4.222v48.821A4.236,4.236,0,0,0,2243.875,647.8Z" transform="translate(-2236.855 -587.819)" fill="#dfebfd"/>
      <g id="Group_3590" data-name="Group 3590" transform="translate(7.67 7.1)">
        <g id="Group_3588" data-name="Group 3588" transform="translate(0)">
          <circle id="Ellipse_211" data-name="Ellipse 211" cx="1.339" cy="1.339" r="1.339" transform="translate(23.302)" fill="#b7d3f3"/>
          <circle id="Ellipse_212" data-name="Ellipse 212" cx="1.339" cy="1.339" r="1.339" transform="translate(12.67 2.542)" fill="#b7d3f3"/>
          <circle id="Ellipse_213" data-name="Ellipse 213" cx="1.339" cy="1.339" r="1.339" transform="translate(3.858 10.369)" fill="#b7d3f3"/>
          <circle id="Ellipse_214" data-name="Ellipse 214" cx="1.339" cy="1.339" r="1.339" transform="translate(0 21.963)" fill="#b7d3f3"/>
          <circle id="Ellipse_215" data-name="Ellipse 215" cx="1.339" cy="1.339" r="1.339" transform="translate(3.288 34.778)" fill="#b7d3f3"/>
          <circle id="Ellipse_216" data-name="Ellipse 216" cx="1.339" cy="1.339" r="1.339" transform="translate(11.694 43.206)" fill="#b7d3f3"/>
          <circle id="Ellipse_217" data-name="Ellipse 217" cx="1.339" cy="1.339" r="1.339" transform="translate(23.302 46.603)" fill="#b7d3f3"/>
        </g>
        <g id="Group_3589" data-name="Group 3589" transform="translate(33.981 2.543)">
          <circle id="Ellipse_218" data-name="Ellipse 218" cx="1.339" cy="1.339" r="1.339" transform="translate(0)" fill="#b7d3f3"/>
          <circle id="Ellipse_219" data-name="Ellipse 219" cx="1.339" cy="1.339" r="1.339" transform="translate(8.809 7.827)" fill="#b7d3f3"/>
          <circle id="Ellipse_220" data-name="Ellipse 220" cx="1.339" cy="1.339" r="1.339" transform="translate(12.667 19.42)" fill="#b7d3f3"/>
          <circle id="Ellipse_221" data-name="Ellipse 221" cx="1.339" cy="1.339" r="1.339" transform="translate(9.38 32.235)" fill="#b7d3f3"/>
          <circle id="Ellipse_222" data-name="Ellipse 222" cx="1.339" cy="1.339" r="1.339" transform="translate(0.973 40.663)" fill="#b7d3f3"/>
        </g>
      </g>
      <g id="Group_3593" data-name="Group 3593" transform="translate(22.305 13.678)">
        <circle id="Ellipse_223" data-name="Ellipse 223" cx="1.339" cy="1.339" r="1.339" transform="translate(7.691 15.385)" fill="#b7d3f3"/>
        <g id="Group_3591" data-name="Group 3591" transform="translate(8.846)">
          <rect id="Rectangle_620" data-name="Rectangle 620" width="0.365" height="16.724" transform="translate(0)" fill="#b7d3f3"/>
        </g>
        <g id="Group_3592" data-name="Group 3592" transform="translate(0 9.33)">
          <rect id="Rectangle_621" data-name="Rectangle 621" width="1.097" height="11.272" transform="matrix(-0.617, 0.787, -0.787, -0.617, 9.543, 6.96)" fill="#b7d3f3"/>
        </g>
      </g>
    </g>
    <g id="Group_3597" data-name="Group 3597" transform="translate(11043.628 1185.691)">
      <path id="Path_5306" data-name="Path 5306" d="M1437.481,1200.124H1078.846a4.855,4.855,0,0,1-4.855-4.855h0a4.855,4.855,0,0,1,4.855-4.855h358.635a4.855,4.855,0,0,1,4.855,4.855h0A4.858,4.858,0,0,1,1437.481,1200.124Z" transform="translate(-1073.991 -1190.414)" fill="#77a4e5"/>
      <g id="Group_3595" data-name="Group 3595" transform="translate(325.628 4.857)">
        <path id="Path_5307" data-name="Path 5307" d="M1142.92,1371.049l.106-.014a2.429,2.429,0,0,0,2.007-2.742l-19.321-162.055-10.827.336,25.966,162.846A1.88,1.88,0,0,0,1142.92,1371.049Z" transform="translate(-1114.885 -1206.238)" fill="#77a4e5"/>
      </g>
      <g id="Group_3596" data-name="Group 3596" transform="translate(12.168 4.857)">
        <path id="Path_5308" data-name="Path 5308" d="M2138.284,1371.049l-.106-.014a2.43,2.43,0,0,1-2.007-2.742l19.321-162.055,10.827.336-25.965,162.846A1.881,1.881,0,0,1,2138.284,1371.049Z" transform="translate(-2136.152 -1206.238)" fill="#77a4e5"/>
      </g>
    </g>
    <circle id="Ellipse_224" data-name="Ellipse 224" cx="9.819" cy="9.819" r="9.819" transform="translate(11208.432 980.74)" fill="#afdff9"/>
    <circle id="Ellipse_225" data-name="Ellipse 225" cx="5.609" cy="5.609" r="5.609" transform="translate(11177.378 1007.53)" fill="#afdff9"/>
    <circle id="Ellipse_226" data-name="Ellipse 226" cx="3.288" cy="3.288" r="3.288" transform="translate(11165.149 1035.591)" fill="#afdff9"/>
  </g>
</svg>
