<svg id="Layer_x0020_1" xmlns="http://www.w3.org/2000/svg" width="287.15" height="57.107" viewBox="0 0 287.15 57.107">
  <g id="_2156046154400" transform="translate(0)">
    <path id="Path_4094" data-name="Path 4094" d="M175.244,10.166a5.083,5.083,0,1,1,5.083-5.083A5.085,5.085,0,0,1,175.244,10.166Z" transform="translate(-158.899 0)" fill="#cd3033" fill-rule="evenodd"/>
    <path id="Path_4095" data-name="Path 4095" d="M22.81,24.125a6.633,6.633,0,0,0,.046-.748,6.484,6.484,0,0,0-.822-3.163,28.05,28.05,0,0,1,10.172-.293v4.045a23.951,23.951,0,0,0-9.4.159ZM34.792,66.363V54.171h0Zm8.437-6.511s0-.357-.013-1.095c.009.738.013,1.095.013,1.095ZM43.2,57.1c-2.8-4.864-9.343-5.071-10.37-5.077-.089,0-.138,0-.138,0l0,.021a5.133,5.133,0,0,0-.885-.071c-1.283,0-3.124-.028-4.442-.028H27.15v0H21.428s-.114.007-.316.007c-1.6,0-8.7-.42-8.787-7.881-.066-5.98-.1-8.7-.1-8.7a7.334,7.334,0,0,1,.343-1.616,8.151,8.151,0,0,0-.272,1.1,9.158,9.158,0,0,0,.756,3.031c1.205,2.938,4.215,4.534,7.526,5q.828.129,1.765.188a4.571,4.571,0,0,0,1.311.171c1.29,0,3.147.029,4.467.029H28.3v0h5.723s.114-.007.316-.007c1.6,0,8.7.419,8.787,7.88.028,2.575.05,4.547.067,5.957ZM15.677,29.923h0Zm.009,0,.011-.006a8.325,8.325,0,0,1,3.991-1.053c.121,0,.237,0,.347,0s.216,0,.317,0,.212,0,.312-.009h0c-.1.007-.2.009-.312.009s-.207,0-.317,0-.226,0-.347,0A8.325,8.325,0,0,0,15.7,29.912Zm5.227,44.6a27.907,27.907,0,0,1-10.6-48.682,6.524,6.524,0,0,0,2.568,3.051,23.908,23.908,0,0,0-.327,36.951V48.843c2.232,3.674,6.857,4.077,8.354,4.106Z" transform="translate(0 -18.294)" fill="#f37135" fill-rule="evenodd"/>
    <path id="Path_4096" data-name="Path 4096" d="M348.309,84.916a28.094,28.094,0,0,1-5.2-.491V80.36a23.921,23.921,0,0,0,19.484-42.535V54.919c-2.519-2.924-6.73-3.132-7.85-3.132-.169,0-.286,0-.34.006V29.78a27.905,27.905,0,0,1-6.1,55.137Z" transform="translate(-320.403 -27.809)" fill="#cd3033" fill-rule="evenodd"/>
    <path id="Path_4097" data-name="Path 4097" d="M208.3,197.136V184.943a2.3,2.3,0,0,0-2.106-2.121l0-.021c3.841-.137,8.592,1.56,10.507,5.075,0,.075.017,1.438.019,1.652.009.737.013,1.095.013,1.095a7.208,7.208,0,0,1-7.458,6.51c-.324,0-.649,0-.979,0Zm-12.424-23.289-.024,0q-.938-.058-1.765-.188c-.863-.15-5.771-.823-7.526-5a9.158,9.158,0,0,1-.756-3.031,8.124,8.124,0,0,1,.272-1.1,7.288,7.288,0,0,1,7.12-4.895c.121,0,.237,0,.347,0s.215,0,.317,0,.212,0,.312-.009v12.193A2.159,2.159,0,0,0,195.871,173.847Z" transform="translate(-173.504 -149.066)" fill="#cd3033" fill-rule="evenodd"/>
    <path id="Path_4098" data-name="Path 4098" d="M183.2,28.874l.023,1.989a7.929,7.929,0,0,0,4.016,3.971,12.861,12.861,0,0,0,3.511,1.026h0a2.886,2.886,0,0,1-.7-1.6l-.012-.179,0-11.448a6.8,6.8,0,0,0-4.807,1.667A6.341,6.341,0,0,0,183.2,28.874Zm4.515-16.634a4.285,4.285,0,1,0-1.2,8.4h0a4.285,4.285,0,0,0,1.2-8.4Zm21.195,8.345c1.159-1.04,2.343-2.063,3.543-3.06a26.751,26.751,0,0,0-5.869-2.791c-.531-.176-1.071-.337-1.613-.478V24.283h0l1.525-1.471Q207.683,21.683,208.909,20.585Z" transform="translate(-170.17 -11.271)" fill="#cd5a3d" fill-rule="evenodd"/>
    <path id="Path_4099" data-name="Path 4099" d="M983.923,203.35v26.874q0,.751-.807.75h-2.989q-.806,0-.807-.75V203.35q0-.75.807-.75h2.989Q983.923,202.6,983.923,203.35Zm9.2,27.625h-2.989q-.806,0-.806-.75V203.35q0-.75.806-.75h2.989q.807,0,.807.75v11.032q0,.441.569.441h10.012q.475,0,.474-.441V203.35q0-.75.807-.75h3.037q.806,0,.806.75v26.874q0,.751-.806.75h-3.037q-.806,0-.807-.75V219.06q0-.441-.474-.441H994.5q-.569,0-.569.441v11.164Q993.93,230.975,993.124,230.975Zm21.11-6.884v-1.148q0-.75.807-.75h3.037q.806,0,.807.75v.794a3.506,3.506,0,0,0,.878,2.67,4.225,4.225,0,0,0,2.918.817h3.274a4.169,4.169,0,0,0,2.942-.86,3.738,3.738,0,0,0,.9-2.8v-1.015a2.583,2.583,0,0,0-1.163-2.229,6.52,6.52,0,0,0-2.871-1.059q-1.707-.243-3.748-.684a35.034,35.034,0,0,1-3.748-1.015,5.809,5.809,0,0,1-2.87-2.163,6.7,6.7,0,0,1-1.163-4.059v-1.854a6.561,6.561,0,0,1,1.97-5.053,7.669,7.669,0,0,1,5.433-1.831h5.029a7.74,7.74,0,0,1,5.48,1.831,6.561,6.561,0,0,1,1.969,5.053v.971q0,.751-.807.75h-3.037q-.806,0-.806-.75v-.574a3.569,3.569,0,0,0-.878-2.713,4.225,4.225,0,0,0-2.918-.817h-2.989a4.076,4.076,0,0,0-2.918.86,4.015,4.015,0,0,0-.878,2.934v1.368q0,1.986,3.084,2.692,1.376.309,3.013.529a26.912,26.912,0,0,1,3.3.662,14.346,14.346,0,0,1,3.037,1.17,5.575,5.575,0,0,1,2.23,2.206,7.085,7.085,0,0,1,.854,3.6v1.721a6.561,6.561,0,0,1-1.969,5.053,7.668,7.668,0,0,1-5.433,1.831h-5.314a7.756,7.756,0,0,1-5.456-1.831A6.52,6.52,0,0,1,1014.234,224.091Zm42.163,6.884h-5.5a7.621,7.621,0,0,1-5.433-1.809,6.577,6.577,0,0,1-1.921-5.031V209.44a6.561,6.561,0,0,1,1.921-5.053,7.679,7.679,0,0,1,5.433-1.788h5.5a7.7,7.7,0,0,1,5.41,1.788,6.518,6.518,0,0,1,1.945,5.053v2.118q0,.8-.854.795h-2.989a.708.708,0,0,1-.807-.795v-1.942q0-3.265-3.416-3.265h-4.128q-3.416,0-3.416,3.265v14.342q0,3.266,3.416,3.266h4.128q3.416,0,3.416-3.266v-1.941a.708.708,0,0,1,.807-.795h2.989q.855,0,.854.795v2.118a6.535,6.535,0,0,1-1.945,5.031,7.638,7.638,0,0,1-5.41,1.809Zm13.614,0H1066.6q-.665,0-.475-.75l8.256-26.874a1.06,1.06,0,0,1,1.139-.75h4.745a1.017,1.017,0,0,1,1.139.75l8.255,26.874q.19.751-.521.75h-3.369a.878.878,0,0,1-.593-.154,1.159,1.159,0,0,1-.261-.6l-1.8-5.736h-10.439l-1.8,5.736a.844.844,0,0,1-.854.75Zm7.781-24.139-4.176,14.121h8.588l-4.222-14.121Zm18.12,24.139h-2.989q-.807,0-.807-.75V203.35q0-.75.807-.75h11.1a7.671,7.671,0,0,1,5.433,1.831,6.563,6.563,0,0,1,1.969,5.053v3.707q0,5.075-4.508,6.4v.177l5.267,10.326q.522.882-.617.883h-2.942a1.433,1.433,0,0,1-1.471-.75l-5.077-10.149h-4.792q-.57,0-.57.441v9.708q0,.751-.807.75Zm1.329-14.43h6.026q3.511,0,3.511-3.222v-3.707q0-3.265-3.511-3.265h-6.026q-.522,0-.522.441V216.1Q1096.72,216.545,1097.242,216.545Zm34.823,14.43h-15.184q-.806,0-.806-.75V203.35q0-.75.806-.75h15.184a.667.667,0,0,1,.759.75v2.25a.667.667,0,0,1-.759.75h-10.818q-.569,0-.569.441v7.458q0,.441.569.441h9.158q.854,0,.854.75v2.251q0,.75-.854.75h-9.158q-.569,0-.569.441v7.855q0,.484.569.485h10.818a.667.667,0,0,1,.759.75v2.251a.667.667,0,0,1-.759.75Zm21.015,0H1137.9q-.807,0-.807-.75V203.35q0-.75.807-.75h15.183a.667.667,0,0,1,.759.75v2.25a.667.667,0,0,1-.759.75h-10.818q-.57,0-.569.441v7.458q0,.441.569.441h9.157q.854,0,.854.75v2.251q0,.75-.854.75h-9.157q-.57,0-.569.441v7.855q0,.484.569.485h10.818a.667.667,0,0,1,.759.75v2.251a.667.667,0,0,1-.759.75Zm8.822,0h-2.989q-.806,0-.806-.75V203.35q0-.75.806-.75h11.1a7.669,7.669,0,0,1,5.433,1.831,6.563,6.563,0,0,1,1.969,5.053v3.707q0,5.075-4.508,6.4v.177l5.267,10.326q.522.882-.617.883h-2.942a1.433,1.433,0,0,1-1.471-.75l-5.077-10.149h-4.792q-.569,0-.569.441v9.708q0,.751-.807.75Zm1.328-14.43h6.026q3.511,0,3.511-3.222v-3.707q0-3.265-3.511-3.265h-6.026q-.521,0-.521.441V216.1Q1162.709,216.545,1163.23,216.545Zm18.264,7.546v-1.148q0-.75.806-.75h3.037q.806,0,.807.75v.794a3.506,3.506,0,0,0,.878,2.67,4.226,4.226,0,0,0,2.918.817h3.274a4.168,4.168,0,0,0,2.942-.86,3.736,3.736,0,0,0,.9-2.8v-1.015a2.583,2.583,0,0,0-1.163-2.229,6.521,6.521,0,0,0-2.871-1.059q-1.707-.243-3.748-.684a34.989,34.989,0,0,1-3.748-1.015,5.806,5.806,0,0,1-2.871-2.163,6.7,6.7,0,0,1-1.162-4.059v-1.854a6.561,6.561,0,0,1,1.969-5.053,7.669,7.669,0,0,1,5.433-1.831h5.03a7.741,7.741,0,0,1,5.48,1.831,6.563,6.563,0,0,1,1.969,5.053v.971q0,.751-.807.75h-3.036q-.807,0-.807-.75v-.574a3.57,3.57,0,0,0-.878-2.713,4.224,4.224,0,0,0-2.918-.817h-2.989a4.078,4.078,0,0,0-2.918.86,4.015,4.015,0,0,0-.877,2.934v1.368q0,1.986,3.084,2.692,1.376.309,3.013.529a26.9,26.9,0,0,1,3.3.662,14.336,14.336,0,0,1,3.037,1.17,5.575,5.575,0,0,1,2.23,2.206,7.085,7.085,0,0,1,.854,3.6v1.721a6.563,6.563,0,0,1-1.969,5.053,7.67,7.67,0,0,1-5.433,1.831h-5.314a7.757,7.757,0,0,1-5.456-1.831,6.519,6.519,0,0,1-1.993-5.053Z" transform="translate(-914.509 -189.192)" fill="#cd3033"/>
    <path id="Path_4100" data-name="Path 4100" d="M2317.378,720.086a4.129,4.129,0,0,0-.754.179,1.706,1.706,0,0,0-.687.416,3.2,3.2,0,0,0-.429.512,2.642,2.642,0,0,0-.256.531,4.817,4.817,0,0,0-.184.64,3.3,3.3,0,0,0-.073.7l-.018.394a4.353,4.353,0,0,0,.233,1.446,2.437,2.437,0,0,0,1.72,1.605,4.7,4.7,0,0,0,1.121.115h2.325v-1.144h-2.27a3.181,3.181,0,0,1-.691-.06,1.17,1.17,0,0,1-.562-.394,1.729,1.729,0,0,1-.3-1.157h3.825v-1.144h-3.825a1.516,1.516,0,0,1,.407-1.149,1.6,1.6,0,0,1,1.149-.389h2.27V720.04h-2.288A5.5,5.5,0,0,0,2317.378,720.086Zm-21.966,6.534h1.446V720.04h-1.446Zm8.73-1.84-2.682-4.74H2299.7v6.579h1.418l-.054-4.969,2.819,4.969h1.592V720.04h-1.391Zm3.458-3.578h2.105v5.417h1.437V721.2h2.122v-1.144H2307.6Zm23.911,4.21a.837.837,0,0,1-.457-.357,1.2,1.2,0,0,1-.188-.531,4.533,4.533,0,0,1-.032-.463V720.04h-1.373v3.917a5.785,5.785,0,0,0,.046.741,2.852,2.852,0,0,0,.169.672,1.777,1.777,0,0,0,.389.59,1.959,1.959,0,0,0,.613.431,2.3,2.3,0,0,0,.646.192,5.606,5.606,0,0,0,.682.036h1.977V725.53h-1.648a2.4,2.4,0,0,1-.823-.119Zm-6.561,0a.836.836,0,0,1-.457-.357,1.2,1.2,0,0,1-.188-.531,4.533,4.533,0,0,1-.032-.463V720.04H2322.9v3.917a5.785,5.785,0,0,0,.046.741,2.84,2.84,0,0,0,.17.672,1.773,1.773,0,0,0,.389.59,1.959,1.959,0,0,0,.613.431,2.3,2.3,0,0,0,.646.192,5.606,5.606,0,0,0,.682.036h1.977V725.53h-1.648A2.4,2.4,0,0,1,2324.95,725.412Zm50.147-4.228h2.269V720.04h-2.288a5.51,5.51,0,0,0-.709.046,4.15,4.15,0,0,0-.755.179,1.7,1.7,0,0,0-.686.416,3.178,3.178,0,0,0-.43.512,2.7,2.7,0,0,0-.257.531,5.048,5.048,0,0,0-.183.64,3.33,3.33,0,0,0-.073.7l-.019.394a4.378,4.378,0,0,0,.233,1.446,2.438,2.438,0,0,0,1.721,1.605,4.7,4.7,0,0,0,1.121.115h2.324v-1.144H2375.1a3.173,3.173,0,0,1-.691-.06,1.171,1.171,0,0,1-.563-.394,1.729,1.729,0,0,1-.3-1.157h3.825v-1.144h-3.825a1.516,1.516,0,0,1,.407-1.149A1.6,1.6,0,0,1,2375.1,721.184Zm-8.2-1.1a4.136,4.136,0,0,0-.755.179,1.707,1.707,0,0,0-.687.416,3.168,3.168,0,0,0-.429.512,2.656,2.656,0,0,0-.257.531,4.781,4.781,0,0,0-.183.64,3.25,3.25,0,0,0-.073.7v.394a4.366,4.366,0,0,0,.232,1.446,2.625,2.625,0,0,0,.789,1.144,2.6,2.6,0,0,0,.926.462,4.674,4.674,0,0,0,1.118.115h2.316v-1.144h-2.265a3.183,3.183,0,0,1-.685-.06.975.975,0,0,1-.492-.3,1.653,1.653,0,0,1-.269-.457,1.945,1.945,0,0,1-.123-.462c-.019-.144-.031-.265-.037-.367s-.01-.193-.01-.279v-.22a3.779,3.779,0,0,1,.046-.59,5.181,5.181,0,0,1,.146-.65,1.281,1.281,0,0,1,.457-.641,1.49,1.49,0,0,1,.961-.289h2.27V720.04h-2.289A5.5,5.5,0,0,0,2366.9,720.086Zm-6.09,4.694-2.681-4.74h-1.756v6.579h1.417l-.055-4.969,2.818,4.969h1.592V720.04h-1.391Zm-10.116-4.694a4.129,4.129,0,0,0-.754.179,1.7,1.7,0,0,0-.686.416,3.213,3.213,0,0,0-.431.512,2.723,2.723,0,0,0-.256.531,5.089,5.089,0,0,0-.183.64,3.329,3.329,0,0,0-.072.7l-.019.394a4.36,4.36,0,0,0,.233,1.446,2.436,2.436,0,0,0,1.721,1.605,4.7,4.7,0,0,0,1.121.115h2.324v-1.144h-2.27a3.163,3.163,0,0,1-.69-.06,1.17,1.17,0,0,1-.563-.394,1.729,1.729,0,0,1-.3-1.157h3.825v-1.144h-3.825a1.517,1.517,0,0,1,.407-1.149,1.6,1.6,0,0,1,1.148-.389h2.27V720.04h-2.288a5.511,5.511,0,0,0-.71.046Zm-14.518,6.534h1.445V720.04h-1.445Zm5.441-6.333a2.746,2.746,0,0,0-.742.508,2.629,2.629,0,0,0-.435.608,3.671,3.671,0,0,0-.293.76,3.459,3.459,0,0,0-.11.9v.394a4.366,4.366,0,0,0,.232,1.446,2.329,2.329,0,0,0,.648,1.024,2.49,2.49,0,0,0,.689.457c.183.068.326.115.429.142a2,2,0,0,0,.279.055q.123.013.3.041h3.484v-3.9h-3.248v1.161h1.839v1.537h-1.555a1.316,1.316,0,0,1-1.231-.54,2.905,2.905,0,0,1-.325-1.5v-.1a3.845,3.845,0,0,1,.137-1.062,1.48,1.48,0,0,1,.476-.754,1.439,1.439,0,0,1,.943-.279h2.964V720.04h-2.964A3.523,3.523,0,0,0,2341.618,720.287Zm-90.854,2.865h-1.675V721.22h1.6a2.013,2.013,0,0,1,.975.2.807.807,0,0,1,.353.773Q2252.018,723.152,2250.764,723.152Zm1.875-2.772a1.941,1.941,0,0,0-.8-.28,8.747,8.747,0,0,0-1.134-.06h-3v6.579h1.381v-2.306h2.453a1.511,1.511,0,0,0,.312-.032c.1-.021.242-.054.416-.1a1.8,1.8,0,0,0,.595-.322,1.584,1.584,0,0,0,.512-.7,2.564,2.564,0,0,0,.179-.956,2.523,2.523,0,0,0-.229-1.067A1.615,1.615,0,0,0,2252.64,720.38Zm-11.42,3.5.97-2.516,1,2.516Zm.284-3.843-2.764,6.58h1.464l.567-1.574h2.865l.6,1.574h1.537l-2.809-6.58Zm45.731,4.315a1.517,1.517,0,0,1-.353.764.976.976,0,0,1-.494.3,3.2,3.2,0,0,1-.687.06h-1.6v-4.292h1.6c.134,0,.262.006.384.018a2.873,2.873,0,0,1,.389.069.928.928,0,0,1,.443.325,1.469,1.469,0,0,1,.316.732,6.654,6.654,0,0,1,0,2.027Zm1.084-3.144a2.019,2.019,0,0,0-.924-.846,3.753,3.753,0,0,0-1.675-.325h-3v6.579h3.029a4.962,4.962,0,0,0,1.145-.115,3.267,3.267,0,0,0,1.2-.713,2.95,2.95,0,0,0,.721-2.329v-.4a3.565,3.565,0,0,0-.11-.911A4.566,4.566,0,0,0,2288.319,721.211Zm-29.3,1.94h-1.674V721.22h1.6a2.009,2.009,0,0,1,.974.2.8.8,0,0,1,.353.773Q2260.272,723.152,2259.018,723.152Zm1.876-2.772a1.95,1.95,0,0,0-.8-.28,8.743,8.743,0,0,0-1.135-.06h-3v6.579h1.381v-2.306h2.453a1.511,1.511,0,0,0,.312-.032c.1-.021.242-.054.416-.1a1.8,1.8,0,0,0,.595-.322,1.591,1.591,0,0,0,.512-.7,2.626,2.626,0,0,0-.049-2.022A1.619,1.619,0,0,0,2260.895,720.38Zm16.146-.294a4.139,4.139,0,0,0-.754.179,1.7,1.7,0,0,0-.687.416,3.243,3.243,0,0,0-.43.512,2.737,2.737,0,0,0-.256.531,4.892,4.892,0,0,0-.183.64,3.281,3.281,0,0,0-.073.7l-.018.394a4.36,4.36,0,0,0,.233,1.446,2.436,2.436,0,0,0,1.721,1.605,4.7,4.7,0,0,0,1.12.115h2.324v-1.144h-2.269a3.179,3.179,0,0,1-.691-.06,1.17,1.17,0,0,1-.562-.394,1.725,1.725,0,0,1-.3-1.157h3.825v-1.144h-3.825a1.518,1.518,0,0,1,.407-1.149,1.6,1.6,0,0,1,1.148-.389h2.269V720.04h-2.288A5.5,5.5,0,0,0,2277.041,720.086Zm-6.263,6.534h1.445v-6.58h-1.445Zm-4.668-1.208a.836.836,0,0,1-.457-.357,1.183,1.183,0,0,1-.188-.531,4.329,4.329,0,0,1-.032-.463V720.04h-1.373v3.917a5.875,5.875,0,0,0,.046.741,2.876,2.876,0,0,0,.17.672,1.788,1.788,0,0,0,.389.59,1.954,1.954,0,0,0,.614.431,2.3,2.3,0,0,0,.645.192,5.608,5.608,0,0,0,.682.036h1.976V725.53h-1.647A2.4,2.4,0,0,1,2266.11,725.412Z" transform="translate(-2090.582 -672.388)" fill="#4d4d4d"/>
    <path id="Path_4101" data-name="Path 4101" d="M28.822,53.377a8.057,8.057,0,0,1-4.545-4.2l.07,6.18c.042,3.547,1.809,5.362,3.874,6.265a9.682,9.682,0,0,0,2.21.651h0q.573-.988,1.191-1.978c1.034-1.659,2.153-3.322,3.344-4.961H34.96a5.627,5.627,0,0,1-1.594-.2c-.135-.039-.26-.086-.383-.132a3.142,3.142,0,0,1-1.079-.709l-.1-.113a13.469,13.469,0,0,1-2.981-.8Zm10.11-19.3h.208a24.84,24.84,0,0,1,3.495.248V31.9a27.325,27.325,0,0,0-3.485-.222h-.177a27.413,27.413,0,0,0-2.885.171c-.564.062-1.123.144-1.68.241a7.381,7.381,0,0,1,.469,2.347h0c.4-.069.8-.129,1.2-.179A24.792,24.792,0,0,1,38.932,34.072ZM15.573,66.279a24.677,24.677,0,0,1,7.249-26.056,7.537,7.537,0,0,1-1.541-1.833,27.535,27.535,0,0,0-4.758,5.436,27.105,27.105,0,0,0,6.667,36.9h0q.262-1.283.589-2.565l-.507-.428a24.614,24.614,0,0,1-7.7-11.458Zm12.15,1.114q.656-1.384,1.39-2.76a12.634,12.634,0,0,1-1.245-.374,10.641,10.641,0,0,1-1.891-.884,8.735,8.735,0,0,1-1.4-1.036V75.365h0q.586-1.869,1.314-3.734Q26.718,69.51,27.723,67.394Z" transform="translate(-11.225 -29.583)" fill="#f5894e" fill-rule="evenodd"/>
  </g>
</svg>
