<svg xmlns="http://www.w3.org/2000/svg" width="140.699" height="115.864" viewBox="0 0 140.699 115.864">
  <g id="plus" transform="translate(-98.715 -25.313)">
    <path id="Path_5430" data-name="Path 5430" d="M109.116,25.313a10.413,10.413,0,0,0-10.4,10.4V73.395a3.439,3.439,0,1,0,6.879,0V35.713a3.53,3.53,0,0,1,3.523-3.521h70.235a3.525,3.525,0,0,1,3.521,3.521V88.849a31.839,31.839,0,0,0,0,40.722V130.7a3.525,3.525,0,0,1-3.521,3.521H109.116a3.53,3.53,0,0,1-3.523-3.521V87.152a3.439,3.439,0,1,0-6.879,0V130.7a10.413,10.413,0,0,0,10.4,10.4h70.235a10.4,10.4,0,0,0,9.429-6.016c24.779,17.871,58.748-6.456,48.884-36a3.441,3.441,0,0,0-6.526,2.182,25.048,25.048,0,0,1-23.731,32.958c-21.984,0-33.566-26.853-17.654-42.721a24.988,24.988,0,0,1,34.975-.349,3.44,3.44,0,0,0,4.761-4.967,31.85,31.85,0,0,0-39.736-3.53V35.713a10.41,10.41,0,0,0-10.4-10.4Zm0,0" fill="#a83528"/>
    <path id="Path_5431" data-name="Path 5431" d="M186.086,76.944h27.623a8.38,8.38,0,0,0,8.37-8.37V63.08a8.379,8.379,0,0,0-8.37-8.37H186.086a8.377,8.377,0,0,0-8.368,8.37v5.494A8.379,8.379,0,0,0,186.086,76.944ZM184.6,63.08a1.51,1.51,0,0,1,1.489-1.491h27.623A1.511,1.511,0,0,1,215.2,63.08v5.494a1.509,1.509,0,0,1-1.491,1.489H186.086a1.509,1.509,0,0,1-1.489-1.489Zm0,0" transform="translate(-43.694 -16.259)" fill="#a83528"/>
    <path id="Path_5432" data-name="Path 5432" d="M127.6,64.367h13.4a3.439,3.439,0,0,0,0-6.879H127.6a3.439,3.439,0,1,0,0,6.879Zm0,0" transform="translate(-14.073 -17.795)" fill="#a83528"/>
    <path id="Path_5433" data-name="Path 5433" d="M127.6,93.164h13.4a3.439,3.439,0,0,0,0-6.879H127.6a3.439,3.439,0,1,0,0,6.879Zm0,0" transform="translate(-14.073 -33.722)" fill="#a83528"/>
    <path id="Path_5434" data-name="Path 5434" d="M177.719,143.844a8.377,8.377,0,0,0,8.368,8.368h14.531a8.377,8.377,0,0,0,8.37-8.368v-5.5a8.377,8.377,0,0,0-8.37-8.368H186.087a8.377,8.377,0,0,0-8.368,8.368Zm6.879-5.5a1.51,1.51,0,0,1,1.489-1.489h14.531a1.51,1.51,0,0,1,1.491,1.489v5.5a1.509,1.509,0,0,1-1.491,1.489H186.087a1.509,1.509,0,0,1-1.489-1.489Zm0,0" transform="translate(-43.694 -57.888)" fill="#a83528"/>
    <path id="Path_5435" data-name="Path 5435" d="M127.6,139.636h8.909a3.439,3.439,0,1,0,0-6.879H127.6a3.439,3.439,0,1,0,0,6.879Zm0,0" transform="translate(-14.073 -59.424)" fill="#a83528"/>
    <path id="Path_5436" data-name="Path 5436" d="M127.6,168.433h13.4a3.439,3.439,0,0,0,0-6.879H127.6a3.439,3.439,0,0,0,0,6.879Zm0,0" transform="translate(-14.073 -75.35)" fill="#a83528"/>
    <path id="Path_5437" data-name="Path 5437" d="M177.719,219.114a8.379,8.379,0,0,0,8.368,8.37h21.5a8.379,8.379,0,0,0,8.368-8.37v-5.5a8.377,8.377,0,0,0-8.368-8.368h-21.5a8.377,8.377,0,0,0-8.368,8.368Zm6.879-5.5a1.51,1.51,0,0,1,1.489-1.491h21.5a1.51,1.51,0,0,1,1.489,1.491v5.494a1.51,1.51,0,0,1-1.489,1.491h-21.5a1.51,1.51,0,0,1-1.489-1.491Zm0,0" transform="translate(-43.694 -99.517)" fill="#a83528"/>
    <path id="Path_5438" data-name="Path 5438" d="M127.6,214.906h13.4a3.439,3.439,0,0,0,0-6.879H127.6a3.439,3.439,0,1,0,0,6.879Zm0,0" transform="translate(-14.073 -101.053)" fill="#a83528"/>
    <path id="Path_5439" data-name="Path 5439" d="M127.6,243.7h7.56a3.439,3.439,0,0,0,0-6.879H127.6a3.439,3.439,0,0,0,0,6.879Zm0,0" transform="translate(-14.073 -116.979)" fill="#a83528"/>
    <path id="Path_5440" data-name="Path 5440" d="M320.481,208.914a3.438,3.438,0,0,0,3.439-3.439V195.033h10.442a3.439,3.439,0,1,0,0-6.879H323.92V177.712a3.439,3.439,0,0,0-6.879,0v10.442H306.6a3.439,3.439,0,1,0,0,6.879h10.442v10.442A3.439,3.439,0,0,0,320.481,208.914Zm0,0" transform="translate(-113.071 -82.384)" fill="#a83528"/>
  </g>
</svg>
