<svg id="hr" xmlns="http://www.w3.org/2000/svg" xmlns:xlink="http://www.w3.org/1999/xlink" width="78.392" height="78.392" viewBox="0 0 78.392 78.392">
  <defs>
    <linearGradient id="linear-gradient" x1="0.63" y1="1" x2="0.633" gradientUnits="objectBoundingBox">
      <stop offset="0" stop-color="#f37135"/>
      <stop offset="1" stop-color="#cd3033"/>
    </linearGradient>
  </defs>
  <path id="Path_4387" data-name="Path 4387" d="M200.851,20.4l9.308-7.757h12.186V0H192V12.644h8.851Zm-6.322-10.285V2.529h25.288v7.586H209.244L203.379,15V10.115Zm0,0" transform="translate(-161.655 0)" fill="url(#linear-gradient)"/>
  <path id="Path_4388" data-name="Path 4388" d="M224,32h2.529v2.529H224Zm0,0" transform="translate(-188.597 -26.942)" fill="url(#linear-gradient)"/>
  <path id="Path_4389" data-name="Path 4389" d="M256,32h10.115v2.529H256Zm0,0" transform="translate(-215.54 -26.942)" fill="url(#linear-gradient)"/>
  <path id="Path_4390" data-name="Path 4390" d="M336,32h2.529v2.529H336Zm0,0" transform="translate(-282.896 -26.942)" fill="url(#linear-gradient)"/>
  <path id="Path_4391" data-name="Path 4391" d="M64.363,176.9l-1.022-10.235a8.856,8.856,0,0,0,7.465-8.73V141.494H65.748v-1.747a4.549,4.549,0,0,0-2.463-4.054,7.556,7.556,0,0,0,2.463-5.579v-2.529a7.586,7.586,0,0,0-15.173,0v2.529a7.592,7.592,0,0,0,5,7.122l-6.786,6.786H41.7a5.071,5.071,0,0,0-3.64-4.532l-5.183-1.479v-2.258a7.56,7.56,0,0,0,2.529-5.639v-2.529a7.586,7.586,0,0,0-15.173,0v2.529a7.564,7.564,0,0,0,2.529,5.639v2.26l-5.183,1.479a5.077,5.077,0,0,0-3.668,4.863v4.725H8.85v7.586h2.529V176.9H0v2.529H78.392V176.9ZM53.1,156.667v-5.8l8.959-8.959a3.961,3.961,0,0,0,1.119-2.425,2.059,2.059,0,0,1,.036.263V155.4a3.8,3.8,0,0,1-3.793,3.793H49.311v-2.529Zm-3.793,10.115h6.442L56.764,176.9H49.311Zm8.983,0h2.516L61.822,176.9H59.305ZM65.748,155.4V144.023h2.529v13.908a6.329,6.329,0,0,1-6.322,6.322H49.311v-2.529H59.426A6.329,6.329,0,0,0,65.748,155.4ZM53.1,130.115v-2.529a5.058,5.058,0,0,1,10.115,0v2.529a5.058,5.058,0,1,1-10.115,0Zm-3.27,16.437,8.436-8.436a1.418,1.418,0,0,1,2.005,2.005l-8.959,8.959H37.931a1.264,1.264,0,0,1,0-2.529ZM22.759,127.586a5.058,5.058,0,1,1,10.115,0v2.529a5.058,5.058,0,1,1-10.115,0ZM27.816,137.7a7.549,7.549,0,0,0,2.529-.443v1.358a3.233,3.233,0,0,1-2.529,1.613,3.233,3.233,0,0,1-2.529-1.613v-1.358A7.549,7.549,0,0,0,27.816,137.7Zm-11.379,6.655a2.54,2.54,0,0,1,1.834-2.432l5.209-1.488a5.507,5.507,0,0,0,4.337,2.323,5.5,5.5,0,0,0,4.337-2.324l5.209,1.488a2.52,2.52,0,0,1,1.779,2.1h-1.21a3.8,3.8,0,0,0-3.793,3.793,3.741,3.741,0,0,0,.233,1.264H16.437Zm-5.058,7.254h39.2v2.529h-39.2Zm2.529,10.115H17.7V159.2H13.908v-2.529H46.782V159.2H20.23v2.529H46.782V176.9H43.77l-2.529-5.058H19.448L16.919,176.9H13.908ZM40.943,176.9h-21.2l1.264-2.529H39.678Zm0,0" transform="translate(0 -101.034)" fill="url(#linear-gradient)"/>
</svg>
