<svg xmlns="http://www.w3.org/2000/svg" xmlns:xlink="http://www.w3.org/1999/xlink" width="1268.818" height="878.412" viewBox="0 0 1268.818 878.412">
  <defs>
    <linearGradient id="linear-gradient" x1="0.63" y1="1" x2="0.633" gradientUnits="objectBoundingBox">
      <stop offset="0" stop-color="#f37135"/>
      <stop offset="1" stop-color="#cd3033"/>
    </linearGradient>
  </defs>
  <g id="Group_3711" data-name="Group 3711" transform="translate(-671.182 18.365)">
    <path id="_4w3e" data-name="4w3e" d="M2103.816,0V439.422c-45.195,67.929-111.412,123.112-195.559,164.3C1683.219,713.875,1444.114,719.672,1644.5,878.412c-172.258-20.747-459.667-78.315-340.219-311.056,93.9-182.947,93.9-227.668-152.521-315.7C896.377,160.44,782.558,53,857.892,0Z" transform="translate(-163.816 -18.365)" fill="url(#linear-gradient)"/>
    <ellipse id="Ellipse_105" data-name="Ellipse 105" cx="321.5" cy="50.5" rx="321.5" ry="50.5" transform="translate(1209 691)" fill="#ececec" opacity="0.43"/>
    <g id="Group_277" data-name="Group 277" transform="translate(895.181 185.453)">
      <g id="Group_272" data-name="Group 272" transform="translate(357.61 -29)">
        <path id="Path_3985" data-name="Path 3985" d="M1657.32,261.866a124.754,124.754,0,0,0,.781-13.907c0-2.481-.08-4.943-.225-7.388l-22.984-7.435a100.99,100.99,0,0,0-8.136-27.539L1642,186.845a123.694,123.694,0,0,0-12.073-17.547l-22.988,7.5a102.294,102.294,0,0,0-22.755-17.492l1.307-24.15a122.99,122.99,0,0,0-20.064-7.112l-14.194,19.588a102.154,102.154,0,0,0-28.694-.752l-13.141-20.311a122.875,122.875,0,0,0-20.416,6.033l.029,24.186a101.905,101.905,0,0,0-23.649,16.268l-22.552-8.7a124.325,124.325,0,0,0-12.985,16.886l14.231,19.537a100.886,100.886,0,0,0-9.592,27.066l-23.34,6.211a124.723,124.723,0,0,0-.781,13.907c0,2.481.08,4.943.225,7.388l22.984,7.435a101.234,101.234,0,0,0,8.136,27.539l-15.24,18.753a123.7,123.7,0,0,0,12.073,17.547l22.988-7.5a102.107,102.107,0,0,0,22.755,17.492l-1.307,24.15a122.991,122.991,0,0,0,20.064,7.112l14.194-19.588a102.158,102.158,0,0,0,28.694.752l13.141,20.311a122.885,122.885,0,0,0,20.416-6.033l-.029-24.186a101.909,101.909,0,0,0,23.649-16.268l22.548,8.7a124.345,124.345,0,0,0,12.985-16.886l-14.231-19.537a101.028,101.028,0,0,0,9.6-27.066Zm-123.1,34.679a48.589,48.589,0,1,1,48.59-48.587A48.59,48.59,0,0,1,1534.224,296.546Z" transform="translate(-1410.34 -126.57)" fill="#71160b" opacity="0.16"/>
        <g id="Group_269" data-name="Group 269" transform="translate(188.339 92.243)">
          <path id="Path_3986" data-name="Path 3986" d="M1930.692,465.1a1.794,1.794,0,0,1-1.159-.421,1.819,1.819,0,0,1-.236-2.557,82.2,82.2,0,0,0,14.485-79.173,1.817,1.817,0,0,1,3.436-1.184,85.828,85.828,0,0,1-15.124,82.681A1.822,1.822,0,0,1,1930.692,465.1Z" transform="translate(-1928.879 -380.536)" fill="#71160b"/>
        </g>
        <g id="Group_270" data-name="Group 270" transform="translate(152.421 40.696)">
          <path id="Path_3987" data-name="Path 3987" d="M1860.685,260.042a1.814,1.814,0,0,1-1.246-.494,81.588,81.588,0,0,0-28.251-17.409,1.816,1.816,0,1,1,1.239-3.414,85.211,85.211,0,0,1,29.5,18.175,1.82,1.82,0,0,1-1.246,3.142Z" transform="translate(-1829.99 -238.615)" fill="#71160b"/>
        </g>
        <g id="Group_271" data-name="Group 271" transform="translate(103.223 35.693)">
          <path id="Path_3988" data-name="Path 3988" d="M1696.35,231.018a1.817,1.817,0,0,1-.443-3.578,86.083,86.083,0,0,1,21.037-2.6,1.816,1.816,0,1,1,0,3.632,82.4,82.4,0,0,0-20.147,2.492A1.928,1.928,0,0,1,1696.35,231.018Z" transform="translate(-1694.536 -224.84)" fill="#71160b"/>
        </g>
      </g>
      <path id="Path_3993" data-name="Path 3993" d="M2093.12,645.14c0-.937-.029-1.87-.076-2.8l11.928-9.578a63.341,63.341,0,0,0-4.333-13.7l-15.4-1.166a51.316,51.316,0,0,0-13.33-14.147l-.051-15.346a63.563,63.563,0,0,0-13.657-5.267l-10.526,11.329a51.29,51.29,0,0,0-18.927,1.486l-12.069-9.56a63.906,63.906,0,0,0-12.767,7.4l2.285,15.215a51.079,51.079,0,0,0-10.751,15.691l-15.015,3.48a63.976,63.976,0,0,0-2.219,14.474l13.224,7.646a50.6,50.6,0,0,0,5.655,18.687l-6.621,13.867a64.378,64.378,0,0,0,9.73,10.588l14.18-5.554a50.671,50.671,0,0,0,18.7,7.417l6.683,13.762c.8.029,1.594.051,2.4.051a64.323,64.323,0,0,0,11.728-1.075l4.508-14.576a50.907,50.907,0,0,0,17.6-10.214l14.9,3.349a64.116,64.116,0,0,0,7.94-11.728l-8.637-12.687A50.974,50.974,0,0,0,2093.12,645.14ZM2041.591,667.6a21.469,21.469,0,1,1,21.469-21.469A21.47,21.47,0,0,1,2041.591,667.6Z" transform="translate(-1409.152 -442.309)" fill="#d23933"/>
    </g>
    <g id="Group_281" data-name="Group 281" transform="translate(1484.219 422.904)">
      <g id="Group_278" data-name="Group 278" transform="translate(86.818 5.402)" opacity="0.8">
        <path id="Path_3994" data-name="Path 3994" d="M2785.964,335.657h-18.451a12.937,12.937,0,0,1-12.923-12.923V304.283a12.937,12.937,0,0,1,12.923-12.923h18.451a12.937,12.937,0,0,1,12.923,12.923v18.451A12.937,12.937,0,0,1,2785.964,335.657Zm-18.451-39.209a7.846,7.846,0,0,0-7.838,7.838v18.451a7.846,7.846,0,0,0,7.838,7.838h18.451a7.847,7.847,0,0,0,7.838-7.838V304.287a7.847,7.847,0,0,0-7.838-7.838Z" transform="translate(-2754.59 -291.36)" fill="#d13733"/>
      </g>
      <g id="Group_279" data-name="Group 279" transform="translate(0 5.402)" opacity="0.8">
        <path id="Path_3995" data-name="Path 3995" d="M2546.934,335.657h-18.451a12.937,12.937,0,0,1-12.923-12.923V304.283a12.937,12.937,0,0,1,12.923-12.923h18.451a12.937,12.937,0,0,1,12.923,12.923v18.451A12.942,12.942,0,0,1,2546.934,335.657Zm-18.455-39.209a7.847,7.847,0,0,0-7.838,7.838v18.451a7.847,7.847,0,0,0,7.838,7.838h18.451a7.847,7.847,0,0,0,7.838-7.838V304.287a7.847,7.847,0,0,0-7.838-7.838Z" transform="translate(-2515.56 -291.36)" fill="#d13733"/>
      </g>
      <g id="Group_280" data-name="Group 280" transform="translate(7.86 0)">
        <path id="Path_3996" data-name="Path 3996" d="M2552.64,315.442a1.015,1.015,0,0,1-.105,0,2.183,2.183,0,0,1-1.624-.85l-13.261-17.3a2.179,2.179,0,0,1,3.458-2.651l11.7,15.255,30.535-32.714a2.179,2.179,0,0,1,3.186,2.975l-32.29,34.6A2.169,2.169,0,0,1,2552.64,315.442Z" transform="translate(-2537.199 -276.486)" fill="#d13733"/>
      </g>
    </g>
  </g>
</svg>
