<svg xmlns="http://www.w3.org/2000/svg" xmlns:xlink="http://www.w3.org/1999/xlink" width="134.641" height="134.699" viewBox="0 0 134.641 134.699">
  <defs>
    <linearGradient id="linear-gradient" x1="0.63" y1="1" x2="0.633" gradientUnits="objectBoundingBox">
      <stop offset="0" stop-color="#f37135"/>
      <stop offset="1" stop-color="#cd3033"/>
    </linearGradient>
  </defs>
  <g id="interview" transform="translate(-0.111)">
    <g id="Group_391" data-name="Group 391" transform="translate(0.111 0)">
      <path id="Path_4350" data-name="Path 4350" d="M334.206,29.827v6.634a2.993,2.993,0,0,0,5.109,2.116l8.33-8.33h21.031a7.767,7.767,0,0,0,7.758-7.758V7.758A7.767,7.767,0,0,0,368.677,0h-31.95a7.767,7.767,0,0,0-7.758,7.758V22.489a7.8,7.8,0,0,0,5.237,7.338ZM332.913,7.758a3.818,3.818,0,0,1,3.814-3.814h31.95a3.818,3.818,0,0,1,3.814,3.814V22.489a3.818,3.818,0,0,1-3.814,3.814h-21.5a2.8,2.8,0,0,0-1.991.824l-7.036,7.036V28.97a2.817,2.817,0,0,0-2.217-2.75,3.827,3.827,0,0,1-3.02-3.73V7.758Z" transform="translate(-242.452 0)" fill="url(#linear-gradient)"/>
      <path id="Path_4351" data-name="Path 4351" d="M129.515,161.919h-3.751V99.883a7.423,7.423,0,0,0-7.414-7.414h-36.9a1.972,1.972,0,1,0,0,3.945h36.9a3.474,3.474,0,0,1,3.47,3.47V161.92h-6.574V108.573a5.591,5.591,0,0,0-5.585-5.585H69.371a19.087,19.087,0,0,0,1.162-4.765A4.683,4.683,0,0,0,74.2,93.658V76.608A7.113,7.113,0,0,0,67.156,69.5a7.114,7.114,0,0,0-7.1-6.867H42.366A13.8,13.8,0,0,0,28.58,76.422V93.658a4.683,4.683,0,0,0,3.668,4.566,19.084,19.084,0,0,0,1.162,4.765H25.2a5.591,5.591,0,0,0-5.585,5.585v16.111a16.177,16.177,0,0,0-6.574,4.607V99.883a3.474,3.474,0,0,1,3.47-3.47h4.918a1.972,1.972,0,1,0,0-3.945H16.514A7.423,7.423,0,0,0,9.1,99.883v62.036H5.348a5.243,5.243,0,0,0-5.237,5.237,13.715,13.715,0,0,0,13.7,13.7H121.052a13.715,13.715,0,0,0,13.7-13.7A5.243,5.243,0,0,0,129.515,161.919ZM109.66,106.933a1.642,1.642,0,0,1,1.64,1.64V161.92H93.688v-7.226a1.972,1.972,0,1,0-3.945,0v7.226H80.274v-6.259a1.972,1.972,0,0,0-3.945,0v6.259H60.287l-4.252-23.978,1.632-2.924a4.451,4.451,0,0,0,4.085-1.161l7.322-7.13a4.288,4.288,0,0,0,1.1-1.8l10.776,3.163a12.314,12.314,0,0,1,8.8,11.751v5.627a1.972,1.972,0,1,0,3.945,0v-5.627a16.281,16.281,0,0,0-11.63-15.536l-13.016-3.821a4.331,4.331,0,0,0-1.229-.826l-2.694-1.2a5.249,5.249,0,0,0-2.479-.444v-6.305a19.416,19.416,0,0,0,4.66-4.78H109.66Zm-73,16.308,2.642-1.187a1.312,1.312,0,0,1,1.321.146l7.784,5.816-3.823,3.194a.552.552,0,0,1-.737-.022l-7.3-7.315h0a.392.392,0,0,1,.116-.631ZM58.7,113.91v6.023l-7.128,5.52-7.483-5.591v-5.951a19.157,19.157,0,0,0,14.611,0Zm7.512,9.355a.392.392,0,0,1,.113.636l-7.312,7.12a.553.553,0,0,1-.745.022h0l-3.551-3.037,7.466-5.781a1.307,1.307,0,0,1,1.335-.161ZM49.951,135.622,48.48,133.1l3.093-2.584,2.769,2.368-1.53,2.742Zm.52,3.944h1.846l3.964,22.353H46.508ZM85,165.864a5.528,5.528,0,0,1-5.154,3.552H55.014a5.528,5.528,0,0,1-5.154-3.552ZM32.525,76.422a9.853,9.853,0,0,1,9.841-9.841H60.055a3.164,3.164,0,0,1,3.161,3.161,3.71,3.71,0,0,0,3.706,3.706h.173a3.164,3.164,0,0,1,3.161,3.161v9.237H68.681a1.6,1.6,0,0,1-1.6-1.6V82.291a5.739,5.739,0,0,0-7.545-5.453,26.129,26.129,0,0,1-16.287,0l-.022-.007A5.739,5.739,0,0,0,35.7,82.29v1.956a1.6,1.6,0,0,1-1.6,1.6H32.525Zm0,17.236V89.789H34.1a5.55,5.55,0,0,0,5.544-5.544V82.29a1.8,1.8,0,0,1,2.362-1.707l.021.007a30.1,30.1,0,0,0,18.748-.006,1.8,1.8,0,0,1,2.362,1.707v1.955a5.55,5.55,0,0,0,5.544,5.544h1.575v3.869a.731.731,0,0,1-.73.73,2.868,2.868,0,0,0-2.852,2.687,15.314,15.314,0,0,1-30.566,0,2.867,2.867,0,0,0-2.852-2.687.731.731,0,0,1-.73-.73ZM25.2,106.933H35.48a19.42,19.42,0,0,0,4.659,4.78v6.293a5.247,5.247,0,0,0-2.452.45l-2.642,1.186a4.336,4.336,0,0,0-1.22.825l-10.262,3.012V108.573a1.642,1.642,0,0,1,1.64-1.641ZM13.044,139.846a12.314,12.314,0,0,1,8.8-11.751l.321-.094.022-.006,10.5-3.083a4.339,4.339,0,0,0,1.064,1.749h0l7.318,7.329.02.019a4.452,4.452,0,0,0,4.045,1.184l1.613,2.771L42.5,161.92H26.451v-6.259a1.972,1.972,0,1,0-3.945,0v6.259H13.044Zm108.008,37.066H13.811a9.766,9.766,0,0,1-9.755-9.755,1.294,1.294,0,0,1,1.293-1.293H45.754a9.484,9.484,0,0,0,9.261,7.5H79.848a9.484,9.484,0,0,0,9.261-7.5h40.405a1.294,1.294,0,0,1,1.293,1.293A9.766,9.766,0,0,1,121.052,176.912Z" transform="translate(-0.111 -46.157)" fill="url(#linear-gradient)"/>
    </g>
  </g>
</svg>
