<svg xmlns="http://www.w3.org/2000/svg" xmlns:xlink="http://www.w3.org/1999/xlink" width="573.692" height="634.98" viewBox="0 0 573.692 634.98">
  <defs>
    <clipPath id="clip-path">
      <ellipse id="Ellipse_95" data-name="Ellipse 95" cx="34.493" cy="44.05" rx="34.493" ry="44.05" transform="matrix(0.866, -0.5, 0.5, 0.866, 0, 34.493)"/>
    </clipPath>
  </defs>
  <g id="Group_386" data-name="Group 386" transform="translate(1471.53 338.57)">
    <g id="Group_310" data-name="Group 310" transform="translate(-1471.53 -78.583)">
      <path id="Path_4140" data-name="Path 4140" d="M94.712,224.076,94.47,355.093l9.39-2.826L104.1,221.25Z" transform="translate(-94.47 -221.25)" fill="#c13929"/>
      <path id="Path_4141" data-name="Path 4141" d="M104.872,241.806,104.63,335l9.39-2.826.242-93.2Z" transform="translate(-85.738 -206.012)" fill="#c13929"/>
      <path id="Path_4142" data-name="Path 4142" d="M115.023,250.7l-.223,71.812,9.372-2.826.242-71.812Z" transform="translate(-76.998 -198.372)" fill="#c13929"/>
      <path id="Path_4143" data-name="Path 4143" d="M135.343,263.816l-.223,37.319,9.39-2.826.223-37.319Z" transform="translate(-59.534 -187.096)" fill="#c13929"/>
      <path id="Path_4144" data-name="Path 4144" d="M145.5,266.106l-.223,27.371,9.39-2.826.242-27.371Z" transform="translate(-50.802 -185.128)" fill="#c13929"/>
      <path id="Path_4145" data-name="Path 4145" d="M125.183,242.526l-.223,81.983,9.39-2.826.223-81.983Z" transform="translate(-68.266 -205.393)" fill="#c13929"/>
      <path id="Path_4146" data-name="Path 4146" d="M165.842,231.046l-.242,82,9.39-2.826.242-82Z" transform="translate(-33.338 -215.26)" fill="#c13929"/>
      <path id="Path_4147" data-name="Path 4147" d="M155.682,250.148l-.242,51.395,9.39-2.808.242-51.4Z" transform="translate(-42.07 -198.827)" fill="#c13929"/>
    </g>
    <g id="Group_324" data-name="Group 324" transform="translate(-1322.477 -252.292)">
      <g id="Group_323" data-name="Group 323" transform="translate(37.368 287.898)">
        <g id="Group_321" data-name="Group 321">
          <path id="Path_4155" data-name="Path 4155" d="M221.62,359.771c0,.056.037.093.093.13h0a1.557,1.557,0,0,0,.3.13l59.8,16.028a4.7,4.7,0,0,0,1.971.019l20.975-5.857c0-.019.019-.037.019-.056a.409.409,0,0,0,.019-.149,1.263,1.263,0,0,0,.037-.279l-.688-67.461a1.4,1.4,0,0,0-.019-.279v-.019c-.019-.074-.037-.167-.056-.242h0c-.019-.074-.056-.149-.074-.223a.065.065,0,0,0-.019-.037,2.022,2.022,0,0,0-.112-.2,1.029,1.029,0,0,0-.112-.149c-.019-.019-.019-.037-.037-.056s-.037-.019-.037-.037a.858.858,0,0,0-.13-.13.255.255,0,0,0-.074-.056.391.391,0,0,0-.112-.074c-.037-.019-.056-.037-.093-.037l-.112-.056L242.892,283.72a.513.513,0,0,0-.167-.019h-.037a.513.513,0,0,0-.167.019l3.756-1.023a.068.068,0,0,0,.056-.019.236.236,0,0,0,.112-.019h.13c.037,0,.074.019.112.019l60.264,16.958c.019,0,.019,0,.037.019.037,0,.056.019.093.037s.074.019.093.037h.019a.4.4,0,0,1,.093.074.257.257,0,0,0,.074.056l.13.13c.019.019.037.019.037.037h0c.019.019.019.037.037.056.037.056.074.093.112.149h0c.037.056.056.112.093.167a.058.058,0,0,0,.019.037c0,.019.019.019.019.037.019.019.019.056.037.074.019.056.037.093.056.149h0c.019.037.019.093.037.13,0,.037.019.074.019.112v.037c0,.056.019.112.019.167v.093l.688,70.268a.193.193,0,0,1-.093.13c-.019.019-.056.019-.093.037a1.484,1.484,0,0,1-.167.074c-.019,0-.037.019-.056.019l-24.414,6.824a.068.068,0,0,0-.056.019c-.037,0-.056.019-.093.019-.018,0-.056.019-.074.019a132.415,132.415,0,0,0-.149.037H282.5a2.528,2.528,0,0,1-.372-.037.543.543,0,0,1-.167-.037.807.807,0,0,1-.093-.019l-59.8-16.028h-.019c-.037,0-.056-.019-.074-.019s-.037-.019-.056-.019-.037-.019-.056-.019a.065.065,0,0,1-.037-.019c-.019,0-.019-.019-.037-.019a.018.018,0,0,1-.019-.019h-.019l-.019-.019-.019-.019-.019-.019-.019-.019v-.037h0Z" transform="translate(-221.613 -282.66)" fill="#566875"/>
          <path id="Path_4156" data-name="Path 4156" d="M303.16,300.171a1.048,1.048,0,0,1,.372.2.018.018,0,0,1,.019.019,1.87,1.87,0,0,1,.3.353l.019.019a1.577,1.577,0,0,1,.2.483h0a1.719,1.719,0,0,1,.074.539l.688,67.461a1.438,1.438,0,0,1-.037.279c0,.056-.019.112-.019.149,0,.019-.019.037-.019.056l-13.276,3.719-7.7,2.157c-.056.019-.13,0-.186.019a4.779,4.779,0,0,1-1.785-.037l-59.8-16.028a1.3,1.3,0,0,1-.149-.056,1.284,1.284,0,0,1-.149-.056h0c-.2-.13-.093-.3.316-.39l18.353-5.132a3.007,3.007,0,0,0,2.194-2.919l-.669-66.717c0-.744.446-1.227.986-1.078Z" transform="translate(-221.616 -282.208)" fill="#3c4f5b"/>
        </g>
        <g id="Group_322" data-name="Group 322" transform="translate(148.551 41.689)">
          <path id="Path_4157" data-name="Path 4157" d="M301.51,382.191a.193.193,0,0,0,.093.13h0a1.556,1.556,0,0,0,.3.13l59.8,16.028a4.7,4.7,0,0,0,1.971.019l20.974-5.857c0-.019.019-.037.019-.056a.41.41,0,0,0,.019-.149,1.265,1.265,0,0,0,.037-.279l-.688-67.461a1.4,1.4,0,0,0-.019-.279V324.4c-.019-.074-.037-.167-.056-.242h0c-.019-.074-.056-.149-.074-.223,0-.019-.019-.019-.019-.037a2.038,2.038,0,0,0-.112-.2,1.031,1.031,0,0,0-.112-.149c-.019-.019-.019-.037-.037-.056s-.019-.037-.037-.037a.859.859,0,0,0-.13-.13.256.256,0,0,0-.074-.056.391.391,0,0,0-.112-.074c-.037-.019-.056-.037-.093-.037l-.112-.056L322.782,306.14a.515.515,0,0,0-.167-.019h-.037a.515.515,0,0,0-.167.019l3.756-1.023a.068.068,0,0,0,.056-.019c.037,0,.074-.019.112-.019h.13c.037,0,.074.019.112.019l60.265,16.958c.019,0,.019,0,.037.019.037,0,.056.019.093.037s.074.019.093.037h.019a.405.405,0,0,1,.093.074.257.257,0,0,0,.074.056l.13.13c.019.019.037.019.037.037h0c.019.019.019.037.037.056.037.056.074.093.112.149h0c.037.056.056.112.093.167,0,.019,0,.019.019.037,0,.019.019.019.019.037.019.019.019.056.037.074.019.056.037.093.056.149h0c.019.037.019.093.037.13,0,.037.019.074.019.112v.037c0,.056.019.112.019.167v.093l.688,70.268a.193.193,0,0,1-.093.13c-.019.019-.056.019-.093.037a1.475,1.475,0,0,1-.167.074c-.019,0-.037.019-.056.019l-24.414,6.824a.068.068,0,0,0-.056.019c-.037,0-.056.019-.093.019a132.5,132.5,0,0,1-.149.037c-.019.019-.056,0-.074.019h-.967a2.522,2.522,0,0,1-.372-.037c-.056-.019-.112-.019-.167-.037a.8.8,0,0,1-.093-.019l-59.8-16.028h-.019c-.037,0-.056-.019-.074-.019s-.037-.019-.056-.019-.037-.019-.056-.019-.019-.019-.037-.019-.019-.019-.037-.019a.018.018,0,0,1-.019-.019h-.019l-.019-.019-.019-.019-.019-.019a.018.018,0,0,0-.019-.019c-.019,0,0-.019,0-.019v-.019h0Z" transform="translate(-301.503 -305.08)" fill="#566875"/>
          <path id="Path_4158" data-name="Path 4158" d="M383.05,322.59a1.049,1.049,0,0,1,.372.2.018.018,0,0,1,.019.019,1.368,1.368,0,0,1,.3.353.018.018,0,0,0,.019.019,1.579,1.579,0,0,1,.2.483h0a1.72,1.72,0,0,1,.074.539l.688,67.461a1.44,1.44,0,0,1-.037.279c0,.056-.019.112-.019.149,0,.019-.019.037-.019.056l-13.276,3.719-7.7,2.157c-.056.019-.13,0-.186.019a4.113,4.113,0,0,1-1.785-.037l-59.8-16.028a1412.706,1412.706,0,0,0-.3-.112h0c-.2-.13-.093-.3.316-.39l18.353-5.132a2.986,2.986,0,0,0,2.194-2.919l-.669-66.717c0-.744.446-1.227.986-1.078Z" transform="translate(-301.506 -304.628)" fill="#3c4f5b"/>
        </g>
      </g>
      <path id="Path_4159" data-name="Path 4159" d="M204.094,130.842a3.413,3.413,0,0,0-.874.112l11.119-3.012c.074-.019.167-.037.242-.056a2.526,2.526,0,0,1,.539-.056h.242a2.369,2.369,0,0,1,.353.019,2.78,2.78,0,0,1,.539.112l309.579,87.1.167.056c.149.056.3.149.446.2.167.074.335.13.5.223.019.019.056.019.074.037.167.112.335.242.5.372a4.075,4.075,0,0,1,.335.26,5.258,5.258,0,0,1,.632.651l.223.223a.018.018,0,0,0,.019.019c.074.093.13.186.2.279a7.711,7.711,0,0,1,.558.8.04.04,0,0,0,.037.037,7.475,7.475,0,0,1,.446.855.657.657,0,0,0,.074.167,2.182,2.182,0,0,0,.093.2c.056.13.112.26.167.409.093.242.167.5.242.744v.056a4.626,4.626,0,0,1,.167.688c.037.186.074.391.112.6,0,.037.019.074.019.13,0,.019.019.056.019.074a6.648,6.648,0,0,1,.074.874c0,.149.019.3.019.465l.6,302.55a5.755,5.755,0,0,1-.019.576,6.052,6.052,0,0,1-.149.837c-.037.26-.074.539-.13.781a5,5,0,0,1-.391.967,3.275,3.275,0,0,1-.93,1.376,2.7,2.7,0,0,1-1.581,1.023l-11.12,3.012a3.639,3.639,0,0,0,1.246-.651,3.174,3.174,0,0,0,.335-.372,4.53,4.53,0,0,0,.651-.781c.112-.186.186-.409.279-.6a7.486,7.486,0,0,0,.39-.967,5.265,5.265,0,0,0,.13-.781,8.644,8.644,0,0,0,.167-1.413l-.6-302.55a8.811,8.811,0,0,0-.112-1.395c0-.037-.019-.093-.019-.13a9.576,9.576,0,0,0-.279-1.264c0-.019,0-.037-.019-.037a7.969,7.969,0,0,0-.428-1.171c-.037-.074-.056-.149-.093-.223a11.829,11.829,0,0,0-.558-1.078c-.167-.279-.372-.539-.558-.8a3.105,3.105,0,0,0-.223-.3,2.225,2.225,0,0,1-.2-.223c-.2-.223-.409-.446-.632-.651a3.779,3.779,0,0,0-.335-.242,4.226,4.226,0,0,0-.6-.409,3.833,3.833,0,0,0-.483-.223,4.331,4.331,0,0,0-.614-.26l-309.579-87.1a3.7,3.7,0,0,0-.893-.13C204.206,130.842,204.15,130.842,204.094,130.842Z" transform="translate(-200.059 -127.83)" fill="#566875"/>
      <path id="Path_4160" data-name="Path 4160" d="M201.52,135.14c0-3.849,2.269-6.341,5.076-5.541l309.579,87.1c2.826.8,5.114,4.556,5.114,8.423l.5,287.563L202,423.967Z" transform="translate(-201.52 -126.438)" fill="#fffffd"/>
      <path id="Path_4161" data-name="Path 4161" d="M207.93,141.8c0-3.57,2.1-5.876,4.7-5.132l286.559,80.607c2.622.744,4.723,4.221,4.742,7.791l.446,264.822a4.228,4.228,0,0,1-5.355,4.072l-287.544-79.77a4.218,4.218,0,0,1-3.087-4.054Z" transform="translate(-196.011 -120.357)" fill="#b82c1b"/>
      <path id="Path_4162" data-name="Path 4162" d="M516.566,397.072l-309.579-87.1c-2.808-.781-5.095-4.556-5.095-8.4L201.8,287.83l319.787,88.714.112,14.987C521.661,395.38,519.393,397.853,516.566,397.072Z" transform="translate(-201.279 9.681)" fill="#9ea6ad"/>
    </g>
    <g id="Group_326" data-name="Group 326" transform="translate(-1291.629 -85.611)">
      <path id="Path_4163" data-name="Path 4163" d="M464.293,400.272l-19.877-76.721-19.8,14.578-26.181-79.4L344.619,352.5l-27.036-72.8-40.145,15.731L236.883,217.47,220.65,331.1Z" transform="translate(-215.927 -217.47)" fill="#e35635"/>
      <g id="Group_325" data-name="Group 325" transform="translate(0 19.375)">
        <line id="Line_30" data-name="Line 30" x1="256.491" y1="72.109" transform="translate(0 93.604)" fill="none" stroke="#f9fbfc" stroke-miterlimit="10" stroke-width="0.25"/>
        <line id="Line_31" data-name="Line 31" x1="256.491" y1="72.109" transform="translate(0 46.802)" fill="none" stroke="#f9fbfc" stroke-miterlimit="10" stroke-width="0.25"/>
        <line id="Line_32" data-name="Line 32" x1="256.491" y1="72.109" fill="none" stroke="#f9fbfc" stroke-miterlimit="10" stroke-width="0.25"/>
      </g>
      <line id="Line_33" data-name="Line 33" y2="103.831" transform="translate(252.959 82.764)" fill="none" stroke="#f9fbfc" stroke-miterlimit="10" stroke-width="0.25"/>
      <line id="Line_34" data-name="Line 34" y2="103.85" transform="translate(170.065 59.428)" fill="none" stroke="#f9fbfc" stroke-miterlimit="10" stroke-width="0.25"/>
      <line id="Line_35" data-name="Line 35" y2="103.85" transform="translate(87.171 36.092)" fill="none" stroke="#f9fbfc" stroke-miterlimit="10" stroke-width="0.25"/>
      <line id="Line_36" data-name="Line 36" y2="103.85" transform="translate(4.277 12.756)" fill="none" stroke="#f9fbfc" stroke-miterlimit="10" stroke-width="0.25"/>
    </g>
    <g id="Group_360" data-name="Group 360" transform="translate(-1303.92 -338.57)">
      <g id="Group_336" data-name="Group 336" transform="translate(147.453 0)">
        <path id="Path_4164" data-name="Path 4164" d="M292.1,81.467l131.723,37.04a2.279,2.279,0,0,1,1.339,2.194l.149,256.473c0,1-.6,1.655-1.32,1.45L292.288,341.6a2.336,2.336,0,0,1-1.339-2.194L290.8,82.936C290.782,81.914,291.377,81.263,292.1,81.467Z" transform="translate(-290.8 -81.43)" fill="#ddd"/>
        <g id="Group_330" data-name="Group 330" transform="translate(15.344 25.654)">
          <ellipse id="Ellipse_94" data-name="Ellipse 94" cx="34.493" cy="44.05" rx="34.493" ry="44.05" transform="matrix(0.866, -0.5, 0.5, 0.866, 0, 34.493)" fill="#d30b0b"/>
          <g id="Group_329" data-name="Group 329">
            <g id="Group_328" data-name="Group 328" clip-path="url(#clip-path)">
              <g id="Group_327" data-name="Group 327" transform="translate(27.33 58.033)">
                <path id="Path_4165" data-name="Path 4165" d="M314.829,143.651c1.432-10.413.614-12.57,7.252-17.051-2.6,4.965-4.872,24.21-4.872,40.387H313.75S313.676,151.963,314.829,143.651Z" transform="translate(-313.749 -126.295)" fill="#fff"/>
                <path id="Path_4166" data-name="Path 4166" d="M339.465,132.416c4.723,3.645,4.593,11.882,4.593,29.6H330.8c.112-3.9.335-10.692.725-19.6C331.86,135.316,335.635,132.007,339.465,132.416Z" transform="translate(-299.096 -121.326)" fill="#fff"/>
                <path id="Path_4167" data-name="Path 4167" d="M322.013,126.443c4.109.335,23.224,7.084,29.323,10.208a8.292,8.292,0,0,1,1.339.874c-3.83-.391-7.605,2.9-7.921,10-.409,8.907-.614,15.694-.725,19.6H315.765l-.335-9.892c0-16.177,2.6-25.549,5.188-30.513A2.973,2.973,0,0,1,322.013,126.443Z" transform="translate(-312.305 -126.436)" fill="#fff"/>
              </g>
              <path id="Path_4168" data-name="Path 4168" d="M333.152,125.95c-.483,4.965.558,6.173.558,6.173l-5.355,7.363a3.385,3.385,0,0,1-6.118-1.841l-.3-7.233Z" transform="translate(-279.38 -68.821)" fill="#efccb9"/>
              <path id="Path_4169" data-name="Path 4169" d="M333.04,118.327c1.395-.911-.242,1.655-.651,3.868a15.8,15.8,0,0,0,.279,4.8,1.108,1.108,0,0,0,1.952.521l.019-.019c.781-1.041,1.116-1.915,2.269-1.841.688.056,1.432.707,1.246,2.454-.056.5-.279,2.826-1.822,3.328-.725.242-.5.539-.725,1.06-1.153,2.715-9.576,7.4-11.212,6.582a11.288,11.288,0,0,1-4.37-4.853c-.744-1.729-.911-8.814-.651-15.489,1.227.6,1.078,1.227,5.355,1.227S331.627,119.22,333.04,118.327Z" transform="translate(-281.685 -75.535)" fill="#f9d5bd"/>
              <path id="Path_4170" data-name="Path 4170" d="M323.632,116.482c3.44-1.9,5.522-2.64,8.07-2.789,4.388-.279,10.766,1.488,10.766,8.888,0,5.467-2.38,6.768-2.622,9.372.149-1.6-.483-2.4-1.246-2.454-1.153-.074-1.618,1.041-2.269,1.841-.019.019-.019.037-.037.037a1.105,1.105,0,0,1-1.934-.539,15.8,15.8,0,0,1-.279-4.8c.409-2.231,1.078-3.273-.316-2.38s-3.273,1.32-7.568,1.32c-4.277,0-8.925-.762-8.888-2.064C317.292,122.916,320.192,118.378,323.632,116.482Z" transform="translate(-283.36 -79.379)" fill="#2d1919"/>
            </g>
          </g>
        </g>
        <g id="Group_335" data-name="Group 335" transform="translate(12.273 126.573)">
          <g id="Group_331" data-name="Group 331">
            <path id="Path_4171" data-name="Path 4171" d="M297.4,153.145l109.949,30.9v-3.626L297.4,149.5Z" transform="translate(-297.4 -149.5)" fill="#ccc"/>
            <path id="Path_4172" data-name="Path 4172" d="M297.4,159.044l109.949,30.9v-3.626L297.4,155.4Z" transform="translate(-297.4 -144.429)" fill="#ccc"/>
            <path id="Path_4173" data-name="Path 4173" d="M297.4,164.936l109.949,30.9v-3.626L297.4,161.31Z" transform="translate(-297.4 -139.35)" fill="#ccc"/>
            <path id="Path_4174" data-name="Path 4174" d="M297.4,170.836l109.949,30.923v-3.645L297.4,167.21Z" transform="translate(-297.4 -134.279)" fill="#ccc"/>
          </g>
          <g id="Group_334" data-name="Group 334" transform="translate(0 49.257)">
            <g id="Group_332" data-name="Group 332">
              <path id="Path_4175" data-name="Path 4175" d="M297.4,177.738l52.362,14.708v-1.729L297.4,175.99Z" transform="translate(-297.4 -175.99)" fill="#ccc"/>
              <path id="Path_4176" data-name="Path 4176" d="M297.4,180.609l52.362,14.727v-1.729L297.4,178.88Z" transform="translate(-297.4 -173.506)" fill="#ccc"/>
              <path id="Path_4177" data-name="Path 4177" d="M297.4,183.5l52.362,14.708v-1.729L297.4,181.77Z" transform="translate(-297.4 -171.022)" fill="#ccc"/>
              <path id="Path_4178" data-name="Path 4178" d="M297.4,186.379l52.362,14.727v-1.729L297.4,184.65Z" transform="translate(-297.4 -168.547)" fill="#ccc"/>
              <path id="Path_4179" data-name="Path 4179" d="M297.4,189.269l52.362,14.708v-1.729L297.4,187.54Z" transform="translate(-297.4 -166.063)" fill="#ccc"/>
              <path id="Path_4180" data-name="Path 4180" d="M297.4,192.149l52.362,14.727v-1.729L297.4,190.42Z" transform="translate(-297.4 -163.588)" fill="#ccc"/>
              <path id="Path_4181" data-name="Path 4181" d="M297.4,195.039l52.362,14.727v-1.748L297.4,193.31Z" transform="translate(-297.4 -161.104)" fill="#ccc"/>
              <path id="Path_4182" data-name="Path 4182" d="M297.4,197.938l52.362,14.708v-1.729L297.4,196.19Z" transform="translate(-297.4 -158.629)" fill="#ccc"/>
              <path id="Path_4183" data-name="Path 4183" d="M297.4,200.809l52.362,14.727v-1.729L297.4,199.08Z" transform="translate(-297.4 -156.146)" fill="#ccc"/>
              <path id="Path_4184" data-name="Path 4184" d="M297.4,203.7l52.362,14.708v-1.729L297.4,201.97Z" transform="translate(-297.4 -153.662)" fill="#ccc"/>
              <path id="Path_4185" data-name="Path 4185" d="M297.4,206.579l52.362,14.727v-1.729L297.4,204.85Z" transform="translate(-297.4 -151.187)" fill="#ccc"/>
              <path id="Path_4186" data-name="Path 4186" d="M297.4,209.469l52.362,14.708v-1.729L297.4,207.74Z" transform="translate(-297.4 -148.703)" fill="#ccc"/>
            </g>
            <g id="Group_333" data-name="Group 333" transform="translate(57.606 16.289)">
              <path id="Path_4187" data-name="Path 4187" d="M328.38,186.479l52.343,14.708v-1.729L328.38,184.75Z" transform="translate(-328.38 -184.75)" fill="#ccc"/>
              <path id="Path_4188" data-name="Path 4188" d="M328.38,189.359l52.343,14.727v-1.729L328.38,187.63Z" transform="translate(-328.38 -182.275)" fill="#ccc"/>
              <path id="Path_4189" data-name="Path 4189" d="M328.38,192.249l52.343,14.708v-1.729L328.38,190.52Z" transform="translate(-328.38 -179.791)" fill="#ccc"/>
              <path id="Path_4190" data-name="Path 4190" d="M328.38,195.129l52.343,14.727v-1.729L328.38,193.4Z" transform="translate(-328.38 -177.316)" fill="#ccc"/>
              <path id="Path_4191" data-name="Path 4191" d="M328.38,198.019l52.343,14.727v-1.729L328.38,196.29Z" transform="translate(-328.38 -174.832)" fill="#ccc"/>
              <path id="Path_4192" data-name="Path 4192" d="M328.38,200.909l52.343,14.708v-1.729L328.38,199.18Z" transform="translate(-328.38 -172.348)" fill="#ccc"/>
              <path id="Path_4193" data-name="Path 4193" d="M328.38,203.789l52.343,14.727v-1.729L328.38,202.06Z" transform="translate(-328.38 -169.873)" fill="#ccc"/>
              <path id="Path_4194" data-name="Path 4194" d="M328.38,206.679l52.343,14.708v-1.729L328.38,204.95Z" transform="translate(-328.38 -167.389)" fill="#ccc"/>
              <path id="Path_4195" data-name="Path 4195" d="M328.38,209.559l52.343,14.727v-1.729L328.38,207.83Z" transform="translate(-328.38 -164.914)" fill="#ccc"/>
              <path id="Path_4196" data-name="Path 4196" d="M328.38,212.449l52.343,14.708v-1.729L328.38,210.72Z" transform="translate(-328.38 -162.43)" fill="#ccc"/>
              <path id="Path_4197" data-name="Path 4197" d="M328.38,215.329l52.343,14.727v-1.729L328.38,213.6Z" transform="translate(-328.38 -159.955)" fill="#ccc"/>
              <path id="Path_4198" data-name="Path 4198" d="M328.38,218.219l52.343,14.727v-1.729L328.38,216.49Z" transform="translate(-328.38 -157.471)" fill="#ccc"/>
            </g>
          </g>
        </g>
      </g>
      <g id="Group_346" data-name="Group 346" transform="translate(73.708 15.749)">
        <path id="Path_4199" data-name="Path 4199" d="M252.479,89.937,384.2,126.959a2.279,2.279,0,0,1,1.339,2.194l.149,256.473c0,1-.6,1.655-1.32,1.45l-131.723-37.04a2.336,2.336,0,0,1-1.339-2.194L251.14,91.388C251.14,90.384,251.735,89.733,252.479,89.937Z" transform="translate(-251.14 -89.9)" fill="#efefef"/>
        <g id="Group_340" data-name="Group 340" transform="translate(15.367 25.649)">
          <ellipse id="Ellipse_96" data-name="Ellipse 96" cx="34.493" cy="44.05" rx="34.493" ry="44.05" transform="matrix(0.866, -0.5, 0.5, 0.866, 0, 34.493)" fill="#5760ff"/>
          <g id="Group_339" data-name="Group 339" transform="translate(0 0)">
            <g id="Group_338" data-name="Group 338" clip-path="url(#clip-path)">
              <g id="Group_337" data-name="Group 337" transform="translate(27.325 58.038)">
                <path id="Path_4200" data-name="Path 4200" d="M275.179,152.111c1.432-10.413.614-12.57,7.252-17.051-2.6,4.965-4.872,24.21-4.872,40.387H274.1C274.1,175.466,274.026,160.441,275.179,152.111Z" transform="translate(-274.1 -134.774)" fill="#fff"/>
                <path id="Path_4201" data-name="Path 4201" d="M299.825,140.874c4.723,3.645,4.593,11.882,4.593,29.6H291.16c.112-3.9.335-10.692.725-19.6C292.22,143.775,295.976,140.484,299.825,140.874Z" transform="translate(-259.437 -129.804)" fill="#fff"/>
                <path id="Path_4202" data-name="Path 4202" d="M282.372,134.913c4.109.335,23.224,7.084,29.323,10.208a8.291,8.291,0,0,1,1.339.874c-3.83-.39-7.605,2.9-7.921,10-.409,8.907-.614,15.694-.725,19.6H276.125l-.335-9.892c0-16.177,2.6-25.549,5.188-30.513A2.929,2.929,0,0,1,282.372,134.913Z" transform="translate(-272.647 -134.906)" fill="#fff"/>
              </g>
              <path id="Path_4203" data-name="Path 4203" d="M293.5,134.42c-.483,4.965.558,6.173.558,6.173l-5.355,7.363a3.385,3.385,0,0,1-6.118-1.841l-.3-7.233Z" transform="translate(-239.735 -77.286)" fill="#efccb9"/>
              <path id="Path_4204" data-name="Path 4204" d="M293.4,126.787c1.395-.911-.242,1.655-.651,3.868a15.8,15.8,0,0,0,.279,4.8,1.109,1.109,0,0,0,1.952.521l.019-.019c.781-1.041,1.116-1.915,2.269-1.841.669.056,1.432.707,1.246,2.454-.056.5-.279,2.826-1.822,3.328-.725.242-.521.539-.744,1.06-1.153,2.715-9.576,7.4-11.212,6.582a11.405,11.405,0,0,1-4.37-4.853c-.744-1.729-.911-8.814-.651-15.489,1.227.6,1.078,1.227,5.355,1.227C289.364,128.442,292,127.7,293.4,126.787Z" transform="translate(-242.049 -84.008)" fill="#f9d5bd"/>
              <path id="Path_4205" data-name="Path 4205" d="M283.982,124.942c3.44-1.9,5.523-2.64,8.07-2.789,4.388-.279,10.766,1.488,10.766,8.888,0,5.467-2.38,6.768-2.622,9.372.149-1.6-.483-2.4-1.246-2.454-1.153-.074-1.618,1.041-2.268,1.841-.019.019-.019.037-.037.037a1.1,1.1,0,0,1-1.934-.539,15.8,15.8,0,0,1-.279-4.8c.409-2.231,1.1-3.273-.316-2.38-1.395.911-3.273,1.32-7.568,1.32-4.277,0-8.925-.762-8.888-2.064C277.642,131.394,280.542,126.839,283.982,124.942Z" transform="translate(-243.715 -87.853)" fill="#2d1919"/>
            </g>
          </g>
        </g>
        <g id="Group_345" data-name="Group 345" transform="translate(12.291 126.573)">
          <g id="Group_341" data-name="Group 341">
            <path id="Path_4206" data-name="Path 4206" d="M257.75,161.6l109.967,30.923v-3.645L257.75,157.97Z" transform="translate(-257.75 -157.97)" fill="#ccc"/>
            <path id="Path_4207" data-name="Path 4207" d="M257.75,167.515l109.967,30.9v-3.645L257.75,163.87Z" transform="translate(-257.75 -152.899)" fill="#ccc"/>
            <path id="Path_4208" data-name="Path 4208" d="M257.75,173.414l109.967,30.9v-3.626L257.75,169.77Z" transform="translate(-257.75 -147.829)" fill="#ccc"/>
            <path id="Path_4209" data-name="Path 4209" d="M257.75,179.315l109.967,30.9v-3.626L257.75,175.67Z" transform="translate(-257.75 -142.758)" fill="#ccc"/>
          </g>
          <g id="Group_344" data-name="Group 344" transform="translate(0 49.257)">
            <g id="Group_342" data-name="Group 342">
              <path id="Path_4210" data-name="Path 4210" d="M257.75,186.189l52.362,14.727v-1.729L257.75,184.46Z" transform="translate(-257.75 -184.46)" fill="#ccc"/>
              <path id="Path_4211" data-name="Path 4211" d="M257.75,189.079l52.362,14.708v-1.729L257.75,187.35Z" transform="translate(-257.75 -181.976)" fill="#ccc"/>
              <path id="Path_4212" data-name="Path 4212" d="M257.75,191.959l52.362,14.727v-1.729L257.75,190.23Z" transform="translate(-257.75 -179.501)" fill="#ccc"/>
              <path id="Path_4213" data-name="Path 4213" d="M257.75,194.849l52.362,14.708v-1.729L257.75,193.12Z" transform="translate(-257.75 -177.017)" fill="#ccc"/>
              <path id="Path_4214" data-name="Path 4214" d="M257.75,197.748l52.362,14.708v-1.729L257.75,196Z" transform="translate(-257.75 -174.542)" fill="#ccc"/>
              <path id="Path_4215" data-name="Path 4215" d="M257.75,200.619l52.362,14.727v-1.729L257.75,198.89Z" transform="translate(-257.75 -172.058)" fill="#ccc"/>
              <path id="Path_4216" data-name="Path 4216" d="M257.75,203.509l52.362,14.708v-1.729L257.75,201.78Z" transform="translate(-257.75 -169.574)" fill="#ccc"/>
              <path id="Path_4217" data-name="Path 4217" d="M257.75,206.389l52.362,14.727v-1.729L257.75,204.66Z" transform="translate(-257.75 -167.099)" fill="#ccc"/>
              <path id="Path_4218" data-name="Path 4218" d="M257.75,209.279l52.362,14.708v-1.729L257.75,207.55Z" transform="translate(-257.75 -164.616)" fill="#ccc"/>
              <path id="Path_4219" data-name="Path 4219" d="M257.75,212.159l52.362,14.727v-1.729L257.75,210.43Z" transform="translate(-257.75 -162.14)" fill="#ccc"/>
              <path id="Path_4220" data-name="Path 4220" d="M257.75,215.049l52.362,14.727v-1.748L257.75,213.32Z" transform="translate(-257.75 -159.657)" fill="#ccc"/>
              <path id="Path_4221" data-name="Path 4221" d="M257.75,217.948l52.362,14.708v-1.729L257.75,216.2Z" transform="translate(-257.75 -157.181)" fill="#ccc"/>
            </g>
            <g id="Group_343" data-name="Group 343" transform="translate(57.606 16.27)">
              <path id="Path_4222" data-name="Path 4222" d="M288.73,194.939l52.362,14.727v-1.729L288.73,193.21Z" transform="translate(-288.73 -193.21)" fill="#ccc"/>
              <path id="Path_4223" data-name="Path 4223" d="M288.73,197.829l52.362,14.727v-1.748L288.73,196.1Z" transform="translate(-288.73 -190.726)" fill="#ccc"/>
              <path id="Path_4224" data-name="Path 4224" d="M288.73,200.728l52.362,14.708v-1.729L288.73,198.98Z" transform="translate(-288.73 -188.251)" fill="#ccc"/>
              <path id="Path_4225" data-name="Path 4225" d="M288.73,203.6l52.362,14.727V216.6L288.73,201.87Z" transform="translate(-288.73 -185.767)" fill="#ccc"/>
              <path id="Path_4226" data-name="Path 4226" d="M288.73,206.489,341.092,221.2v-1.729L288.73,204.76Z" transform="translate(-288.73 -183.283)" fill="#ccc"/>
              <path id="Path_4227" data-name="Path 4227" d="M288.73,209.369,341.092,224.1v-1.729L288.73,207.64Z" transform="translate(-288.73 -180.808)" fill="#ccc"/>
              <path id="Path_4228" data-name="Path 4228" d="M288.73,212.259l52.362,14.708v-1.729L288.73,210.53Z" transform="translate(-288.73 -178.324)" fill="#ccc"/>
              <path id="Path_4229" data-name="Path 4229" d="M288.73,215.139l52.362,14.727v-1.729L288.73,213.41Z" transform="translate(-288.73 -175.849)" fill="#ccc"/>
              <path id="Path_4230" data-name="Path 4230" d="M288.73,218.029l52.362,14.727v-1.748L288.73,216.3Z" transform="translate(-288.73 -173.366)" fill="#ccc"/>
              <path id="Path_4231" data-name="Path 4231" d="M288.73,220.919l52.362,14.708V233.9L288.73,219.19Z" transform="translate(-288.73 -170.882)" fill="#ccc"/>
              <path id="Path_4232" data-name="Path 4232" d="M288.73,223.8l52.362,14.727V236.8L288.73,222.07Z" transform="translate(-288.73 -168.407)" fill="#ccc"/>
              <path id="Path_4233" data-name="Path 4233" d="M288.73,226.689,341.092,241.4v-1.729L288.73,224.96Z" transform="translate(-288.73 -165.923)" fill="#ccc"/>
            </g>
          </g>
        </g>
      </g>
      <g id="Group_359" data-name="Group 359" transform="translate(0 31.48)">
        <g id="Group_356" data-name="Group 356">
          <path id="Path_4234" data-name="Path 4234" d="M212.82,98.4l131.723,37.04a2.279,2.279,0,0,1,1.339,2.194l.149,256.473c0,1-.6,1.655-1.32,1.45L212.988,358.533a2.336,2.336,0,0,1-1.339-2.194L211.5,99.848C211.5,98.844,212.1,98.193,212.82,98.4Z" transform="translate(-211.5 -98.36)" fill="#fff"/>
          <g id="Group_350" data-name="Group 350" transform="translate(15.345 25.655)">
            <ellipse id="Ellipse_98" data-name="Ellipse 98" cx="34.493" cy="44.05" rx="34.493" ry="44.05" transform="matrix(0.866, -0.5, 0.5, 0.866, 0, 34.493)" fill="#ffb81a"/>
            <g id="Group_349" data-name="Group 349" transform="translate(0)">
              <g id="Group_348" data-name="Group 348" clip-path="url(#clip-path)">
                <g id="Group_347" data-name="Group 347" transform="translate(27.329 58.033)">
                  <path id="Path_4235" data-name="Path 4235" d="M234.915,165c0-7.494,3.923-19.747,7.865-21.477-2.6,4.965-4.872,24.21-4.872,40.387H234.45C234.45,183.926,234.915,173.4,234.915,165Z" transform="translate(-234.45 -143.235)" fill="#3c4f5b"/>
                  <path id="Path_4236" data-name="Path 4236" d="M260.175,149.344c4.723,3.645,4.593,11.882,4.593,29.6H251.51c.112-3.9.316-10.692.725-19.6C252.57,152.245,256.345,148.954,260.175,149.344Z" transform="translate(-219.788 -138.256)" fill="#3c4f5b"/>
                  <path id="Path_4237" data-name="Path 4237" d="M242.722,143.373c4.109.335,23.224,7.084,29.323,10.208a8.3,8.3,0,0,1,1.339.874c-3.83-.39-7.605,2.9-7.921,10-.409,8.907-.614,15.694-.725,19.6H236.475l-.335-9.892c0-16.177,2.6-25.549,5.188-30.513A3.223,3.223,0,0,1,242.722,143.373Z" transform="translate(-232.998 -143.367)" fill="#3c4f5b"/>
                </g>
                <path id="Path_4238" data-name="Path 4238" d="M253.852,142.89c-.483,4.965.558,6.173.558,6.173l-10.487,11.6-1.283-13.332Z" transform="translate(-200.082 -85.743)" fill="#efccb9"/>
                <path id="Path_4239" data-name="Path 4239" d="M253.749,135.257c1.395-.911-.242,1.655-.651,3.868a15.8,15.8,0,0,0,.279,4.8,1.109,1.109,0,0,0,1.952.521l.019-.019c.781-1.041,1.116-1.915,2.269-1.841.669.056,1.432.707,1.246,2.454-.056.5-.279,2.826-1.822,3.328-.725.242-.5.539-.744,1.06-1.153,2.715-9.576,7.4-11.212,6.582a11.288,11.288,0,0,1-4.37-4.853c-.744-1.729-.911-8.814-.651-15.489,1.227.6,1.078,1.227,5.355,1.227C249.714,136.894,252.354,136.168,253.749,135.257Z" transform="translate(-202.396 -92.465)" fill="#f9d5bd"/>
                <path id="Path_4240" data-name="Path 4240" d="M242.646,133.412c3.44-1.9,5.523-2.64,8.07-2.789,4.388-.279,10.766,1.488,10.766,8.888,0,5.467-2.38,6.768-2.622,9.372.149-1.6-.483-2.4-1.246-2.454-1.153-.074-1.618,1.041-2.268,1.841-.019.019-.019.037-.037.037a1.105,1.105,0,0,1-1.934-.539,15.8,15.8,0,0,1-.279-4.8c.409-2.231,1.1-3.273-.316-2.38s-3.273,1.32-7.568,1.32c-4.277,0-5.188-1.116-5.151-2.4C240.062,139.511,239.225,135.309,242.646,133.412Z" transform="translate(-202.376 -96.31)" fill="#2d1919"/>
              </g>
            </g>
          </g>
          <g id="Group_355" data-name="Group 355" transform="translate(12.291 126.591)">
            <g id="Group_351" data-name="Group 351">
              <path id="Path_4241" data-name="Path 4241" d="M218.11,170.066l109.949,30.9v-3.626L218.11,166.44Z" transform="translate(-218.11 -166.44)" fill="#ccc"/>
              <path id="Path_4242" data-name="Path 4242" d="M218.11,175.966l109.949,30.923v-3.644L218.11,172.34Z" transform="translate(-218.11 -161.369)" fill="#ccc"/>
              <path id="Path_4243" data-name="Path 4243" d="M218.11,181.866l109.949,30.923v-3.645L218.11,178.24Z" transform="translate(-218.11 -156.299)" fill="#ccc"/>
              <path id="Path_4244" data-name="Path 4244" d="M218.11,187.785l109.949,30.9v-3.645L218.11,184.14Z" transform="translate(-218.11 -151.228)" fill="#ccc"/>
            </g>
            <g id="Group_354" data-name="Group 354" transform="translate(0 49.257)">
              <g id="Group_352" data-name="Group 352">
                <path id="Path_4245" data-name="Path 4245" d="M218.11,194.659l52.343,14.708v-1.729L218.11,192.93Z" transform="translate(-218.11 -192.93)" fill="#ccc"/>
                <path id="Path_4246" data-name="Path 4246" d="M218.11,197.539l52.343,14.727v-1.729L218.11,195.81Z" transform="translate(-218.11 -190.455)" fill="#ccc"/>
                <path id="Path_4247" data-name="Path 4247" d="M218.11,200.429l52.343,14.727v-1.748L218.11,198.7Z" transform="translate(-218.11 -187.971)" fill="#ccc"/>
                <path id="Path_4248" data-name="Path 4248" d="M218.11,203.328l52.343,14.708v-1.729L218.11,201.58Z" transform="translate(-218.11 -185.496)" fill="#ccc"/>
                <path id="Path_4249" data-name="Path 4249" d="M218.11,206.2l52.343,14.727V219.2L218.11,204.47Z" transform="translate(-218.11 -183.012)" fill="#ccc"/>
                <path id="Path_4250" data-name="Path 4250" d="M218.11,209.089,270.453,223.8v-1.729L218.11,207.36Z" transform="translate(-218.11 -180.528)" fill="#ccc"/>
                <path id="Path_4251" data-name="Path 4251" d="M218.11,211.969,270.453,226.7v-1.729L218.11,210.24Z" transform="translate(-218.11 -178.053)" fill="#ccc"/>
                <path id="Path_4252" data-name="Path 4252" d="M218.11,214.859l52.343,14.708v-1.729L218.11,213.13Z" transform="translate(-218.11 -175.569)" fill="#ccc"/>
                <path id="Path_4253" data-name="Path 4253" d="M218.11,217.739l52.343,14.727v-1.729L218.11,216.01Z" transform="translate(-218.11 -173.094)" fill="#ccc"/>
                <path id="Path_4254" data-name="Path 4254" d="M218.11,220.629l52.343,14.727v-1.729L218.11,218.9Z" transform="translate(-218.11 -170.61)" fill="#ccc"/>
                <path id="Path_4255" data-name="Path 4255" d="M218.11,223.519l52.343,14.708V236.5L218.11,221.79Z" transform="translate(-218.11 -168.127)" fill="#ccc"/>
                <path id="Path_4256" data-name="Path 4256" d="M218.11,226.4l52.343,14.727V239.4L218.11,224.67Z" transform="translate(-218.11 -165.651)" fill="#ccc"/>
              </g>
              <g id="Group_353" data-name="Group 353" transform="translate(57.587 16.27)">
                <path id="Path_4257" data-name="Path 4257" d="M249.08,203.409l52.362,14.727v-1.729L249.08,201.68Z" transform="translate(-249.08 -201.68)" fill="#ccc"/>
                <path id="Path_4258" data-name="Path 4258" d="M249.08,206.3l52.362,14.708v-1.729L249.08,204.57Z" transform="translate(-249.08 -199.196)" fill="#ccc"/>
                <path id="Path_4259" data-name="Path 4259" d="M249.08,209.179l52.362,14.727v-1.729L249.08,207.45Z" transform="translate(-249.08 -196.721)" fill="#ccc"/>
                <path id="Path_4260" data-name="Path 4260" d="M249.08,212.069l52.362,14.708v-1.729L249.08,210.34Z" transform="translate(-249.08 -194.237)" fill="#ccc"/>
                <path id="Path_4261" data-name="Path 4261" d="M249.08,214.949l52.362,14.727v-1.729L249.08,213.22Z" transform="translate(-249.08 -191.762)" fill="#ccc"/>
                <path id="Path_4262" data-name="Path 4262" d="M249.08,217.839l52.362,14.727v-1.748L249.08,216.11Z" transform="translate(-249.08 -189.278)" fill="#ccc"/>
                <path id="Path_4263" data-name="Path 4263" d="M249.08,220.738l52.362,14.708v-1.729L249.08,218.99Z" transform="translate(-249.08 -186.803)" fill="#ccc"/>
                <path id="Path_4264" data-name="Path 4264" d="M249.08,223.609l52.362,14.727v-1.729L249.08,221.88Z" transform="translate(-249.08 -184.319)" fill="#ccc"/>
                <path id="Path_4265" data-name="Path 4265" d="M249.08,226.5l52.362,14.708v-1.729L249.08,224.77Z" transform="translate(-249.08 -181.835)" fill="#ccc"/>
                <path id="Path_4266" data-name="Path 4266" d="M249.08,229.379l52.362,14.727v-1.729L249.08,227.65Z" transform="translate(-249.08 -179.36)" fill="#ccc"/>
                <path id="Path_4267" data-name="Path 4267" d="M249.08,232.269l52.362,14.708v-1.729L249.08,230.54Z" transform="translate(-249.08 -176.877)" fill="#ccc"/>
                <path id="Path_4268" data-name="Path 4268" d="M249.08,235.149l52.362,14.727v-1.729L249.08,233.42Z" transform="translate(-249.08 -174.401)" fill="#ccc"/>
              </g>
            </g>
          </g>
        </g>
        <g id="Group_357" data-name="Group 357" transform="translate(102.144 107.403)">
          <path id="Path_4269" data-name="Path 4269" d="M275.729,167.4l1.6,19.561-2.715-2.864-2.994,2.585.818-19.431Z" transform="translate(-261.974 -146.556)" fill="#af1212"/>
          <path id="Path_4270" data-name="Path 4270" d="M274.875,166.23l.112,20.1-3.142-2.733-3.124,2.733,2.529-20.1Z" transform="translate(-264.467 -147.432)" fill="#890b0b"/>
          <ellipse id="Ellipse_100" data-name="Ellipse 100" cx="9.241" cy="11.305" rx="9.241" ry="11.305" transform="translate(0 2.177) rotate(-6.765)" fill="#d30b0b"/>
        </g>
        <g id="Group_358" data-name="Group 358" transform="translate(11.843 112.339)">
          <ellipse id="Ellipse_101" data-name="Ellipse 101" cx="3.235" cy="3.942" rx="3.235" ry="3.942" transform="translate(0 0.762) rotate(-6.765)" fill="#d30b0b"/>
          <ellipse id="Ellipse_102" data-name="Ellipse 102" cx="3.235" cy="3.942" rx="3.235" ry="3.942" transform="translate(7.661 2.976) rotate(-6.765)" fill="#d30b0b"/>
          <ellipse id="Ellipse_103" data-name="Ellipse 103" cx="3.235" cy="3.942" rx="3.235" ry="3.942" transform="translate(15.339 5.169) rotate(-6.765)" fill="#d30b0b"/>
        </g>
      </g>
    </g>
    <g id="Group_376" data-name="Group 376" transform="translate(-1209.772 -96.421)">
      <g id="Group_373" data-name="Group 373" transform="translate(88.97 176.783)">
        <g id="Group_368" data-name="Group 368" transform="translate(1.302 129.287)">
          <path id="Path_4309" data-name="Path 4309" d="M323.919,384.869l-13.239-4.016,7.884-4.593,13.239,4Z" transform="translate(-310.68 -376.26)" fill="#353e47"/>
        </g>
        <g id="Group_369" data-name="Group 369" transform="translate(7.884)">
          <path id="Path_4310" data-name="Path 4310" d="M328.761,440.015l-13.239-4-1.3-129.287,13.239,4.016Z" transform="translate(-314.22 -306.73)" fill="#4e5c6a"/>
        </g>
        <g id="Group_370" data-name="Group 370">
          <path id="Path_4311" data-name="Path 4311" d="M323.2,315.339l-13.221-4,7.884-4.611,13.239,4.016Z" transform="translate(-309.98 -306.73)" fill="#095a8c"/>
        </g>
        <g id="Group_371" data-name="Group 371" transform="translate(0 4.611)">
          <path id="Path_4312" data-name="Path 4312" d="M324.521,442.495l-13.239-4.016-1.3-129.268,13.221,4Z" transform="translate(-309.98 -309.21)" fill="#9b9995"/>
        </g>
        <g id="Group_372" data-name="Group 372" transform="translate(13.221 4.016)">
          <path id="Path_4313" data-name="Path 4313" d="M326.294,438.158l-7.884,4.611-1.32-129.287,7.9-4.593Z" transform="translate(-317.09 -308.89)" fill="#848280"/>
        </g>
      </g>
      <g id="Group_375" data-name="Group 375" transform="translate(0)">
        <g id="Group_374" data-name="Group 374" transform="translate(9.438)">
          <path id="Path_4314" data-name="Path 4314" d="M401.991,265.661c-23.652-40.982-66.4-61.733-101.023-51.358h-.056l-11.752,3.031c33.767-7.494,73.987,13.221,96.654,52.492,26.683,46.207,18.985,100.614-17.2,121.5a59.962,59.962,0,0,1-15.3,6.192v.019l14.188-3.719c1.506-.335,2.975-.725,4.463-1.171l.651-.167.056-.056a60.2,60.2,0,0,0,12.124-5.281C420.957,366.257,428.674,311.868,401.991,265.661Z" transform="translate(-248.341 -211.657)" fill="#9b9995"/>
          <path id="Path_4315" data-name="Path 4315" d="M296.851,331.144c-23.578-40.852-16.772-88.937,15.21-107.4a52.906,52.906,0,0,1,8.87-4.072,54.179,54.179,0,0,0-24.47,7.122c-31.982,18.464-38.788,66.549-15.21,107.4C302.727,371.4,342,389.753,373,378.8,345.346,380.251,314.851,362.326,296.851,331.144Z" transform="translate(-267.208 -204.77)" fill="#898785"/>
          <path id="Path_4316" data-name="Path 4316" d="M389.865,267.365c-18-31.183-48.494-49.108-76.144-47.658a52.9,52.9,0,0,0-8.87,4.072c-31.982,18.464-38.788,66.549-15.21,107.4,18,31.183,48.494,49.108,76.144,47.658a52.907,52.907,0,0,0,8.87-4.072C406.637,356.3,413.442,308.217,389.865,267.365Z" transform="translate(-259.997 -204.807)" fill="#f4f4f4" opacity="0.54"/>
        </g>
        <path id="Path_4317" data-name="Path 4317" d="M409.043,267.9c-22.685-39.271-62.886-59.986-96.654-52.492l-3.923,1.023-.5.13v.019a60.359,60.359,0,0,0-12.737,5.467c-36.185,20.882-43.883,75.289-17.2,121.5,23.094,40,64.374,60.729,98.513,52.046a60.369,60.369,0,0,0,15.3-6.192C428.009,368.517,435.707,314.11,409.043,267.9Zm-22.815,111.79a52.912,52.912,0,0,1-8.87,4.072c-31,10.952-70.268-7.4-91.745-44.608-23.578-40.852-16.772-88.937,15.21-107.4a54.313,54.313,0,0,1,24.47-7.122c27.65-1.45,58.145,16.475,76.144,47.658C425.015,313.143,418.21,361.228,386.227,379.693Z" transform="translate(-262.132 -209.733)" fill="#c6c2ba"/>
        <path id="Path_4318" data-name="Path 4318" d="M363.117,248.66c-1.45-2.529-3.031-4.928-4.63-7.27L306.72,353.514a72.423,72.423,0,0,0,23.559,6.4l41.968-90.871A108.653,108.653,0,0,0,363.117,248.66Z" transform="translate(-223.811 -186.103)" fill="#f4f4f4"/>
        <path id="Path_4319" data-name="Path 4319" d="M339.621,224.1,286.98,338.121a105.807,105.807,0,0,0,8.256,9.762l54.389-117.8A89.41,89.41,0,0,0,339.621,224.1Z" transform="translate(-240.777 -200.962)" fill="#f4f4f4"/>
      </g>
    </g>
    <g id="Group_379" data-name="Group 379" transform="translate(-1424.136 -68.951)">
      <path id="Path_4320" data-name="Path 4320" d="M164.99,263.746l17.07,28.1s12.291-19.059,31.871-23.392c2.324-.521,6.731-2.343,11.789-4.481a91.362,91.362,0,0,0,13.053-6.936c4.258-2.678,8.814-5.169,11.882-7.494L246.62,240.8s-26.181,9.669-37.5,14.411C197.809,259.952,172.781,253.537,164.99,263.746Z" transform="translate(-131.256 -214.08)" fill="#242f35"/>
      <g id="Group_377" data-name="Group 377" transform="translate(37.408 254.316)">
        <path id="Path_4321" data-name="Path 4321" d="M179.079,363.2v5.727c0,1.562,13.276,13.425,16.4,16.549s3.124,8.219-2.343,8.219-10.041-.13-16.419-5.467c-6.4-5.355-9-8.739-9.52-9.781s0-14.466,0-14.466Z" transform="translate(-166.966 -363.2)" fill="#f7d5bf"/>
        <path id="Path_4322" data-name="Path 4322" d="M192.035,377c1.488,1.395,2.733,2.566,3.44,3.273,3.124,3.124,3.124,8.219-2.343,8.219s-10.041-.13-16.419-5.467c-6.378-5.355-9-8.739-9.52-9.781a18.043,18.043,0,0,1-.223-3.961c3.961,3.961,13.146,11.119,16.642,11.621C186.587,381.311,192.779,379.4,192.035,377Z" transform="translate(-166.962 -357.975)" fill="#243238"/>
      </g>
      <g id="Group_378" data-name="Group 378" transform="translate(18.45 268.913)">
        <path id="Path_4323" data-name="Path 4323" d="M156.77,373.393v19.692c0,7.308,6.025,14.466,9.8,14.466s5.6-6.378,5.6-13.035-5.076-12.644-5.076-16.809V371.05Z" transform="translate(-156.77 -371.05)" fill="#f7d5bf"/>
        <path id="Path_4324" data-name="Path 4324" d="M156.77,383.467V382.24c1.785,3.031,4.946,8.814,8.721,8.814,3.366,0,5.411-3.347,6.675-6.08-.019,6.62-1.841,12.96-5.6,12.96C162.776,397.934,156.77,390.775,156.77,383.467Z" transform="translate(-156.77 -361.433)" fill="#243238"/>
      </g>
      <path id="Path_4325" data-name="Path 4325" d="M181.634,264.617c-.056,5.8-9.186,3.756-10.487,2.975s-9.706-15.731-9.706-15.731l11.008-1.3s5.6,3.347,7.363,6.192C181.578,259.56,181.634,264.617,181.634,264.617Z" transform="translate(-134.307 -205.692)" fill="#e8c5b1"/>
      <path id="Path_4326" data-name="Path 4326" d="M160.67,262.81h6.564a7.456,7.456,0,0,0,7.456-7.456v-10.8H160.67Z" transform="translate(-134.968 -210.857)" fill="#e8c5b1"/>
      <path id="Path_4327" data-name="Path 4327" d="M186.482,285.32c.781,24.507,4.426,55.263,3.9,73-.521,17.72-9.65,77.836-9.65,77.836a19.331,19.331,0,0,1-9.13,2.864H166.66V354.4c0-35.98,12.774-66.735,12.774-66.735Z" transform="translate(-129.82 -175.817)" fill="#242f35"/>
      <path id="Path_4328" data-name="Path 4328" d="M157.692,294.131c-8.87,25.549,0,62.05,0,72.481s-1.971,37.282-1.971,52.92-.353,29.844-.353,29.844a27.438,27.438,0,0,0,8.739,1.3c1.822-.13,10.655-1.488,10.655-1.488s1.023-47.211,2.994-61.64c1.432-10.413,2.6-49.87,3.384-57.159s9.39-21.384,9.39-30.755V286.6a125.662,125.662,0,0,1-18.39,5.727C161.857,294.651,157.692,294.131,157.692,294.131Z" transform="translate(-140.916 -174.717)" fill="#242f35"/>
      <path id="Path_4329" data-name="Path 4329" d="M183.274,231.739c1.078,12.7.149,31.834-5.318,32.224s-15.675.483-17.2-4.89c-.39-1.376.465-5.467.948-6.806,1.785-4.909,3.607-6.341,8.107-13.537A14.245,14.245,0,0,1,183.274,231.739Z" transform="translate(-134.98 -221.921)" fill="#f7d5bf"/>
      <path id="Path_4330" data-name="Path 4330" d="M176.537,258.318s0-.167-.019-.428c2.138,4.518,3.812,9.651,3.607,14.5-.26,6.415-1.246,23.652-2.176,39.2-1.45.576-4.649,1.785-8.87,3.068-.335-12.049-.483-25.288.149-32.745a52.751,52.751,0,0,0-1.859-20.138C170.308,262.539,176.5,263.1,176.537,258.318Z" transform="translate(-129.21 -199.392)" fill="#f9fafc"/>
      <path id="Path_4331" data-name="Path 4331" d="M184.069,252.525c11.212,8.089,13.425,19.3,10.562,32.075s2.919,60.227,2.919,60.227l-39.16,5.448s25.177-52.287,25.7-65.062-7.568-33.879-7.568-33.879S179.495,249.234,184.069,252.525Z" transform="translate(-136.928 -205.593)" fill="#242f35"/>
      <path id="Path_4332" data-name="Path 4332" d="M168.84,251.25c11.138,6.062,22.7,21.477,21.328,37.5s13.518,55.56,13.518,55.56-27.427,4.89-36.222,5.281a100.67,100.67,0,0,1-12.7,0s3.514-25.6,5.076-32.652,1.153-26.776,1.153-26.776,2.38-9.595-.948-16.642a24.314,24.314,0,0,0-8.8-10.171s5.318-5.8,9.39-8.219A51.062,51.062,0,0,1,168.84,251.25Z" transform="translate(-143.064 -205.099)" fill="#2d3c44"/>
      <path id="Path_4333" data-name="Path 4333" d="M155.015,257.77a24.314,24.314,0,0,1,8.8,10.171c3.328,7.047.948,16.642.948,16.642s-6.415,9.948-5.076,16.791c.614,3.142,1.543,11.138,2.361,18.873-.948,5.894-.335,13-1.041,17.888h-9.111s-3.514-23.857-4.686-34.809C146.015,292.374,147.6,265.784,155.015,257.77Z" transform="translate(-146.848 -199.495)" fill="#3c4f5b"/>
      <path id="Path_4334" data-name="Path 4334" d="M173.667,226.43c16.028,0,16.419,9.967,16.419,9.967s-22.964,23.373-22.964,27.185-.074,14.8-.074,14.8l-13.8,2.919V247.367C153.25,230.075,164.276,226.43,173.667,226.43Z" transform="translate(-141.346 -226.43)" fill="#421e0c"/>
      <path id="Path_4335" data-name="Path 4335" d="M183.236,232.6c-5.169,6.843-22.016,16.977-22.016,16.977s4.109-8.182,6.6-15.08S183.236,232.6,183.236,232.6Z" transform="translate(-134.496 -222.633)" fill="#421e0c"/>
    </g>
    <g id="Group_382" data-name="Group 382" transform="translate(-1329.666 219.952)">
      <g id="Group_380" data-name="Group 380" transform="translate(0.028 0)">
        <path id="Path_4336" data-name="Path 4336" d="M409.719,406.3a12.166,12.166,0,0,1,5.244-.019l99.685,25.363c1.45.372,1.45.985.019,1.376L355.851,475.579a12.165,12.165,0,0,1-5.244.037l-99.685-25.363c-1.45-.372-1.45-.986,0-1.376Z" transform="translate(-249.835 -406.001)" fill="#3c4f5b"/>
      </g>
      <path id="Path_4337" data-name="Path 4337" d="M515.739,420.15c0,.13-.093.242-.26.353h-.019a2.448,2.448,0,0,1-.316.167h-.019a2.284,2.284,0,0,1-.465.149L355.845,463.382a5.988,5.988,0,0,1-1.06.186,2.061,2.061,0,0,1-.353.037c-.39.037-.8.074-1.209.074h0c-.465,0-.948-.019-1.395-.056h0a7.679,7.679,0,0,1-1.227-.2l-99.685-25.363c-.13-.037-.223-.074-.335-.112-.056-.019-.13-.037-.186-.056a1,1,0,0,0-.2-.093.616.616,0,0,1-.112-.056.805.805,0,0,1-.13-.112l-.056-.056a.33.33,0,0,1-.074-.186l.037,6.62a.3.3,0,0,0,.074.186l.056.056a.809.809,0,0,0,.13.112l.112.056a.685.685,0,0,0,.2.093c.056.019.112.037.186.056.056.019.112.037.186.056.056.019.093.019.149.037l99.685,25.363a.347.347,0,0,1,.13.037c.074.019.149.037.242.056.074.019.149.019.223.037s.13.019.2.037c.074,0,.13.019.2.019s.13.019.2.019h.037a.408.408,0,0,1,.149.019c.074,0,.13.019.2.019a1387.44,1387.44,0,0,1,.409.037h1.023a1.141,1.141,0,0,0,.242-.019c.112,0,.223-.019.335-.019a1.436,1.436,0,0,0,.279-.037c.112-.019.223-.019.353-.037.112-.019.242-.019.353-.037a3.817,3.817,0,0,0,.446-.093,1.068,1.068,0,0,0,.26-.074L514.753,427.42h.037a1.048,1.048,0,0,0,.223-.074l.167-.056a.065.065,0,0,0,.037-.019h.019c.019,0,.056-.019.074-.019l.112-.056a.408.408,0,0,0,.093-.056.04.04,0,0,0,.037-.037h.019l.019-.019c.019-.019.056-.037.074-.056l.056-.056c.019-.019.037-.037.037-.056h0c.019-.019.019-.037.037-.056a.068.068,0,0,0,.019-.056v-.056h0Z" transform="translate(-249.82 -393.841)" fill="#26333a"/>
      <g id="Group_381" data-name="Group 381" transform="translate(34.92 2.898)">
        <path id="Path_4338" data-name="Path 4338" d="M393.536,407.56l87.3,22.183L355.919,464.5,268.6,442.313Z" transform="translate(-268.6 -407.56)" fill="#fff"/>
      </g>
      <ellipse id="Ellipse_104" data-name="Ellipse 104" cx="9.818" cy="3.775" rx="9.818" ry="3.775" transform="translate(52.381 47.618)" fill="#26333a"/>
    </g>
    <g id="Group_384" data-name="Group 384" transform="translate(-958.53 -309.217)">
      <g id="Group_383" data-name="Group 383">
        <path id="Path_4339" data-name="Path 4339" d="M361.165,381.71l-2.975,42.9-27.39-5.337Z" transform="translate(-300.473 -381.71)" fill="#fff"/>
        <path id="Path_4340" data-name="Path 4340" d="M314.49,415.124l60.692-33.414-37.561,36.017Z" transform="translate(-314.49 -381.71)" fill="#fff"/>
        <path id="Path_4341" data-name="Path 4341" d="M334.5,438.572l-7.568-20.844,37.561-36.017-30.365,37.561Z" transform="translate(-303.799 -381.71)" fill="#e0e0e0"/>
      </g>
      <path id="Path_4342" data-name="Path 4342" d="M331.172,421.211l9.2-17.46L330.8,401.91Z" transform="translate(-300.473 -364.349)" fill="#b7b7b7"/>
    </g>
    <path id="Path_4343" data-name="Path 4343" d="M163.637,315.911a46.18,46.18,0,0,0-3.087-7.624c-.93-1.413-3.552-2.771-4.351-5.411a3.18,3.18,0,0,1,0-1.9h-6.1l.558,1.952a3.622,3.622,0,0,1,.13,1.1c-.093,1.8-.391,7.475-.391,8.758,0,1.525-.5,9.26-.149,10.673s1.023.316,1.227-2.269c.186-2.194.372-3.737.409-3.049s.818,6.843,1.32,7.977,1.283,1.45,1.171-1.3c-.093-2.1-.614-7.233-.186-6.322.074,1.209.707,8.312,1.227,8.386.576.074,1.153-2.38.8-5.411-.3-2.473.037-3.347.056-2.956s.8,7.27,1.432,7.345c1.3.167,1.06-4.556.837-8.535-.2-3.83.539-5.169.744-4.835s1.153,2.529,2.176,3.2S163.9,316.99,163.637,315.911Z" transform="translate(-1568.189 -231.309)" fill="#f7d5bf"/>
    <g id="Group_385" data-name="Group 385" transform="translate(-1308.457 -48.46)">
      <path id="Path_4344" data-name="Path 4344" d="M209.06,244.311c2.231-1.283,3.979-.837,5.169-1.562s3.31-3.105,4.8-4a8.355,8.355,0,0,1,3.31-1.3c.558,0,.632.3,1.1.316a10.1,10.1,0,0,1,1.785.353,2.768,2.768,0,0,0,1.432.316c.688-.074,1.3.446,1.6.372a18.9,18.9,0,0,1,3.366-.948c.948-.037,2.473-.353,3.57-.335s1.246.242,1.283.614c.037.39-1.134,1.227-2.436,1.581a14.114,14.114,0,0,0-2.287.576,29.31,29.31,0,0,0-2.864,1.525,6,6,0,0,0-2.269,2.138,3.187,3.187,0,0,0-.3,2.715c.353.539.893.985,2.771.781s5.746.409,5.894,1.357-.483,1.859-4.574,1.748a25.146,25.146,0,0,0-5.3.279,18.356,18.356,0,0,1-5.392-.428c-.855-.353-1.246-1.06-3.384-.539-1,.242-2.64.781-4.091,1.3Z" transform="translate(-209.06 -237.45)" fill="#f7d5bf"/>
      <path id="Path_4345" data-name="Path 4345" d="M220.679,242.815a27.055,27.055,0,0,1-1.9,2.324,1.8,1.8,0,0,1-.353-.409,3.188,3.188,0,0,1,.3-2.715A6.006,6.006,0,0,1,221,239.877l.279-.167A3.469,3.469,0,0,1,220.679,242.815Z" transform="translate(-201.174 -235.508)" fill="#eac4b0"/>
    </g>
  </g>
</svg>
