<svg xmlns="http://www.w3.org/2000/svg" xmlns:xlink="http://www.w3.org/1999/xlink" width="154" height="136.192" viewBox="0 0 154 136.192">
  <defs>
    <linearGradient id="linear-gradient" x1="0.63" y1="1" x2="0.633" gradientUnits="objectBoundingBox">
      <stop offset="0" stop-color="#f37135"/>
      <stop offset="1" stop-color="#cd3033"/>
    </linearGradient>
  </defs>
  <g id="opportunity" transform="translate(0 -29.603)">
    <g id="Group_388" data-name="Group 388" transform="translate(0 29.603)">
      <path id="Path_4348" data-name="Path 4348" d="M143.043,77.779c-.274-.274-.553-.542-.834-.807V68.3a15.651,15.651,0,0,0-15.633-15.633H99.153V44.814A15.228,15.228,0,0,0,83.942,29.6H58.267A15.228,15.228,0,0,0,43.056,44.814v7.856H15.633A15.651,15.651,0,0,0,0,68.3V137.89a15.651,15.651,0,0,0,15.633,15.633h32.64a2.256,2.256,0,0,0,0-4.512H15.633A11.134,11.134,0,0,1,4.511,137.889V92.381A26.509,26.509,0,0,0,24.519,104.03v8.213a8.507,8.507,0,0,0,17.014,0V104.1h37.7c0,.036,0,.072,0,.108a37.111,37.111,0,0,0,6.58,21.2L81.02,130.2a4.956,4.956,0,0,0-4.86,1.259l-18.4,18.4a9.339,9.339,0,0,0,13.207,13.207l18.4-18.4a4.957,4.957,0,0,0,1.259-4.86l4.793-4.793a37.473,37.473,0,0,0,42.278.071v2.81a11.134,11.134,0,0,1-11.122,11.122H90.944a2.256,2.256,0,0,0,0,4.512h35.631a15.651,15.651,0,0,0,15.633-15.633v-6.439c.281-.264.56-.532.834-.806a37.362,37.362,0,0,0,0-52.866ZM47.567,44.814a10.712,10.712,0,0,1,10.7-10.7H83.942a10.712,10.712,0,0,1,10.7,10.7v7.856H89.83V44.814a5.894,5.894,0,0,0-5.887-5.887H58.266a5.894,5.894,0,0,0-5.887,5.887v7.856H47.567Zm9.324,7.856V44.814a1.377,1.377,0,0,1,1.376-1.376H83.942a1.377,1.377,0,0,1,1.376,1.376v7.856ZM37.022,105.309H29.031V97.715a4,4,0,1,1,7.991,0Zm-4,10.93a4,4,0,0,1-4-4v-2.422h7.991v2.422A4,4,0,0,1,33.026,116.239Zm8.507-16.646V97.715a8.507,8.507,0,0,0-17.014,0V99.5A22.012,22.012,0,0,1,4.511,77.608V68.3A11.134,11.134,0,0,1,15.633,57.182H126.575A11.134,11.134,0,0,1,137.7,68.3v5.032A37.4,37.4,0,0,0,79.51,99.592H41.533Zm26.248,60.275a4.828,4.828,0,1,1-6.827-6.827L73.7,140.3l6.827,6.827Zm18.4-18.4-2.462,2.462-6.827-6.827,2.462-2.462a.444.444,0,0,1,.627,0h0l6.2,6.2a.444.444,0,0,1,0,.627Zm1.7-5.3-3.226-3.226,3.96-3.96q.754.85,1.563,1.663t1.664,1.562Zm5.487-8.713a32.87,32.87,0,1,1,46.485,0A32.654,32.654,0,0,1,93.368,127.454Z" transform="translate(0 -29.603)" fill="url(#linear-gradient)"/>
      <path id="Path_4349" data-name="Path 4349" d="M349.485,217.752a2.255,2.255,0,0,0-2.684,1.725,22.573,22.573,0,1,1,0-9.657,2.256,2.256,0,1,0,4.408-.961,27.087,27.087,0,1,0,0,11.576A2.256,2.256,0,0,0,349.485,217.752Z" transform="translate(-208.128 -140.046)" fill="url(#linear-gradient)"/>
    </g>
  </g>
</svg>
