<svg xmlns="http://www.w3.org/2000/svg" xmlns:xlink="http://www.w3.org/1999/xlink" width="3766.946" height="1423.991" viewBox="0 0 3766.946 1423.991">
  <defs>
    <linearGradient id="linear-gradient" x1="0.697" y1="0.351" x2="0.698" y2="1" gradientUnits="objectBoundingBox">
      <stop offset="0" stop-color="#f37135"/>
      <stop offset="1" stop-color="#cd3033"/>
    </linearGradient>
  </defs>
  <g id="Group_3711" data-name="Group 3711" transform="translate(228.427 -3833.703)">
    <path id="Path_4850" data-name="Path 4850" d="M3938.313,1517.047c-.146,7.459-.437,14.785-.728,22.1-.437,7.313-.873,14.481-1.31,21.648-1.176,15.354-2.777,30.575-4.826,45.347-2.486,19.017-5.554,37.742-9.072,55.741-1.032,5.118-2.05,10.091-3.068,15.076-.437,2.05-.873,3.954-1.323,5.845l-.291,1.032q-.873,3.947-1.759,7.895c-.437,2.486-1.019,4.972-1.614,7.313-2.195,9.072-4.536,18-6.876,26.62-.146.728-.436,1.455-.582,2.2-.291.886-.436,1.759-.727,2.632-2.632,9.8-5.409,19.162-8.2,28.379-3.808,12.431-7.75,24.293-11.7,35.838-1.177,3.359-2.34,6.731-3.517,9.945-1.759,4.827-3.518,9.654-5.118,14.335v.146c-1.614,3.809-2.923,7.314-4.391,10.976-2.2,5.845-4.536,11.413-6.731,16.967-3.36,8.2-6.731,16.094-9.945,23.407-.728,1.759-1.469,3.359-2.195,4.972-1.469,3.359-2.923,6.585-4.246,9.654-2.923,6.441-5.845,12.577-8.636,18.29s-5.409,11.121-7.9,16.094c-9.363,18.435-17.258,33.643-20.776,40.229-1.177,2.341-1.9,3.663-1.9,3.663s-3604.545.437-3604.69.291c-95.242-212.86,12.722-375.547,238.622-559.446,169.127-137.957,483.234-185.658,401.3-476.939-96.7-343.346,360.194-455.7,816.213-348.464,356.676,83.83,684.973,381.406,932.23,281.627,479.134-193.407,708.83-107.237,841.523-51.5,4.244,1.759,8.49,3.518,12.576,5.409q29.18,12.715,58.809,28.816c4.1,2.2,8.2,4.536,12.431,6.877,13.754,7.749,27.653,16.094,41.552,25.02,6.44,4.245,12.881,8.49,19.453,12.868a8.724,8.724,0,0,1,1.469,1.031c8.927,5.991,17.852,12.14,26.78,18.726,10.381,7.6,20.775,15.512,31.3,23.844q27.87,21.939,55.886,47.251c7.167,6.44,14.189,13.026,21.357,19.757q12.517,11.624,24.134,23.7c7.168,7.458,14.19,14.917,20.922,22.376,2.341,2.486,4.682,5.118,7.023,7.763,5.713,6.44,11.121,13.013,16.53,19.453,4.972,5.991,9.653,12.14,14.335,18.144,1.759,2.341,3.518,4.682,5.264,6.877,2.777,3.808,5.554,7.458,8.186,11.267,5.7,8.041,11.268,15.949,16.385,23.989q10.533,16.028,19.757,32.043c.873,1.468,1.759,2.923,2.632,4.536.728,1.309,1.469,2.632,2.2,3.941,2.049,3.664,4.1,7.472,6.149,11.122a667.108,667.108,0,0,1,35.256,77.971c.581,1.613,1.163,3.214,1.758,4.827,1.018,2.632,1.9,5.264,2.778,7.9,1.758,4.827,3.359,9.654,4.972,14.48,1.469,4.682,2.923,9.509,4.391,14.19.145.582.436,1.322.581,1.9,1.177,3.941,2.2,7.75,3.359,11.7,1.9,7.022,3.809,14.044,5.409,21.066,2.632,11.122,4.973,22.1,7.023,33.207.145,1.019.435,2.2.582,3.227,1.9,10.685,3.517,21.212,4.972,31.751A731.868,731.868,0,0,1,3938.313,1517.047Z" transform="translate(-399.952 3293.989)" fill="url(#linear-gradient)"/>
  </g>
</svg>
