<svg xmlns="http://www.w3.org/2000/svg" xmlns:xlink="http://www.w3.org/1999/xlink" width="768" height="352.494" viewBox="0 0 768 352.494">
  <defs>
    <filter id="Rectangle_552" x="0" y="31.722" width="768" height="315" filterUnits="userSpaceOnUse">
      <feOffset dy="3" input="SourceAlpha"/>
      <feGaussianBlur stdDeviation="3" result="blur"/>
      <feFlood flood-opacity="0.161"/>
      <feComposite operator="in" in2="blur"/>
      <feComposite in="SourceGraphic"/>
    </filter>
  </defs>
  <g id="Group_3712" data-name="Group 3712" transform="translate(-1002 -3821.278)">
    <g transform="matrix(1, 0, 0, 1, 1002, 3821.28)" filter="url(#Rectangle_552)">
      <rect id="Rectangle_552-2" data-name="Rectangle 552" width="750" height="297" rx="24" transform="translate(9 37.72)" fill="#fff"/>
    </g>
    <g id="Speech_Bubble" transform="translate(1270.593 3826.315)">
      <g id="Group_3364" data-name="Group 3364" transform="translate(0 0)">
        <g id="Group_3360" data-name="Group 3360" transform="translate(22.081 35.08)">
          <g id="Group_3355" data-name="Group 3355" transform="translate(0)">
            <g id="Group_3354" data-name="Group 3354" transform="translate(0)">
              <ellipse id="Ellipse_205" data-name="Ellipse 205" cx="3.283" cy="3.283" rx="3.283" ry="3.283" transform="translate(0)" fill="#263238"/>
            </g>
          </g>
          <g id="Group_3357" data-name="Group 3357" transform="translate(13.139)">
            <g id="Group_3356" data-name="Group 3356" transform="translate(0)">
              <ellipse id="Ellipse_206" data-name="Ellipse 206" cx="3.283" cy="3.283" rx="3.283" ry="3.283" transform="translate(0)" fill="#263238"/>
            </g>
          </g>
          <g id="Group_3359" data-name="Group 3359" transform="translate(26.685)">
            <g id="Group_3358" data-name="Group 3358" transform="translate(0)">
              <ellipse id="Ellipse_207" data-name="Ellipse 207" cx="3.283" cy="3.283" rx="3.283" ry="3.283" transform="translate(0)" fill="#263238"/>
            </g>
          </g>
        </g>
        <g id="Group_3363" data-name="Group 3363">
          <g id="Group_3362" data-name="Group 3362" transform="translate(0)">
            <g id="Group_3361" data-name="Group 3361">
              <path id="Path_5245" data-name="Path 5245" d="M445.091,119.223a3.679,3.679,0,0,1,.664-.011l1.952.055c.428.02.91.02,1.438.064l1.722.242,2.008.289,2.244.556a36.353,36.353,0,0,1,10.877,4.742,38.38,38.38,0,0,1,17.628,28.848,39.585,39.585,0,0,1,.107,5.259c-.062.889-.043,1.793-.174,2.69l-.408,2.709a38.573,38.573,0,0,1-3.654,10.7,41.249,41.249,0,0,1-6.99,9.618,40.406,40.406,0,0,1-10.072,7.235,36.585,36.585,0,0,1-12.275,3.768,24.357,24.357,0,0,1-3.275.279,29.6,29.6,0,0,1-3.31.06,39.418,39.418,0,0,1-6.629-.837,38.754,38.754,0,0,1-13.2-5.554l.4.04-13.443,5.4-.8.32.228-.826q2.033-7.4,3.951-14.373l.068.354a38.58,38.58,0,0,1-7.174-16.422,34.89,34.89,0,0,1-.522-8.414,26.981,26.981,0,0,1,.381-4.042c.1-.66.2-1.316.306-1.966.119-.647.316-1.273.469-1.9a38.445,38.445,0,0,1,15-21.866,36.7,36.7,0,0,1,8.926-4.708l2.01-.721,1.909-.484,1.746-.433c.56-.108,1.1-.165,1.607-.243,1.017-.129,1.909-.3,2.692-.343l1.976-.066,1.207-.026a1.724,1.724,0,0,1,.409.012,1.792,1.792,0,0,1-.408.056l-1.2.095-1.962.132c-.775.06-1.66.256-2.666.405a38.232,38.232,0,0,0-30.568,28.358c-.148.619-.338,1.235-.453,1.87q-.144.959-.29,1.933a26.423,26.423,0,0,0-.356,3.968,34.193,34.193,0,0,0,.545,8.249,37.871,37.871,0,0,0,7.074,16.066l.121.16-.054.2q-1.9,6.964-3.922,14.38l-.569-.506,13.437-5.411.21-.084.191.126a37.945,37.945,0,0,0,12.9,5.425,38.521,38.521,0,0,0,6.481.82,28.763,28.763,0,0,0,3.236-.058,23.758,23.758,0,0,0,3.2-.27,35.8,35.8,0,0,0,12.006-3.671,39.676,39.676,0,0,0,9.865-7.06,40.531,40.531,0,0,0,6.866-9.4,37.908,37.908,0,0,0,3.614-10.473l.411-2.653c.131-.879.115-1.766.18-2.637a37.9,37.9,0,0,0-17.255-33.666,36.566,36.566,0,0,0-10.7-4.823l-2.215-.591-1.988-.326-1.7-.282c-.523-.058-1-.071-1.427-.105l-1.941-.141A3.953,3.953,0,0,1,445.091,119.223Z" transform="translate(-406.385 -119.208)" fill="#263238"/>
            </g>
          </g>
        </g>
      </g>
    </g>
    <g id="Group_3564" data-name="Group 3564" transform="translate(650.315 3723.029)">
      <rect id="Rectangle_587" data-name="Rectangle 587" width="39.944" height="67.233" transform="translate(442.19 173.718)" fill="#f5f5f5"/>
      <rect id="Rectangle_588" data-name="Rectangle 588" width="32.507" height="67.233" transform="translate(408.333 173.718)" fill="#f5f5f5"/>
      <rect id="Rectangle_589" data-name="Rectangle 589" width="35.104" height="67.233" transform="translate(526.275 173.718)" fill="#f5f5f5"/>
      <rect id="Rectangle_592" data-name="Rectangle 592" width="32.507" height="60.585" transform="translate(408.333 242.155)" fill="#f5f5f5"/>
      <rect id="Rectangle_593" data-name="Rectangle 593" width="39.944" height="60.585" transform="translate(442.19 242.155)" fill="#f5f5f5"/>
      <rect id="Rectangle_594" data-name="Rectangle 594" width="35.104" height="60.585" transform="translate(526.275 242.155)" fill="#f5f5f5"/>
      <rect id="Rectangle_596" data-name="Rectangle 596" width="37.93" height="60.585" transform="translate(486.996 242.155)" fill="#f5f5f5"/>
      <rect id="Rectangle_597" data-name="Rectangle 597" width="37.93" height="67.233" transform="translate(486.996 173.718)" fill="#f5f5f5"/>
    </g>
    <g id="Character_2" transform="translate(1122.7 3821.278)">
      <g id="Group_3141" data-name="Group 3141" transform="translate(0 0)">
        <g id="Group_2842" data-name="Group 2842" transform="translate(0 131.26)">
          <g id="Group_2836" data-name="Group 2836">
            <g id="Group_2835" data-name="Group 2835" transform="translate(3.348 85.553)">
              <path id="Path_5097" data-name="Path 5097" d="M616.436,397.45v71.9h-8.524l-3.173-72.1Z" transform="translate(-604.739 -350.706)" fill="#263238"/>
              <path id="Path_5098" data-name="Path 5098" d="M484.1,397.25l-4.068,72.1h-8.078l-.091-71.9Z" transform="translate(-332.22 -350.706)" fill="#263238"/>
              <path id="Path_5099" data-name="Path 5099" d="M466.086,405.171H611.995a6.9,6.9,0,0,0,6.9-6.9V360.033a6.9,6.9,0,0,0-6.9-6.9H466.086a6.9,6.9,0,0,0-6.9,6.9v38.236A6.9,6.9,0,0,0,466.086,405.171Z" transform="translate(-453.646 -353.13)" fill="#455a64"/>
            </g>
            <path id="Path_5100" data-name="Path 5100" d="M536.5,334.312c-1.91-14.4-3.468-29.912,3.453-42.684,7.19-13.266,23.051-20.794,38.078-19.437s28.739,10.869,36.654,23.714,10.319,28.661,8.2,43.6" transform="translate(-534.88 -272.033)" fill="#455a64"/>
          </g>
          <g id="Group_2837" data-name="Group 2837" transform="translate(74.593 118.989)">
            <path id="Path_5101" data-name="Path 5101" d="M471.217,385.1c0,.152,18.2.274,40.655.274s40.658-.122,40.658-.274-18.2-.275-40.658-.275S471.217,384.947,471.217,385.1Z" transform="translate(-471.217 -384.824)" fill="#263238"/>
          </g>
          <g id="Group_2838" data-name="Group 2838" transform="translate(73.976 118.891)">
            <ellipse id="Ellipse_186" data-name="Ellipse 186" cx="10.177" cy="0.11" rx="10.177" ry="0.11" transform="translate(15.764 13.044) rotate(-140.763)" fill="#fafafa"/>
          </g>
          <g id="Group_2839" data-name="Group 2839" transform="translate(89.508 102.081)">
            <ellipse id="Ellipse_187" data-name="Ellipse 187" cx="29.826" cy="0.11" rx="29.826" ry="0.11" transform="matrix(-0.817, -0.577, 0.577, -0.817, 48.719, 34.599)" fill="#fafafa"/>
          </g>
          <g id="Group_2840" data-name="Group 2840" transform="translate(126.512 101.304)">
            <ellipse id="Ellipse_188" data-name="Ellipse 188" cx="19.752" cy="0.11" rx="19.752" ry="0.11" transform="translate(32.026 23.307) rotate(-144.163)" fill="#fafafa"/>
          </g>
          <g id="Group_2841" data-name="Group 2841" transform="translate(143.138 90.162)">
            <path id="Path_5102" data-name="Path 5102" d="M467.71,357.5c0,.007.055.046.169.115.161.095.329.191.505.293l1.86,1.068c1.564.91,3.7,2.219,5.974,3.781s4.261,3.089,5.672,4.223l1.663,1.353.455.367a.772.772,0,0,0,.169.116c.005-.005-.043-.057-.139-.15-.138-.128-.279-.26-.427-.4-.373-.343-.926-.825-1.621-1.408-1.387-1.167-3.363-2.714-5.646-4.285s-4.435-2.857-6.022-3.735c-.793-.44-1.442-.783-1.9-1.009l-.524-.256A.85.85,0,0,0,467.71,357.5Z" transform="translate(-467.71 -357.499)" fill="#fafafa"/>
          </g>
        </g>
        <g id="Group_2843" data-name="Group 2843" transform="translate(2.572 155.807)">
          <path id="Path_5103" data-name="Path 5103" d="M583.474,295.3s.105.1.32.286l.943.788c.819.683,2.023,1.65,3.526,2.826,3,2.354,7.235,5.5,12.063,8.761s9.338,6,12.645,7.9c1.653.952,3,1.7,3.942,2.209l1.083.578c.248.13.385.189.385.189s-.122-.084-.364-.228L616.953,318l-3.9-2.268c-3.286-1.935-7.775-4.7-12.6-7.948s-9.065-6.38-12.091-8.7l-3.567-2.77-.969-.756C583.6,295.382,583.474,295.3,583.474,295.3Z" transform="translate(-583.474 -295.301)" fill="#fafafa"/>
        </g>
        <g id="Group_2844" data-name="Group 2844" transform="translate(13.377 139.475)">
          <path id="Path_5104" data-name="Path 5104" d="M607.058,279.822a1.637,1.637,0,0,0-.445.215,13.573,13.573,0,0,0-1.209.734,22.152,22.152,0,0,0-3.951,3.391,32.177,32.177,0,0,0-7.567,15.255,60.8,60.8,0,0,0-.743,17.1c.175,2.185.376,3.947.532,5.163.077.553.142,1.014.2,1.4a1.694,1.694,0,0,0,.107.483,12.865,12.865,0,0,0-.09-1.9c-.09-1.221-.231-2.985-.357-5.166a65.239,65.239,0,0,1,.893-16.963,32.978,32.978,0,0,1,7.317-15.106A31.763,31.763,0,0,1,607.058,279.822Z" transform="translate(-592.866 -279.82)" fill="#263238"/>
        </g>
        <g id="Group_2845" data-name="Group 2845" transform="translate(12.061 141.259)">
          <path id="Path_5105" data-name="Path 5105" d="M591.448,281.512c0,.006.047.056.149.145l.453.38c.4.328.978.789,1.706,1.346,1.457,1.116,3.515,2.6,5.869,4.117s4.555,2.781,6.174,3.647c.809.434,1.47.773,1.93,1l.534.254a.709.709,0,0,0,.193.076.741.741,0,0,0-.173-.115c-.164-.094-.333-.19-.513-.291l-1.895-1.058c-1.6-.9-3.779-2.182-6.13-3.7s-4.416-2.975-5.894-4.058c-.649-.479-1.227-.906-1.745-1.29l-.478-.347A.725.725,0,0,0,591.448,281.512Z" transform="translate(-591.448 -281.511)" fill="#fafafa"/>
        </g>
        <g id="Group_2886" data-name="Group 2886" transform="translate(59.303 172.933)">
          <g id="Group_2884" data-name="Group 2884" transform="translate(101.498 121.726)">
            <g id="Group_2872" data-name="Group 2872" transform="translate(0.007)">
              <g id="Group_2848" data-name="Group 2848" transform="translate(0)">
                <g id="Group_2847" data-name="Group 2847" transform="translate(0)">
                  <g id="Group_2846" data-name="Group 2846">
                    <path id="Path_5106" data-name="Path 5106" d="M443.806,427.107l-1.059,26.116s26.19,9.849,26.465,14.694l-50.712-.235-.02-40.761Z" transform="translate(-418.48 -426.921)" fill="#9e1a00"/>
                  </g>
                </g>
              </g>
              <g id="Group_2852" data-name="Group 2852" transform="translate(7.111 23.949)" opacity="0.6">
                <g id="Group_2851" data-name="Group 2851" transform="translate(0)">
                  <g id="Group_2850" data-name="Group 2850" transform="translate(0)">
                    <g id="Group_2849" data-name="Group 2849">
                      <path id="Path_5107" data-name="Path 5107" d="M457.566,449.706a2.071,2.071,0,0,0-1.443,2.357,1.993,1.993,0,0,0,2.324,1.451,2.184,2.184,0,0,0,1.515-2.5,2.065,2.065,0,0,0-2.584-1.242" transform="translate(-456.08 -449.622)" fill="#fff"/>
                    </g>
                  </g>
                </g>
              </g>
              <g id="Group_2855" data-name="Group 2855" transform="translate(0.02 36.652)" opacity="0.6">
                <g id="Group_2854" data-name="Group 2854">
                  <g id="Group_2853" data-name="Group 2853">
                    <path id="Path_5108" data-name="Path 5108" d="M418.46,465.773l.158-4.109,48.563,1.762s2.253.993,1.991,2.581Z" transform="translate(-418.46 -461.664)" fill="#fff"/>
                  </g>
                </g>
              </g>
              <g id="Group_2859" data-name="Group 2859" transform="translate(20.455 25.816)">
                <g id="Group_2858" data-name="Group 2858" transform="translate(0)">
                  <g id="Group_2857" data-name="Group 2857" transform="translate(0)">
                    <g id="Group_2856" data-name="Group 2856">
                      <path id="Path_5109" data-name="Path 5109" d="M447.42,451.625c-.009.247-1.248.354-2.471,1.145-1.243.758-1.875,1.828-2.1,1.73-.229-.05.148-1.528,1.645-2.459S447.474,451.4,447.42,451.625Z" transform="translate(-442.785 -451.392)" fill="#263238"/>
                    </g>
                  </g>
                </g>
              </g>
              <g id="Group_2863" data-name="Group 2863" transform="translate(27.022 28.171)">
                <g id="Group_2862" data-name="Group 2862" transform="translate(0)">
                  <g id="Group_2861" data-name="Group 2861" transform="translate(0)">
                    <g id="Group_2860" data-name="Group 2860">
                      <path id="Path_5110" data-name="Path 5110" d="M441.129,453.726c.056.242-1.019.656-1.865,1.7-.877,1.019-1.094,2.15-1.341,2.138-.233.037-.4-1.414.679-2.691S441.125,453.491,441.129,453.726Z" transform="translate(-437.751 -453.625)" fill="#263238"/>
                    </g>
                  </g>
                </g>
              </g>
              <g id="Group_2867" data-name="Group 2867" transform="translate(33.098 30.389)">
                <g id="Group_2866" data-name="Group 2866" transform="translate(0)">
                  <g id="Group_2865" data-name="Group 2865" transform="translate(0)">
                    <g id="Group_2864" data-name="Group 2864">
                      <path id="Path_5111" data-name="Path 5111" d="M433.313,459.991c-.226.053-.564-1.187.078-2.539s1.8-1.888,1.906-1.682c.139.2-.616.928-1.126,2.048C433.634,458.924,433.559,459.969,433.313,459.991Z" transform="translate(-433.02 -455.727)" fill="#263238"/>
                    </g>
                  </g>
                </g>
              </g>
              <g id="Group_2871" data-name="Group 2871" transform="translate(19.398 19.169)">
                <g id="Group_2870" data-name="Group 2870" transform="translate(0)">
                  <g id="Group_2869" data-name="Group 2869" transform="translate(0)">
                    <g id="Group_2868" data-name="Group 2868">
                      <path id="Path_5112" data-name="Path 5112" d="M448.447,445.993c-.105.225-1.24-.121-2.641-.034-1.4.061-2.493.525-2.621.312-.142-.179.925-1.091,2.575-1.172S448.569,445.8,448.447,445.993Z" transform="translate(-443.174 -445.092)" fill="#263238"/>
                    </g>
                  </g>
                </g>
              </g>
            </g>
            <g id="Group_2875" data-name="Group 2875" transform="translate(0 5.358)" opacity="0.3">
              <g id="Group_2874" data-name="Group 2874">
                <g id="Group_2873" data-name="Group 2873">
                  <path id="Path_5113" data-name="Path 5113" d="M467.884,432l-.183,4.655-24.923-.344-.013-4.194Z" transform="translate(-442.766 -432)"/>
                </g>
              </g>
            </g>
            <g id="Group_2879" data-name="Group 2879" transform="translate(17.096 10.684)">
              <g id="Group_2878" data-name="Group 2878" transform="translate(0)">
                <g id="Group_2877" data-name="Group 2877" transform="translate(0)">
                  <g id="Group_2876" data-name="Group 2876">
                    <path id="Path_5114" data-name="Path 5114" d="M450.771,441.161a4.751,4.751,0,0,1-2.54-.024,11.433,11.433,0,0,1-2.653-.828,11.963,11.963,0,0,1-1.455-.781,3.129,3.129,0,0,1-.765-.6,1.079,1.079,0,0,1-.108-1.318,1.359,1.359,0,0,1,1.088-.561,3.291,3.291,0,0,1,.951.136,9.207,9.207,0,0,1,1.577.55,8.954,8.954,0,0,1,2.335,1.549c1.171,1.1,1.569,2.021,1.483,2.069-.112.081-.682-.7-1.874-1.6a10.123,10.123,0,0,0-2.26-1.287,9.487,9.487,0,0,0-1.457-.457c-.536-.145-.993-.15-1.132.089-.051.091-.057.127.055.285a2.52,2.52,0,0,0,.561.439,13.53,13.53,0,0,0,1.339.773,14.082,14.082,0,0,0,2.451.952A17.37,17.37,0,0,1,450.771,441.161Z" transform="translate(-443.072 -437.048)" fill="#263238"/>
                  </g>
                </g>
              </g>
            </g>
            <g id="Group_2883" data-name="Group 2883" transform="translate(23.805 7.101)">
              <g id="Group_2882" data-name="Group 2882" transform="translate(0)">
                <g id="Group_2881" data-name="Group 2881" transform="translate(0)">
                  <g id="Group_2880" data-name="Group 2880">
                    <path id="Path_5115" data-name="Path 5115" d="M440.864,441.7a4.053,4.053,0,0,1-.658-2.456,8.238,8.238,0,0,1,.36-2.78,8.349,8.349,0,0,1,.653-1.539,2.1,2.1,0,0,1,1.627-1.274,1.184,1.184,0,0,1,1.057.713,3.41,3.41,0,0,1,.256.933,5.623,5.623,0,0,1-.006,1.71,5.849,5.849,0,0,1-1.1,2.618c-1,1.309-2.033,1.6-2.053,1.517-.081-.125.784-.6,1.548-1.858a5.844,5.844,0,0,0,.814-2.383,5.186,5.186,0,0,0-.04-1.468c-.076-.54-.277-.975-.479-.921-.251-.005-.681.4-.892.828a8.372,8.372,0,0,0-.635,1.374,9.144,9.144,0,0,0-.505,2.532C440.737,440.737,441,441.665,440.864,441.7Z" transform="translate(-440.197 -433.652)" fill="#263238"/>
                  </g>
                </g>
              </g>
            </g>
          </g>
          <path id="Path_5116" data-name="Path 5116" d="M487.806,321.026l58.6-9.242a20.362,20.362,0,0,1,16.177,4.445h0a20.362,20.362,0,0,1,7.341,16.451l-4.164,106.653H529.608V356.5l-34.7.637-27.529-24.213L447.53,329.4l-14.8-9.017Z" transform="translate(-432.729 -311.535)" fill="#263238"/>
          <g id="Group_2885" data-name="Group 2885" transform="translate(96.194 24.033)">
            <path id="Path_5117" data-name="Path 5117" d="M471.629,334.316a.954.954,0,0,0-.037.266c-.015.209-.032.467-.053.785-.046.691-.084,1.711-.12,3.023-.082,2.625-.153,6.425-.217,11.119-.131,9.389-.228,22.36-.253,36.686s.031,27.305.157,36.694c.064,4.695.139,8.494.245,11.119.044,1.312.094,2.331.162,3.021.029.318.053.575.072.784a.136.136,0,1,0,.056-.006c-.005-.209-.011-.467-.018-.786-.033-.688-.047-1.706-.059-3.019-.041-2.623-.057-6.423-.071-11.116,0-9.429,0-22.38,0-36.69C471.568,358,471.621,337.3,471.629,334.316Z" transform="translate(-470.943 -334.316)" fill="#455a64"/>
          </g>
        </g>
        <g id="Group_2925" data-name="Group 2925" transform="translate(60.147 291.526)">
          <g id="Group_2913" data-name="Group 2913" transform="translate(0)">
            <g id="Group_2889" data-name="Group 2889" transform="translate(0)">
              <g id="Group_2888" data-name="Group 2888">
                <g id="Group_2887" data-name="Group 2887">
                  <path id="Path_5118" data-name="Path 5118" d="M562.689,436.867,548.62,458.9s17.666,21.7,15.462,26.024l-43.692-25.745L540.9,423.951Z" transform="translate(-520.391 -423.951)" fill="#9e1a00"/>
                </g>
              </g>
            </g>
            <g id="Group_2893" data-name="Group 2893" transform="translate(13.321 25.027)" opacity="0.6">
              <g id="Group_2892" data-name="Group 2892" transform="translate(0)">
                <g id="Group_2891" data-name="Group 2891">
                  <g id="Group_2890" data-name="Group 2890">
                    <path id="Path_5119" data-name="Path 5119" d="M548.123,447.738a2.07,2.07,0,0,0-2.434,1.308,1.991,1.991,0,0,0,1.277,2.424,2.184,2.184,0,0,0,2.57-1.4,2.065,2.065,0,0,0-1.607-2.374" transform="translate(-545.609 -447.675)" fill="#fff"/>
                  </g>
                </g>
              </g>
            </g>
            <g id="Group_2896" data-name="Group 2896" transform="translate(0 31.753)" opacity="0.6">
              <g id="Group_2895" data-name="Group 2895" transform="translate(0)">
                <g id="Group_2894" data-name="Group 2894">
                  <path id="Path_5120" data-name="Path 5120" d="M520.222,457.519l2.206-3.469,41.067,25.981s1.446,1.993.419,3.232Z" transform="translate(-520.222 -454.05)" fill="#fff"/>
                </g>
              </g>
            </g>
            <g id="Group_2900" data-name="Group 2900" transform="translate(23.653 34.019)">
              <g id="Group_2899" data-name="Group 2899" transform="translate(0)">
                <g id="Group_2898" data-name="Group 2898" transform="translate(0)">
                  <g id="Group_2897" data-name="Group 2897">
                    <path id="Path_5121" data-name="Path 5121" d="M539.834,457.318c-.133.209-1.256-.323-2.71-.255-1.457.03-2.541.635-2.688.435-.173-.157.9-1.246,2.66-1.3C538.855,456.135,539.994,457.15,539.834,457.318Z" transform="translate(-534.418 -456.198)" fill="#263238"/>
                  </g>
                </g>
              </g>
            </g>
            <g id="Group_2904" data-name="Group 2904" transform="translate(27.788 39.222)">
              <g id="Group_2903" data-name="Group 2903" transform="translate(0)">
                <g id="Group_2902" data-name="Group 2902" transform="translate(0)">
                  <g id="Group_2901" data-name="Group 2901">
                    <path id="Path_5122" data-name="Path 5122" d="M535.887,461.644c-.073.235-1.211.054-2.468.529-1.27.439-2.029,1.306-2.234,1.172-.22-.084.368-1.422,1.941-1.982C534.694,460.786,536,461.436,535.887,461.644Z" transform="translate(-531.14 -461.13)" fill="#263238"/>
                  </g>
                </g>
              </g>
            </g>
            <g id="Group_2908" data-name="Group 2908" transform="translate(31.841 43.933)">
              <g id="Group_2907" data-name="Group 2907" transform="translate(0)">
                <g id="Group_2906" data-name="Group 2906">
                  <g id="Group_2905" data-name="Group 2905">
                    <path id="Path_5123" data-name="Path 5123" d="M528.167,468.416c-.22-.069.11-1.309,1.346-2.155s2.509-.723,2.494-.492c.018.246-1,.492-2,1.2C528.984,467.656,528.392,468.52,528.167,468.416Z" transform="translate(-528.104 -465.596)" fill="#263238"/>
                  </g>
                </g>
              </g>
            </g>
            <g id="Group_2912" data-name="Group 2912" transform="translate(27.033 27.126)">
              <g id="Group_2911" data-name="Group 2911" transform="translate(0)">
                <g id="Group_2910" data-name="Group 2910" transform="translate(0)">
                  <g id="Group_2909" data-name="Group 2909">
                    <path id="Path_5124" data-name="Path 5124" d="M536.57,452.3c-.2.141-1.009-.729-2.264-1.359-1.242-.654-2.418-.8-2.421-1.051-.033-.227,1.348-.477,2.816.285S536.774,452.2,536.57,452.3Z" transform="translate(-531.885 -449.665)" fill="#263238"/>
                  </g>
                </g>
              </g>
            </g>
          </g>
          <g id="Group_2916" data-name="Group 2916" transform="translate(15.646 4.725)" opacity="0.3">
            <g id="Group_2915" data-name="Group 2915" transform="translate(0)">
              <g id="Group_2914" data-name="Group 2914">
                <path id="Path_5125" data-name="Path 5125" d="M548.4,440.981l-2.5,3.929-21.359-12.848,2.1-3.631Z" transform="translate(-524.538 -428.43)"/>
              </g>
            </g>
          </g>
          <g id="Group_2920" data-name="Group 2920" transform="translate(29.171 18.294)">
            <g id="Group_2919" data-name="Group 2919" transform="translate(0)">
              <g id="Group_2918" data-name="Group 2918">
                <g id="Group_2917" data-name="Group 2917">
                  <path id="Path_5126" data-name="Path 5126" d="M534.608,448.265c-.05.09-.971-.276-2.182-1.3a11.4,11.4,0,0,1-1.875-2.052,11.857,11.857,0,0,1-.863-1.407,3.169,3.169,0,0,1-.358-.9,1.081,1.081,0,0,1,.571-1.193,1.362,1.362,0,0,1,1.223.064,3.313,3.313,0,0,1,.753.6,9.129,9.129,0,0,1,1.086,1.268,8.95,8.95,0,0,1,1.237,2.514,4.23,4.23,0,0,1,.239,2.534c-.138.015-.237-.945-.813-2.327a10.14,10.14,0,0,0-1.3-2.25,9.248,9.248,0,0,0-1.029-1.127c-.39-.395-.783-.63-1.023-.494-.089.053-.113.08-.1.273a2.532,2.532,0,0,0,.264.661,13.389,13.389,0,0,0,.768,1.342,14.07,14.07,0,0,0,1.637,2.057C533.89,447.608,534.68,448.151,534.608,448.265Z" transform="translate(-529.304 -441.293)" fill="#263238"/>
                </g>
              </g>
            </g>
          </g>
          <g id="Group_2924" data-name="Group 2924" transform="translate(33.977 19.288)">
            <g id="Group_2923" data-name="Group 2923" transform="translate(0)">
              <g id="Group_2922" data-name="Group 2922">
                <g id="Group_2921" data-name="Group 2921">
                  <path id="Path_5127" data-name="Path 5127" d="M523.784,448.356a4.046,4.046,0,0,1,.669-2.454,8.21,8.21,0,0,1,3.051-3.22,2.1,2.1,0,0,1,2.046-.283,1.184,1.184,0,0,1,.554,1.149,3.473,3.473,0,0,1-.247.935,5.659,5.659,0,0,1-.867,1.474,5.826,5.826,0,0,1-2.266,1.71,3.269,3.269,0,0,1-2.536.276,20.717,20.717,0,0,0,2.272-.825,5.864,5.864,0,0,0,1.9-1.649,5.222,5.222,0,0,0,.7-1.288c.2-.505.251-.983.05-1.037a1.457,1.457,0,0,0-1.188.266,8.485,8.485,0,0,0-1.241.866,9.158,9.158,0,0,0-1.71,1.934C524.163,447.458,523.919,448.392,523.784,448.356Z" transform="translate(-523.745 -442.234)" fill="#263238"/>
                </g>
              </g>
            </g>
          </g>
        </g>
        <g id="Group_2951" data-name="Group 2951" transform="translate(160.417 88.387)">
          <g id="Group_2929" data-name="Group 2929" transform="translate(0)">
            <g id="Group_2928" data-name="Group 2928">
              <g id="Group_2927" data-name="Group 2927" transform="translate(0)">
                <g id="Group_2926" data-name="Group 2926">
                  <path id="Path_5128" data-name="Path 5128" d="M446.051,264.262l16.963-8.639c4.418-1.912,6.106-3.011,5.695-3.814-.55-1.073-.288-.685-8.814,1.647,0,0,12.139-3.434,8.926-4.758-.566-.233-2.514.065-4.648.505,3.083-1.049,4.242-2.114,4.056-2.921-.321-1.386-7.584.307-10.963,1.174,2.781-.75,8.095-2.234,9.2-2.921,1.512-.94-.529-1.625-2.376-1.712-2.074-.1-14.2,1.055-17.721,1.2a2.075,2.075,0,0,1-2.4-2.043c.729-5.057-1.4-9.387-2.532-10.289s-2.744.348-2.3,1.883a19.052,19.052,0,0,1,.232,5.169,12.222,12.222,0,0,1-.9,4.026c-.617,1.483-1.2,2.714-1.716,3.748L422.874,260.3l11.146,14.119Z" transform="translate(-422.874 -231.393)" fill="#ffbe9d"/>
                </g>
              </g>
            </g>
          </g>
          <g id="Group_2936" data-name="Group 2936" transform="translate(32.566 20.253)">
            <g id="Group_2935" data-name="Group 2935" transform="translate(0)">
              <g id="Group_2934" data-name="Group 2934">
                <g id="Group_2933" data-name="Group 2933">
                  <g id="Group_2932" data-name="Group 2932">
                    <g id="Group_2931" data-name="Group 2931">
                      <g id="Group_2930" data-name="Group 2930">
                        <path id="Path_5129" data-name="Path 5129" d="M425.086,254.113c.054.215,2.7-.391,5.909-1.356s5.752-1.916,5.678-2.126-2.719.4-5.91,1.356S425.033,253.9,425.086,254.113Z" transform="translate(-425.086 -250.591)" fill="#eb996e"/>
                      </g>
                    </g>
                  </g>
                </g>
              </g>
            </g>
          </g>
          <g id="Group_2943" data-name="Group 2943" transform="translate(30.271 16.851)">
            <g id="Group_2942" data-name="Group 2942" transform="translate(0 0)">
              <g id="Group_2941" data-name="Group 2941" transform="translate(0)">
                <g id="Group_2940" data-name="Group 2940" transform="translate(0)">
                  <g id="Group_2939" data-name="Group 2939" transform="translate(0)">
                    <g id="Group_2938" data-name="Group 2938" transform="translate(0)">
                      <g id="Group_2937" data-name="Group 2937" transform="translate(0)">
                        <ellipse id="Ellipse_189" data-name="Ellipse 189" cx="6.456" cy="0.402" rx="6.456" ry="0.402" transform="translate(12.752 0.782) rotate(166.738)" fill="#eb996e"/>
                      </g>
                    </g>
                  </g>
                </g>
              </g>
            </g>
          </g>
          <g id="Group_2950" data-name="Group 2950" transform="translate(28.516 14.099)">
            <g id="Group_2949" data-name="Group 2949" transform="translate(0)">
              <g id="Group_2948" data-name="Group 2948" transform="translate(0)">
                <g id="Group_2947" data-name="Group 2947" transform="translate(0)">
                  <g id="Group_2946" data-name="Group 2946" transform="translate(0)">
                    <g id="Group_2945" data-name="Group 2945" transform="translate(0)">
                      <g id="Group_2944" data-name="Group 2944" transform="translate(0)">
                        <ellipse id="Ellipse_190" data-name="Ellipse 190" cx="6.109" cy="0.402" rx="6.109" ry="0.402" transform="translate(12.103 0.785) rotate(167.497)" fill="#eb996e"/>
                      </g>
                    </g>
                  </g>
                </g>
              </g>
            </g>
          </g>
        </g>
        <g id="Group_3113" data-name="Group 3113" transform="translate(57.365)">
          <g id="Group_3082" data-name="Group 3082" transform="translate(0)">
            <g id="Group_2952" data-name="Group 2952">
              <path id="Path_5130" data-name="Path 5130" d="M563.389,151.641c-4.317-1.32-8.816,2.545-13.247,1.676-2.69-.527-4.722-2.676-7.115-4.013a13.81,13.81,0,0,0-12.3-.466c-3.655,1.856-6.011,3.838-6.51,7.907-3.326-1.909-8.877,2.279-10.768,6.319s-1.416,8.219-.343,12.55a58.869,58.869,0,0,0,9.736,20.722c.4.548,1.048,1.153,1.664.864a1.484,1.484,0,0,0,.639-1.194c.637-3.96.134-8-.208-12s-.511-8.117.751-11.924,4.241-7.28,8.175-8.058a12.714,12.714,0,0,1,8.509,1.823c2.584,1.451,4.855,3.391,7.315,5.042a16.34,16.34,0,0,0,8.182,3.171c2.96.129,6.135-1.267,7.4-3.948s-.154-6.49-3.052-7.1a5.824,5.824,0,0,0,1.17-11.369Z" transform="translate(-512.171 -147.61)" fill="#263238"/>
            </g>
            <g id="Group_3059" data-name="Group 3059" transform="translate(6.946 5.683)">
              <g id="Group_3058" data-name="Group 3058" transform="translate(0)">
                <g id="Group_3057" data-name="Group 3057">
                  <g id="Group_2973" data-name="Group 2973" transform="translate(0)">
                    <g id="Group_2972" data-name="Group 2972">
                      <g id="Group_2971" data-name="Group 2971">
                        <g id="Group_2961" data-name="Group 2961" transform="translate(0)">
                          <g id="Group_2960" data-name="Group 2960">
                            <g id="Group_2959" data-name="Group 2959">
                              <g id="Group_2958" data-name="Group 2958">
                                <g id="Group_2957" data-name="Group 2957" transform="translate(0)">
                                  <g id="Group_2956" data-name="Group 2956">
                                    <g id="Group_2955" data-name="Group 2955">
                                      <g id="Group_2954" data-name="Group 2954" transform="translate(0)">
                                        <g id="Group_2953" data-name="Group 2953">
                                          <path id="Path_5131" data-name="Path 5131" d="M518.842,176.536l4.289,44.772c.729,7.614,8.715,18.9,16.283,17.8h0c7.063-1.031,11.04-13.268,10.352-20.373-.326-3.37-.592-6.181-.6-6.529,0,0,11.294-2.164,11.037-13.523-.125-5.49-1.3-16.775-2.486-26.973a21.164,21.164,0,0,0-21.771-18.7l-1.1.039C523.06,154.152,517.41,164.781,518.842,176.536Z" transform="translate(-518.624 -152.997)" fill="#ffbe9d"/>
                                        </g>
                                      </g>
                                    </g>
                                  </g>
                                </g>
                              </g>
                            </g>
                          </g>
                        </g>
                        <g id="Group_2970" data-name="Group 2970" transform="translate(15.601 55.355)">
                          <g id="Group_2969" data-name="Group 2969" transform="translate(0)">
                            <g id="Group_2968" data-name="Group 2968">
                              <g id="Group_2967" data-name="Group 2967">
                                <g id="Group_2966" data-name="Group 2966">
                                  <g id="Group_2965" data-name="Group 2965">
                                    <g id="Group_2964" data-name="Group 2964">
                                      <g id="Group_2963" data-name="Group 2963">
                                        <g id="Group_2962" data-name="Group 2962">
                                          <path id="Path_5132" data-name="Path 5132" d="M543.908,209.157a26.42,26.42,0,0,1-14.951-3.688s3.786,8.048,15.081,6.629Z" transform="translate(-528.957 -205.469)" fill="#eb996e"/>
                                        </g>
                                      </g>
                                    </g>
                                  </g>
                                </g>
                              </g>
                            </g>
                          </g>
                        </g>
                      </g>
                    </g>
                  </g>
                  <g id="Group_3056" data-name="Group 3056" transform="translate(11.981 17.248)">
                    <g id="Group_3055" data-name="Group 3055" transform="translate(0)">
                      <g id="Group_3036" data-name="Group 3036" transform="translate(1.314 5.524)">
                        <g id="Group_3035" data-name="Group 3035" transform="translate(0)">
                          <g id="Group_3034" data-name="Group 3034" transform="translate(0)">
                            <g id="Group_2993" data-name="Group 2993" transform="translate(17.141)">
                              <g id="Group_2982" data-name="Group 2982" transform="translate(2.381 2.249)">
                                <g id="Group_2981" data-name="Group 2981" transform="translate(0)">
                                  <g id="Group_2980" data-name="Group 2980">
                                    <g id="Group_2979" data-name="Group 2979" transform="translate(0)">
                                      <g id="Group_2978" data-name="Group 2978">
                                        <g id="Group_2977" data-name="Group 2977">
                                          <g id="Group_2976" data-name="Group 2976">
                                            <g id="Group_2975" data-name="Group 2975" transform="translate(0)">
                                              <g id="Group_2974" data-name="Group 2974">
                                                <path id="Path_5133" data-name="Path 5133" d="M527.1,178.126a1.622,1.622,0,0,1-1.506,1.691,1.553,1.553,0,0,1-1.723-1.4,1.623,1.623,0,0,1,1.5-1.692A1.552,1.552,0,0,1,527.1,178.126Z" transform="translate(-523.865 -176.715)" fill="#263238"/>
                                              </g>
                                            </g>
                                          </g>
                                        </g>
                                      </g>
                                    </g>
                                  </g>
                                </g>
                              </g>
                              <g id="Group_2992" data-name="Group 2992" transform="translate(0)">
                                <g id="Group_2991" data-name="Group 2991">
                                  <g id="Group_2990" data-name="Group 2990" transform="translate(0)">
                                    <g id="Group_2989" data-name="Group 2989">
                                      <g id="Group_2988" data-name="Group 2988">
                                        <g id="Group_2987" data-name="Group 2987">
                                          <g id="Group_2986" data-name="Group 2986" transform="translate(0)">
                                            <g id="Group_2985" data-name="Group 2985">
                                              <g id="Group_2984" data-name="Group 2984" transform="translate(0)">
                                                <g id="Group_2983" data-name="Group 2983">
                                                  <path id="Path_5134" data-name="Path 5134" d="M529.5,176.18c-.194.218-1.454-.648-3.2-.582-1.744.041-2.993.983-3.189.776-.1-.091.095-.48.638-.905a4.456,4.456,0,0,1,2.544-.883,4.272,4.272,0,0,1,2.556.727C529.4,175.705,529.6,176.082,529.5,176.18Z" transform="translate(-523.091 -174.584)" fill="#263238"/>
                                                </g>
                                              </g>
                                            </g>
                                          </g>
                                        </g>
                                      </g>
                                    </g>
                                  </g>
                                </g>
                              </g>
                            </g>
                            <g id="Group_3013" data-name="Group 3013" transform="translate(0 0.928)">
                              <g id="Group_3002" data-name="Group 3002" transform="translate(2.429 2.511)">
                                <g id="Group_3001" data-name="Group 3001" transform="translate(0)">
                                  <g id="Group_3000" data-name="Group 3000" transform="translate(0)">
                                    <g id="Group_2999" data-name="Group 2999">
                                      <g id="Group_2998" data-name="Group 2998">
                                        <g id="Group_2997" data-name="Group 2997">
                                          <g id="Group_2996" data-name="Group 2996" transform="translate(0)">
                                            <g id="Group_2995" data-name="Group 2995" transform="translate(0)">
                                              <g id="Group_2994" data-name="Group 2994">
                                                <path id="Path_5135" data-name="Path 5135" d="M543.3,179.257a1.623,1.623,0,0,1-1.506,1.691,1.554,1.554,0,0,1-1.724-1.4,1.625,1.625,0,0,1,1.505-1.692A1.555,1.555,0,0,1,543.3,179.257Z" transform="translate(-540.068 -177.845)" fill="#263238"/>
                                              </g>
                                            </g>
                                          </g>
                                        </g>
                                      </g>
                                    </g>
                                  </g>
                                </g>
                              </g>
                              <g id="Group_3012" data-name="Group 3012">
                                <g id="Group_3011" data-name="Group 3011" transform="translate(0)">
                                  <g id="Group_3010" data-name="Group 3010">
                                    <g id="Group_3009" data-name="Group 3009">
                                      <g id="Group_3008" data-name="Group 3008">
                                        <g id="Group_3007" data-name="Group 3007" transform="translate(0)">
                                          <g id="Group_3006" data-name="Group 3006">
                                            <g id="Group_3005" data-name="Group 3005">
                                              <g id="Group_3004" data-name="Group 3004" transform="translate(0)">
                                                <g id="Group_3003" data-name="Group 3003">
                                                  <path id="Path_5136" data-name="Path 5136" d="M545.751,177.059c-.2.218-1.457-.647-3.2-.581-1.743.041-2.993.983-3.189.776-.1-.091.093-.48.638-.905a4.456,4.456,0,0,1,2.544-.883,4.289,4.289,0,0,1,2.556.727C545.649,176.584,545.846,176.961,545.751,177.059Z" transform="translate(-539.338 -175.464)" fill="#263238"/>
                                                </g>
                                              </g>
                                            </g>
                                          </g>
                                        </g>
                                      </g>
                                    </g>
                                  </g>
                                </g>
                              </g>
                            </g>
                            <g id="Group_3023" data-name="Group 3023" transform="translate(11.874 0.731)">
                              <g id="Group_3022" data-name="Group 3022" transform="translate(0)">
                                <g id="Group_3021" data-name="Group 3021">
                                  <g id="Group_3020" data-name="Group 3020">
                                    <g id="Group_3019" data-name="Group 3019">
                                      <g id="Group_3018" data-name="Group 3018" transform="translate(0)">
                                        <g id="Group_3017" data-name="Group 3017">
                                          <g id="Group_3016" data-name="Group 3016">
                                            <g id="Group_3015" data-name="Group 3015" transform="translate(0)">
                                              <g id="Group_3014" data-name="Group 3014">
                                                <path id="Path_5137" data-name="Path 5137" d="M530.078,189.788a11.512,11.512,0,0,1,2.816-.611c.444-.061.863-.165.927-.472a2.267,2.267,0,0,0-.344-1.31q-.685-1.6-1.436-3.346c-2-4.767-3.463-8.692-3.271-8.771s1.97,3.721,3.97,8.487q.723,1.764,1.382,3.368a2.575,2.575,0,0,1,.292,1.741,1.116,1.116,0,0,1-.71.677,3.038,3.038,0,0,1-.753.132A11.4,11.4,0,0,1,530.078,189.788Z" transform="translate(-528.753 -175.277)" fill="#263238"/>
                                              </g>
                                            </g>
                                          </g>
                                        </g>
                                      </g>
                                    </g>
                                  </g>
                                </g>
                              </g>
                            </g>
                            <g id="Group_3033" data-name="Group 3033" transform="translate(7.854 16.629)">
                              <g id="Group_3032" data-name="Group 3032" transform="translate(0)">
                                <g id="Group_3031" data-name="Group 3031">
                                  <g id="Group_3030" data-name="Group 3030">
                                    <g id="Group_3029" data-name="Group 3029">
                                      <g id="Group_3028" data-name="Group 3028">
                                        <g id="Group_3027" data-name="Group 3027" transform="translate(0)">
                                          <g id="Group_3026" data-name="Group 3026">
                                            <g id="Group_3025" data-name="Group 3025" transform="translate(0)">
                                              <g id="Group_3024" data-name="Group 3024">
                                                <path id="Path_5138" data-name="Path 5138" d="M532.581,190.347c.284-.026.353,1.867,2.021,3.154s3.678,1.009,3.7,1.273c.031.118-.437.384-1.288.437a4.725,4.725,0,0,1-3.087-.955,4.113,4.113,0,0,1-1.573-2.65C532.256,190.816,532.451,190.34,532.581,190.347Z" transform="translate(-532.329 -190.347)" fill="#263238"/>
                                              </g>
                                            </g>
                                          </g>
                                        </g>
                                      </g>
                                    </g>
                                  </g>
                                </g>
                              </g>
                            </g>
                          </g>
                        </g>
                      </g>
                      <g id="Group_3045" data-name="Group 3045">
                        <g id="Group_3044" data-name="Group 3044">
                          <g id="Group_3043" data-name="Group 3043">
                            <g id="Group_3042" data-name="Group 3042">
                              <g id="Group_3041" data-name="Group 3041">
                                <g id="Group_3040" data-name="Group 3040">
                                  <g id="Group_3039" data-name="Group 3039">
                                    <g id="Group_3038" data-name="Group 3038">
                                      <g id="Group_3037" data-name="Group 3037">
                                        <path id="Path_5139" data-name="Path 5139" d="M547.091,170.541c-.155.481-1.906.316-3.943.636-2.046.277-3.674.935-3.962.519-.128-.2.145-.656.8-1.138a6.943,6.943,0,0,1,6.023-.88C546.766,169.954,547.157,170.313,547.091,170.541Z" transform="translate(-539.154 -169.347)" fill="#263238"/>
                                      </g>
                                    </g>
                                  </g>
                                </g>
                              </g>
                            </g>
                          </g>
                        </g>
                      </g>
                      <g id="Group_3054" data-name="Group 3054" transform="translate(18.095 0.39)">
                        <g id="Group_3053" data-name="Group 3053" transform="translate(0)">
                          <g id="Group_3052" data-name="Group 3052">
                            <g id="Group_3051" data-name="Group 3051" transform="translate(0)">
                              <g id="Group_3050" data-name="Group 3050">
                                <g id="Group_3049" data-name="Group 3049">
                                  <g id="Group_3048" data-name="Group 3048">
                                    <g id="Group_3047" data-name="Group 3047">
                                      <g id="Group_3046" data-name="Group 3046">
                                        <path id="Path_5140" data-name="Path 5140" d="M529.8,171.42c-.292.407-1.51.038-2.956.07-1.446-.02-2.659.36-2.956-.044-.131-.2.047-.6.57-.995a4.282,4.282,0,0,1,4.764-.019C529.751,170.819,529.933,171.222,529.8,171.42Z" transform="translate(-523.852 -169.717)" fill="#263238"/>
                                      </g>
                                    </g>
                                  </g>
                                </g>
                              </g>
                            </g>
                          </g>
                        </g>
                      </g>
                    </g>
                  </g>
                </g>
              </g>
            </g>
            <g id="Group_3079" data-name="Group 3079" transform="translate(0.997 37.322)">
              <g id="Group_3068" data-name="Group 3068" transform="translate(0)">
                <g id="Group_3067" data-name="Group 3067" transform="translate(0)">
                  <g id="Group_3066" data-name="Group 3066">
                    <g id="Group_3065" data-name="Group 3065">
                      <g id="Group_3064" data-name="Group 3064">
                        <g id="Group_3063" data-name="Group 3063" transform="translate(0)">
                          <g id="Group_3062" data-name="Group 3062">
                            <g id="Group_3061" data-name="Group 3061" transform="translate(0)">
                              <g id="Group_3060" data-name="Group 3060">
                                <path id="Path_5141" data-name="Path 5141" d="M563.273,183.263c-.2-.077-7.884-2.034-7.363,5.72s8.2,5.632,8.2,5.409S563.273,183.263,563.273,183.263Z" transform="translate(-555.885 -182.988)" fill="#ffbe9d"/>
                              </g>
                            </g>
                          </g>
                        </g>
                      </g>
                    </g>
                  </g>
                </g>
              </g>
              <g id="Group_3078" data-name="Group 3078" transform="translate(1.987 2.585)">
                <g id="Group_3077" data-name="Group 3077" transform="translate(0)">
                  <g id="Group_3076" data-name="Group 3076" transform="translate(0)">
                    <g id="Group_3075" data-name="Group 3075">
                      <g id="Group_3074" data-name="Group 3074" transform="translate(0)">
                        <g id="Group_3073" data-name="Group 3073">
                          <g id="Group_3072" data-name="Group 3072">
                            <g id="Group_3071" data-name="Group 3071">
                              <g id="Group_3070" data-name="Group 3070" transform="translate(0)">
                                <g id="Group_3069" data-name="Group 3069">
                                  <path id="Path_5142" data-name="Path 5142" d="M561.979,191.479c-.036-.022-.129.1-.35.224a1.351,1.351,0,0,1-1.009.089c-.839-.246-1.616-1.5-1.747-2.895a4.49,4.49,0,0,1,.248-1.959,1.561,1.561,0,0,1,.946-1.1.689.689,0,0,1,.822.316c.118.21.079.368.121.379.022.018.157-.141.073-.458a.864.864,0,0,0-.337-.465,1.021,1.021,0,0,0-.761-.148,1.9,1.9,0,0,0-1.331,1.3,4.6,4.6,0,0,0-.324,2.193c.154,1.559,1.053,2.968,2.2,3.217a1.445,1.445,0,0,0,1.222-.288C561.978,191.667,562.006,191.491,561.979,191.479Z" transform="translate(-558.31 -185.439)" fill="#eb996e"/>
                                </g>
                              </g>
                            </g>
                          </g>
                        </g>
                      </g>
                    </g>
                  </g>
                </g>
              </g>
            </g>
            <g id="Group_3081" data-name="Group 3081" transform="translate(5.678 3.754)">
              <g id="Group_3080" data-name="Group 3080" transform="translate(0)">
                <path id="Path_5143" data-name="Path 5143" d="M561.465,169.366a16.411,16.411,0,0,1-14.684-2.77c-2.843-2.245-5.093-5.537-8.593-6.482a9.227,9.227,0,0,0-7.019,1.212,17.827,17.827,0,0,0-5.174,5.1c2.4,5.694,1.148,12.187-.136,18.228a3.092,3.092,0,0,1-.841,1.823c-.895.738-2.288.234-3.117-.575a9.589,9.589,0,0,1-2.284-4.988,31.96,31.96,0,0,1-.367-12.594,21.755,21.755,0,0,1,5.59-11.184,20.609,20.609,0,0,1,14.256-5.966,25.305,25.305,0,0,1,14.854,4.73,14.836,14.836,0,0,1,4.959,5.324" transform="translate(-518.786 -151.169)" fill="#263238"/>
              </g>
            </g>
          </g>
          <g id="Group_3084" data-name="Group 3084" transform="translate(13.291 4.189)">
            <g id="Group_3083" data-name="Group 3083" transform="translate(0)">
              <path id="Path_5144" data-name="Path 5144" d="M554.162,154.044a1.656,1.656,0,0,1-.046.676,3.146,3.146,0,0,1-1.029,1.638,4.946,4.946,0,0,1-2.867,1.07,8.268,8.268,0,0,1-1.931-.052,4.129,4.129,0,0,1-2.01-.847,2.741,2.741,0,0,1-1.048-2.157,2.414,2.414,0,0,1,1.579-2.039,3,3,0,0,1,1.39-.227,2.538,2.538,0,0,1,1.354.552,3.532,3.532,0,0,1,1.251,2.673,4.092,4.092,0,0,1-1.124,2.892,6.232,6.232,0,0,1-2.756,1.694,10.227,10.227,0,0,1-6.66-.488,29.269,29.269,0,0,1-5.862-3.256,37,37,0,0,0-5.323-3.142,11.514,11.514,0,0,0-5.38-1.111,10.994,10.994,0,0,0-4.6,1.356,13.749,13.749,0,0,0-4.987,4.861,17.656,17.656,0,0,0-.928,1.685,5.448,5.448,0,0,1-.3.6.564.564,0,0,1,.05-.166c.039-.106.1-.265.185-.467a14.56,14.56,0,0,1,.87-1.729,13.581,13.581,0,0,1,4.984-5.023,11.2,11.2,0,0,1,4.715-1.436,11.8,11.8,0,0,1,5.543,1.1,36.838,36.838,0,0,1,5.389,3.152,29.191,29.191,0,0,0,5.79,3.21,9.879,9.879,0,0,0,6.41.488,5.877,5.877,0,0,0,2.6-1.582,3.727,3.727,0,0,0,1.04-2.634,3.189,3.189,0,0,0-1.108-2.418,2.337,2.337,0,0,0-2.412-.294,2.112,2.112,0,0,0-1.4,1.759,2.462,2.462,0,0,0,.926,1.935,3.888,3.888,0,0,0,1.875.813,8.108,8.108,0,0,0,1.873.078,4.849,4.849,0,0,0,2.788-.968,3.176,3.176,0,0,0,1.05-1.543A5.244,5.244,0,0,0,554.162,154.044Z" transform="translate(-512.878 -151.581)" fill="#455a64"/>
            </g>
          </g>
          <g id="Group_3086" data-name="Group 3086" transform="translate(0.134 13.689)">
            <g id="Group_3085" data-name="Group 3085" transform="translate(0)">
              <path id="Path_5145" data-name="Path 5145" d="M553.464,169.086a12.84,12.84,0,0,0,2.393.533,6.663,6.663,0,0,0,2.592-.362,11.222,11.222,0,0,0,2.862-1.5,9.091,9.091,0,0,0,3.3-4.746,18.964,18.964,0,0,0,.432-2.422,2.044,2.044,0,0,1,.064.67,7.761,7.761,0,0,1-.233,1.824,8.862,8.862,0,0,1-3.334,4.987,10.86,10.86,0,0,1-2.978,1.529,6.577,6.577,0,0,1-2.725.3,6.133,6.133,0,0,1-1.781-.476A2.009,2.009,0,0,1,553.464,169.086Z" transform="translate(-553.464 -160.586)" fill="#455a64"/>
            </g>
          </g>
          <g id="Group_3088" data-name="Group 3088" transform="translate(0.671 19.212)">
            <g id="Group_3087" data-name="Group 3087" transform="translate(0)">
              <path id="Path_5146" data-name="Path 5146" d="M552.562,174.4c.008-.071.921.1,2.382-.035a10.654,10.654,0,0,0,8.849-6.307c.6-1.338.742-2.257.811-2.241a1.863,1.863,0,0,1-.06.648,8.753,8.753,0,0,1-.5,1.7,10.283,10.283,0,0,1-9.079,6.471,8.8,8.8,0,0,1-1.77-.082A1.881,1.881,0,0,1,552.562,174.4Z" transform="translate(-552.562 -165.822)" fill="#455a64"/>
            </g>
          </g>
          <g id="Group_3090" data-name="Group 3090" transform="translate(20.849 38.124)">
            <g id="Group_3089" data-name="Group 3089" transform="translate(0 0)">
              <ellipse id="Ellipse_191" data-name="Ellipse 191" cx="0.211" cy="0.193" rx="0.211" ry="0.193" transform="translate(0.376 0) rotate(76.709)" fill="#eb996e"/>
            </g>
          </g>
          <g id="Group_3092" data-name="Group 3092" transform="translate(24.118 37.208)">
            <g id="Group_3091" data-name="Group 3091" transform="translate(0 0)">
              <ellipse id="Ellipse_192" data-name="Ellipse 192" cx="0.242" cy="0.192" rx="0.242" ry="0.192" transform="translate(0.374 0) rotate(76.809)" fill="#eb996e"/>
            </g>
          </g>
          <g id="Group_3094" data-name="Group 3094" transform="translate(26.355 36.917)">
            <g id="Group_3093" data-name="Group 3093" transform="translate(0 0)">
              <ellipse id="Ellipse_193" data-name="Ellipse 193" cx="0.314" cy="0.193" rx="0.314" ry="0.193" transform="translate(0.381 0) rotate(80.769)" fill="#eb996e"/>
            </g>
          </g>
          <g id="Group_3096" data-name="Group 3096" transform="translate(22.629 40.39)">
            <g id="Group_3095" data-name="Group 3095" transform="translate(0)">
              <ellipse id="Ellipse_194" data-name="Ellipse 194" cx="0.193" cy="0.123" rx="0.193" ry="0.123" fill="#eb996e"/>
            </g>
          </g>
          <g id="Group_3098" data-name="Group 3098" transform="translate(25.631 39.331)">
            <g id="Group_3097" data-name="Group 3097" transform="translate(0 0)">
              <ellipse id="Ellipse_195" data-name="Ellipse 195" cx="0.218" cy="0.192" rx="0.218" ry="0.192" transform="translate(0.381 0) rotate(83.09)" fill="#eb996e"/>
            </g>
          </g>
          <g id="Group_3100" data-name="Group 3100" transform="translate(41.437 36.889)">
            <g id="Group_3099" data-name="Group 3099" transform="translate(0 0)">
              <ellipse id="Ellipse_196" data-name="Ellipse 196" cx="0.217" cy="0.193" rx="0.217" ry="0.193" transform="matrix(0.23, 0.973, -0.973, 0.23, 0.376, 0)" fill="#eb996e"/>
            </g>
          </g>
          <g id="Group_3102" data-name="Group 3102" transform="translate(43.713 36.554)">
            <g id="Group_3101" data-name="Group 3101" transform="translate(0 0)">
              <ellipse id="Ellipse_197" data-name="Ellipse 197" cx="0.243" cy="0.193" rx="0.243" ry="0.193" transform="translate(0.383 0) rotate(82.316)" fill="#eb996e"/>
            </g>
          </g>
          <g id="Group_3104" data-name="Group 3104" transform="translate(39.463 37.122)">
            <g id="Group_3103" data-name="Group 3103" transform="translate(0 0)">
              <ellipse id="Ellipse_198" data-name="Ellipse 198" cx="0.169" cy="0.193" rx="0.169" ry="0.193" transform="translate(0.376 0) rotate(76.597)" fill="#eb996e"/>
            </g>
          </g>
          <g id="Group_3106" data-name="Group 3106" transform="translate(41.085 39.245)">
            <g id="Group_3105" data-name="Group 3105" transform="translate(0 0)">
              <ellipse id="Ellipse_199" data-name="Ellipse 199" cx="0.223" cy="0.192" rx="0.223" ry="0.192" transform="translate(0.346 0) rotate(64.209)" fill="#eb996e"/>
            </g>
          </g>
          <g id="Group_3108" data-name="Group 3108" transform="translate(43.195 38.889)">
            <g id="Group_3107" data-name="Group 3107" transform="translate(0 0)">
              <ellipse id="Ellipse_200" data-name="Ellipse 200" cx="0.162" cy="0.193" rx="0.162" ry="0.193" transform="translate(0.45 0.088) rotate(103.22)" fill="#eb996e"/>
            </g>
          </g>
          <g id="Group_3110" data-name="Group 3110" transform="translate(3.182 47.319)">
            <g id="Group_3109" data-name="Group 3109" transform="translate(0)">
              <path id="Path_5147" data-name="Path 5147" d="M557.173,193.311a4.73,4.73,0,0,0-.151,1.769,2.574,2.574,0,0,0,.9,1.6,2.333,2.333,0,0,0,2.112.478,2.142,2.142,0,0,0,1.458-1.56,2.739,2.739,0,0,0-.384-1.8,3.839,3.839,0,0,0-1.183-1.321c-.005-.059.8.157,1.418,1.184a2.906,2.906,0,0,1,.5,2,2.458,2.458,0,0,1-1.693,1.863,2.64,2.64,0,0,1-2.452-.574,2.77,2.77,0,0,1-.945-1.83,2.99,2.99,0,0,1,.17-1.369C557.042,193.444,557.153,193.3,557.173,193.311Z" transform="translate(-556.738 -192.465)" fill="#263238"/>
            </g>
          </g>
          <g id="Group_3112" data-name="Group 3112" transform="translate(2.035 46.844)">
            <g id="Group_3111" data-name="Group 3111" transform="translate(0)">
              <path id="Path_5148" data-name="Path 5148" d="M562.286,192.02c.024-.037.29.09.451.512a1.124,1.124,0,0,1-.008.786,1.142,1.142,0,0,1-.711.678,1.053,1.053,0,0,1-.973-.2.874.874,0,0,1-.314-.746c.051-.481.372-.617.384-.571.04.04-.145.228-.112.571a.638.638,0,0,0,.263.467.755.755,0,0,0,.638.11.852.852,0,0,0,.5-.448.953.953,0,0,0,.072-.577C562.412,192.251,562.242,192.06,562.286,192.02Z" transform="translate(-560.727 -192.014)" fill="#263238"/>
            </g>
          </g>
        </g>
        <g id="Group_3116" data-name="Group 3116" transform="translate(34.743 188.371)">
          <path id="Path_5149" data-name="Path 5149" d="M514.6,327.719c.943.088,61.158,7.217,70.614,12.521,5.226,2.931,4.762,8.063,5.575,10.248,3.187,8.56.466,17.241-3.973,25.224L542.663,452.69l-28-18.829L542.8,372.419l-43.077-4.23a23.433,23.433,0,0,1-19.64-18.264l-5.123-23.755Z" transform="translate(-474.961 -326.169)" fill="#263238"/>
          <g id="Group_3114" data-name="Group 3114" transform="translate(39.704 30.041)">
            <path id="Path_5150" data-name="Path 5150" d="M514.83,432.3c.138.063,8.185-17.271,17.972-38.71s17.611-38.879,17.474-38.941-8.184,17.266-17.974,38.714S514.692,432.235,514.83,432.3Z" transform="translate(-514.828 -354.645)" fill="#455a64"/>
          </g>
          <g id="Group_3115" data-name="Group 3115" transform="translate(39.637 5.237)">
            <path id="Path_5151" data-name="Path 5151" d="M474.665,331.144a1.133,1.133,0,0,0,.281.045c.216.022.487.047.823.079l3.167.267,11.654.939c9.837.809,23.438,1.838,38.427,3.27,1.874.178,3.722.381,5.542.588.9.132,1.823.208,2.679.382a13.6,13.6,0,0,1,2.533.743,18.953,18.953,0,0,1,8.207,5.684,19.322,19.322,0,0,1,2.5,3.97,18.2,18.2,0,0,1,1.273,4.241,28.186,28.186,0,0,1,.184,7.982,48.265,48.265,0,0,1-2.842,11.268c-.5,1.285-.94,2.26-1.249,2.916-.146.3-.263.549-.358.744a1.2,1.2,0,0,0-.108.263,1.024,1.024,0,0,0,.156-.236c.094-.16.237-.4.407-.722.342-.641.818-1.607,1.347-2.885a46.15,46.15,0,0,0,3.031-11.3,28.334,28.334,0,0,0-.12-8.107,18.615,18.615,0,0,0-1.282-4.361,19.736,19.736,0,0,0-2.55-4.091,19.415,19.415,0,0,0-8.41-5.868,13.981,13.981,0,0,0-2.611-.77c-.915-.187-1.809-.257-2.726-.393-1.825-.209-3.677-.412-5.553-.591-15-1.433-28.6-2.4-38.451-3.111l-11.668-.765-3.176-.164c-.337-.011-.609-.019-.826-.024A1.072,1.072,0,0,0,474.665,331.144Z" transform="translate(-474.665 -331.133)" fill="#455a64"/>
          </g>
        </g>
        <g id="Group_3135" data-name="Group 3135" transform="translate(27.408 69.178)">
          <path id="Path_5152" data-name="Path 5152" d="M455.744,294.646l-2.272-72.563,22.83-4.878,2.476-4.02,15.353,9.884,3.08,6.93,3.731-7.916,5.535-4.2,2.546,4.916,17.2,7.076a7.167,7.167,0,0,1,3.681,3.417l19.317,38.548,34.246-23.726,10.6,18.675-39.643,33.769a16.4,16.4,0,0,1-22.244-4.384l-10.164-14.44-4.267,24.313-.7,24.649-29.85,5.565L445.4,332.378Z" transform="translate(-438.337 -213.185)" fill="#e95f35"/>
          <g id="Group_3117" data-name="Group 3117" transform="translate(9.011 103.754)" opacity="0.3">
            <path id="Path_5153" data-name="Path 5153" d="M586.634,330.48a61.8,61.8,0,0,1-41.372-10.64l2.282-8.3Z" transform="translate(-545.262 -311.535)"/>
          </g>
          <path id="Path_5154" data-name="Path 5154" d="M537.288,221.62s14.22,4.364,15.328,18.765,1.65,55.657,1.65,55.657,2.215,1.662,1.662,3.323,40.987,24.924,40.987,24.924L588.6,338.765s-26.47-3.161-56.141-18.705c-15.171-7.949-9.2-70.219-8.921-71.049S527.557,221.583,537.288,221.62Z" transform="translate(-522.153 -212.721)" fill="#e45834"/>
          <g id="Group_3118" data-name="Group 3118" transform="translate(79.409 31.519)">
            <path id="Path_5155" data-name="Path 5155" d="M509.058,304.405a2.6,2.6,0,0,0,.164-.611c.095-.463.215-1.05.364-1.771.3-1.615.724-3.829,1.235-6.534.505-2.784,1.1-6.068,1.763-9.7.325-1.829.666-3.747,1.019-5.734.266-2,.542-4.074.824-6.2,1.087-8.467,2.07-16.127,2.792-21.762.325-2.733.591-4.97.784-6.6.076-.732.137-1.328.186-1.8a2.681,2.681,0,0,0,.027-.632,2.733,2.733,0,0,0-.137.617c-.075.467-.171,1.058-.288,1.785l-.956,6.578c-.765,5.626-1.8,13.277-2.953,21.732-.279,2.123-.55,4.194-.813,6.2-.342,1.988-.672,3.905-.987,5.737-.616,3.641-1.173,6.929-1.646,9.718-.44,2.716-.8,4.94-1.063,6.562l-.262,1.789A2.866,2.866,0,0,0,509.058,304.405Z" transform="translate(-509.052 -243.062)" fill="#263238"/>
          </g>
          <g id="Group_3119" data-name="Group 3119" transform="translate(18.626 8.897)">
            <path id="Path_5156" data-name="Path 5156" d="M569.74,338.765a1.168,1.168,0,0,0,.164-.236l.441-.721,1.669-2.817c1.457-2.5,3.553-6.1,6.186-10.616l.1-.175-.191-.072a99.447,99.447,0,0,1-18.454-10.047c-6.833-4.427-14.2-9.906-22.85-14.488l.11.379a3.647,3.647,0,0,0-2.672-5.221l.245.234c-.14-1.059-.29-2.2-.441-3.343a174.066,174.066,0,0,1-1.144-28.906c.18-4.448.612-8.657.863-12.621a55.528,55.528,0,0,0-.225-11.047,27.437,27.437,0,0,0-2.663-8.715,20.524,20.524,0,0,0-4.064-5.552,15.773,15.773,0,0,0-3.515-2.56c-.435-.243-.8-.371-1.024-.481a1.885,1.885,0,0,0-.36-.139,18.09,18.09,0,0,1,4.75,3.334,20.655,20.655,0,0,1,3.937,5.536,27.343,27.343,0,0,1,2.552,8.628,55.68,55.68,0,0,1,.154,10.967c-.269,3.947-.719,8.167-.914,12.628a171.557,171.557,0,0,0,1.1,29c.153,1.149.3,2.292.443,3.355l.028.212.216.022a3.116,3.116,0,0,1,2.255,4.4l-.149.242.258.137c8.6,4.543,15.978,10,22.839,14.4a97.632,97.632,0,0,0,18.6,9.969l-.09-.247-6.048,10.7-1.592,2.862c-.166.309-.3.553-.4.744A1.309,1.309,0,0,0,569.74,338.765Z" transform="translate(-521.915 -221.619)" fill="#263238"/>
          </g>
          <g id="Group_3120" data-name="Group 3120" transform="translate(26.016 86.553)">
            <path id="Path_5157" data-name="Path 5157" d="M561.189,303a14.036,14.036,0,0,1,7.564-7.751,3.649,3.649,0,0,0-1.619.43,10.545,10.545,0,0,0-5.553,5.69A3.624,3.624,0,0,0,561.189,303Z" transform="translate(-561.169 -295.229)" fill="#263238"/>
          </g>
          <g id="Group_3121" data-name="Group 3121" transform="translate(23.902 82.525)">
            <path id="Path_5158" data-name="Path 5158" d="M563.414,299.6a16.715,16.715,0,0,1,7.331-8.179,10.943,10.943,0,0,0-7.331,8.179Z" transform="translate(-563.394 -291.412)" fill="#263238"/>
          </g>
          <g id="Group_3122" data-name="Group 3122" transform="translate(10.309 107.335)">
            <path id="Path_5159" data-name="Path 5159" d="M530.906,314.931a2.457,2.457,0,0,0,.516.3c.4.2.909.448,1.529.754,1.335.639,3.277,1.54,5.7,2.609,4.838,2.143,11.585,4.969,19.187,7.71a159.267,159.267,0,0,0,19.813,5.941c2.6.512,4.705.928,6.185,1.045l1.7.175a2.387,2.387,0,0,0,.594.023,2.328,2.328,0,0,0-.582-.134l-1.68-.276c-1.465-.183-3.552-.656-6.13-1.213a183.975,183.975,0,0,1-19.714-6.08c-7.584-2.734-14.346-5.5-19.219-7.548l-5.764-2.446-1.57-.66A2.459,2.459,0,0,0,530.906,314.931Z" transform="translate(-530.906 -314.929)" fill="#263238"/>
          </g>
          <g id="Group_3123" data-name="Group 3123" transform="translate(63.663 9.036)">
            <path id="Path_5160" data-name="Path 5160" d="M526.017,221.754c-.027.037.124.191.312.533a10.058,10.058,0,0,1,.614,1.555,29.349,29.349,0,0,1,1.121,5.465l.084.8.42-.674c.037-.06.077-.124.118-.189,1.2-1.95,2.09-3.781,2.936-4.981.821-1.215,1.474-1.863,1.414-1.926a5.932,5.932,0,0,0-1.728,1.7,55.464,55.464,0,0,0-3.088,4.918c-.04.064-.079.128-.116.186l.505.122a22.422,22.422,0,0,0-1.306-5.544,6.881,6.881,0,0,0-.8-1.539C526.248,221.841,526.03,221.729,526.017,221.754Z" transform="translate(-526.013 -221.751)" fill="#263238"/>
          </g>
          <g id="Group_3124" data-name="Group 3124" transform="translate(40.254 6.236)">
            <path id="Path_5161" data-name="Path 5161" d="M540.13,219.1c-.052.078,1.237.907,3.128,2.484a42.173,42.173,0,0,1,6.628,6.912,41.274,41.274,0,0,1,2.461,3.64l.286.478.182-.522c.884-2.543,1.626-4.73,2.131-6.286a15.328,15.328,0,0,0,.72-2.5,15.172,15.172,0,0,0-1.022,2.395c-.592,1.525-1.4,3.689-2.318,6.22l.468-.044a36.693,36.693,0,0,0-9.3-10.591,29.017,29.017,0,0,0-2.414-1.677A4.056,4.056,0,0,0,540.13,219.1Z" transform="translate(-540.128 -219.097)" fill="#263238"/>
          </g>
          <g id="Group_3125" data-name="Group 3125" transform="translate(55.814 20.046)">
            <path id="Path_5162" data-name="Path 5162" d="M536.368,297.557a3,3,0,0,0,.117-.657c.06-.492.136-1.119.231-1.9.19-1.647.435-4.032.714-6.984.558-5.9,1.222-14.066,1.764-23.095s.854-17.218,1-23.144c.075-2.963.116-5.361.123-7.019,0-.782,0-1.415,0-1.909a3.072,3.072,0,0,0-.039-.667,3.036,3.036,0,0,0-.072.664c-.025.494-.059,1.126-.1,1.906-.073,1.726-.175,4.1-.3,7.011-.247,5.92-.625,14.1-1.164,23.123s-1.143,17.187-1.6,23.1c-.224,2.9-.407,5.275-.54,7-.053.78-.1,1.412-.128,1.905A2.91,2.91,0,0,0,536.368,297.557Z" transform="translate(-536.355 -232.187)" fill="#263238"/>
          </g>
          <g id="Group_3126" data-name="Group 3126" transform="translate(34.824 67.485)">
            <path id="Path_5163" data-name="Path 5163" d="M531.828,277.156a8.2,8.2,0,0,0,.949,1.209c.635.758,1.589,1.824,2.8,3.113a121.23,121.23,0,0,0,21.09,17.771c1.475.974,2.688,1.733,3.541,2.23a8.159,8.159,0,0,0,1.352.73,8.24,8.24,0,0,0-1.237-.91l-3.438-2.372c-2.887-2.02-6.8-4.92-10.918-8.383s-7.629-6.833-10.112-9.337l-2.92-2.986A8.189,8.189,0,0,0,531.828,277.156Z" transform="translate(-531.826 -277.155)" fill="#263238"/>
          </g>
          <g id="Group_3127" data-name="Group 3127" transform="translate(58.875 89.067)">
            <ellipse id="Ellipse_201" data-name="Ellipse 201" cx="6.749" cy="0.274" rx="6.749" ry="0.274" transform="translate(0.549 0) rotate(89.083)" fill="#263238"/>
          </g>
          <g id="Group_3128" data-name="Group 3128" transform="translate(83.995 46.632)" opacity="0.3">
            <path id="Path_5164" data-name="Path 5164" d="M505.825,279.88a167.649,167.649,0,0,1,2.829-22.492,225.2,225.2,0,0,0,5.163,33.715Z" transform="translate(-505.825 -257.388)"/>
          </g>
          <g id="Group_3129" data-name="Group 3129" transform="translate(39.224 5.887)" opacity="0.3">
            <path id="Path_5165" data-name="Path 5165" d="M556.864,229.693c-1.073-.885-2.345-.166-2.987,1.068a9.132,9.132,0,0,0-.573,4.09,5.05,5.05,0,0,1-.43,2.24,2.05,2.05,0,0,1-1.823,1.188c-.9-.051-1.555-.848-2.085-1.58q-6.287-8.689-11.752-17.933c5.872,2.276,9.825,7.855,13.624,13.769.157.06,3.08-9.465,3.08-9.465.81,2.054,2.135,4.568,2.946,6.624" transform="translate(-537.214 -218.765)"/>
          </g>
          <g id="Group_3130" data-name="Group 3130" transform="translate(58.872 8.947)" opacity="0.3">
            <path id="Path_5166" data-name="Path 5166" d="M537.846,222.572a58.127,58.127,0,0,1-8.589,13.867,36.888,36.888,0,0,1,.753-10.217c-1.073.741-3.21,2.571-4.283,3.311,0,0,2.328-5.029,3.285-6.858.255-.487.639-1.035,1.189-1.009.632.031.938.771,1.094,1.384q.769,3,1.539,5.99a16.534,16.534,0,0,1,4.719-6.811" transform="translate(-525.727 -221.666)"/>
          </g>
          <g id="Group_3131" data-name="Group 3131" transform="translate(39.981 68.946)" opacity="0.3">
            <path id="Path_5167" data-name="Path 5167" d="M556.241,301.343a9.315,9.315,0,0,0-3.495-8.746c-2.044-1.548-4.666-2.182-6.705-3.735-3.527-2.683-4.879-7.749-8.8-9.81-1.466-.77-3.688-.784-4.361.729-.6,1.355.48,2.827,1.509,3.895a107.854,107.854,0,0,0,21.87,17.466" transform="translate(-532.705 -278.54)"/>
          </g>
          <g id="Group_3132" data-name="Group 3132" transform="translate(26.117 86.521)" opacity="0.3">
            <path id="Path_5168" data-name="Path 5168" d="M568.631,295.849a10.614,10.614,0,0,0-3.1,7.336,11.066,11.066,0,0,1-.11,2.4,2.215,2.215,0,0,1-1.492,1.734,2.119,2.119,0,0,1-2.3-1.84,5.621,5.621,0,0,1,.667-3.176c1.287-2.916,3.1-5.877,6.041-7.107" transform="translate(-561.583 -295.199)"/>
          </g>
          <g id="Group_3133" data-name="Group 3133" transform="translate(103.792 57.943)" opacity="0.2">
            <path id="Path_5169" data-name="Path 5169" d="M494.8,268.584c-1.671,1.914-2.925,6.9-2.756,9.43s.788,3.187.551,5.717c-.044.471.753.633.381.925-.616.483-1.6-.02-1.875-.752a3.819,3.819,0,0,1,.12-2.307,1.617,1.617,0,0,1-2,1.491,2.61,2.61,0,0,1-1.773-2.106,7.344,7.344,0,0,1,.2-2.881,19.516,19.516,0,0,1,2.146-6.264,7.475,7.475,0,0,1,5.241-3.726" transform="translate(-487.371 -268.11)"/>
          </g>
          <g id="Group_3134" data-name="Group 3134" transform="translate(108.208 58.189)">
            <path id="Path_5170" data-name="Path 5170" d="M488.606,284.2a26.732,26.732,0,0,1,1.984-15.857,7.374,7.374,0,0,0-1.2,2.091,20.188,20.188,0,0,0-1.433,11.442A7.384,7.384,0,0,0,488.606,284.2Z" transform="translate(-487.685 -268.343)" fill="#263238"/>
          </g>
        </g>
        <g id="Group_3140" data-name="Group 3140" transform="translate(0.499 181.97)">
          <path id="Path_5171" data-name="Path 5171" d="M621.122,406.986c4.413-19.746-3.127-53.654-17.187-68.2a62.546,62.546,0,0,0-55.509-17.678v86.847Z" transform="translate(-548.425 -320.102)" fill="#455a64"/>
          <g id="Group_3136" data-name="Group 3136" transform="translate(0.322 50.273)">
            <path id="Path_5172" data-name="Path 5172" d="M559.575,367.756c-.031.052,13.795,8.29,30.877,18.4s30.963,18.264,30.993,18.213-13.792-8.289-30.881-18.4S559.606,367.7,559.575,367.756Z" transform="translate(-559.575 -367.756)" fill="#fafafa"/>
          </g>
          <g id="Group_3137" data-name="Group 3137" transform="translate(0.323 20.716)">
            <path id="Path_5173" data-name="Path 5173" d="M548.843,339.739s.246.168.726.466q.786.487,2.106,1.3l7.774,4.735c6.572,3.983,15.67,9.46,25.758,15.439s19.266,11.329,25.948,15.128c3.344,1.894,6.052,3.423,7.942,4.448l2.174,1.183c.5.269.765.4.765.4s-.252-.157-.744-.439l-2.153-1.218-7.906-4.507c-6.661-3.832-15.823-9.2-25.913-15.182L559.53,346.108l-7.81-4.676-2.128-1.264C549.1,339.881,548.843,339.739,548.843,339.739Z" transform="translate(-548.843 -339.739)" fill="#fafafa"/>
          </g>
          <g id="Group_3138" data-name="Group 3138" transform="translate(9.694 1.514)">
            <path id="Path_5174" data-name="Path 5174" d="M559.575,321.537s.176.113.52.309l1.513.848,5.591,3.066c4.731,2.571,11.3,6.06,18.572,9.88,13.933,7.367,23.728,12.549,26.3,13.91,0,0-.176-.113-.52-.309l-1.513-.848-5.591-3.066c-4.73-2.571-11.3-6.06-18.576-9.881Z" transform="translate(-559.575 -321.537)" fill="#fafafa"/>
          </g>
          <g id="Group_3139" data-name="Group 3139" transform="translate(1.81 0.712)">
            <path id="Path_5175" data-name="Path 5175" d="M547.9,321.653a1.559,1.559,0,0,0,.34-.012l.988-.088c.87-.061,2.143-.263,3.8-.339a70.195,70.195,0,0,1,13.969.5c.73.109,1.483.185,2.243.326l2.322.468c1.592.27,3.19.79,4.872,1.218a59.211,59.211,0,0,1,10.26,4.132,52.349,52.349,0,0,1,19,16.409,71,71,0,0,1,6.5,11.407,80.8,80.8,0,0,1,4.284,11.469,95.856,95.856,0,0,1,2.509,10.8c.531,3.435.925,6.651,1.091,9.6a87.206,87.206,0,0,1-.192,13.994c-.1,1.652-.352,2.918-.434,3.786-.047.409-.084.734-.113.986a1.742,1.742,0,0,0-.021.339,1.49,1.49,0,0,0,.075-.33c.043-.249.1-.573.169-.979.115-.864.4-2.127.537-3.781a82.039,82.039,0,0,0,.366-14.038c-.141-2.968-.515-6.2-1.03-9.655A94.883,94.883,0,0,0,616.963,367a80.434,80.434,0,0,0-4.28-11.552,70.636,70.636,0,0,0-6.545-11.5,52.5,52.5,0,0,0-19.221-16.543,58.926,58.926,0,0,0-10.363-4.118c-1.7-.423-3.309-.937-4.913-1.2q-1.195-.231-2.341-.456c-.766-.135-1.523-.206-2.26-.309A66.98,66.98,0,0,0,553,321c-1.655.11-2.927.346-3.795.443l-.983.141A1.527,1.527,0,0,0,547.9,321.653Z" transform="translate(-547.896 -320.777)" fill="#263238"/>
          </g>
        </g>
        <path id="Path_5176" data-name="Path 5176" d="M499.891,320.468a34.188,34.188,0,0,0,7-.917,23.984,23.984,0,0,1,8.462-1.07c1.969.3,7.012,2.292,10.223,3.209s5.809.154,5.96,1.682S530,326.8,526.793,326.8c0,0,3.516,1.158,2.9,1.921s-1.682,2.6-3.21,2.6a3.253,3.253,0,0,1-2.75,3.056s-.918,2.293-5.35,3.363c0,0,.341,1.988-3.039,2.6s-22.335-7.948-22.335-7.948Z" transform="translate(-398.629 -138.225)" fill="#ffbe9d"/>
      </g>
    </g>
  </g>
</svg>
