<svg xmlns="http://www.w3.org/2000/svg" xmlns:xlink="http://www.w3.org/1999/xlink" width="656" height="209" viewBox="0 0 656 209">
  <defs>
    <filter id="Ellipse_178" x="0" y="0" width="209" height="209" filterUnits="userSpaceOnUse">
      <feOffset dy="3" input="SourceAlpha"/>
      <feGaussianBlur stdDeviation="7.5" result="blur"/>
      <feFlood flood-opacity="0.161"/>
      <feComposite operator="in" in2="blur"/>
      <feComposite in="SourceGraphic"/>
    </filter>
  </defs>
  <g id="Group_3712" data-name="Group 3712" transform="translate(-137.5 -3385.5)">
    <line id="Line_45" data-name="Line 45" x2="469" transform="translate(324.5 3483.5)" fill="none" stroke="#fff" stroke-width="5" stroke-dasharray="5" opacity="0.46"/>
    <g transform="matrix(1, 0, 0, 1, 137.5, 3385.5)" filter="url(#Ellipse_178)">
      <g id="Ellipse_178-2" data-name="Ellipse 178" transform="translate(22.5 19.5)" fill="rgba(186,70,22,0.38)" stroke="#fff" stroke-width="4" stroke-dasharray="5">
        <circle cx="82" cy="82" r="82" stroke="none"/>
        <circle cx="82" cy="82" r="80" fill="none"/>
      </g>
    </g>
    <g id="leader" transform="translate(201 3445.61)">
      <path id="Path_5050" data-name="Path 5050" d="M116.823,52,105.3,49.844V46.263a14.636,14.636,0,0,0,5.085-8.73,6.648,6.648,0,0,0,5.558-6.542V20.347a19.957,19.957,0,1,0-39.913,0V30.991a6.648,6.648,0,0,0,5.559,6.542,14.639,14.639,0,0,0,5.085,8.73v3.581L75.158,52A11.981,11.981,0,0,0,65.39,63.773V82.878h61.2V63.773A11.981,11.981,0,0,0,116.823,52Zm-7.682,19.073-3.429,9.141h-1.554l1.45-11.117,1.814-.6Zm-21.5-18.7,6.179,5.148-5.734,4.1-1.188-9.105Zm16.708,0,.745.14L103.9,61.616l-5.734-4.1ZM90.1,63.438l1.836,3.674L90.11,77.18,88.47,64.6Zm4.047,2.144L92.3,61.872l3.693-2.637,3.694,2.639L97.83,65.582Zm7.725-2.144,1.635,1.168-1.64,12.576L100.04,67.113ZM85.991,66.17l-4.83-1.61L78.82,54.025,84.274,53ZM84.561,68.5l1.813.6,1.449,11.117H86.27l-3.429-9.141Zm9.88-.253h3.1l2.177,11.974H92.263Zm11.55-2.074L107.708,53l5.454,1.022L110.82,64.558Zm4.635-31.432V27.246a3.967,3.967,0,0,1,0,7.492ZM95.991,3.051a17.316,17.316,0,0,1,17.3,17.3V25.7a6.579,6.579,0,0,0-2.661-1.23V22.188l-6.748-3.374-1.313.876a12.044,12.044,0,0,1-13.149,0L88.1,18.813l-6.747,3.373v2.287a6.6,6.6,0,0,0-2.661,1.23V20.347a17.316,17.316,0,0,1,17.3-17.3Zm-17.3,27.939a3.987,3.987,0,0,1,2.661-3.746v7.492a3.983,3.983,0,0,1-2.661-3.745Zm5.322,3.991V23.83l3.9-1.948.028.018a14.745,14.745,0,0,0,16.1,0l.028-.018,3.9,1.948V34.982a11.974,11.974,0,1,1-23.948,0ZM95.991,49.617A14.538,14.538,0,0,0,102.643,48v2.323l-6.652,5.544-6.652-5.544V48A14.54,14.54,0,0,0,95.991,49.617ZM68.051,63.773a9.32,9.32,0,0,1,7.6-9.155l.555-.1,2.686,12.092,3.054,1.018L79.87,70.734l3.557,9.483H68.051ZM123.93,80.217H108.555l3.556-9.485-2.073-3.109,3.053-1.018,2.686-12.092.555.1a9.32,9.32,0,0,1,7.6,9.156Zm0,0" transform="translate(-54.516)" fill="#fff"/>
      <path id="Path_5051" data-name="Path 5051" d="M222.713,229.713a5.327,5.327,0,0,0,5.322-5.322h-2.661a2.661,2.661,0,0,1-5.322,0h-2.661A5.327,5.327,0,0,0,222.713,229.713Zm0,0" transform="translate(-181.238 -186.748)" fill="#fff"/>
      <path id="Path_5052" data-name="Path 5052" d="M284.052,161.721a1.33,1.33,0,1,1-1.33-1.33A1.331,1.331,0,0,1,284.052,161.721Zm0,0" transform="translate(-234.594 -133.392)" fill="#fff"/>
      <path id="Path_5053" data-name="Path 5053" d="M204.052,161.721a1.33,1.33,0,1,1-1.33-1.33A1.331,1.331,0,0,1,204.052,161.721Zm0,0" transform="translate(-167.899 -133.392)" fill="#fff"/>
      <path id="Path_5054" data-name="Path 5054" d="M401.391,288.391h2.661v2.661h-2.661Zm0,0" transform="translate(-334.637 -240.104)" fill="#fff"/>
      <path id="Path_5055" data-name="Path 5055" d="M378.875,4.1,368,16.786h5.553V48.716h2.661V14.125h-2.429l5.09-5.938,5.091,5.938h-2.43V80.647H384.2V16.786h5.554Zm0,0" transform="translate(-306.8 -3.091)" fill="#fff"/>
      <path id="Path_5056" data-name="Path 5056" d="M449.391,480.391h2.661v2.661h-2.661Zm0,0" transform="translate(-374.655 -400.174)" fill="#fff"/>
      <path id="Path_5057" data-name="Path 5057" d="M81.391,288.391h2.661v2.661H81.391Zm0,0" transform="translate(-67.855 -240.104)" fill="#fff"/>
      <path id="Path_5058" data-name="Path 5058" d="M10.875,8.187l5.091,5.938h-2.43V48.716H16.2V16.786H21.75L10.875,4.1,0,16.786H5.553V80.647H8.214V14.125H5.785Zm0,0" transform="translate(0 -3.091)" fill="#fff"/>
      <path id="Path_5059" data-name="Path 5059" d="M33.391,480.391h2.661v2.661H33.391Zm0,0" transform="translate(-27.838 -400.174)" fill="#fff"/>
    </g>
  </g>
</svg>
