<svg xmlns="http://www.w3.org/2000/svg" width="55.812" height="57.107" viewBox="0 0 55.812 57.107">
  <g id="Group_3711" data-name="Group 3711" transform="translate(0 0)">
    <path id="Path_4094" data-name="Path 4094" d="M175.244,10.166a5.083,5.083,0,1,1,5.083-5.083A5.085,5.085,0,0,1,175.244,10.166Z" transform="translate(-158.899)" fill="#cd3033" fill-rule="evenodd"/>
    <path id="Path_4095" data-name="Path 4095" d="M22.81,24.125a6.633,6.633,0,0,0,.046-.748,6.484,6.484,0,0,0-.822-3.163,28.05,28.05,0,0,1,10.172-.293v4.045a23.951,23.951,0,0,0-9.4.159ZM34.792,66.363V54.171h0Zm8.437-6.511s0-.357-.013-1.095c.009.738.013,1.095.013,1.095ZM43.2,57.1c-2.8-4.864-9.343-5.071-10.37-5.077-.089,0-.138,0-.138,0l0,.021a5.133,5.133,0,0,0-.885-.071c-1.283,0-3.124-.028-4.442-.028H27.15v0H21.428s-.114.007-.316.007c-1.6,0-8.7-.42-8.787-7.881-.066-5.98-.1-8.7-.1-8.7a7.334,7.334,0,0,1,.343-1.616,8.151,8.151,0,0,0-.272,1.1,9.158,9.158,0,0,0,.756,3.031c1.205,2.938,4.215,4.534,7.526,5q.828.129,1.765.188a4.571,4.571,0,0,0,1.311.171c1.29,0,3.147.029,4.467.029H28.3v0h5.723s.114-.007.316-.007c1.6,0,8.7.419,8.787,7.88.028,2.575.05,4.547.067,5.957ZM15.677,29.923h0Zm.009,0,.011-.006a8.325,8.325,0,0,1,3.991-1.053c.121,0,.237,0,.347,0s.216,0,.317,0,.212,0,.312-.009h0c-.1.007-.2.009-.312.009s-.207,0-.317,0-.226,0-.347,0A8.325,8.325,0,0,0,15.7,29.912Zm5.227,44.6a27.907,27.907,0,0,1-10.6-48.682,6.524,6.524,0,0,0,2.568,3.051,23.908,23.908,0,0,0-.327,36.951V48.843c2.232,3.674,6.857,4.077,8.354,4.106Z" transform="translate(0 -18.294)" fill="#f37135" fill-rule="evenodd"/>
    <path id="Path_4096" data-name="Path 4096" d="M348.309,84.916a28.094,28.094,0,0,1-5.2-.491V80.36a23.921,23.921,0,0,0,19.484-42.535V54.919c-2.519-2.924-6.73-3.132-7.85-3.132-.169,0-.286,0-.34.006V29.78a27.905,27.905,0,0,1-6.1,55.137Z" transform="translate(-320.403 -27.809)" fill="#cd3033" fill-rule="evenodd"/>
    <path id="Path_4097" data-name="Path 4097" d="M208.3,197.136V184.943a2.3,2.3,0,0,0-2.106-2.121l0-.021c3.841-.137,8.592,1.56,10.507,5.075,0,.075.017,1.438.019,1.652.009.737.013,1.095.013,1.095a7.208,7.208,0,0,1-7.458,6.51c-.324,0-.649,0-.979,0Zm-12.424-23.289-.024,0q-.938-.058-1.765-.188c-.863-.15-5.771-.823-7.526-5a9.158,9.158,0,0,1-.756-3.031,8.124,8.124,0,0,1,.272-1.1,7.288,7.288,0,0,1,7.12-4.895c.121,0,.237,0,.347,0s.215,0,.317,0,.212,0,.312-.009v12.193A2.159,2.159,0,0,0,195.871,173.847Z" transform="translate(-173.504 -149.066)" fill="#cd3033" fill-rule="evenodd"/>
    <path id="Path_4098" data-name="Path 4098" d="M183.2,28.874l.023,1.989a7.929,7.929,0,0,0,4.016,3.971,12.861,12.861,0,0,0,3.511,1.026h0a2.886,2.886,0,0,1-.7-1.6l-.012-.179,0-11.448a6.8,6.8,0,0,0-4.807,1.667A6.341,6.341,0,0,0,183.2,28.874Zm4.515-16.634a4.285,4.285,0,1,0-1.2,8.4h0a4.285,4.285,0,0,0,1.2-8.4Zm21.195,8.345c1.159-1.04,2.343-2.063,3.543-3.06a26.751,26.751,0,0,0-5.869-2.791c-.531-.176-1.071-.337-1.613-.478V24.283h0l1.525-1.471Q207.683,21.683,208.909,20.585Z" transform="translate(-170.17 -11.271)" fill="#cd5a3d" fill-rule="evenodd"/>
    <path id="Path_4101" data-name="Path 4101" d="M28.822,53.377a8.057,8.057,0,0,1-4.545-4.2l.07,6.18c.042,3.547,1.809,5.362,3.874,6.265a9.682,9.682,0,0,0,2.21.651h0q.573-.988,1.191-1.978c1.034-1.659,2.153-3.322,3.344-4.961H34.96a5.627,5.627,0,0,1-1.594-.2c-.135-.039-.26-.086-.383-.132a3.142,3.142,0,0,1-1.079-.709l-.1-.113a13.469,13.469,0,0,1-2.981-.8Zm10.11-19.3h.208a24.84,24.84,0,0,1,3.495.248V31.9a27.325,27.325,0,0,0-3.485-.222h-.177a27.413,27.413,0,0,0-2.885.171c-.564.062-1.123.144-1.68.241a7.381,7.381,0,0,1,.469,2.347h0c.4-.069.8-.129,1.2-.179A24.792,24.792,0,0,1,38.932,34.072ZM15.573,66.279a24.677,24.677,0,0,1,7.249-26.056,7.537,7.537,0,0,1-1.541-1.833,27.535,27.535,0,0,0-4.758,5.436,27.105,27.105,0,0,0,6.667,36.9h0q.262-1.283.589-2.565l-.507-.428a24.614,24.614,0,0,1-7.7-11.458Zm12.15,1.114q.656-1.384,1.39-2.76a12.634,12.634,0,0,1-1.245-.374,10.641,10.641,0,0,1-1.891-.884,8.735,8.735,0,0,1-1.4-1.036V75.365h0q.586-1.869,1.314-3.734Q26.718,69.51,27.723,67.394Z" transform="translate(-11.224 -29.583)" fill="#f5894e" fill-rule="evenodd"/>
  </g>
</svg>
