<svg xmlns="http://www.w3.org/2000/svg" width="69" height="69" viewBox="0 0 69 69">
  <g id="Group_3685" data-name="Group 3685" transform="translate(-548 -676)">
    <circle id="Ellipse_241" data-name="Ellipse 241" cx="34.5" cy="34.5" r="34.5" transform="translate(548 676)" fill="#ed6635" opacity="0.16"/>
    <g id="Icon_feather-globe" data-name="Icon feather-globe" transform="translate(564.015 692.882)">
      <path id="Path_5385" data-name="Path 5385" d="M33,18A15,15,0,1,1,18,3,15,15,0,0,1,33,18Z" fill="none" stroke="#de9c9b" stroke-linecap="round" stroke-linejoin="round" stroke-width="2"/>
      <path id="Path_5386" data-name="Path 5386" d="M3,18H33" fill="none" stroke="#de9c9b" stroke-linecap="round" stroke-linejoin="round" stroke-width="2"/>
      <path id="Path_5387" data-name="Path 5387" d="M18,3a22.95,22.95,0,0,1,6,15,22.95,22.95,0,0,1-6,15,22.95,22.95,0,0,1-6-15A22.95,22.95,0,0,1,18,3Z" fill="none" stroke="#de9c9b" stroke-linecap="round" stroke-linejoin="round" stroke-width="2"/>
    </g>
  </g>
</svg>
