<svg xmlns="http://www.w3.org/2000/svg" xmlns:xlink="http://www.w3.org/1999/xlink" width="66.298" height="66.298" viewBox="0 0 66.298 66.298">
  <defs>
    <linearGradient id="linear-gradient" x1="0.63" y1="1" x2="0.633" gradientUnits="objectBoundingBox">
      <stop offset="0" stop-color="#f37135"/>
      <stop offset="1" stop-color="#cd3033"/>
    </linearGradient>
  </defs>
  <g id="hr" transform="translate(0 0)">
    <path id="Path_4387" data-name="Path 4387" d="M199.485,17.253l7.872-6.56h10.306V0H192V10.693h7.485Zm-5.347-8.7V2.139h21.387V8.555h-8.942l-4.96,4.133V8.555Zm0,0" transform="translate(-166.336)" fill="url(#linear-gradient)"/>
    <path id="Path_4388" data-name="Path 4388" d="M224,32h2.139v2.139H224Zm0,0" transform="translate(-194.059 -27.723)" fill="url(#linear-gradient)"/>
    <path id="Path_4389" data-name="Path 4389" d="M256,32h8.555v2.139H256Zm0,0" transform="translate(-221.782 -27.723)" fill="url(#linear-gradient)"/>
    <path id="Path_4390" data-name="Path 4390" d="M336,32h2.139v2.139H336Zm0,0" transform="translate(-291.088 -27.723)" fill="url(#linear-gradient)"/>
    <path id="Path_4391" data-name="Path 4391" d="M54.434,168.12l-.865-8.656a7.49,7.49,0,0,0,6.313-7.383v-13.9H55.6V136.7a3.847,3.847,0,0,0-2.083-3.428,6.391,6.391,0,0,0,2.083-4.718v-2.139a6.416,6.416,0,0,0-12.832,0v2.139A6.421,6.421,0,0,0,47,134.578l-5.739,5.739h-6a4.288,4.288,0,0,0-3.079-3.832L27.8,135.234v-1.91a6.394,6.394,0,0,0,2.139-4.769v-2.139a6.416,6.416,0,0,0-12.832,0v2.139a6.4,6.4,0,0,0,2.139,4.769v1.911l-4.383,1.251a4.294,4.294,0,0,0-3.1,4.113v4H7.485v6.416H9.624V168.12H0v2.139H66.3V168.12ZM44.911,151.01v-4.9l7.577-7.577a3.35,3.35,0,0,0,.947-2.051,1.741,1.741,0,0,1,.031.222v13.24a3.212,3.212,0,0,1-3.208,3.208H41.7V151.01ZM41.7,159.565h5.448l.855,8.555H41.7Zm7.6,0h2.128l.855,8.555H50.156Zm6.3-9.624v-9.624h2.139V152.08a5.353,5.353,0,0,1-5.347,5.347H41.7v-2.139h8.555A5.353,5.353,0,0,0,55.6,149.941ZM44.911,128.555v-2.139a4.277,4.277,0,1,1,8.555,0v2.139a4.277,4.277,0,1,1-8.555,0Zm-2.765,13.9,7.134-7.134a1.2,1.2,0,0,1,1.7,1.7L43.4,144.594H32.08a1.069,1.069,0,1,1,0-2.139Zm-22.9-16.04a4.277,4.277,0,1,1,8.555,0v2.139a4.277,4.277,0,1,1-8.555,0Zm4.277,8.555a6.384,6.384,0,0,0,2.139-.374v1.149a2.734,2.734,0,0,1-2.139,1.364,2.734,2.734,0,0,1-2.139-1.364V134.6A6.384,6.384,0,0,0,23.525,134.971ZM13.9,140.6a2.148,2.148,0,0,1,1.551-2.057l4.405-1.258a4.657,4.657,0,0,0,3.668,1.964,4.655,4.655,0,0,0,3.668-1.965l4.405,1.258a2.131,2.131,0,0,1,1.5,1.775H32.079a3.212,3.212,0,0,0-3.208,3.208,3.164,3.164,0,0,0,.2,1.069H13.9Zm-4.277,6.135H42.773v2.139H9.624Zm2.139,8.555H14.97v-2.139H11.762V151.01h27.8v2.139H17.109v2.139H39.565V168.12H37.018l-2.139-4.277H16.448l-2.139,4.277H11.762ZM34.626,168.12H16.7l1.069-2.139H33.557Zm0,0" transform="translate(0 -103.96)" fill="url(#linear-gradient)"/>
  </g>
</svg>
