<svg xmlns="http://www.w3.org/2000/svg" width="69" height="69" viewBox="0 0 69 69">
  <g id="Group_3711" data-name="Group 3711" transform="translate(-546 -431)">
    <g id="Group_3690" data-name="Group 3690" transform="translate(-2 -245)">
      <circle id="Ellipse_241" data-name="Ellipse 241" cx="34.5" cy="34.5" r="34.5" transform="translate(548 676)" fill="#ed6635" opacity="0.16"/>
    </g>
    <g id="clipboard" transform="translate(566.888 447)">
      <path id="Path_5402" data-name="Path 5402" d="M22.978,5.827H19.555v-.3a2.44,2.44,0,0,0-2.421-2.439h-.627a3.249,3.249,0,0,0-6.49,0H9.391A2.44,2.44,0,0,0,6.97,5.523v.3H3.546A3.457,3.457,0,0,0,.112,9.313V33.174a3.444,3.444,0,0,0,3.417,3.471H22.978a3.444,3.444,0,0,0,3.434-3.453V9.313a3.457,3.457,0,0,0-3.434-3.486ZM13.262,1.613a1.652,1.652,0,0,1,1.627,1.471H11.635a1.652,1.652,0,0,1,1.627-1.471ZM8.583,5.523A.825.825,0,0,1,9.391,4.7h7.743a.825.825,0,0,1,.808.826V8.731H8.583ZM24.8,33.174A1.829,1.829,0,0,1,23,35.032H3.546A1.829,1.829,0,0,1,1.726,33.2V9.313A1.841,1.841,0,0,1,3.546,7.441H6.97V9.569a.783.783,0,0,0,.788.777H18.747a.782.782,0,0,0,.808-.757V7.441h3.423A1.841,1.841,0,0,1,24.8,9.313Zm0,0" transform="translate(0)" fill="#ecb7a4"/>
      <path id="Path_5403" data-name="Path 5403" d="M58.533,313.841H66.06a.807.807,0,1,0,0-1.614H58.533a.807.807,0,1,0,0,1.614Zm0,0" transform="translate(-52.967 -287.038)" fill="#ecb7a4"/>
      <path id="Path_5404" data-name="Path 5404" d="M73.925,361.227H58.534a.807.807,0,1,0,0,1.614H73.925a.807.807,0,0,0,0-1.614Zm0,0" transform="translate(-52.967 -332.084)" fill="#ecb7a4"/>
      <path id="Path_5405" data-name="Path 5405" d="M97.07,179.8a.807.807,0,0,0,1.112.056l6.4-5.509a.807.807,0,1,0-1.049-1.227l0,0-5.813,5.007-2.669-2.815a.807.807,0,1,0-1.171,1.11Zm0,0" transform="translate(-85.992 -158.974)" fill="#ecb7a4"/>
    </g>
  </g>
</svg>
