<svg xmlns="http://www.w3.org/2000/svg" xmlns:xlink="http://www.w3.org/1999/xlink" width="972" height="1505" viewBox="0 0 972 1505">
  <defs>
    <linearGradient id="linear-gradient" x1="0.63" y1="1" x2="0.633" gradientUnits="objectBoundingBox">
      <stop offset="0" stop-color="#f37135"/>
      <stop offset="1" stop-color="#cd3033"/>
    </linearGradient>
    <linearGradient id="linear-gradient-2" x1="0.5" y1="1.147" x2="0.5" y2="0.24" gradientUnits="objectBoundingBox">
      <stop offset="0" stop-color="#d1d7e0"/>
      <stop offset="1" stop-color="#ebebff"/>
    </linearGradient>
    <linearGradient id="linear-gradient-3" x1="0.571" y1="1.795" x2="0.493" y2="0.379" xlink:href="#linear-gradient-2"/>
    <linearGradient id="linear-gradient-4" x1="0.5" y1="2.165" x2="0.5" y2="0.322" xlink:href="#linear-gradient-2"/>
    <linearGradient id="linear-gradient-5" x1="0" y1="0.5" x2="1" y2="0.5" xlink:href="#linear-gradient-2"/>
  </defs>
  <g id="Group_3711" data-name="Group 3711" transform="translate(-160 -243)">
    <path id="Rectangle_479" data-name="Rectangle 479" d="M30,0H716a0,0,0,0,1,0,0V1505a0,0,0,0,1,0,0H30a30,30,0,0,1-30-30V30A30,30,0,0,1,30,0Z" transform="translate(160 243)" fill="url(#linear-gradient)"/>
    <circle id="Ellipse_118" data-name="Ellipse 118" cx="441" cy="441" r="441" transform="translate(250 555)" fill="#fff" opacity="0.12"/>
    <rect id="Rectangle_515" data-name="Rectangle 515" width="551" height="5" rx="2.5" transform="translate(160 1564)" fill="#af5128"/>
    <g id="Group_1376" data-name="Group 1376" transform="translate(-4829.859 1967.127)">
      <g id="Group_1233" data-name="Group 1233" transform="translate(5620.547 -769.473)">
        <rect id="Rectangle_508" data-name="Rectangle 508" width="30.155" height="5.585" transform="translate(0 0)" fill="#4598e6"/>
      </g>
      <g id="Group_1300" data-name="Group 1300" transform="translate(5075.358 -931.297)">
        <g id="Group_1248" data-name="Group 1248" transform="translate(47.371)">
          <g id="Group_1247" data-name="Group 1247">
            <g id="Group_1246" data-name="Group 1246">
              <g id="Group_1245" data-name="Group 1245">
                <g id="Group_1244" data-name="Group 1244">
                  <path id="Path_4631" data-name="Path 4631" d="M1299.361,875.694s16.745,8.191,12.6,30.472-5.972,25.285-1.341,33.992,10.1,45.847,5.928,52.886-51.59-30.935-58.166-62.8,4.168-46.032,7.965-51.311S1284.578,868.192,1299.361,875.694Z" transform="translate(-1256.303 -872.018)" fill="#0e2d3d"/>
                </g>
              </g>
            </g>
          </g>
        </g>
        <g id="Group_1249" data-name="Group 1249" transform="translate(80.183 474.478)">
          <path id="Path_4632" data-name="Path 4632" d="M1322.531,1819.238h3.795v-17.9a50.831,50.831,0,0,1,12.115,11.823c4.671,6.86,11.093,6.276,20.872,5.838s9.342-4.378,8.466-9.925-10.8-7.3-14.012-8.174-10.5-13.434-12.844-16.492a41.9,41.9,0,0,1-4.89-8.173s-1.824-7.444-10.873,0-6.422,21.747-5.4,23.061S1322.531,1819.238,1322.531,1819.238Z" transform="translate(-1318.606 -1772.927)" fill="#163342"/>
        </g>
        <g id="Group_1250" data-name="Group 1250" transform="translate(84.682 475.823)">
          <path id="Path_4633" data-name="Path 4633" d="M1345.7,1802.114c3.357,2.19,12.115,0,12.115,0-2.481-3.21-17.734-24.666-17.734-24.666-9.268-5.4-12.931,2.031-12.931,2.031C1330.93,1780.636,1342.343,1799.923,1345.7,1802.114Z" transform="translate(-1327.147 -1775.481)" fill="#eea886"/>
        </g>
        <g id="Group_1254" data-name="Group 1254" transform="translate(200.34 162.202)">
          <g id="Group_1253" data-name="Group 1253">
            <g id="Group_1252" data-name="Group 1252">
              <g id="Group_1251" data-name="Group 1251">
                <path id="Path_4634" data-name="Path 4634" d="M1547.235,1190.074s6.076,1.165,8.152-1.691c1.765-2.428,5.8-4.291,7.041-4.867,1.661-.771,5.875-5.034,6.868-2.95s-6.611,7.362-7.983,8.788,7.454,2.056,8.978,3.442-.35,15.948-6.359,14.815-11.68-6.311-12.776-6.3a37.4,37.4,0,0,1-4.4-.652Z" transform="translate(-1546.752 -1179.997)" fill="#eea886"/>
              </g>
            </g>
          </g>
        </g>
        <g id="Group_1258" data-name="Group 1258" transform="translate(217.807 174.406)">
          <g id="Group_1257" data-name="Group 1257">
            <g id="Group_1256" data-name="Group 1256">
              <g id="Group_1255" data-name="Group 1255">
                <path id="Path_4635" data-name="Path 4635" d="M1584.648,1203.17s18.165,4.693,19.114,6.019.636,2.3-1.081,1.928S1585,1207.09,1585,1207.09s20.566,9.167,21.581,10.083c.594.537.1,2.449-.837,2.337s-21.841-8.032-21.841-8.032,19.187,8.594,19.807,9.614a1.447,1.447,0,0,1-1.817,1.994c-1.466-.539-19.726-7.509-19.726-7.509s13.572,7.133,13.588,8.3c.01.717-.34,2.389-3.785.44s-12.054-5.7-12.054-5.7Z" transform="translate(-1579.917 -1203.17)" fill="#eea886"/>
              </g>
            </g>
          </g>
        </g>
        <g id="Group_1259" data-name="Group 1259" transform="translate(33.871 489.043)">
          <path id="Path_4636" data-name="Path 4636" d="M1231.74,1833.555h2.335v-13.136a28.573,28.573,0,0,1,6.05,10.549c1.9,6.276,8.691,8.137,19.054,7.845s10.509-4.383,9.633-10.513-9.633-9.341-9.633-9.341c-3.941-3.5-13.72-18.026-13.72-18.026s-6.276-1.679-11.2,2.3-3.394,12.955-3.248,15.289S1231.74,1833.555,1231.74,1833.555Z" transform="translate(-1230.671 -1800.582)" fill="#163342"/>
        </g>
        <g id="Group_1260" data-name="Group 1260" transform="translate(20.843 203.898)">
          <path id="Path_4637" data-name="Path 4637" d="M1227.183,1264.351s-12.349,16.055-15.7,35.1,1.978,82.977,1.832,92.391-8.9,32.84-7.152,50.574,8.664,106,8.664,106l18.922-3.755s-1.095-89.983,0-97.426,3.292-34.577,3.73-37.643,27.8-83.55,27.8-97.282S1256.955,1241.946,1227.183,1264.351Z" transform="translate(-1205.934 -1259.167)" fill="#1d3b54"/>
        </g>
        <g id="Group_1261" data-name="Group 1261" transform="translate(61.664 211.339)">
          <path id="Path_4638" data-name="Path 4638" d="M1325.9,1277.317s20.288,77.43,22.7,88.159,5.9,19.576,5.9,24.13c0,10.568-3.927,27.539-3.927,27.539l-25.762,123.215h-24.537s13.671-73.921,14.039-88.375c.369-14.486,11.52-35.058,9.331-41.189s-35.249-76.846-35.249-76.846S1263.359,1254.839,1325.9,1277.317Z" transform="translate(-1283.443 -1273.296)" fill="#1d3b54"/>
        </g>
        <g id="Group_1262" data-name="Group 1262" transform="translate(37.457 489.391)">
          <path id="Path_4639" data-name="Path 4639" d="M1262.4,1819.27l-13.72-18.026-11.2,2.3a50.807,50.807,0,0,0,8.459,14.138C1252.39,1824.868,1262.4,1819.27,1262.4,1819.27Z" transform="translate(-1237.48 -1801.244)" fill="#eea886"/>
        </g>
        <g id="Group_1264" data-name="Group 1264" transform="translate(88.377 83.772)">
          <g id="Group_1263" data-name="Group 1263">
            <path id="Path_4640" data-name="Path 4640" d="M1341.529,1031.08a25.318,25.318,0,0,1,14.685,7.56c6.32,6.771,12.252,17.57,13.907,21.182s24.859,37.081,26.063,37.834,12.867,4.649,20.6,7.251c11.926,4.014,35.832,12.7,35.832,12.7l-4.748,15.032s-44.953-14.709-56.211-17.483c-13.767-3.391-45.459-44.049-45.459-44.049S1322.569,1043.42,1341.529,1031.08Z" transform="translate(-1334.162 -1031.08)" fill="#285173"/>
          </g>
        </g>
        <g id="Group_1266" data-name="Group 1266" transform="translate(23.075 77.339)">
          <g id="Group_1265" data-name="Group 1265">
            <path id="Path_4641" data-name="Path 4641" d="M1268.246,1019.431s10.835,5.117,14.6,5.869,18.359,19.714,20.917,26.636,0,17.305-5.267,29.494-.3,16.252-2.709,28.441-1.633,57.789-1.182,64.561-70.436,17.036-84.43,4.7c0,0,9.474-41.1,20.691-52.826,2.426-2.536,2.169-19.441.515-23.655s-20.315-35.664-20.315-35.664-1.37-31.9,6.771-38.222c7.073-5.493,26.349-7.451,29.81-8.655S1261.173,1018.378,1268.246,1019.431Z" transform="translate(-1210.172 -1018.865)" fill="#ffbf55"/>
          </g>
        </g>
        <g id="Group_1268" data-name="Group 1268" transform="translate(60.548 50.575)">
          <g id="Group_1267" data-name="Group 1267">
            <path id="Path_4642" data-name="Path 4642" d="M1307.1,982.874s-.323,2.983-.7,7.015c-.144,1.6-.3,3.357-.446,5.16a121.789,121.789,0,0,0-.568,14.174s-11.263,11.284-24.063-13.167c0,0,5.383-10.083,1.329-23.811S1307.1,982.874,1307.1,982.874Z" transform="translate(-1281.323 -968.046)" fill="#eea886"/>
          </g>
        </g>
        <g id="Group_1269" data-name="Group 1269" transform="translate(112.492 115.409)">
          <path id="Path_4643" data-name="Path 4643" d="M1385.291,1120.137s2.71-18.026-.172-28.988c0,0,0,9.427-5.168,22.812Z" transform="translate(-1379.951 -1091.149)" fill="#183c59"/>
        </g>
        <g id="Group_1270" data-name="Group 1270" transform="translate(51.893 78.304)">
          <path id="Path_4644" data-name="Path 4644" d="M1264.89,1022.71s7.745,22.875,29.008,21.192,10.08-19.315,10.08-19.315-5.3-3.039-6.791-3.325-23.509-.566-23.509-.566Z" transform="translate(-1264.89 -1020.696)" fill="#eea886"/>
        </g>
        <g id="Group_1271" data-name="Group 1271" transform="translate(90.982 82.192)">
          <path id="Path_4645" data-name="Path 4645" d="M1339.11,1028.08s11.137,30.807,11.137,62.2.9,82.544,4.785,98.7,14.955,66.1,14.955,66.1l8.674-4.487s-20.858-79.719-22.433-85.467,1.2-66.477,2.692-71.562,7.856-27.719,6.868-34c-1.246-7.916-8.654-19.629-20.618-29.7Z" transform="translate(-1339.11 -1028.08)" fill="#285173"/>
        </g>
        <g id="Group_1272" data-name="Group 1272" transform="translate(9.098 79.354)">
          <path id="Path_4646" data-name="Path 4646" d="M1230.631,1022.69a320.242,320.242,0,0,1,10.43,50.551c3.508,28.386-10.768,160.15-20.339,190.06l-37.089-5.982s7.984-93.136,18.821-110.086,14.286-31.946,2.587-67.322,5.129-52.9,5.129-52.9S1227.382,1023.059,1230.631,1022.69Z" transform="translate(-1183.634 -1022.69)" fill="#285173"/>
        </g>
        <g id="Group_1273" data-name="Group 1273" transform="translate(1.149 143.354)">
          <path id="Path_4647" data-name="Path 4647" d="M1263.5,1174.2l-44.972,77.888-49.991-28.861,43.013-79.021Z" transform="translate(-1168.54 -1144.21)" fill="#616161"/>
        </g>
        <g id="Group_1274" data-name="Group 1274" transform="translate(6.353 149.39)">
          <path id="Path_4648" data-name="Path 4648" d="M1262.755,1182.309l-39.937,69.177-44.4-25.638,38.2-70.178Z" transform="translate(-1178.42 -1155.67)" fill="#e0cec7"/>
        </g>
        <g id="Group_1275" data-name="Group 1275" transform="translate(57.302 154.593)">
          <path id="Path_4649" data-name="Path 4649" d="M1293.814,1180.771l2.8-4.856-17.949-10.365-3.507,4.45Z" transform="translate(-1275.16 -1165.55)" fill="#616161"/>
        </g>
        <g id="Group_1281" data-name="Group 1281" transform="translate(53.192 200.864)">
          <g id="Group_1280" data-name="Group 1280">
            <g id="Group_1279" data-name="Group 1279">
              <g id="Group_1278" data-name="Group 1278">
                <g id="Group_1277" data-name="Group 1277">
                  <g id="Group_1276" data-name="Group 1276">
                    <path id="Path_4650" data-name="Path 4650" d="M1287.977,1277.619a9.287,9.287,0,0,1-2.941-.423s-1.571-.912-2.726-1.492a8.47,8.47,0,0,0-.911-.409,17.048,17.048,0,0,1-5.014-2.121c-1.987-1.377-9.029-9.531-9.029-9.531l3.326-5.058,2.438-5.179s14.785.955,16.786,2.026a5.6,5.6,0,0,1,.552.335c1.606,1.071,2.35,2.543,3.13,3.2.284.244,2.95,2.853,2.857,3.963a3.643,3.643,0,0,1-1.771,3.067s-.382,3.009-1.865,4.412a5.414,5.414,0,0,1-2.6,4.006S1289.62,1277.214,1287.977,1277.619Z" transform="translate(-1267.356 -1253.407)" fill="#eea886"/>
                  </g>
                </g>
              </g>
            </g>
          </g>
        </g>
        <g id="Group_1283" data-name="Group 1283" transform="translate(0 83.314)">
          <g id="Group_1282" data-name="Group 1282">
            <path id="Path_4651" data-name="Path 4651" d="M1209.7,1030.668s-13.656-3.913-21.482,11.136-7.786,21.469-8.832,28.818c-.988,6.938-5.445,25.882-5.9,27.838s-10.547,25.284-5.918,33.437c4.654,8.2,51.921,32.319,51.62,34.125s8.187-18.239,8.187-18.239-19.126-10.66-22.259-13.942c-5.088-5.332-15.822-11.076-13.616-17.691,2.59-7.769,10.372-33.981,12.177-37.819S1221.211,1035.561,1209.7,1030.668Z" transform="translate(-1166.358 -1030.21)" fill="#285173"/>
          </g>
        </g>
        <g id="Group_1288" data-name="Group 1288" transform="translate(55.934 5.436)">
          <g id="Group_1287" data-name="Group 1287">
            <g id="Group_1286" data-name="Group 1286">
              <g id="Group_1285" data-name="Group 1285">
                <g id="Group_1284" data-name="Group 1284">
                  <path id="Path_4652" data-name="Path 4652" d="M1304.629,883.051s24.313,7.641,11.115,49.6-46.4-4.862-42.93-30.426S1304.629,883.051,1304.629,883.051Z" transform="translate(-1272.562 -882.34)" fill="#eea987"/>
                </g>
              </g>
            </g>
          </g>
        </g>
        <g id="Group_1293" data-name="Group 1293" transform="translate(54.016 2.067)">
          <g id="Group_1292" data-name="Group 1292">
            <g id="Group_1291" data-name="Group 1291">
              <g id="Group_1290" data-name="Group 1290">
                <g id="Group_1289" data-name="Group 1289">
                  <path id="Path_4653" data-name="Path 4653" d="M1316.5,904.5a54.847,54.847,0,0,1-32.3,13.337s-7.769,9.11-8.367,12.686c0,0-18.038-30.747,4.135-49.178S1324.657,896.91,1316.5,904.5Z" transform="translate(-1268.92 -875.943)" fill="#0e2d3d"/>
                </g>
              </g>
            </g>
          </g>
        </g>
        <g id="Group_1298" data-name="Group 1298" transform="translate(61.11 36.405)">
          <g id="Group_1297" data-name="Group 1297">
            <g id="Group_1296" data-name="Group 1296">
              <g id="Group_1295" data-name="Group 1295">
                <g id="Group_1294" data-name="Group 1294">
                  <path id="Path_4654" data-name="Path 4654" d="M1290.828,949.537c-.156-3.054-2.037-10-6.576-8.058s.278,16.1,3.288,15.226C1287.541,956.705,1291.2,956.762,1290.828,949.537Z" transform="translate(-1282.391 -941.141)" fill="#eea987"/>
                </g>
              </g>
            </g>
          </g>
        </g>
        <g id="Group_1299" data-name="Group 1299" transform="translate(67.277 60.976)">
          <path id="Path_4655" data-name="Path 4655" d="M1312.449,999.237c-.144,1.6-.3,3.357-.446,5.16,0,0-10.731-.639-17.9-16.6C1294.563,988.492,1302.427,1000.043,1312.449,999.237Z" transform="translate(-1294.1 -987.795)" fill="#a77860"/>
        </g>
      </g>
      <g id="Group_1379" data-name="Group 1379" transform="translate(5429.75 -1518.127)" style="mix-blend-mode: luminosity;isolation: isolate">
        <path id="Path_4664" data-name="Path 4664" d="M2017.95,484.952H1864.658a25.4,25.4,0,0,1-25.4-25.4V326.539a25.4,25.4,0,0,1,25.4-25.4H2017.95a25.4,25.4,0,0,1,25.4,25.4v133.01A25.4,25.4,0,0,1,2017.95,484.952Z" transform="translate(-1839.255 -281.511)" opacity="0.95" fill="url(#linear-gradient-2)"/>
        <g id="Group_1323" data-name="Group 1323" transform="translate(62.413)">
          <g id="Group_1310" data-name="Group 1310" transform="translate(17.755 0)">
            <g id="Group_1309" data-name="Group 1309">
              <g id="Group_1308" data-name="Group 1308">
                <path id="Path_4665" data-name="Path 4665" d="M2027.217,267.4s13.042,7.162,8.9,24.772-5.716,19.935-2.351,27.051,6.322,36.936,2.733,42.391-39.968-26.609-44.01-52.261,5.058-36.546,8.285-40.612S2015.714,260.86,2027.217,267.4Z" transform="translate(-1991.474 -263.873)" fill="#344052"/>
              </g>
            </g>
          </g>
          <g id="Group_1311" data-name="Group 1311" transform="translate(40.439 65.643)">
            <path id="Path_4666" data-name="Path 4666" d="M2072.093,471.944h-13.964c-.675-6.888-1.3-11.682-1.171-12.391.205-1.171-13.9-38.156-15.211-41.216s-6.495-11.254-7.17-18.98,9.392-10.845,9.392-10.845c13.6,2.436,18.2,21.245,18.2,21.245s5.709,38.14,8.6,48.873C2071.514,461.381,2071.914,466.244,2072.093,471.944Z" transform="translate(-2034.544 -388.512)" fill="#eea886"/>
          </g>
          <path id="Path_4667" data-name="Path 4667" d="M2065.282,415.932l-20.793,8.767s-19.113-47.429-3.093-42.134C2057.366,387.844,2064.55,397.769,2065.282,415.932Z" transform="translate(-1994.32 -319.859)" fill="#eb4747"/>
          <g id="Group_1312" data-name="Group 1312" transform="translate(6.55 59.566)">
            <path id="Path_4668" data-name="Path 4668" d="M2029.981,435.811c-.607,4.708-3.094,21.389-2.538,25.894.094.743.4,2.453.863,4.777h-50.138c1.333-4.76,2.547-8.973,3.281-11.425,2.436-8.076.1-10.237-1.128-16.7-.479-2.53-2.162-7.333-4-12.76-.615-1.811-1.247-3.7-1.854-5.6a115.5,115.5,0,0,1-3.862-17.9c-3.025-19.288,11.81-21.142,11.81-21.142,5.512-1.017,15.143-3.991,15.143-3.991l15.084,3.137a16.356,16.356,0,0,1,3.529,2.085.009.009,0,0,1,.009.009,27.567,27.567,0,0,1,3.392,2.974c1.649,1.692,4.931,6.537,8.2,11.861,1,1.633,2.008,3.307,2.957,4.956,3.067,5.307,5.247,9.588,5.179,14.416C2035.848,421.165,2030.587,431.1,2029.981,435.811Z" transform="translate(-1970.198 -376.973)" fill="#eb4747"/>
          </g>
          <path id="Path_4669" data-name="Path 4669" d="M2029.819,380.229s9.449,16.15,5.935,17.356-22.035-2.872-29.27-18.13C2006.482,379.455,2018.637,373.93,2029.819,380.229Z" transform="translate(-1980.823 -317.521)" fill="#eea886"/>
          <path id="Path_4670" data-name="Path 4670" d="M2031.319,368.992s-8.394,3.552-15.994-8.141c0,0,2.042-13.277-2.276-20.958s18.873,9.206,18.873,9.206-.375,1.583-.764,3.921c-.2,1.2-.4,2.587-.56,4.064-.131,1.23-.23,2.523-.275,3.81A20.755,20.755,0,0,0,2031.319,368.992Z" transform="translate(-1983.677 -298.909)" fill="#eea886"/>
          <path id="Path_4671" data-name="Path 4671" d="M1994.28,431.289c-1.729,8.887-14.125,20.022-14.125,20.022-.613-1.817-1.245-3.7-1.852-5.6C1986.86,440.258,1994.28,431.289,1994.28,431.289Z" transform="translate(-1967.484 -343.117)" fill="#393d63"/>
          <g id="Group_1313" data-name="Group 1313" transform="translate(1.857 66.224)">
            <path id="Path_4672" data-name="Path 4672" d="M1983.119,418.637c-.786,3.239-4.4,36.046-4.007,37.165.231.641,1.982,8.23,3.735,16.665h-16.185c-1.658-5.435-2.641-9.948-2.4-12.5,1.034-11.066-2.718-46.343-2.718-46.343s-3.359-21.339,14.348-24c0,0,10.46,1.376,11.093,9.1S1983.9,415.407,1983.119,418.637Z" transform="translate(-1961.288 -389.616)" fill="#eea886"/>
          </g>
          <path id="Path_4673" data-name="Path 4673" d="M1958.566,420.948l21.974,5.133s17.432-33.846,1.732-40.025C1965.724,379.543,1954.6,402.486,1958.566,420.948Z" transform="translate(-1957.761 -321.171)" fill="#eb4747"/>
          <g id="Group_1316" data-name="Group 1316" transform="translate(25.001 4.522)">
            <g id="Group_1315" data-name="Group 1315">
              <g id="Group_1314" data-name="Group 1314">
                <path id="Path_4674" data-name="Path 4674" d="M2031.7,273.342s19.1,7.009,6.992,39.965-36.815-5.626-33.082-25.878S2031.7,273.342,2031.7,273.342Z" transform="translate(-2005.231 -272.459)" fill="#eea987"/>
              </g>
            </g>
          </g>
          <g id="Group_1319" data-name="Group 1319" transform="translate(24.303 1.785)">
            <g id="Group_1318" data-name="Group 1318">
              <g id="Group_1317" data-name="Group 1317">
                <path id="Path_4675" data-name="Path 4675" d="M2041,290.914a43.778,43.778,0,0,1-26.255,9.417s-3.781,9.215-4.392,12.043c0,0-15.981-27.439,2.393-41.3S2047.779,285.165,2041,290.914Z" transform="translate(-2003.906 -267.262)" fill="#344052"/>
              </g>
            </g>
          </g>
          <g id="Group_1322" data-name="Group 1322" transform="translate(30.727 29.943)">
            <g id="Group_1321" data-name="Group 1321">
              <g id="Group_1320" data-name="Group 1320">
                <path id="Path_4676" data-name="Path 4676" d="M2022.7,327.615c-.01-2.441-1.248-8.052-4.939-6.672s-.385,12.845,2.047,12.264C2019.8,333.206,2022.722,333.39,2022.7,327.615Z" transform="translate(-2016.104 -320.727)" fill="#eea987"/>
              </g>
            </g>
          </g>
          <path id="Path_4677" data-name="Path 4677" d="M2035.089,370.323c-8.974-2.482-12.445-11.036-12.552-11.322,7.3,9.43,12.8,8.076,12.8,8.076C2035.21,368.307,2035.2,369.076,2035.089,370.323Z" transform="translate(-1988.422 -308.9)" fill="#a77860"/>
        </g>
        <g id="Group_1324" data-name="Group 1324" transform="translate(33.346 52.89)">
          <path id="Path_4678" data-name="Path 4678" d="M2019.784,364.3v2.931h17.26v16.2h2.932V364.3Zm-117.215,19.131h2.931v-16.2h17.26V364.3h-20.192v19.131Zm134.474,83.59v16.206h-17.26v2.931h20.192V467.018Zm-131.54,0h-2.932v19.137h20.193v-2.931H1905.5V467.018Z" transform="translate(-1902.569 -364.297)" fill="#4598e6"/>
        </g>
      </g>
      <g id="Group_1325" data-name="Group 1325" transform="translate(5252.756 -945.576)">
        <rect id="Rectangle_514" data-name="Rectangle 514" width="21.622" height="4.005" transform="translate(0 0)" fill="#4598e6"/>
      </g>
      <g id="Group_1377" data-name="Group 1377" transform="translate(5124.666 -1275.212)" style="mix-blend-mode: luminosity;isolation: isolate">
        <path id="Path_4619" data-name="Path 4619" d="M1506.881,774.263h-216a30.9,30.9,0,0,1-30.9-30.9v-216a30.9,30.9,0,0,1,30.9-30.9h216a30.9,30.9,0,0,1,30.9,30.9v216A30.9,30.9,0,0,1,1506.881,774.263Z" transform="translate(-1259.98 -483.611)" opacity="0.95" fill="url(#linear-gradient-3)"/>
        <rect id="Rectangle_506" data-name="Rectangle 506" width="128.615" height="6.354" transform="translate(74.591 227.406)" fill="#96bfe6"/>
        <rect id="Rectangle_507" data-name="Rectangle 507" width="92.182" height="6.354" transform="translate(92.809 247.426)" fill="#96bfe6"/>
        <rect id="Rectangle_512" data-name="Rectangle 512" width="187.244" height="160.655" transform="translate(45.277 23.241)" opacity="0.95" fill="url(#linear-gradient-4)"/>
        <g id="Group_1243" data-name="Group 1243" transform="translate(44.614)">
          <path id="Path_4624" data-name="Path 4624" d="M1510.5,669.864c-6.167-16.313-20.981-23.8-27.975-26.138-2.491-.827-6.939-2.279-11.626-3.8-8.446-2.729-17.673-5.7-17.673-5.7h-29.143s-10.091,3.382-20.816,7.141a.009.009,0,0,1-.009.009c-9.88,3.464-20.284,7.242-23.794,9.007-7.325,3.657-19.649,29.8-22.139,32.8-1.287,1.544-7,11.727-12.628,23.1h31.394c3.318-5.7,5.872-10.119,5.872-10.119s1.986,4.356,4.393,10.119h100.58c1.591-6.691,2.583-15.119,2.583-15.119s5.386,7.325,11.268,15.119h28.986C1522.719,694.467,1513.971,679.072,1510.5,669.864Z" transform="translate(-1344.691 -548.821)" fill="#385369"/>
          <g id="Group_1239" data-name="Group 1239" transform="translate(70.165 5.115)">
            <path id="Path_4625" data-name="Path 4625" d="M1505.183,481.985s22.787,3.59,19.317,39.242-23.581,32.73-24.925,32.694-20.19.65-21.659-42.879C1477.918,511.042,1477.275,478.854,1505.183,481.985Z" transform="translate(-1477.916 -481.771)" fill="#eea886"/>
          </g>
          <g id="Group_1240" data-name="Group 1240" transform="translate(115.778 33.326)">
            <path id="Path_4626" data-name="Path 4626" d="M1565.848,536.51s2.495-2.665,3.411.033-3.4,14.732-3.559,15.295c0,0-.456,1.047-1.054.471S1565.848,536.51,1565.848,536.51Z" transform="translate(-1564.522 -535.335)" fill="#eea886"/>
          </g>
          <g id="Group_1241" data-name="Group 1241" transform="translate(67.218 32.834)">
            <path id="Path_4627" data-name="Path 4627" d="M1475.88,535.618s-2.444-2.713-3.411-.033,3.081,14.794,3.263,15.361c0,0,.435,1.055,1.045.491S1475.88,535.618,1475.88,535.618Z" transform="translate(-1472.32 -534.402)" fill="#eea886"/>
          </g>
          <g id="Group_1242" data-name="Group 1242" transform="translate(67.536 0)">
            <path id="Path_4628" data-name="Path 4628" d="M1522.481,512.028l-3.262,4.361s.092-9.562-.431-11.061-1.324-6.079-1.762-7.16-19.568-6.441-36.466,1.566c0,0,.744,6.876-.877,7.488s-.825,11.2-.825,11.2l-2.683-3.027s-4.105-27.429-3.091-30.288,4.245-20.047,38.912-9.844c0,0,10.808-2.289,12.976,5.173S1522.481,512.028,1522.481,512.028Z" transform="translate(-1472.923 -472.059)" fill="#434343"/>
          </g>
          <path id="Path_4629" data-name="Path 4629" d="M1512.208,613.355c-.01-.032-2.924-1.436-2.924-1.436-1.419-3.174-.365-16.567-.365-16.567s-29.022-7.387-28.193-1.739-2.5,18.771-2.5,18.771l-14.889,7.393s15.863,42.594,34.095,37.1,25.115-38.635,25.115-38.635Z" transform="translate(-1400.85 -528.588)" fill="#eea886"/>
          <path id="Path_4630" data-name="Path 4630" d="M1497.15,606.858a17.207,17.207,0,0,0,12.792,6.037c5.338,0,9.171-1.5,14.489-6.682,0,0-2.306,9.848-14.454,10.764C1509.974,616.977,1501.168,618.1,1497.15,606.858Z" transform="translate(-1416.855 -535.558)" fill="#a77860"/>
        </g>
        <g id="Group_1326" data-name="Group 1326" transform="translate(47.131 41.711)">
          <path id="Path_4679" data-name="Path 4679" d="M1506.032,551.257v3.916h23.055V576.81H1533V551.257ZM1349.47,576.81h3.916V555.172h23.055v-3.916H1349.47Zm179.619,111.65v21.647h-23.055v3.916h26.971V688.461h-3.916Zm-175.7,0h-3.916v25.562h26.971v-3.916h-23.055Z" transform="translate(-1349.47 -551.256)" fill="#4598e6"/>
        </g>
      </g>
      <g id="Group_1378" data-name="Group 1378" transform="translate(5460.467 -1170.688)">
        <path id="Path_4620" data-name="Path 4620" d="M2188.331,1087.132H1907.478a33.257,33.257,0,0,1-33.258-33.257V712.66a33.257,33.257,0,0,1,33.258-33.257h280.852a33.257,33.257,0,0,1,33.258,33.257v341.215A33.258,33.258,0,0,1,2188.331,1087.132Z" transform="translate(-1874.221 -651.569)" fill="#f6f6f6" opacity="0.95"/>
        <g id="Group_1234" data-name="Group 1234" transform="translate(52.902 315.126)">
          <rect id="Rectangle_509" data-name="Rectangle 509" width="160.314" height="9.878" transform="translate(0 0)" fill="#ce3233"/>
          <rect id="Rectangle_510" data-name="Rectangle 510" width="129.638" height="9.879" transform="translate(0 47.426)" fill="#ce3233"/>
          <rect id="Rectangle_511" data-name="Rectangle 511" width="75.999" height="9.879" transform="translate(0 23.713)" fill="#ce3233"/>
        </g>
        <g id="Group_1235" data-name="Group 1235" transform="translate(55.659 68.494)">
          <path id="Path_4621" data-name="Path 4621" d="M2189.386,763.9v4.989h29.378v27.571h4.989V763.9ZM1989.9,796.462h4.99V768.891h29.377V763.9H1989.9Zm228.867,142.269v27.581h-29.378v4.99h34.367V938.731h-4.989Zm-223.882,0h-4.99V971.3h34.367v-4.989H1994.88Z" transform="translate(-1989.891 -763.902)" fill="#e95f35"/>
        </g>
        <g id="Group_1238" data-name="Group 1238" transform="translate(244.589 314.397)">
          <g id="Group_1236" data-name="Group 1236" transform="translate(0 0)">
            <path id="Path_4622" data-name="Path 4622" d="M2411.9,1333.7a29.38,29.38,0,1,1,29.38-29.38A29.414,29.414,0,0,1,2411.9,1333.7Zm0-53.07a23.693,23.693,0,1,0,23.693,23.694A23.721,23.721,0,0,0,2411.9,1280.626Z" transform="translate(-2382.523 -1274.936)" fill="#ce3233"/>
          </g>
          <g id="Group_1237" data-name="Group 1237" transform="translate(14.16 19.827)">
            <path id="Path_4623" data-name="Path 4623" d="M2425.3,1337.259l-13.348-13.348,4.018-4.023,9.33,9.325,13.074-13.074,4.018,4.023Z" transform="translate(-2411.95 -1316.14)" fill="#ce3233"/>
          </g>
        </g>
        <g id="Group_1342" data-name="Group 1342" transform="translate(55.987 0)">
          <g id="Group_1327" data-name="Group 1327" transform="translate(5.409 112.732)">
            <path id="Path_4680" data-name="Path 4680" d="M2213.029,984.143H2196.32c-.306-.669-.553-1.251-.757-1.715-4.958-11.707-30.51-38.552-30.51-38.552v.058a.049.049,0,0,0-.014.029v.029c-.015.043-.03.072-.044.115s-.029.131-.058.219a.525.525,0,0,0-.029.145c-.015.044-.029.073-.044.116-1.047,3.912-6.2,23.4-8.769,39.556H2043.026c-.261-1.5-.567-2.923-.916-4.246a91.467,91.467,0,0,1-2.182-11.692c-.014-.189-.043-.364-.058-.552-.088-.684-.16-1.367-.219-2.036a107.176,107.176,0,0,1-.189-18.716c-.32.684-2.6,9.06-5.6,19.4-1.644,5.672-3.5,11.94-5.352,17.844h-26.7l33.506-96.664c.741-.582,9.438-4.784,15.779-7.809,6.471-3.083,14.281-7.607,21.334-11.474,3.606-1.978,7.009-3.767,9.962-5.119l.451-.2v-.014c4.872-2.225,8.115-3.695,8.115-3.695h.014c.116-.014.887-.088,2.109-.2,6.806-.654,27.921-2.632,34.99-3.039.582-.044,1.076-.058,1.454-.073a5.848,5.848,0,0,1,.712,0c.887.058,5.25,1.571,10.965,3.752.218.073.437.16.654.247.276.1.538.2.814.305.495.19,1,.379,1.513.582,1.018.407,2.08.814,3.141,1.236.364.146.741.291,1.12.436,11.444,4.538,24.562,10.165,27.675,12.4,2.065,1.469,8.478,13.554,15.909,28.5C2200.027,928.937,2209.814,965.906,2213.029,984.143Z" transform="translate(-2001.812 -855.839)" fill="#decbc4"/>
          </g>
          <g id="Group_1328" data-name="Group 1328" transform="translate(94.102 74.77)">
            <path id="Path_4681" data-name="Path 4681" d="M2225.685,811.63c-.3,15.2-29.729,23.514-29.729,23.514s-12.309-15.432-9.369-16.91c1.154-.581,1.624-2.884,1.767-5.467a53.379,53.379,0,0,0-.167-6.894c-.087-1.075-.17-1.766-.17-1.766s4.2-4.437,9.554-9.721c9.347-9.243,22.2-21.082,22.218-16.372a4.159,4.159,0,0,1-.109.893C2217.418,789.506,2225.685,811.63,2225.685,811.63Z" transform="translate(-2186.133 -776.945)" fill="#eea886"/>
          </g>
          <g id="Group_1329" data-name="Group 1329" transform="translate(93.229 87.186)">
            <path id="Path_4682" data-name="Path 4682" d="M2213.408,802.748l0,0c-.058.088-1.306,1.956-3.437,4.636-4.517,5.683-13.01,15.018-22.559,18.768a53.562,53.562,0,0,0-.167-6.893,15.343,15.343,0,0,1-2.923-.352,90.549,90.549,0,0,1,6.4-9.369l5.908-1.767Z" transform="translate(-2184.32 -802.748)" fill="#a77860"/>
          </g>
          <g id="Group_1330" data-name="Group 1330" transform="translate(73.383 24.966)">
            <path id="Path_4683" data-name="Path 4683" d="M2197.659,724.521c-2.546,5.538-4.963,9.552-5.649,11.142l0,0a19.645,19.645,0,0,1-3.437,4.636c-4.85,5.225-13.865,12.116-22.726,11.874a15.331,15.331,0,0,1-2.923-.352c-3.578-.782-7.8-2.444-10.129-7-18.359-35.945-5.067-65.338-5.067-65.338s50.2-14.2,58.054.916C2211.3,691,2203.64,711.509,2197.659,724.521Z" transform="translate(-2143.076 -673.443)" fill="#eea886"/>
          </g>
          <g id="Group_1331" data-name="Group 1331" transform="translate(71.907 0)">
            <path id="Path_4684" data-name="Path 4684" d="M2146.139,652.571s-4.662-.258-5.815-9.1c-1.139-8.733,1.165-11.153,1.165-11.153s20.724-8.675,28.166-9.8,25.742-2.212,30.032,2.694c0,0,10.421-2.422,13.262,14.88,4.5,27.448-15.349,54.1-15.349,54.1s.169-17.932-3.785-20.307-7.368,3.274-7.368,3.274l-8.09,1.449s12.286-26.529-2.452-27.512S2154.574,654.109,2146.139,652.571Z" transform="translate(-2140.008 -621.559)" fill="#e8734d"/>
          </g>
          <g id="Group_1332" data-name="Group 1332" transform="translate(118.304 40.884)">
            <path id="Path_4685" data-name="Path 4685" d="M2236.689,714.09c.769-7.9,15.055-10.916,14.1-2.636s-7.992,16.236-11.242,15.956S2236.1,720.111,2236.689,714.09Z" transform="translate(-2236.429 -706.523)" fill="#eea886"/>
          </g>
          <g id="Group_1333" data-name="Group 1333" transform="translate(105.941 116.494)">
            <path id="Path_4686" data-name="Path 4686" d="M2306.981,908.112c-4.654-14.906-8.682-26.7-10.471-27.98-3.127-2.24-27.908-9.06-39.672-13.67-.378-.146-.756-.291-1.12-.436-1.061-.422-2.123-.829-3.141-1.236-.51-.2-1.018-.392-1.513-.582-.276-.1-.537-.2-.814-.305-.218-.088-.436-.174-.654-.247-.015.014-.029.044-.058.058a193.174,193.174,0,0,0-12.987,16.608c-12.157,17.276-27.995,45.271-25.565,71.113.785,8.29,1.745,20.2,3.359,33.564.116,1.061.247,2.123.392,3.2h54.855c.669-13.99,1.861-32.415,3.664-39.556.015-.044.029-.073.044-.116a.509.509,0,0,1,.029-.145c.015-.073.044-.146.058-.219.015-.043.029-.072.044-.115v-.029a.05.05,0,0,1,.014-.029s13.277,20.752,13.96,40.209h34.525C2320.242,970.121,2314.964,933.695,2306.981,908.112Z" transform="translate(-2210.737 -863.656)" fill="#3c4145"/>
          </g>
          <g id="Group_1334" data-name="Group 1334" transform="translate(0 119.97)">
            <path id="Path_4687" data-name="Path 4687" d="M2076.8,871.053s-4.145,13.786-9.5,48.209v.014c-.189,1.15-.364,2.327-.553,3.534-.014.131-.044.276-.058.422-.131.786-.247,1.6-.364,2.415-.015.1-.03.189-.043.291-.087.538-.175,1.091-.248,1.657-.2,1.353-.407,2.749-.61,4.16-2.008,14.048-4.683,36.371-7.4,60.191h-21.684c-1.177-6.617-2.283-12.637-2.2-16.768a2.029,2.029,0,0,0-.1.277c-1.731,4.8-3.636,10.02-5.57,15.095l-.523,1.4h-37.374l37.229-97.391c.741-.582,10.325-5.744,16.666-8.754,6.617-3.156,14.979-7.039,22.4-10.456,3.548-1.643,6.878-3.17,9.7-4.465Z" transform="translate(-1990.572 -870.879)" fill="#3c4145"/>
          </g>
          <g id="Group_1335" data-name="Group 1335" transform="translate(105.942 116.494)">
            <path id="Path_4688" data-name="Path 4688" d="M2241.44,901.364l-14.325,8.086,6.123,6.239L2219.8,988.2h-5.061c-1.862-14.659-2.923-27.819-3.752-36.763-3.738-39.963,36.138-85.03,38.61-87.779,1.919.727,3.984,1.527,6.123,2.37Z" transform="translate(-2210.74 -863.656)" fill="#51565c"/>
          </g>
          <g id="Group_1336" data-name="Group 1336" transform="translate(62.561 119.766)">
            <path id="Path_4689" data-name="Path 4689" d="M2144.464,870.455s-5.352,17.466-11.576,61.079c-2.007,14.033-4.7,36.371-7.417,60.191h-2.109l-2.777-68.51,6.821-7.388-6.064-7.576,12.972-33.128c3.548-1.643,6.879-3.17,9.7-4.464Z" transform="translate(-2120.585 -870.455)" fill="#51565c"/>
          </g>
          <g id="Group_1337" data-name="Group 1337" transform="translate(103.925 109.456)">
            <path id="Path_4690" data-name="Path 4690" d="M2248.148,856.238l-11.87-7.209s-.332,6.509-29.729,23.514l8.349,23.513Z" transform="translate(-2206.548 -849.029)" fill="#f5e2d9"/>
          </g>
          <g id="Group_1338" data-name="Group 1338" transform="translate(86.441 112.735)">
            <path id="Path_4691" data-name="Path 4691" d="M2179.874,855.844s.462,7.026,7.82,20.234l-16.293,21.24-1.188-34.448Z" transform="translate(-2170.213 -855.844)" fill="#f5e2d9"/>
          </g>
          <g id="Group_1339" data-name="Group 1339" transform="translate(94.056 132.97)">
            <path id="Path_4692" data-name="Path 4692" d="M2195.951,897.9s3.157,12.63,2.021,16.166c0,0-6.944,2.526-11.934-.632A55.326,55.326,0,0,1,2195.951,897.9Z" transform="translate(-2186.038 -897.895)" fill="#d44040"/>
          </g>
          <g id="Group_1340" data-name="Group 1340" transform="translate(83.304 145.593)">
            <path id="Path_4693" data-name="Path 4693" d="M2180.529,954.451c-3.33,22.686-3.33,45.635-2.094,65.122h-13.917c-.189-2.749-.364-5.613-.538-8.609-2.589-44.921,13.292-85.06,13.292-85.06l7.082-1.774S2182.073,943.98,2180.529,954.451Z" transform="translate(-2163.694 -924.129)" fill="#d44040"/>
          </g>
          <g id="Group_1341" data-name="Group 1341" transform="translate(37.415 177.125)">
            <path id="Path_4694" data-name="Path 4694" d="M2074.931,1016.442c-.53,10.778-.452,20.351-.452,20.351v.007c0,.052-.015.344-.037.825-.022-.183-.045-.362-.067-.541-1.725,4.8-3.636,10.014-5.563,15.091a161.657,161.657,0,0,1-.433-16.446c.772-30.222,10.278-46.07,10.278-46.07C2076.476,994.924,2075.432,1006.227,2074.931,1016.442Z" transform="translate(-2068.329 -989.659)" fill="#2d3133"/>
          </g>
        </g>
      </g>
      <g id="Group_1365" data-name="Group 1365" transform="translate(5317.699 -931.297)">
        <g id="Group_1343" data-name="Group 1343" transform="translate(0 61.356)">
          <path id="Path_4695" data-name="Path 4695" d="M1724.044,1059.213l-48.664,26.749-48.88-76.909,59.113-20.536Z" transform="translate(-1626.5 -988.517)" fill="#292c47"/>
        </g>
        <g id="Group_1344" data-name="Group 1344" transform="translate(3.239 63.627)">
          <path id="Path_4696" data-name="Path 4696" d="M1723.869,1058.942l-45.509,25.017-45.709-71.927,55.279-19.2Z" transform="translate(-1632.65 -992.83)" fill="#fff"/>
        </g>
        <g id="Group_1345" data-name="Group 1345" transform="translate(53.418 100.303)">
          <path id="Path_4697" data-name="Path 4697" d="M1785.635,1078.454s-8.471-4.051-12.189-6.169-13.284-5.025-14.056-5.715-28.353-2.392-30.026-3.835-3.3,3.382,3.849,4.949,17.1,5.394,17.639,8.188-7.342,3.456-8.141,5.757.224,1.785,1.355,2.278,9.38-4.075,13.008-2.778,9.173-.5,11.954.452,16.3,5.5,16.3,5.5Z" transform="translate(-1727.926 -1062.469)" fill="#eea886"/>
        </g>
        <g id="Group_1346" data-name="Group 1346" transform="translate(9.237 100.382)">
          <path id="Path_4698" data-name="Path 4698" d="M1681.307,1111.388s-7.117-6.405-10.56-9.085-9.907-10.561-10.858-11.02-13.294-25.787-15.306-26.8,1.9-4.426,6.162,1.7,11.74,14.01,14.584,13.435.4-8.265,2.255-9.913,1.77-.484,2.675.389-.188,10.426,2.447,13.34,3.1,8.839,5.081,11.089,11.531,13.219,11.531,13.219Z" transform="translate(-1644.039 -1062.618)" fill="#eea886"/>
        </g>
        <g id="Group_1347" data-name="Group 1347" transform="translate(199.77 490.117)">
          <path id="Path_4699" data-name="Path 4699" d="M2005.81,1804s1.54,10.685,1.732,12.29,17.125-.945,17.125-.945l1.371-12.72S2007.922,1802.5,2005.81,1804Z" transform="translate(-2005.81 -1802.623)" fill="#424773"/>
        </g>
        <g id="Group_1348" data-name="Group 1348" transform="translate(171.935 501.706)">
          <path id="Path_4700" data-name="Path 4700" d="M1982.342,1825.35s-5.365,6.439-10.553,9.245-13.343,3.918-16.411,6.823c-2.215,2.1-8.067,11.125,13.483,10.943s31.941,1.275,34.249-2.186-3.341-25.548-3.341-25.548S1994.666,1826.461,1982.342,1825.35Z" transform="translate(-1952.958 -1824.626)" fill="#292c47"/>
        </g>
        <g id="Group_1349" data-name="Group 1349" transform="translate(78.442 490.117)">
          <path id="Path_4701" data-name="Path 4701" d="M1775.44,1804s1.539,10.685,1.732,12.29,17.125-.945,17.125-.945l1.371-12.72S1777.557,1802.5,1775.44,1804Z" transform="translate(-1775.44 -1802.623)" fill="#424773"/>
        </g>
        <g id="Group_1350" data-name="Group 1350" transform="translate(40.657 501.706)">
          <path id="Path_4702" data-name="Path 4702" d="M1743.036,1825.35s-5.365,6.439-10.554,9.245-24.283,5.111-27.351,8.016c-2.215,2.1-5.9,10.539,24.424,9.75,21.542-.561,31.94,1.275,34.249-2.186s-3.341-25.548-3.341-25.548S1755.654,1826.588,1743.036,1825.35Z" transform="translate(-1703.698 -1824.627)" fill="#292c47"/>
        </g>
        <g id="Group_1351" data-name="Group 1351" transform="translate(146.895 216.94)">
          <path id="Path_4703" data-name="Path 4703" d="M1944.265,1283.93s15.91,25.278,14.723,48.127,5.769,47.8,8.159,71.666c2.665,26.61,13.568,89.606,13.964,103.84s-1.693,59.686-1.693,59.686l-21.827.5s-18.333-110.133-23.079-121.37-28.293-91.351-29.084-100.341S1944.265,1283.93,1944.265,1283.93Z" transform="translate(-1905.416 -1283.93)" fill="#292c47"/>
        </g>
        <g id="Group_1352" data-name="Group 1352" transform="translate(75.496 212.582)">
          <path id="Path_4704" data-name="Path 4704" d="M1796.345,1283.437s-11.99,62.626-13.573,76.611-2.638,67.678-3.429,76.419-5.275,114.378-9.5,127.364h27.9s21.421-76.794,21.421-113.129,16.549-78.99,27.231-102.963,35.134-24.54,41.7-69.02C1888.107,1278.718,1805.236,1269.328,1796.345,1283.437Z" transform="translate(-1769.848 -1275.656)" fill="#292c47"/>
        </g>
        <g id="Group_1353" data-name="Group 1353" transform="translate(121.162 2.46)">
          <path id="Path_4705" data-name="Path 4705" d="M1894.588,878.646s-21.355-7.977-31.2,8.279-8.9,48.8,1.866,52.8,26.934,1.909,32.445-8.262,10.486-24.877,10.247-34.7S1900.2,881.484,1894.588,878.646Z" transform="translate(-1856.555 -876.689)" fill="#eea886"/>
        </g>
        <g id="Group_1354" data-name="Group 1354" transform="translate(131.543 45.974)">
          <path id="Path_4706" data-name="Path 4706" d="M1876.9,979.579s.889,5.765-.58,8.606,27.666,2.914,27.666,2.914a191.923,191.923,0,0,1,6.849-28.5C1915.319,949.545,1876.9,979.579,1876.9,979.579Z" transform="translate(-1876.266 -959.311)" fill="#eea886"/>
        </g>
        <g id="Group_1355" data-name="Group 1355" transform="translate(122.081 0)">
          <path id="Path_4707" data-name="Path 4707" d="M1902.334,921.28s-2.01,3.317-10.219,2.03-18.222-12.208-21.65-13.407-3.459-3.212-3.459-3.212l-2.145,3.134-3.64.23s3.32-9.769-1.689-13.753,5.2-31.619,31.523-22.419c0,0,20.219,5.573,19.484,17.072S1906.858,915.553,1902.334,921.28Z" transform="translate(-1858.3 -872.019)" fill="#3a3f47"/>
        </g>
        <g id="Group_1356" data-name="Group 1356" transform="translate(129.87 66.526)">
          <path id="Path_4708" data-name="Path 4708" d="M1873.09,1006.316s.093-5.427,2.552-5.947,27.151-2.894,30.17-1.707v6.321S1899.992,1008.559,1873.09,1006.316Z" transform="translate(-1873.09 -998.333)" fill="#e2d2ca"/>
        </g>
        <g id="Group_1357" data-name="Group 1357" transform="translate(130.685 26.298)">
          <path id="Path_4709" data-name="Path 4709" d="M1875.281,926.143c.461-1.929,5.366-7.44,7.243-1.539s-2.838,13.839-5.468,13.16S1874.117,931.033,1875.281,926.143Z" transform="translate(-1874.636 -921.951)" fill="#eea886"/>
        </g>
        <g id="Group_1358" data-name="Group 1358" transform="translate(31.774 138.619)">
          <path id="Path_4710" data-name="Path 4710" d="M1686.936,1135.226a.067.067,0,0,1,.04,0C1686.8,1135.294,1686.778,1135.3,1686.936,1135.226Z" transform="translate(-1686.831 -1135.221)" fill="#323657"/>
        </g>
        <g id="Group_1359" data-name="Group 1359" transform="translate(31.918 73.175)">
          <path id="Path_4711" data-name="Path 4711" d="M1858.879,1214.942s-13.1,3.856-35.429,6.317-78.133-.89-78.484-3.527,12-98.245,11.3-103.17-1.08-22.467-1.08-22.467c-.276,4.807-5.173,24.442-11.084,35.145-2.136,3.867-9.3,15.988-12.754,13.231-16.717-13.347-42.6-63.643-44.244-64.067,1.379-.6,12.268-5.613,13.8-6.122,1.338-.447,13.4,12.322,20.7,20.238,3.258,3.528,5.572,6.092,5.572,6.092,2.11-4.748,9.8-34.655,12.183-45.006,5.387-23.343,4.559-24.314,4.559-24.314,16.338-4.942,41.137-15,41.137-15l32.723-1.333s30.031,6.611,41.859,11.953c1.122.506,1.127,26.792,4.205,33.684l-9.806,20.687s-5.664,40.98-6.839,59.2C1846.66,1144.853,1858.879,1214.942,1858.879,1214.942Z" transform="translate(-1687.103 -1010.958)" fill="#ffdf69"/>
        </g>
        <g id="Group_1360" data-name="Group 1360" transform="translate(173.59 85.124)">
          <path id="Path_4712" data-name="Path 4712" d="M1992.53,1101.457c-.855,2.758-4.734,5.088-7.254,6.107a9.375,9.375,0,0,1-5.239.527l-1.282-.237v0l-22.424-4.159s-4.907-56.508,30.634-70.047C1987.9,1033.954,2000.378,1076.156,1992.53,1101.457Z" transform="translate(-1956.102 -1033.647)" fill="#ffdf69"/>
        </g>
        <g id="Group_1361" data-name="Group 1361" transform="translate(196.24 130.456)">
          <path id="Path_4713" data-name="Path 4713" d="M2005.63,1148.307h0a9.375,9.375,0,0,1-5.239.527l-1.282-.237v0l2.212-28.876Z" transform="translate(-1999.109 -1119.72)" fill="#ab9546"/>
        </g>
        <g id="Group_1362" data-name="Group 1362" transform="translate(66.413 152.736)">
          <path id="Path_4714" data-name="Path 4714" d="M1758.178,1168.115l-2.741,11.607s-2.974-11.647-2.831-17.7C1755.866,1165.55,1758.178,1168.115,1758.178,1168.115Z" transform="translate(-1752.601 -1162.024)" fill="#ab9546"/>
        </g>
        <g id="Group_1363" data-name="Group 1363" transform="translate(165.278 6.275)">
          <path id="Path_4715" data-name="Path 4715" d="M1940.32,883.993s27.987-3.5.475,43.244Z" transform="translate(-1940.32 -883.934)" fill="#3a3f47"/>
        </g>
        <g id="Group_1364" data-name="Group 1364" transform="translate(19.655 65.143)">
          <path id="Path_4716" data-name="Path 4716" d="M1666.664,1008.328l-2.844-4.888,22.41-7.732,2.844,4.862Z" transform="translate(-1663.82 -995.709)" fill="#292c47"/>
        </g>
      </g>
      <g id="Group_1373" data-name="Group 1373" transform="translate(5273.856 -1397.652)">
        <g id="Group_1367" data-name="Group 1367" transform="translate(0)">
          <path id="Path_4720" data-name="Path 4720" d="M1683.853,286.716h-24.272a1.483,1.483,0,0,1-1.484-1.484V279.99a1.483,1.483,0,0,1,1.484-1.483h24.272a1.483,1.483,0,0,1,1.483,1.483v5.242A1.481,1.481,0,0,1,1683.853,286.716Z" transform="translate(-1658.097 -278.507)" fill="#9c2d25"/>
        </g>
        <g id="Group_1368" data-name="Group 1368" transform="translate(0 19.685)">
          <path id="Path_4721" data-name="Path 4721" d="M1683.853,324.092h-24.272a1.483,1.483,0,0,1-1.484-1.484v-5.241a1.483,1.483,0,0,1,1.484-1.484h24.272a1.483,1.483,0,0,1,1.483,1.484v5.241A1.481,1.481,0,0,1,1683.853,324.092Z" transform="translate(-1658.097 -315.883)" fill="#9c2d25"/>
        </g>
        <g id="Group_1369" data-name="Group 1369" transform="translate(0 39.369)">
          <path id="Path_4722" data-name="Path 4722" d="M1683.853,361.468h-24.272a1.484,1.484,0,0,1-1.484-1.484v-5.241a1.483,1.483,0,0,1,1.484-1.484h24.272a1.483,1.483,0,0,1,1.483,1.484v5.241A1.481,1.481,0,0,1,1683.853,361.468Z" transform="translate(-1658.097 -353.259)" fill="#9c2d25"/>
        </g>
        <g id="Group_1370" data-name="Group 1370" transform="translate(38.491)">
          <path id="Path_4723" data-name="Path 4723" d="M1737.448,286.716h-4.783a1.483,1.483,0,0,1-1.484-1.484V279.99a1.483,1.483,0,0,1,1.484-1.483h4.783a1.483,1.483,0,0,1,1.483,1.483v5.242A1.487,1.487,0,0,1,1737.448,286.716Z" transform="translate(-1731.181 -278.507)" fill="#9c2d25"/>
        </g>
        <g id="Group_1371" data-name="Group 1371" transform="translate(38.491 19.685)">
          <path id="Path_4724" data-name="Path 4724" d="M1737.448,324.092h-4.783a1.483,1.483,0,0,1-1.484-1.484v-5.241a1.483,1.483,0,0,1,1.484-1.484h4.783a1.483,1.483,0,0,1,1.483,1.484v5.241A1.487,1.487,0,0,1,1737.448,324.092Z" transform="translate(-1731.181 -315.883)" fill="#9c2d25"/>
        </g>
        <g id="Group_1372" data-name="Group 1372" transform="translate(38.491 39.369)">
          <path id="Path_4725" data-name="Path 4725" d="M1737.448,361.468h-4.783a1.484,1.484,0,0,1-1.484-1.484v-5.241a1.484,1.484,0,0,1,1.484-1.484h4.783a1.483,1.483,0,0,1,1.483,1.484v5.241A1.488,1.488,0,0,1,1737.448,361.468Z" transform="translate(-1731.181 -353.259)" fill="#9c2d25"/>
        </g>
      </g>
      <g id="Group_1374" data-name="Group 1374" transform="translate(5251.576 -810.437)">
        <path id="Path_4726" data-name="Path 4726" d="M1534.992,1119.591h28.5l-8.722-18.091h-28.5Z" transform="translate(-1512.935 -1101.5)" fill="url(#linear-gradient-5)"/>
        <path id="Path_4727" data-name="Path 4727" d="M1509.671,1119.591h6.794l-8.722-18.091h-6.794Z" transform="translate(-1500.95 -1101.5)" fill="url(#linear-gradient-5)"/>
      </g>
    </g>
    <g id="Group_681" data-name="Group 681" transform="translate(226.618 338.771)" style="mix-blend-mode: multiply;isolation: isolate">
      <g id="Group_627" data-name="Group 627" transform="translate(9.02 0.284)">
        <g id="Group_626" data-name="Group 626">
          <g id="Group_625" data-name="Group 625">
            <g id="Group_624" data-name="Group 624">
              <rect id="Rectangle_484" data-name="Rectangle 484" width="172.579" height="250.145" fill="#e0e0e0"/>
            </g>
          </g>
        </g>
      </g>
      <g id="Group_631" data-name="Group 631" transform="translate(0.374 0.284)">
        <g id="Group_630" data-name="Group 630">
          <g id="Group_629" data-name="Group 629">
            <g id="Group_628" data-name="Group 628">
              <rect id="Rectangle_485" data-name="Rectangle 485" width="172.577" height="250.145" fill="#f5f5f5"/>
            </g>
          </g>
        </g>
      </g>
      <g id="Group_641" data-name="Group 641" transform="translate(21.347 26.904)">
        <g id="Group_635" data-name="Group 635" transform="translate(0.469 0.471)">
          <g id="Group_634" data-name="Group 634">
            <g id="Group_633" data-name="Group 633">
              <g id="Group_632" data-name="Group 632">
                <rect id="Rectangle_486" data-name="Rectangle 486" width="129.695" height="195.96" fill="#fff"/>
              </g>
            </g>
          </g>
        </g>
        <g id="Group_640" data-name="Group 640">
          <g id="Group_639" data-name="Group 639">
            <g id="Group_638" data-name="Group 638">
              <g id="Group_637" data-name="Group 637">
                <g id="Group_636" data-name="Group 636">
                  <path id="Path_4432" data-name="Path 4432" d="M191.408,266.688s-.016-.333-.025-.959c-.005-.647-.014-1.571-.025-2.779-.012-2.464-.03-6.069-.053-10.749-.027-9.392-.065-23.077-.115-40.367-.051-34.555-.126-83.486-.212-141.107l.43.43L61.729,71.2h-.014l.469-.469c-.037,73.924-.069,142.084-.1,195.96l-.373-.373,94.4.2,26.081.1,6.847.041c1.549.012,2.365.041,2.365.041s-.764.026-2.287.041l-6.776.041-26,.1-94.633.2H61.34v-.375c-.027-53.877-.058-122.036-.1-195.96v-.47h.486c46.147.014,90.055.028,129.679.039h.432v.432c-.087,57.738-.159,106.767-.212,141.39-.05,17.247-.088,30.9-.115,40.27-.023,4.643-.041,8.219-.053,10.662q-.016,1.78-.025,2.731C191.426,266.389,191.408,266.688,191.408,266.688Z" transform="translate(-61.244 -70.255)" fill="#e0e0e0"/>
                </g>
              </g>
            </g>
          </g>
        </g>
      </g>
      <g id="Group_646" data-name="Group 646" transform="translate(145.498 28.683)">
        <g id="Group_645" data-name="Group 645">
          <g id="Group_644" data-name="Group 644">
            <g id="Group_643" data-name="Group 643">
              <g id="Group_642" data-name="Group 642">
                <path id="Path_4433" data-name="Path 4433" d="M131.435,71.261" transform="translate(-131.435 -71.261)" fill="none" stroke="#fbfbfb" stroke-miterlimit="10" stroke-width="0.25"/>
              </g>
            </g>
          </g>
        </g>
      </g>
      <g id="Group_651" data-name="Group 651" transform="translate(149.933 0.281)">
        <g id="Group_650" data-name="Group 650">
          <g id="Group_649" data-name="Group 649">
            <g id="Group_648" data-name="Group 648">
              <g id="Group_647" data-name="Group 647">
                <path id="Path_4434" data-name="Path 4434" d="M157.447,55.206a29.79,29.79,0,0,1-3.076,4.468c-2,2.681-4.85,6.329-8.1,10.271s-6.283,7.436-8.529,9.918a29.924,29.924,0,0,1-3.8,3.875,32.306,32.306,0,0,1,3.293-4.309c2.314-2.807,5.16-6.261,8.31-10.082l8.3-10.086A32.1,32.1,0,0,1,157.447,55.206Z" transform="translate(-133.942 -55.203)" fill="#e0e0e0"/>
              </g>
            </g>
          </g>
        </g>
      </g>
      <g id="Group_661" data-name="Group 661" transform="translate(152.166 222.703)">
        <g id="Group_655" data-name="Group 655" transform="translate(0.006 0.002)">
          <g id="Group_654" data-name="Group 654">
            <g id="Group_653" data-name="Group 653">
              <g id="Group_652" data-name="Group 652">
                <path id="Path_4435" data-name="Path 4435" d="M135.208,180.954a160.6,160.6,0,0,0,22.623,28.291" transform="translate(-135.208 -180.954)" fill="#fff"/>
              </g>
            </g>
          </g>
        </g>
        <g id="Group_660" data-name="Group 660">
          <g id="Group_659" data-name="Group 659">
            <g id="Group_658" data-name="Group 658">
              <g id="Group_657" data-name="Group 657">
                <g id="Group_656" data-name="Group 656">
                  <path id="Path_4436" data-name="Path 4436" d="M157.833,209.245a25.813,25.813,0,0,1-3.944-3.587,126.438,126.438,0,0,1-16.045-20.067,25.834,25.834,0,0,1-2.632-4.636,35.67,35.67,0,0,1,3.182,4.264c1.9,2.671,4.576,6.323,7.7,10.229s6.1,7.312,8.283,9.755A36.015,36.015,0,0,1,157.833,209.245Z" transform="translate(-135.205 -180.953)" fill="#e0e0e0"/>
                </g>
              </g>
            </g>
          </g>
        </g>
      </g>
      <g id="Group_671" data-name="Group 671" transform="translate(0 222.054)">
        <g id="Group_665" data-name="Group 665" transform="translate(0.35 0.286)">
          <g id="Group_664" data-name="Group 664">
            <g id="Group_663" data-name="Group 663">
              <g id="Group_662" data-name="Group 662">
                <path id="Path_4437" data-name="Path 4437" d="M49.373,208.638l22.6-27.89" transform="translate(-49.373 -180.748)" fill="#fff"/>
              </g>
            </g>
          </g>
        </g>
        <g id="Group_670" data-name="Group 670" transform="translate(0 0)">
          <g id="Group_669" data-name="Group 669">
            <g id="Group_668" data-name="Group 668">
              <g id="Group_667" data-name="Group 667">
                <g id="Group_666" data-name="Group 666">
                  <ellipse id="Ellipse_119" data-name="Ellipse 119" cx="17.949" cy="0.469" rx="17.949" ry="0.469" transform="translate(0 27.89) rotate(-50.974)" fill="#e0e0e0"/>
                </g>
              </g>
            </g>
          </g>
        </g>
      </g>
      <g id="Group_676" data-name="Group 676" transform="translate(0.007)">
        <g id="Group_675" data-name="Group 675" transform="translate(0)">
          <g id="Group_674" data-name="Group 674">
            <g id="Group_673" data-name="Group 673">
              <g id="Group_672" data-name="Group 672">
                <ellipse id="Ellipse_120" data-name="Ellipse 120" cx="17.093" cy="0.47" rx="17.093" ry="0.47" transform="matrix(-0.62, -0.784, 0.784, -0.62, 21.206, 27.396)" fill="#e0e0e0"/>
              </g>
            </g>
          </g>
        </g>
      </g>
      <g id="Group_680" data-name="Group 680" transform="translate(67.678 67.163)">
        <g id="Group_679" data-name="Group 679">
          <g id="Group_678" data-name="Group 678">
            <g id="Group_677" data-name="Group 677">
              <rect id="Rectangle_487" data-name="Rectangle 487" width="43.427" height="123.301" fill="#e0e0e0"/>
            </g>
          </g>
        </g>
      </g>
    </g>
  </g>
</svg>
