<svg id="marketing" xmlns="http://www.w3.org/2000/svg" xmlns:xlink="http://www.w3.org/1999/xlink" width="79.732" height="80.593" viewBox="0 0 79.732 80.593">
  <defs>
    <linearGradient id="linear-gradient" x1="0.63" y1="1" x2="0.633" gradientUnits="objectBoundingBox">
      <stop offset="0" stop-color="#f37135"/>
      <stop offset="1" stop-color="#cd3033"/>
    </linearGradient>
  </defs>
  <g id="Group_445" data-name="Group 445" transform="translate(0 0)">
    <g id="Group_444" data-name="Group 444">
      <path id="Path_4375" data-name="Path 4375" d="M159.724,218.936H144.909a2.245,2.245,0,0,0-2.245,2.245V250.25a2.245,2.245,0,0,0,2.245,2.245h14.815a2.245,2.245,0,0,0,2.245-2.245V221.181A2.245,2.245,0,0,0,159.724,218.936Zm-2.245,29.069H147.154v-24.58h10.326Z" transform="translate(-112.446 -171.902)" fill="url(#linear-gradient)"/>
      <path id="Path_4376" data-name="Path 4376" d="M296.2,136.911H281.268a2.245,2.245,0,0,0-2.245,2.245v46.691a2.245,2.245,0,0,0,2.245,2.245H296.2a2.245,2.245,0,0,0,2.245-2.245V139.156A2.245,2.245,0,0,0,296.2,136.911ZM293.951,183.6H283.513V141.4h10.438Z" transform="translate(-219.511 -107.498)" fill="url(#linear-gradient)"/>
      <path id="Path_4377" data-name="Path 4377" d="M22.954,269.613H8.027a2.245,2.245,0,0,0-2.245,2.245V290.04a2.245,2.245,0,0,0,2.245,2.245H22.954A2.245,2.245,0,0,0,25.2,290.04V271.858A2.245,2.245,0,0,0,22.954,269.613ZM20.71,287.8H10.272V274.1H20.71Z" transform="translate(-4.97 -211.692)" fill="url(#linear-gradient)"/>
      <path id="Path_4378" data-name="Path 4378" d="M81.157,2.251A1.908,1.908,0,0,0,79.7,1.466L59.27.007a2.251,2.251,0,0,0-.337,4.49l14.457.982L46.812,26.27,26.5,10.333a2.245,2.245,0,0,0-2.918.112L2.7,30.423a2.245,2.245,0,0,0-.112,3.143,2.02,2.02,0,0,0,1.684.786,2.244,2.244,0,0,0,1.571-.673L25.262,15.046l20.09,15.825a2.245,2.245,0,0,0,2.806,0L76.892,8.513,75.769,22.454A2.357,2.357,0,0,0,77.9,24.811h.112a2.245,2.245,0,0,0,2.245-2.02L81.718,3.823A1.8,1.8,0,0,0,81.157,2.251Z" transform="translate(-2.003 0)" fill="url(#linear-gradient)"/>
    </g>
  </g>
</svg>
