<svg xmlns="http://www.w3.org/2000/svg" xmlns:xlink="http://www.w3.org/1999/xlink" width="111" height="751" viewBox="0 0 111 751">
  <defs>
    <filter id="Ellipse_251" x="0" y="0" width="111" height="111" filterUnits="userSpaceOnUse">
      <feOffset dy="3" input="SourceAlpha"/>
      <feGaussianBlur stdDeviation="3" result="blur"/>
      <feFlood flood-opacity="0.161"/>
      <feComposite operator="in" in2="blur"/>
      <feComposite in="SourceGraphic"/>
    </filter>
    <filter id="Ellipse_252" x="0" y="320" width="111" height="111" filterUnits="userSpaceOnUse">
      <feOffset dy="3" input="SourceAlpha"/>
      <feGaussianBlur stdDeviation="3" result="blur-2"/>
      <feFlood flood-opacity="0.161"/>
      <feComposite operator="in" in2="blur-2"/>
      <feComposite in="SourceGraphic"/>
    </filter>
    <filter id="Ellipse_253" x="0" y="640" width="111" height="111" filterUnits="userSpaceOnUse">
      <feOffset dy="3" input="SourceAlpha"/>
      <feGaussianBlur stdDeviation="3" result="blur-3"/>
      <feFlood flood-opacity="0.161"/>
      <feComposite operator="in" in2="blur-3"/>
      <feComposite in="SourceGraphic"/>
    </filter>
  </defs>
  <g id="Group_3711" data-name="Group 3711" transform="translate(-1251 -474)">
    <g transform="matrix(1, 0, 0, 1, 1251, 474)" filter="url(#Ellipse_251)">
      <g id="Ellipse_251-2" data-name="Ellipse 251" transform="translate(9 6)" fill="#fff" stroke="#e96135" stroke-width="2" stroke-dasharray="5">
        <circle cx="46.5" cy="46.5" r="46.5" stroke="none"/>
        <circle cx="46.5" cy="46.5" r="45.5" fill="none"/>
      </g>
    </g>
    <line id="Line_63" data-name="Line 63" y2="547" transform="translate(1306.5 573.5)" fill="none" stroke="#e96135" stroke-width="2" stroke-dasharray="5"/>
    <g transform="matrix(1, 0, 0, 1, 1251, 474)" filter="url(#Ellipse_252)">
      <g id="Ellipse_252-2" data-name="Ellipse 252" transform="translate(9 326)" fill="#fff" stroke="#e96135" stroke-width="2" stroke-dasharray="5">
        <circle cx="46.5" cy="46.5" r="46.5" stroke="none"/>
        <circle cx="46.5" cy="46.5" r="45.5" fill="none"/>
      </g>
    </g>
    <g transform="matrix(1, 0, 0, 1, 1251, 474)" filter="url(#Ellipse_253)">
      <g id="Ellipse_253-2" data-name="Ellipse 253" transform="translate(9 646)" fill="#fff" stroke="#e96135" stroke-width="2" stroke-dasharray="5">
        <circle cx="46.5" cy="46.5" r="46.5" stroke="none"/>
        <circle cx="46.5" cy="46.5" r="45.5" fill="none"/>
      </g>
    </g>
    <g id="Icon_feather-users" data-name="Icon feather-users" transform="translate(1279.854 499.263)">
      <path id="Path_5388" data-name="Path 5388" d="M38.366,36.325V31.717A9.217,9.217,0,0,0,29.15,22.5H10.717A9.217,9.217,0,0,0,1.5,31.717v4.608" transform="translate(0 9.65)" fill="none" stroke="#e96135" stroke-linecap="round" stroke-linejoin="round" stroke-width="2"/>
      <path id="Path_5389" data-name="Path 5389" d="M25.933,13.717A9.217,9.217,0,1,1,16.717,4.5,9.217,9.217,0,0,1,25.933,13.717Z" transform="translate(3.217)" fill="none" stroke="#e96135" stroke-linecap="round" stroke-linejoin="round" stroke-width="2"/>
      <path id="Path_5390" data-name="Path 5390" d="M36.912,36.22V31.612A9.217,9.217,0,0,0,30,22.7" transform="translate(15.279 9.754)" fill="none" stroke="#e96135" stroke-linecap="round" stroke-linejoin="round" stroke-width="2"/>
      <path id="Path_5391" data-name="Path 5391" d="M24,4.7a9.217,9.217,0,0,1,0,17.857" transform="translate(12.062 0.105)" fill="none" stroke="#e96135" stroke-linecap="round" stroke-linejoin="round" stroke-width="2"/>
    </g>
    <g id="Icon_feather-user-check" data-name="Icon feather-user-check" transform="translate(1282.988 1138.25)">
      <path id="Path_5392" data-name="Path 5392" d="M37.751,37V32.167A9.667,9.667,0,0,0,28.084,22.5H11.167A9.667,9.667,0,0,0,1.5,32.167V37" transform="translate(0 11.001)" fill="none" stroke="#e96135" stroke-linecap="round" stroke-linejoin="round" stroke-width="2"/>
      <path id="Path_5393" data-name="Path 5393" d="M26.084,14.167A9.667,9.667,0,1,1,16.417,4.5,9.667,9.667,0,0,1,26.084,14.167Z" transform="translate(3.209)" fill="none" stroke="#e96135" stroke-linecap="round" stroke-linejoin="round" stroke-width="2"/>
      <path id="Path_5394" data-name="Path 5394" d="M25.5,18.333l4.833,4.833L40,13.5" transform="translate(14.668 5.5)" fill="none" stroke="#e96135" stroke-linecap="round" stroke-linejoin="round" stroke-width="2"/>
    </g>
    <g id="Icon_ionic-md-time" data-name="Icon ionic-md-time" transform="translate(1279.391 819.241)">
      <path id="Path_5395" data-name="Path 5395" d="M27.236,3.375A23.884,23.884,0,1,0,51.143,27.259,23.875,23.875,0,0,0,27.236,3.375Zm.023,42.991A19.107,19.107,0,1,1,46.366,27.259,19.107,19.107,0,0,1,27.259,46.366Z" transform="translate(0 0)" fill="none" stroke="#e96135" stroke-width="1"/>
      <path id="Path_5396" data-name="Path 5396" d="M20.12,10.688H16.538v14.33l12.539,7.521,1.791-2.94L20.12,23.226Z" transform="translate(8.333 4.629)" fill="none" stroke="#e96135" stroke-width="1"/>
    </g>
  </g>
</svg>
