<svg id="blog" xmlns="http://www.w3.org/2000/svg" xmlns:xlink="http://www.w3.org/1999/xlink" width="63.48" height="59.249" viewBox="0 0 63.48 59.249">
  <defs>
    <linearGradient id="linear-gradient" x1="0.63" y1="1" x2="0.633" gradientUnits="objectBoundingBox">
      <stop offset="0" stop-color="#f37135"/>
      <stop offset="1" stop-color="#cd3033"/>
    </linearGradient>
  </defs>
  <g id="Group_413" data-name="Group 413" transform="translate(0 0)">
    <g id="Group_412" data-name="Group 412">
      <path id="Path_4362" data-name="Path 4362" d="M62.422,66.783H61.364V28.7a4.232,4.232,0,0,0-4.232-4.232H47.61V17.057a1.058,1.058,0,0,0-1.253-1.04l-6.348,1.19-1.058.2-9.426,1.767h-6.25a2.116,2.116,0,0,0-2.116,2.116,5.29,5.29,0,0,0-4.841,3.174H6.348A4.232,4.232,0,0,0,2.116,28.7V66.783H1.058A1.058,1.058,0,0,0,0,67.841v3.174a4.232,4.232,0,0,0,4.232,4.232H59.248a4.232,4.232,0,0,0,4.232-4.232V67.841A1.058,1.058,0,0,0,62.422,66.783ZM30.682,21.109l14.812-2.777v16.5L30.682,32.049Zm0,13.088,2.116.4V36.1H30.682ZM23.276,21.289h5.29v10.58h-5.29Zm2.116,19.044V33.985h3.174v6.348Zm3.174,2.116v1.587a1.587,1.587,0,1,1-3.174,0V42.449ZM21.16,23.405v6.348a3.174,3.174,0,1,1,0-6.348ZM4.232,28.7a2.116,2.116,0,0,1,2.116-2.116H15.87a5.3,5.3,0,0,0,5.29,5.29,2.116,2.116,0,0,0,2.116,2.116V44.036a3.7,3.7,0,1,0,7.406,0V38.217h3.174a1.058,1.058,0,0,0,1.058-1.058V35l11.443,2.146a1.092,1.092,0,0,0,.195.018A1.058,1.058,0,0,0,47.61,36.1V26.579h9.522A2.116,2.116,0,0,1,59.248,28.7V66.783H41.262a1.058,1.058,0,0,0-.748.309L38.708,68.9H24.772l-1.806-1.807a1.058,1.058,0,0,0-.748-.309H4.232Zm57.132,42.32a2.116,2.116,0,0,1-2.116,2.116H4.232a2.116,2.116,0,0,1-2.116-2.116V68.9H21.78l1.806,1.806a1.058,1.058,0,0,0,.748.31H39.146a1.058,1.058,0,0,0,.748-.31L41.7,68.9H61.364Z" transform="translate(0 -15.999)" fill="url(#linear-gradient)"/>
    </g>
  </g>
  <g id="Group_415" data-name="Group 415" transform="translate(7.406 13.754)">
    <g id="Group_414" data-name="Group 414">
      <path id="Path_4363" data-name="Path 4363" d="M103.61,120H99.378v2.116h3.174v28.566H58.116V122.116h5.29V120H57.058A1.058,1.058,0,0,0,56,121.058V151.74a1.058,1.058,0,0,0,1.058,1.058H103.61a1.058,1.058,0,0,0,1.058-1.058V121.058A1.058,1.058,0,0,0,103.61,120Z" transform="translate(-56 -120)" fill="url(#linear-gradient)"/>
    </g>
  </g>
  <g id="Group_417" data-name="Group 417" transform="translate(30.516 48.499)">
    <g id="Group_416" data-name="Group 416" transform="translate(0 0)">
      <rect id="Rectangle_441" data-name="Rectangle 441" width="3" height="2" transform="translate(-0.434 -0.045)" fill="url(#linear-gradient)"/>
    </g>
  </g>
  <g id="Group_419" data-name="Group 419" transform="translate(14.713 34.876)">
    <g id="Group_418" data-name="Group 418" transform="translate(0 0)">
      <rect id="Rectangle_442" data-name="Rectangle 442" width="2" height="3" transform="translate(0.369 -0.422)" fill="url(#linear-gradient)"/>
    </g>
  </g>
  <g id="Group_421" data-name="Group 421" transform="translate(19.073 34.876)">
    <g id="Group_420" data-name="Group 420" transform="translate(0 0)">
      <rect id="Rectangle_443" data-name="Rectangle 443" width="32" height="3" transform="translate(0.009 -0.422)" fill="url(#linear-gradient)"/>
    </g>
  </g>
  <g id="Group_423" data-name="Group 423" transform="translate(12.533 39.235)">
    <g id="Group_422" data-name="Group 422" transform="translate(0 0)">
      <rect id="Rectangle_444" data-name="Rectangle 444" width="35" height="2" transform="translate(-0.452 0.219)" fill="url(#linear-gradient)"/>
    </g>
  </g>
</svg>
