<svg xmlns="http://www.w3.org/2000/svg" xmlns:xlink="http://www.w3.org/1999/xlink" width="656" height="209" viewBox="0 0 656 209">
  <defs>
    <filter id="Ellipse_177" x="0" y="0" width="209" height="209" filterUnits="userSpaceOnUse">
      <feOffset dy="3" input="SourceAlpha"/>
      <feGaussianBlur stdDeviation="7.5" result="blur"/>
      <feFlood flood-opacity="0.161"/>
      <feComposite operator="in" in2="blur"/>
      <feComposite in="SourceGraphic"/>
    </filter>
  </defs>
  <g id="Group_3711" data-name="Group 3711" transform="translate(-137.5 -3115.5)">
    <line id="Line_44" data-name="Line 44" x2="469" transform="translate(324.5 3214.5)" fill="none" stroke="#fff" stroke-width="5" stroke-dasharray="5" opacity="0.46"/>
    <g transform="matrix(1, 0, 0, 1, 137.5, 3115.5)" filter="url(#Ellipse_177)">
      <g id="Ellipse_177-2" data-name="Ellipse 177" transform="translate(22.5 19.5)" fill="rgba(186,70,22,0.38)" stroke="#fff" stroke-width="4" stroke-dasharray="5">
        <circle cx="82" cy="82" r="82" stroke="none"/>
        <circle cx="82" cy="82" r="80" fill="none"/>
      </g>
    </g>
    <g id="growth" transform="translate(204.132 3177.454)">
      <path id="Path_5060" data-name="Path 5060" d="M71.431,74.092H8.306A8.315,8.315,0,0,1,0,65.786V9.306A8.315,8.315,0,0,1,8.306,1H71.431a8.315,8.315,0,0,1,8.306,8.306v56.48A8.315,8.315,0,0,1,71.431,74.092ZM8.306,4.322A4.99,4.99,0,0,0,3.322,9.306v56.48a4.99,4.99,0,0,0,4.984,4.984H71.431a4.99,4.99,0,0,0,4.984-4.984V9.306a4.99,4.99,0,0,0-4.984-4.984Z" fill="#fff"/>
      <path id="Path_5061" data-name="Path 5061" d="M78.075,8.322H1.661A1.661,1.661,0,1,1,1.661,5H78.075a1.661,1.661,0,1,1,0,3.322Z" transform="translate(0 9.289)" fill="#fff"/>
      <path id="Path_5062" data-name="Path 5062" d="M8.662,33.255a1.66,1.66,0,0,1-1.176-2.834L19.114,18.793a1.657,1.657,0,0,1,1.917-.312l5.575,2.787L37.387,10.487a1.661,1.661,0,1,1,2.349,2.349L28.107,24.464a1.658,1.658,0,0,1-1.917.312l-5.575-2.787L9.835,32.77a1.655,1.655,0,0,1-1.173.485Z" transform="translate(16.256 20.903)" fill="#fff"/>
      <path id="Path_5063" data-name="Path 5063" d="M24.628,23.289a1.662,1.662,0,0,1-1.661-1.661V13.322H14.661a1.661,1.661,0,1,1,0-3.322h9.967a1.662,1.662,0,0,1,1.661,1.661v9.967A1.662,1.662,0,0,1,24.628,23.289Z" transform="translate(30.191 20.901)" fill="#fff"/>
    </g>
  </g>
</svg>
