<svg id="worker" xmlns="http://www.w3.org/2000/svg" xmlns:xlink="http://www.w3.org/1999/xlink" width="80.436" height="80.436" viewBox="0 0 80.436 80.436">
  <defs>
    <linearGradient id="linear-gradient" x1="0.63" y1="1" x2="0.633" gradientUnits="objectBoundingBox">
      <stop offset="0" stop-color="#f37135"/>
      <stop offset="1" stop-color="#cd3033"/>
    </linearGradient>
  </defs>
  <g id="Group_452" data-name="Group 452" transform="translate(0)">
    <path id="Path_4382" data-name="Path 4382" d="M76.414,48.261H44.24a4.022,4.022,0,0,0-3.778,2.691l-6.947-2.317V42.322c.117-.091.237-.172.353-.268a21.411,21.411,0,0,0,7.483-13.9H44.24a1.341,1.341,0,0,0,1.341-1.341V21.449a1.341,1.341,0,0,0-1.341-1.341H42.646c-.338-8.54-3.953-17.854-13.153-18.686V1.341A1.341,1.341,0,0,0,28.153,0H20.109a1.341,1.341,0,0,0-1.341,1.341v.082C9.57,2.255,5.954,11.569,5.616,20.109H4.022a1.341,1.341,0,0,0-1.341,1.341v5.362a1.341,1.341,0,0,0,1.341,1.341h2.9a21.4,21.4,0,0,0,7.472,13.9c.115.1.236.176.353.268v6.313L4.416,52.079A2.681,2.681,0,0,0,2.6,54.342L.007,78.961a1.341,1.341,0,0,0,1.2,1.468,1.325,1.325,0,0,0,.134.007H76.414a4.022,4.022,0,0,0,4.022-4.022V52.283A4.022,4.022,0,0,0,76.414,48.261ZM5.363,25.471V22.79h8.044V20.109H8.312c.225-4.057,1.653-14.989,10.457-16V16.087H21.45V2.681h5.362V16.087h2.681V4.106c8.8,1.013,10.231,11.946,10.457,16H16.087V22.79H42.9v2.681Zm4.252,2.681H38.658A18.719,18.719,0,0,1,32.15,40a12.522,12.522,0,0,1-16.039,0A18.7,18.7,0,0,1,9.615,28.152ZM30.834,44.01v7.775l-6.7,7.82-6.7-7.818V44.012a15.1,15.1,0,0,0,13.406,0Zm-6.7,31.063v2.681H2.83L5.265,54.622l9.482-3.161v.822a1.34,1.34,0,0,0,.323.873l8.044,9.384a1.385,1.385,0,0,0,1.957.078c.027-.025.053-.051.078-.078l8.044-9.384a1.34,1.34,0,0,0,.323-.873v-.82l6.7,2.233v18.7H26.812A2.681,2.681,0,0,0,24.131,75.073Zm2.681,2.681V75.073H40.218v1.341a3.976,3.976,0,0,0,.247,1.341Zm34.855-9.383v9.384H58.986V68.37a1.341,1.341,0,0,0-1.341-1.341H55.793l-3.217-6.435,1.134-1.134a1.383,1.383,0,0,0,.134.268l2.681,4.022a1.341,1.341,0,0,0,1.121.6h5.362a1.341,1.341,0,0,0,1.115-.6L66.8,59.73a1.382,1.382,0,0,0,.134-.268L68.073,60.6l-3.217,6.435H63.008A1.341,1.341,0,0,0,61.668,68.371Zm16.087,8.042a1.341,1.341,0,0,1-1.341,1.341H64.349V69.711h1.341a1.341,1.341,0,0,0,1.207-.741l4.022-8.044a1.341,1.341,0,0,0-.252-1.547L65.3,54.016a1.341,1.341,0,0,0-2.22,1.371l1.133,3.4-1.925,2.88H58.363l-1.924-2.88,1.133-3.4a1.341,1.341,0,0,0-2.22-1.371L49.99,59.379a1.341,1.341,0,0,0-.252,1.547l4.022,8.044a1.34,1.34,0,0,0,1.205.741h1.341v8.044H44.24A1.341,1.341,0,0,1,42.9,76.414V52.283a1.341,1.341,0,0,1,1.341-1.341H76.414a1.341,1.341,0,0,1,1.341,1.341V76.414Z" transform="translate(0)" fill="url(#linear-gradient)"/>
  </g>
</svg>
