<svg id="mortarboard" xmlns="http://www.w3.org/2000/svg" xmlns:xlink="http://www.w3.org/1999/xlink" width="103.027" height="78.392" viewBox="0 0 103.027 78.392">
  <defs>
    <linearGradient id="linear-gradient" x1="0.63" y1="1" x2="0.633" gradientUnits="objectBoundingBox">
      <stop offset="0" stop-color="#f37135"/>
      <stop offset="1" stop-color="#cd3033"/>
    </linearGradient>
  </defs>
  <g id="Group_465" data-name="Group 465" transform="translate(0 0)">
    <path id="Path_4386" data-name="Path 4386" d="M99.6,63.14,58.536,43.078a16.82,16.82,0,0,0-13.1,0L3.422,63.14C.472,64.556,0,66.563,0,67.625s.472,2.95,3.422,4.485l3.422,1.652V92.644a5.783,5.783,0,0,0-3.658,5.311,5.859,5.859,0,0,0,3.54,5.311L1.416,120.142h14.87l-5.311-16.876a5.718,5.718,0,0,0-.118-10.621V75.768l6.255,3.068v24.547a1.9,1.9,0,0,0,.354,1.062c.59.708,11.565,15.7,33.988,15.7s33.4-15.106,33.87-15.7a1.9,1.9,0,0,0,.354-1.062V78.954L99.6,72.109c2.95-1.416,3.422-3.422,3.422-4.485C102.909,66.563,102.555,64.556,99.6,63.14ZM81.9,102.793a39.464,39.464,0,0,1-30.448,13.69,39.464,39.464,0,0,1-30.448-13.69v-22.3L45.436,92.172a15.916,15.916,0,0,0,6.491,1.3,14.37,14.37,0,0,0,6.609-1.416L81.9,80.607Zm16.05-33.988L83.791,75.768a1.356,1.356,0,0,0-1.3.708L56.883,88.868c-2.478,1.3-7.317,1.3-9.913,0L15.46,73.762l36.231-4.249a1.838,1.838,0,0,0-.354-3.658L9.323,70.811,5.075,68.805a2.381,2.381,0,0,1-1.3-1.062c0-.118.236-.59,1.3-1.062L47.088,46.5a12.191,12.191,0,0,1,4.839-.944,11.962,11.962,0,0,1,4.957.944L97.953,66.563c1.062.472,1.3.944,1.3,1.18A3.245,3.245,0,0,1,97.953,68.805Z" transform="translate(0 -41.75)" fill="url(#linear-gradient)"/>
  </g>
</svg>
