<svg xmlns="http://www.w3.org/2000/svg" xmlns:xlink="http://www.w3.org/1999/xlink" width="134" height="132" viewBox="0 0 134 132">
  <defs>
    <linearGradient id="linear-gradient" x1="0.63" y1="1" x2="0.633" gradientUnits="objectBoundingBox">
      <stop offset="0" stop-color="#f37135"/>
      <stop offset="1" stop-color="#cd3033"/>
    </linearGradient>
  </defs>
  <g id="Group_3713" data-name="Group 3713" transform="translate(-894 -1280)">
    <path id="Rectangle_554" data-name="Rectangle 554" d="M65.635,0h2.729A65.635,65.635,0,0,1,134,65.635v59.8A6.564,6.564,0,0,1,127.436,132H66.365A66.365,66.365,0,0,1,0,65.635v0A65.635,65.635,0,0,1,65.635,0Z" transform="translate(894 1280)" fill="url(#linear-gradient)"/>
    <g id="interface_3_" data-name="interface(3)" transform="translate(925 1320.474)">
      <g id="Group_1755" data-name="Group 1755" transform="translate(0 0)">
        <path id="Path_3476" data-name="Path 3476" d="M65.523,64H5.957A5.963,5.963,0,0,0,0,69.957v41.7a5.962,5.962,0,0,0,5.957,5.957H65.523a5.962,5.962,0,0,0,5.957-5.957v-41.7A5.963,5.963,0,0,0,65.523,64ZM5.957,66.978H65.523a2.833,2.833,0,0,1,.619.125C60.985,71.823,43.885,87.467,37.9,92.858a2.987,2.987,0,0,1-4.324,0C27.594,87.466,10.493,71.822,5.337,67.1A2.847,2.847,0,0,1,5.957,66.978ZM2.978,111.653v-41.7a2.877,2.877,0,0,1,.167-.823C7.092,72.746,19.024,83.661,26.76,90.7,19.049,97.321,7.114,108.636,3.136,112.43A2.87,2.87,0,0,1,2.978,111.653Zm62.545,2.978H5.957a2.85,2.85,0,0,1-.672-.136c4.111-3.919,16.122-15.3,23.7-21.78.988.9,1.89,1.713,2.6,2.354a5.949,5.949,0,0,0,8.311,0c.711-.641,1.614-1.459,2.6-2.355,7.576,6.48,19.585,17.86,23.7,21.78A2.847,2.847,0,0,1,65.523,114.632Zm2.978-2.978a2.876,2.876,0,0,1-.157.776c-3.98-3.8-15.913-15.109-23.625-21.733,7.737-7.035,19.667-17.95,23.615-21.563a2.878,2.878,0,0,1,.167.823Z" transform="translate(0 -64)" fill="#fff"/>
      </g>
    </g>
  </g>
</svg>
