<svg xmlns="http://www.w3.org/2000/svg" xmlns:xlink="http://www.w3.org/1999/xlink" width="240" height="240" viewBox="0 0 240 240">
  <defs>
    <filter id="Rectangle_456" x="0" y="0" width="240" height="240" filterUnits="userSpaceOnUse">
      <feOffset dy="3" input="SourceAlpha"/>
      <feGaussianBlur stdDeviation="15" result="blur"/>
      <feFlood flood-opacity="0.102"/>
      <feComposite operator="in" in2="blur"/>
      <feComposite in="SourceGraphic"/>
    </filter>
  </defs>
  <g id="Group_3711" data-name="Group 3711" transform="translate(-394 -3174)">
    <g transform="matrix(1, 0, 0, 1, 394, 3174)" filter="url(#Rectangle_456)">
      <g id="Rectangle_456-2" data-name="Rectangle 456" transform="translate(45 42)" fill="#fff" stroke="#de8065" stroke-width="2" stroke-dasharray="5">
        <rect width="150" height="150" rx="75" stroke="none"/>
        <rect x="1" y="1" width="148" height="148" rx="74" fill="none"/>
      </g>
    </g>
    <g id="submit" transform="translate(474.501 3257.5)">
      <g id="Group_3624" data-name="Group 3624" transform="translate(0)">
        <path id="Path_5325" data-name="Path 5325" d="M135.217,38.386H120.349a1.15,1.15,0,0,0-1.15,1.15V60.909a1.15,1.15,0,0,0,1.15,1.15h14.868a1.15,1.15,0,0,0,1.15-1.15V39.536A1.15,1.15,0,0,0,135.217,38.386Zm-1.15,21.373H121.5V40.686h12.568Z" transform="translate(-100.924 -32.501)" fill="#d13633"/>
        <path id="Path_5326" data-name="Path 5326" d="M253.691,45.952h19.2a1.15,1.15,0,0,0,1.15-1.15V39.536a1.15,1.15,0,0,0-1.15-1.15h-19.2a1.15,1.15,0,0,0-1.15,1.15V44.8A1.15,1.15,0,0,0,253.691,45.952Zm1.15-5.266h16.9v2.966h-16.9Z" transform="translate(-213.822 -32.501)" fill="#d13633"/>
        <path id="Path_5327" data-name="Path 5327" d="M253.691,111.4h19.2a1.15,1.15,0,1,0,0-2.3h-19.2a1.15,1.15,0,1,0,0,2.3Z" transform="translate(-213.822 -92.371)" fill="#d13633"/>
        <path id="Path_5328" data-name="Path 5328" d="M253.691,143.723h19.2a1.15,1.15,0,1,0,0-2.3h-19.2a1.15,1.15,0,1,0,0,2.3Z" transform="translate(-213.822 -119.74)" fill="#d13633"/>
        <path id="Path_5329" data-name="Path 5329" d="M253.691,180.089h19.2a1.15,1.15,0,1,0,0-2.3h-19.2a1.15,1.15,0,1,0,0,2.3Z" transform="translate(-213.822 -150.531)" fill="#d13633"/>
        <path id="Path_5330" data-name="Path 5330" d="M191.931,215.3a1.15,1.15,0,0,0,1.15,1.15h28.5a1.15,1.15,0,1,0,0-2.3h-28.5A1.15,1.15,0,0,0,191.931,215.3Z" transform="translate(-162.504 -181.32)" fill="#d13633"/>
        <path id="Path_5331" data-name="Path 5331" d="M120.349,216.454h5.576a1.15,1.15,0,1,0,0-2.3h-5.576a1.15,1.15,0,1,0,0,2.3Z" transform="translate(-100.924 -181.32)" fill="#d13633"/>
        <path id="Path_5332" data-name="Path 5332" d="M204.772,301.981h-3.1a1.15,1.15,0,0,0-1.15,1.15v10.685a1.15,1.15,0,0,0,1.15,1.15h.005s2.854-.013,3.641-.013a4.024,4.024,0,0,0,2.39-7.264,3.606,3.606,0,0,0-2.932-5.709Zm0,2.3a1.309,1.309,0,1,1,0,2.618l-1.154,0h-.8v-2.621Zm.542,8.373c-.457,0-1.607,0-2.5.008V309.2l.806,0h1.69a1.726,1.726,0,1,1,0,3.452Z" transform="translate(-169.775 -255.682)" fill="#d13633"/>
        <path id="Path_5333" data-name="Path 5333" d="M51.153,307.479c-1.342-.5-2.59-1.035-2.941-1.189a.922.922,0,0,1-.35-.883,1.252,1.252,0,0,1,.98-1.008,3.749,3.749,0,0,1,3.112.714,1.15,1.15,0,0,0,1.475-1.764,6.032,6.032,0,0,0-5.25-1.152,3.575,3.575,0,0,0-2.593,2.883,3.212,3.212,0,0,0,1.433,3.18,1.146,1.146,0,0,0,.159.087c.061.027,1.528.68,3.179,1.289.512.189,1.686.729,1.52,1.662a1.988,1.988,0,0,1-2.049,1.368,3.908,3.908,0,0,1-2.872-1.206,1.15,1.15,0,1,0-1.7,1.544,6.241,6.241,0,0,0,4.576,1.962A4.222,4.222,0,0,0,54.14,311.7c.253-1.416-.4-3.269-2.988-4.224Z" transform="translate(-38.061 -255.681)" fill="#d13633"/>
        <path id="Path_5334" data-name="Path 5334" d="M121.35,301.981a1.15,1.15,0,0,0-1.15,1.15v7.353a4.238,4.238,0,0,0,2.207,3.739,4.737,4.737,0,0,0,2.587.744H125a5.01,5.01,0,0,0,2.276-.527,4.284,4.284,0,0,0,2.647-3.963v-7.345a1.15,1.15,0,1,0-2.3,0v7.345c0,.565-.157,1.293-1.381,1.909a2.733,2.733,0,0,1-1.242.281h0a2.441,2.441,0,0,1-1.352-.382,2,2,0,0,1-1.146-1.8v-7.353A1.15,1.15,0,0,0,121.35,301.981Z" transform="translate(-101.771 -255.682)" fill="#d13633"/>
        <path id="Path_5335" data-name="Path 5335" d="M146.922,42.416a4.253,4.253,0,0,0-4.247-4.248h-8.143V1.15A1.15,1.15,0,0,0,133.382,0H81.963a1.15,1.15,0,0,0-1.15,1.15V12.4a1.15,1.15,0,1,0,2.3,0V2.3h49.119V38.167h-1.354a1.15,1.15,0,0,0,0,2.3h11.8a1.95,1.95,0,0,1,1.947,1.949V61.533l-7.77-2.73a1.144,1.144,0,0,0,.216-.669V48.6h1.813a1.15,1.15,0,1,0,0-2.3h-5.9a1.15,1.15,0,1,0,0,2.3h1.789v9.472l-5.579-1.96V47.449a1.15,1.15,0,0,0-2.3,0V55.3l-2.616-.919a1.147,1.147,0,0,0-.714-.013l-1.33-6.957a1.391,1.391,0,0,0-2.687-.151c0,.013-.008.026-.012.04l-2.09,7.33-2.166-7.342-.013-.04a1.391,1.391,0,0,0-2.688.193L110.7,57.847a1.15,1.15,0,0,0,2.263.408l1.2-6.63,1.968,6.67c0,.014.008.027.013.041a1.389,1.389,0,0,0,1.319.948h.007a1.389,1.389,0,0,0,1.316-.961l.012-.04,1.9-6.666,1.271,6.65a1.148,1.148,0,0,0,1.913.624l2.187,6.225H85.3a1.15,1.15,0,0,0,0,2.3H126.87l3.624,10.315a1.149,1.149,0,0,0,.975.763c.037,0,.073.005.11.005a1.15,1.15,0,0,0,.993-.57l5.083-8.7,3.107-1.816h1.913a4.253,4.253,0,0,0,4.246-4.2h0c0-.019,0-.037,0-.055ZM136.234,67.4a1.151,1.151,0,0,0-.413.413l-3.981,6.813-6.07-17.276,17.276,6.07Z" transform="translate(-68.423)" fill="#d13633"/>
        <path id="Path_5336" data-name="Path 5336" d="M11.511,156.923H4.247A1.949,1.949,0,0,1,2.3,154.976V134.223a1.95,1.95,0,0,1,1.947-1.949H57.078a1.15,1.15,0,0,0,0-2.3H14.69V109.582a1.15,1.15,0,0,0-2.3,0v20.393H4.247A4.253,4.253,0,0,0,0,134.223v20.753a4.252,4.252,0,0,0,4.247,4.247h7.264a1.15,1.15,0,1,0,0-2.3Z" transform="translate(0 -91.807)" fill="#d13633"/>
      </g>
    </g>
  </g>
</svg>
