<svg xmlns="http://www.w3.org/2000/svg" width="1062.68" height="857.318" viewBox="0 0 1062.68 857.318">
  <g id="_2924733" data-name="2924733" transform="translate(0 28.534)">
    <g id="Background_Complete" transform="translate(0 -28.534)">
      <g id="Group_1380" data-name="Group 1380" transform="translate(0 89.46)">
        <rect id="Rectangle_518" data-name="Rectangle 518" width="1062.68" height="0.531" transform="translate(0 695.938)" fill="#ebebeb"/>
        <rect id="Rectangle_519" data-name="Rectangle 519" width="70.396" height="0.531" transform="translate(885.805 730.15)" fill="#ebebeb"/>
        <rect id="Rectangle_520" data-name="Rectangle 520" width="18.476" height="0.531" transform="translate(685.486 735.916)" fill="#ebebeb"/>
        <rect id="Rectangle_521" data-name="Rectangle 521" width="40.79" height="0.531" transform="translate(842.888 710.412)" fill="#ebebeb"/>
        <rect id="Rectangle_522" data-name="Rectangle 522" width="91.801" height="0.531" transform="translate(111.494 713.985)" fill="#ebebeb"/>
        <rect id="Rectangle_523" data-name="Rectangle 523" width="13.46" height="0.531" transform="translate(222.219 713.985)" fill="#ebebeb"/>
        <rect id="Rectangle_524" data-name="Rectangle 524" width="199.095" height="0.531" transform="translate(279.423 722.958)" fill="#ebebeb"/>
        <path id="Path_4728" data-name="Path 4728" d="M460.743,656.1H50.339a12.146,12.146,0,0,1-12.132-12.132V67.082A12.145,12.145,0,0,1,50.339,54.953h410.4a12.144,12.144,0,0,1,12.129,12.129V643.973A12.146,12.146,0,0,1,460.743,656.1ZM50.339,55.484a11.612,11.612,0,0,0-11.6,11.6V643.975a11.613,11.613,0,0,0,11.6,11.6h410.4a11.612,11.612,0,0,0,11.6-11.6V67.082a11.613,11.613,0,0,0-11.6-11.6H50.339Z" transform="translate(42.997 -54.953)" fill="#ebebeb"/>
        <path id="Path_4729" data-name="Path 4729" d="M677.039,656.1h-410.4a12.146,12.146,0,0,1-12.129-12.132V67.082a12.144,12.144,0,0,1,12.129-12.129h410.4a12.145,12.145,0,0,1,12.132,12.129V643.973A12.146,12.146,0,0,1,677.039,656.1Zm-410.4-600.62a11.612,11.612,0,0,0-11.6,11.6V643.975a11.613,11.613,0,0,0,11.6,11.6h410.4a11.612,11.612,0,0,0,11.6-11.6V67.082a11.613,11.613,0,0,0-11.6-11.6h-410.4Z" transform="translate(286.41 -54.953)" fill="#ebebeb"/>
      </g>
      <g id="Group_1404" data-name="Group 1404" transform="translate(244.675)">
        <g id="Group_1390" data-name="Group 1390" transform="translate(317.072 60.775)">
          <g id="Group_1387" data-name="Group 1387" transform="translate(7.547 17.893)">
            <g id="Group_1386" data-name="Group 1386">
              <g id="Group_1385" data-name="Group 1385">
                <rect id="Rectangle_528" data-name="Rectangle 528" width="340.495" height="289.916" transform="translate(7.664)" fill="#e6e6e6"/>
                <rect id="Rectangle_529" data-name="Rectangle 529" width="344.829" height="289.916" fill="#f5f5f5"/>
                <rect id="Rectangle_530" data-name="Rectangle 530" width="317.318" height="262.091" transform="translate(13.755 13.913)" fill="#fafafa"/>
                <path id="Path_4735" data-name="Path 4735" d="M493.9,363.888,369.011,101.8h-42.42l124.89,262.091Z" transform="translate(-201.762 -87.884)" fill="#fff"/>
                <path id="Path_4736" data-name="Path 4736" d="M461.29,363.888,336.4,101.8H307.189l124.89,262.091Z" transform="translate(-223.596 -87.884)" fill="#fff"/>
                <rect id="Rectangle_531" data-name="Rectangle 531" width="16.41" height="262.091" transform="translate(115.171 13.913)" fill="#e6e6e6"/>
                <rect id="Rectangle_532" data-name="Rectangle 532" width="16.41" height="262.091" transform="translate(224.242 13.913)" fill="#e6e6e6"/>
                <rect id="Rectangle_533" data-name="Rectangle 533" width="20.744" height="281.264" transform="translate(107.879 3.568)" fill="#f5f5f5"/>
                <rect id="Rectangle_534" data-name="Rectangle 534" width="20.741" height="281.264" transform="translate(216.952 3.568)" fill="#f5f5f5"/>
                <rect id="Rectangle_535" data-name="Rectangle 535" width="1.46" height="262.091" transform="translate(13.755 13.913)" fill="#e6e6e6"/>
              </g>
            </g>
          </g>
          <g id="Group_1389" data-name="Group 1389">
            <g id="Group_1388" data-name="Group 1388">
              <path id="Path_4737" data-name="Path 4737" d="M266.08,86.832H634.967a1.779,1.779,0,0,1,1.773,1.775h0a1.777,1.777,0,0,1-1.773,1.773H266.08a1.777,1.777,0,0,1-1.773-1.773h0A1.779,1.779,0,0,1,266.08,86.832Z" transform="translate(-264.307 -86.832)" fill="#e6e6e6"/>
              <path id="Path_4738" data-name="Path 4738" d="M432.938,97.6h0a2.4,2.4,0,0,0,2.4-2.4V90.062a2.4,2.4,0,0,0-2.4-2.4h0a2.4,2.4,0,0,0-2.4,2.4v5.143A2.4,2.4,0,0,0,432.938,97.6Z" transform="translate(-77.232 -85.892)" fill="#e6e6e6"/>
              <path id="Path_4739" data-name="Path 4739" d="M279,97.6h0a2.4,2.4,0,0,0,2.4-2.4V90.062a2.4,2.4,0,0,0-2.4-2.4h0a2.4,2.4,0,0,0-2.393,2.4v5.143A2.4,2.4,0,0,0,279,97.6Z" transform="translate(-250.471 -85.892)" fill="#e6e6e6"/>
            </g>
            <rect id="Rectangle_536" data-name="Rectangle 536" width="344.576" height="143.891" transform="translate(2.34 1.775)" fill="#e0e0e0" opacity="0.6"/>
          </g>
        </g>
        <g id="Group_1392" data-name="Group 1392" transform="translate(137.265 552.06)">
          <path id="Path_4742" data-name="Path 4742" d="M221.416,349.082H186.441a6.734,6.734,0,0,1-6.735-6.733V281.923a6.736,6.736,0,0,1,6.735-6.735h34.975a6.736,6.736,0,0,1,6.735,6.735v60.426A6.735,6.735,0,0,1,221.416,349.082Z" transform="translate(-179.706 -269.709)" fill="#f0f0f0"/>
          <path id="Path_4743" data-name="Path 4743" d="M225.89,278.961H181.967a2.262,2.262,0,0,1-2.261-2.261v-1.828a2.263,2.263,0,0,1,2.261-2.261H225.89a2.262,2.262,0,0,1,2.261,2.261V276.7A2.26,2.26,0,0,1,225.89,278.961Z" transform="translate(-179.706 -272.61)" fill="#e6e6e6"/>
        </g>
        <g id="Group_1398" data-name="Group 1398" transform="translate(318.513 575.572)">
          <rect id="Rectangle_537" data-name="Rectangle 537" width="10.708" height="175.646" transform="translate(37.088 34.18)" fill="#e6e6e6"/>
          <g id="Group_1395" data-name="Group 1395">
            <g id="Group_1394" data-name="Group 1394">
              <rect id="Rectangle_538" data-name="Rectangle 538" width="58.001" height="34.182" transform="translate(288.373)" fill="#e6e6e6"/>
              <rect id="Rectangle_539" data-name="Rectangle 539" width="288.371" height="34.182" fill="#f5f5f5"/>
            </g>
          </g>
          <g id="Group_1397" data-name="Group 1397" transform="translate(0 91.276)">
            <g id="Group_1396" data-name="Group 1396">
              <rect id="Rectangle_540" data-name="Rectangle 540" width="58.001" height="34.182" transform="translate(288.373)" fill="#e6e6e6"/>
              <rect id="Rectangle_541" data-name="Rectangle 541" width="288.371" height="34.182" fill="#f5f5f5"/>
            </g>
          </g>
          <rect id="Rectangle_542" data-name="Rectangle 542" width="10.708" height="175.646" transform="translate(325.458 34.18)" fill="#e6e6e6"/>
          <rect id="Rectangle_543" data-name="Rectangle 543" width="10.708" height="175.646" transform="translate(277.663 34.18)" fill="#f5f5f5"/>
          <rect id="Rectangle_544" data-name="Rectangle 544" width="10.708" height="175.646" transform="translate(0 34.18)" fill="#f5f5f5"/>
        </g>
        <g id="Group_1401" data-name="Group 1401">
          <g id="Group_1400" data-name="Group 1400">
            <rect id="Rectangle_545" data-name="Rectangle 545" width="136.325" height="152.886" transform="translate(9.613)" fill="#f0f0f0"/>
            <rect id="Rectangle_546" data-name="Rectangle 546" width="143.817" height="152.886" fill="#f5f5f5"/>
            <rect id="Rectangle_547" data-name="Rectangle 547" width="119.719" height="128.79" transform="translate(12.049 12.051)" fill="#fff"/>
            <g id="Group_1399" data-name="Group 1399" transform="translate(27.932 39.317)">
              <path id="Path_4746" data-name="Path 4746" d="M102.422,120.6a24.024,24.024,0,0,0-9.4,46.18l89.123,37.5V152.1l-70.479-29.644A24.055,24.055,0,0,0,102.422,120.6Z" transform="translate(-78.297 -120.599)" fill="#f0f0f0"/>
            </g>
          </g>
        </g>
        <g id="Group_1403" data-name="Group 1403" transform="translate(74.841 266.109)">
          <g id="Group_1402" data-name="Group 1402">
            <rect id="Rectangle_548" data-name="Rectangle 548" width="136.325" height="152.886" transform="translate(9.613)" fill="#f0f0f0"/>
            <rect id="Rectangle_549" data-name="Rectangle 549" width="143.817" height="152.886" fill="#f5f5f5"/>
            <rect id="Rectangle_550" data-name="Rectangle 550" width="119.719" height="128.79" transform="translate(12.049 12.049)" fill="#fff"/>
            <path id="Path_4747" data-name="Path 4747" d="M229.337,183.505l-73.331-30.858v53.415l54.25,22.814a24.61,24.61,0,1,0,19.081-45.37Z" transform="translate(-143.953 -121.661)" fill="#f0f0f0"/>
          </g>
        </g>
      </g>
    </g>
    <g id="Character_1_" transform="translate(152.563 175.782)">
      <g id="Group_1417" data-name="Group 1417">
        <g id="Group_1416" data-name="Group 1416">
          <path id="Path_4748" data-name="Path 4748" d="M212.79,122.073c2.038-8.939,24.355-17.441,43.483-4.334a46.663,46.663,0,0,1,18.065,53.733c-10.272,30.395,43.321,29.27,55.729,80.519,9.8,40.471.71,97.573-53.965,94.468-83.463-4.74-76.256-86.319-79.922-129.181S146.991,126.409,212.79,122.073Z" transform="translate(47.118 -106.744)" fill="#263238"/>
          <path id="Path_4749" data-name="Path 4749" d="M219.405,170.678c-.353,6.2-1.082,11.887-1.9,17.781-.831,5.841-1.926,11.636-3.188,17.422-1.292,5.775-2.661,11.551-4.485,17.252a155.718,155.718,0,0,1-6.2,16.956l-1.875,4.168c-.264.633-.769,1.556-1.171,2.336-.427.81-.884,1.518-1.328,2.274a64.34,64.34,0,0,1-5.817,7.762A134.587,134.587,0,0,1,180.7,269.433,238.055,238.055,0,0,1,152.739,290.6l-5.683-7.335c4-3.877,8.076-7.872,12.017-11.866,3.977-3.97,7.832-8.044,11.517-12.17A154.789,154.789,0,0,0,180.9,246.7a57.123,57.123,0,0,0,3.987-6.28c.238-.5.531-1.007.731-1.481.206-.512.391-.844.642-1.543l1.428-3.738a210.161,210.161,0,0,0,8.455-31.525c1.086-5.4,1.858-10.882,2.674-16.346.788-5.418,1.411-11.088,1.889-16.28Z" transform="translate(12.928 -40.892)" fill="#ffb573"/>
          <path id="Path_4750" data-name="Path 4750" d="M181.893,160.218c-7.549,1.923-12.833,32.992-12.833,32.992l28.875,19.636s11.879-36.832,6.07-45.132C197.958,159.071,192.911,157.413,181.893,160.218Z" transform="translate(37.69 -52.757)" fill="#407bff"/>
          <path id="Path_4751" data-name="Path 4751" d="M178.489,162.82l-5.8,31.317,11.694,7.93Z" transform="translate(41.774 -48.419)" opacity="0.2"/>
          <path id="Path_4752" data-name="Path 4752" d="M158.979,221.781l-19.451,3.105,11.09,12.289s11.466-2.621,13.477-9.966Z" transform="translate(4.456 17.933)" fill="#ffb573"/>
          <g id="Group_1405" data-name="Group 1405" transform="translate(134.783 242.821)">
            <path id="Path_4753" data-name="Path 4753" d="M135.2,225.674l11.094,12.017,9.2-2.162L144.4,223.243Z" transform="translate(-135.199 -223.243)" fill="#ffb573"/>
          </g>
          <path id="Path_4754" data-name="Path 4754" d="M204.664,428.066H186.345l-1.222-42.422h18.318Z" transform="translate(55.767 202.338)" fill="#ffb573"/>
          <path id="Path_4755" data-name="Path 4755" d="M274.279,399.82l-16.96,6.922-21.485-37.049,16.96-6.922Z" transform="translate(112.834 176.597)" fill="#ffb573"/>
          <path id="Path_4756" data-name="Path 4756" d="M254.976,387.944l17.694-10.512a1.449,1.449,0,0,1,1.9.329l10.334,12.8a2.942,2.942,0,0,1-.861,4.3c-6.232,3.56-9.42,4.965-17.2,9.587-4.786,2.844-16.04,12.591-22.65,16.518-6.465,3.843-10.846-2.4-8.444-4.627a62.738,62.738,0,0,0,17.177-25.861A4.766,4.766,0,0,1,254.976,387.944Z" transform="translate(111.983 192.854)" fill="#263238"/>
          <path id="Path_4757" data-name="Path 4757" d="M201.153,404.606h20.58a1.45,1.45,0,0,1,1.462,1.25l2.344,16.282A2.942,2.942,0,0,1,222.6,425.4c-7.175-.123-10.631-.546-19.683-.546-5.568,0-17.086.578-24.773.578-7.522,0-8.1-7.6-4.9-8.291,14.355-3.088,20.006-7.345,24.841-11.407A4.8,4.8,0,0,1,201.153,404.606Z" transform="translate(40.332 223.677)" fill="#263238"/>
          <g id="Group_1406" data-name="Group 1406" transform="translate(240.894 539.375)" opacity="0.2">
            <path id="Path_4758" data-name="Path 4758" d="M185.125,385.65l.625,21.866h18.327l-.627-21.866Z" transform="translate(-185.125 -337.03)"/>
            <path id="Path_4759" data-name="Path 4759" d="M252.8,362.774,235.834,369.7l11.084,19.094,16.967-6.927Z" transform="translate(-128.059 -362.774)"/>
          </g>
          <path id="Path_4760" data-name="Path 4760" d="M176.251,162.362s-8.727,3.075,8.754,110.563h74.4c-1.248-30.28-1.284-48.951,13.188-111.093A219.3,219.3,0,0,0,241,157.672c-12.52-.6-22.777-1-33.783,0C192.706,159,176.251,162.362,176.251,162.362Z" transform="translate(43.332 -54.901)" fill="#da4732"/>
          <path id="Path_4761" data-name="Path 4761" d="M224.043,170.88c-6.737,1.679-12.965,9.033-12.221,22.571a32.549,32.549,0,0,0,6.206,17.045c1.19-10.414,3.188-22.505,6.355-37.98Z" transform="translate(85.745 -39.349)" opacity="0.2"/>
          <path id="Path_4762" data-name="Path 4762" d="M191.51,187.18s9.666,5.964,12.2,14.818c10.491-7.687,24.758-29.092,25.326-41.9a2.8,2.8,0,0,0-2.816-2.842,36.123,36.123,0,0,0-4.844.2Z" transform="translate(62.954 -54.686)" fill="#fafafa"/>
          <path id="Path_4763" data-name="Path 4763" d="M201.267,187.177s-9.666,5.964-12.2,14.818c-11.281-8.266-5.022-35.54,1.439-44.626a32.365,32.365,0,0,1,6.846.083Z" transform="translate(53.197 -54.683)" fill="#fafafa"/>
          <path id="Path_4764" data-name="Path 4764" d="M222.207,139.449c-2.13,10.871-4.257,30.788,3.347,38.04,0,0-10.049,19.277-29.868,29.725-15.071-12.044-3.915-29.725-3.915-29.725,12.121-2.895,11.809-11.887,9.7-20.333Z" transform="translate(58.777 -74.72)" fill="#ffb573"/>
          <path id="Path_4765" data-name="Path 4765" d="M206.509,142.849l-12.274,10.472a34.815,34.815,0,0,1,1.041,6c4.631-.67,11.913-4.614,12.907-9.651C208.653,147.285,206.9,143.973,206.509,142.849Z" transform="translate(66.021 -70.894)" opacity="0.2"/>
          <path id="Path_4766" data-name="Path 4766" d="M241.638,148.146c-5.026,17.473-6.78,24.973-17.749,32.078-16.5,10.684-36.858.691-37.156-17.93-.266-16.763,8-42.518,26.9-45.714C232.263,113.433,246.662,130.673,241.638,148.146Z" transform="translate(57.572 -100.877)" fill="#ffb573"/>
          <path id="Path_4767" data-name="Path 4767" d="M194.808,119.553c.827,5.9,33.179,24.913,39.319,15s-2.695-17.358-16.461-19.247S194.808,119.553,194.808,119.553Z" transform="translate(66.666 -102.3)" fill="#263238"/>
          <path id="Path_4768" data-name="Path 4768" d="M205.253,118.616c-3.974,5.241,4.442,42.89,16.5,39.351s11.5-15.594,3.12-26.718S205.253,118.616,205.253,118.616Z" transform="translate(77.3 -98.165)" fill="#263238"/>
          <g id="Group_1407" data-name="Group 1407" transform="translate(215.019 218.025)">
            <path id="Path_4769" data-name="Path 4769" d="M186.269,211.576S171.821,352.687,173.022,408.55c1.248,58.105,22.539,190.628,22.539,190.628h24.771s-3.919-129.126-1.73-186.192c2.387-62.211,22.148-201.41,22.148-201.41H186.269Z" transform="translate(-172.951 -211.576)" fill="#8f9195"/>
            <path id="Path_4770" data-name="Path 4770" d="M186.269,211.576S171.821,352.687,173.022,408.55c1.248,58.105,22.539,190.628,22.539,190.628h24.771s-3.919-129.126-1.73-186.192c2.387-62.211,22.148-201.41,22.148-201.41H186.269Z" transform="translate(-172.951 -211.576)" fill="#8f9195" opacity="0.4"/>
          </g>
          <path id="Path_4771" data-name="Path 4771" d="M212.772,399.872H183.708l-2.132-9.269,32.548-1.135Z" transform="translate(51.775 206.641)" fill="#263238"/>
          <path id="Path_4772" data-name="Path 4772" d="M199.011,232.716c-18.274,36.758-3.668,103.817,2.793,128.767,3.316-37.47,8.9-83.272,13.256-116.908C212.29,225.545,207.438,215.769,199.011,232.716Z" transform="translate(61.417 20.417)" opacity="0.2"/>
          <g id="Group_1408" data-name="Group 1408" transform="translate(247.984 218.025)">
            <path id="Path_4773" data-name="Path 4773" d="M188.461,211.576s16.852,146.7,29.579,193.8C233.151,461.3,294.531,556.7,294.531,556.7l23.126-9.441S278.019,438.63,266.466,409.173C241.807,346.3,262.914,252.6,243.21,211.578H188.461Z" transform="translate(-188.461 -211.576)" fill="#407bff"/>
            <path id="Path_4774" data-name="Path 4774" d="M188.461,211.576s16.852,146.7,29.579,193.8C233.151,461.3,294.531,556.7,294.531,556.7l23.126-9.441S278.019,438.63,266.466,409.173C241.807,346.3,262.914,252.6,243.21,211.578H188.461Z" transform="translate(-188.461 -211.576)" fill="#8f8f8f"/>
          </g>
          <path id="Path_4775" data-name="Path 4775" d="M269.5,375.589,240.8,387.3l-6.737-7.772,33.13-15.3Z" transform="translate(110.846 178.238)" fill="#263238"/>
          <g id="Group_1410" data-name="Group 1410">
            <path id="Path_4776" data-name="Path 4776" d="M113.923,140.38A124.974,124.974,0,1,0,290.347,151.14,124.982,124.982,0,0,0,113.923,140.38ZM266.471,312.744a105.2,105.2,0,1,1,9.069-148.5A105.2,105.2,0,0,1,266.471,312.744Z" transform="translate(-71.782 -108.993)" fill="#263238"/>
            <path id="Path_4777" data-name="Path 4777" d="M175.754,315.062a96.4,96.4,0,1,1,102.1-90.347A96.4,96.4,0,0,1,175.754,315.062Z" transform="translate(-56.656 -93.871)" fill="#f27035" opacity="0.3"/>
            <g id="Group_1409" data-name="Group 1409" transform="translate(28.572 28.655)" opacity="0.5">
              <path id="Path_4778" data-name="Path 4778" d="M187.488,122.569c-.608-.038-1.2-.072-1.811-.093L85.537,211.1c-.053.608-.091,1.216-.13,1.826a96.019,96.019,0,0,0,15.847,59.083L244.225,145.479A95.994,95.994,0,0,0,187.488,122.569Z" transform="translate(-85.225 -122.476)" fill="#fafafa"/>
              <path id="Path_4779" data-name="Path 4779" d="M240.832,137.557,96.465,265.327A95.768,95.768,0,0,0,112.7,280.088L253.508,155.47A95.725,95.725,0,0,0,240.832,137.557Z" transform="translate(-72.577 -105.504)" fill="#fafafa"/>
            </g>
            <path id="Path_4780" data-name="Path 4780" d="M190.88,217.868l-16.45,14.559a6.039,6.039,0,0,1-8.529-.523h0a6.041,6.041,0,0,1,.521-8.529l16.45-14.559a6.037,6.037,0,0,1,8.529.521h0A6.046,6.046,0,0,1,190.88,217.868Z" transform="translate(32.427 1.633)" fill="#263238"/>
            <path id="Path_4781" data-name="Path 4781" d="M181.3,212.093c12.4,10.909,24.259,22.3,35.957,33.831s23.147,23.283,34.456,35.158,22.41,23.936,33.415,36.08c10.325,12.746,24.4,22.174,26.505,42.2a10.127,10.127,0,0,1-9.009,11.126,10.4,10.4,0,0,1-3.33-.2c-19.619-4.523-27.266-19.641-38.662-31.438q-16.074-18.6-31.751-37.553-15.618-19-30.709-38.475c-10.025-13.014-19.889-26.167-29.211-39.8a8.3,8.3,0,0,1,12.34-10.922Z" transform="translate(35.947 4.703)" fill="#263238"/>
          </g>
          <ellipse id="Ellipse_140" data-name="Ellipse 140" cx="1.749" cy="2.674" rx="1.749" ry="2.674" transform="translate(267.06 42.323) rotate(12.545)" fill="#263238"/>
          <ellipse id="Ellipse_141" data-name="Ellipse 141" cx="1.749" cy="2.676" rx="1.749" ry="2.676" transform="translate(250.795 38.704) rotate(12.509)" fill="#263238"/>
          <path id="Path_4782" data-name="Path 4782" d="M192.482,128.4l-3.243-1.768S190.416,129.73,192.482,128.4Z" transform="translate(60.399 -89.147)" fill="#263238"/>
          <path id="Path_4783" data-name="Path 4783" d="M197.007,130.536s-3.828,5.666-7.188,8.061c1.509,2.2,4.927,2.108,4.927,2.108Z" transform="translate(61.051 -84.75)" fill="#ed893e"/>
          <path id="Path_4784" data-name="Path 4784" d="M196.572,140.75a14.1,14.1,0,0,1-2.159-.312.434.434,0,0,1-.332-.516.425.425,0,0,1,.519-.329,11.714,11.714,0,0,0,10.308-2.4.434.434,0,1,1,.608.621A12.152,12.152,0,0,1,196.572,140.75Z" transform="translate(65.837 -77.398)" fill="#263238"/>
          <path id="Path_4785" data-name="Path 4785" d="M220.458,144.511a13.275,13.275,0,0,1-8.476,5.579c-4.582.842-6.455-3.356-4.829-7.46,1.462-3.694,5.607-8.586,10.038-7.571C221.555,136.059,222.845,140.924,220.458,144.511Z" transform="translate(79.91 -79.812)" fill="#ffb573"/>
          <path id="Path_4786" data-name="Path 4786" d="M206.966,130.283a.867.867,0,0,1-.969-.317c-2.359-3.245-7.53-3.209-7.581-3.209a.868.868,0,0,1-.026-1.736c.251,0,6.127-.04,9.012,3.926a.868.868,0,0,1-.191,1.211A.89.89,0,0,1,206.966,130.283Z" transform="translate(69.736 -90.957)" fill="#263238"/>
          <path id="Path_4787" data-name="Path 4787" d="M189.94,124.577a.867.867,0,0,1-.336-1.639,8.616,8.616,0,0,1,7.919-.134.869.869,0,0,1-.865,1.507,6.871,6.871,0,0,0-6.268.174A.869.869,0,0,1,189.94,124.577Z" transform="translate(60.276 -94.451)" fill="#263238"/>
          <path id="Path_4788" data-name="Path 4788" d="M242.274,388.08c-.072-.008-.145-.021-.217-.036a2.473,2.473,0,0,1-1.8-1.613,1.484,1.484,0,0,1,.119-1.49c1.339-1.917,7.957-1.673,8.705-1.639a.412.412,0,0,1,.387.278.431.431,0,0,1-.1.465C247.673,385.686,244.542,388.341,242.274,388.08Zm5.724-3.94c-2.65-.019-6.2.287-6.905,1.3a.618.618,0,0,0-.03.659,1.638,1.638,0,0,0,1.171,1.1C243.471,387.467,245.582,386.315,248,384.139Z" transform="translate(117.657 199.67)" fill="#407bff"/>
          <path id="Path_4789" data-name="Path 4789" d="M247.723,386.788c-2.261-.261-6.285-1.815-6.914-3.6a1.511,1.511,0,0,1,.638-1.785,2.281,2.281,0,0,1,1.875-.44c2.612.5,5.328,5.02,5.443,5.214a.438.438,0,0,1,.006.434.432.432,0,0,1-.37.221A5.68,5.68,0,0,1,247.723,386.788Zm-4.695-5a1.385,1.385,0,0,0-1.052.3c-.442.342-.419.614-.351.81.425,1.209,3.728,2.7,5.936,3.009-.984-1.46-2.848-3.8-4.406-4.093A.924.924,0,0,0,243.028,381.789Z" transform="translate(118.336 197.014)" fill="#407bff"/>
          <path id="Path_4790" data-name="Path 4790" d="M184.942,408.572c-1.821,0-3.5-.283-4.444-1.129a2.4,2.4,0,0,1-.784-2.113,1.392,1.392,0,0,1,.738-1.152c2.249-1.239,9.547,2.5,10.37,2.929a.433.433,0,0,1,.23.446.439.439,0,0,1-.346.366A31.436,31.436,0,0,1,184.942,408.572Zm-3.265-3.792a1.716,1.716,0,0,0-.81.157.534.534,0,0,0-.287.472,1.558,1.558,0,0,0,.5,1.388c1.112,1,4.125,1.175,8.187.5C186.751,406.091,183.412,404.78,181.678,404.78Z" transform="translate(49.665 222.914)" fill="#407bff"/>
          <path id="Path_4791" data-name="Path 4791" d="M188.208,410.2a.435.435,0,0,1-.179-.038c-2.183-.986-6.5-4.939-6.164-7.014.081-.491.427-1.1,1.63-1.224a3.133,3.133,0,0,1,2.4.75c2.3,1.917,2.725,6.848,2.744,7.058a.436.436,0,0,1-.183.389A.466.466,0,0,1,188.208,410.2Zm-4.365-7.428q-.128,0-.261.013c-.793.081-.842.4-.861.5-.2,1.245,2.729,4.353,4.954,5.7-.215-1.435-.822-4.393-2.334-5.651A2.285,2.285,0,0,0,183.842,402.773Z" transform="translate(52.08 220.639)" fill="#407bff"/>
          <path id="Path_4792" data-name="Path 4792" d="M200.153,130.1l-3.243-1.768S198.087,131.434,200.153,130.1Z" transform="translate(69.031 -87.227)" fill="#263238"/>
          <g id="Group_1411" data-name="Group 1411" transform="translate(226.031 213.1)">
            <path id="Path_4793" data-name="Path 4793" d="M255.95,209.818l1.9,6.659c.259.516-.353,1.044-1.211,1.044h-76.57c-.67,0-1.226-.327-1.269-.75l-.669-6.661c-.047-.461.533-.85,1.269-.85h75.34A1.345,1.345,0,0,1,255.95,209.818Z" transform="translate(-178.132 -209.259)" fill="#407bff"/>
            <path id="Path_4794" data-name="Path 4794" d="M255.95,209.818l1.9,6.659c.259.516-.353,1.044-1.211,1.044h-76.57c-.67,0-1.226-.327-1.269-.75l-.669-6.661c-.047-.461.533-.85,1.269-.85h75.34A1.345,1.345,0,0,1,255.95,209.818Z" transform="translate(-178.132 -209.259)" fill="#8d4a32"/>
          </g>
          <g id="Group_1415" data-name="Group 1415" transform="translate(231.913 212.509)">
            <g id="Group_1412" data-name="Group 1412" transform="translate(59.842)">
              <path id="Path_4795" data-name="Path 4795" d="M210.785,218.554H212.8c.4,0,.708-.206.68-.459l-.946-8.652c-.028-.253-.378-.461-.782-.461h-2.017c-.4,0-.708.208-.68.461l.946,8.652C210.03,218.347,210.383,218.554,210.785,218.554Z" transform="translate(-209.055 -208.981)" fill="#da4732"/>
              <path id="Path_4796" data-name="Path 4796" d="M210.785,218.554H212.8c.4,0,.708-.206.68-.459l-.946-8.652c-.028-.253-.378-.461-.782-.461h-2.017c-.4,0-.708.208-.68.461l.946,8.652C210.03,218.347,210.383,218.554,210.785,218.554Z" transform="translate(-209.055 -208.981)" fill="#da4732" opacity="0.4"/>
            </g>
            <g id="Group_1413" data-name="Group 1413">
              <path id="Path_4797" data-name="Path 4797" d="M182.627,218.554h2.019c.4,0,.708-.206.68-.459l-.946-8.652c-.028-.253-.378-.461-.78-.461h-2.019c-.4,0-.708.208-.68.461l.946,8.652C181.872,218.347,182.225,218.554,182.627,218.554Z" transform="translate(-180.899 -208.981)" fill="#da4732"/>
              <path id="Path_4798" data-name="Path 4798" d="M182.627,218.554h2.019c.4,0,.708-.206.68-.459l-.946-8.652c-.028-.253-.378-.461-.78-.461h-2.019c-.4,0-.708.208-.68.461l.946,8.652C181.872,218.347,182.225,218.554,182.627,218.554Z" transform="translate(-180.899 -208.981)" fill="#da4732" opacity="0.4"/>
            </g>
            <g id="Group_1414" data-name="Group 1414" transform="translate(29.795)">
              <path id="Path_4799" data-name="Path 4799" d="M196.648,218.554h2.017c.4,0,.708-.206.68-.459l-.946-8.652c-.028-.253-.38-.461-.782-.461H195.6c-.4,0-.708.208-.68.461l.946,8.652C195.893,218.347,196.244,218.554,196.648,218.554Z" transform="translate(-194.918 -208.981)" fill="#da4732"/>
              <path id="Path_4800" data-name="Path 4800" d="M196.648,218.554h2.017c.4,0,.708-.206.68-.459l-.946-8.652c-.028-.253-.38-.461-.782-.461H195.6c-.4,0-.708.208-.68.461l.946,8.652C195.893,218.347,196.244,218.554,196.648,218.554Z" transform="translate(-194.918 -208.981)" fill="#da4732" opacity="0.4"/>
            </g>
          </g>
          <path id="Path_4801" data-name="Path 4801" d="M202.755,222.837l-18.068-8.074,5.148,17.9s11.471,2.6,16.463-3.148Z" transform="translate(55.276 10.035)" fill="#ffb573"/>
          <path id="Path_4802" data-name="Path 4802" d="M262.381,169.688c.837,6.278,1.486,12.578,2.234,18.865l1.921,18.9c.669,6.3,1.182,12.612,1.772,18.918l.8,9.468.2,2.37c.023.236.094,1.226.113,1.9.023.738-.043,1.471-.089,2.2a20.049,20.049,0,0,1-2.521,7.675,31.916,31.916,0,0,1-8.518,9.32,65.151,65.151,0,0,1-9.094,5.751,127.289,127.289,0,0,1-18.512,7.768c-6.221,2.094-12.465,3.875-18.733,5.46-6.321,1.477-12.544,2.865-19.033,3.864l-2.062-9.046c5.843-1.917,11.834-3.909,17.628-6.13,5.843-2.128,11.6-4.417,17.179-6.944a134.542,134.542,0,0,0,15.9-8.289,51.41,51.41,0,0,0,6.663-4.833,16.345,16.345,0,0,0,4.013-4.8,2.991,2.991,0,0,0,.353-1.313c-.034-.06-.008-.115-.032-.17-.04-.117.011.081-.074-.468l-.342-2.353-1.358-9.409c-.846-6.283-1.773-12.552-2.542-18.841L245.845,190.7c-.691-6.3-1.481-12.584-2.081-18.894Z" transform="translate(62.218 -40.69)" fill="#ffb573"/>
          <path id="Path_4803" data-name="Path 4803" d="M231.229,159.523c7.454,2.266,16.406,27.931,16.406,27.931l-26.08,26.856s-13.381-27.6-10.251-37.241C214.566,167.036,222.723,156.937,231.229,159.523Z" transform="translate(84.695 -52.591)" fill="#ec6635"/>
          <path id="Path_4804" data-name="Path 4804" d="M177.655,218.478l5.12,14.756,14.973-.57-5.148-17.9Z" transform="translate(47.363 10.035)" fill="#ffb573"/>
        </g>
      </g>
    </g>
    <g id="List_of_people" transform="translate(318.414 288.119)">
      <g id="Group_1428" data-name="Group 1428">
        <g id="Group_1420" data-name="Group 1420">
          <g id="Group_1418" data-name="Group 1418" transform="translate(257.004)">
            <path id="Path_4805" data-name="Path 4805" d="M325.2,225.134c4.871-34.952-19.515-63.285-54.464-63.285h255.3c34.949,0,59.334,28.335,54.465,63.285Z" transform="translate(-270.739 -161.849)" fill="#db4833"/>
            <path id="Path_4806" data-name="Path 4806" d="M325.2,225.134c4.871-34.952-19.515-63.285-54.464-63.285h255.3c34.949,0,59.334,28.335,54.465,63.285Z" transform="translate(-270.739 -161.849)" fill="#db4833" opacity="0.7"/>
          </g>
          <path id="Path_4807" data-name="Path 4807" d="M339.8,161.849h255.3c-34.949,0-67.234,28.335-72.1,63.285l-57.712,414.1c-4.871,34.949-37.153,63.283-72.1,63.283H264.451c-34.952,0-59.334-28.333-54.462-63.283l57.712-414.1C272.568,190.182,304.85,161.849,339.8,161.849Z" transform="translate(-80.655 -161.849)" fill="#ec6635"/>
          <g id="Group_1419" data-name="Group 1419" transform="translate(0 477.383)">
            <path id="Path_4808" data-name="Path 4808" d="M405.74,386.462c-4.871,34.949,19.515,63.283,54.464,63.283H204.9c-34.949,0-59.336-28.333-54.464-63.283Z" transform="translate(-149.816 -386.462)" fill="#da4732"/>
            <path id="Path_4809" data-name="Path 4809" d="M405.74,386.462c-4.871,34.949,19.515,63.283,54.464,63.283H204.9c-34.949,0-59.336-28.333-54.464-63.283Z" transform="translate(-149.816 -386.462)" fill="#da4732" opacity="0.7"/>
          </g>
        </g>
        <g id="Group_1421" data-name="Group 1421" transform="translate(289.584 118.351)">
          <path id="Path_4810" data-name="Path 4810" d="M291.9,228.008h98.887a6.239,6.239,0,0,0,5.966-5.237h0a4.463,4.463,0,0,0-4.508-5.237H293.362a6.24,6.24,0,0,0-5.966,5.237h0A4.464,4.464,0,0,0,291.9,228.008Z" transform="translate(-284.63 -217.534)" fill="#fff" opacity="0.4"/>
          <path id="Path_4811" data-name="Path 4811" d="M290.627,237.18h72.662a6.239,6.239,0,0,0,5.966-5.237h0a4.463,4.463,0,0,0-4.506-5.237H292.085a6.241,6.241,0,0,0-5.966,5.237h0A4.463,4.463,0,0,0,290.627,237.18Z" transform="translate(-286.068 -207.212)" fill="#fff" opacity="0.4"/>
        </g>
        <g id="Group_1422" data-name="Group 1422" transform="translate(201.174 98.315)">
          <path id="Path_4812" data-name="Path 4812" d="M244.78,239.686c-2.431,17.441,9.736,31.579,27.177,31.579s33.549-14.138,35.98-31.579-9.736-31.579-27.177-31.579S247.209,222.245,244.78,239.686Z" transform="translate(-244.47 -208.107)" fill="#fff" opacity="0.4"/>
          <path id="Path_4813" data-name="Path 4813" d="M246.354,237.892a26,26,0,0,0,1.537,13.43c3.53,8.788,12.01,14.765,22.729,14.765s20.865-5.977,26.845-14.765a31.536,31.536,0,0,0,5.279-13.43c2.17-15.575-8.693-28.2-24.265-28.2S248.524,222.317,246.354,237.892Z" transform="translate(-242.661 -206.318)" fill="#fff"/>
          <path id="Path_4814" data-name="Path 4814" d="M249.819,231.084c2.708,6.744,9.216,11.328,17.439,11.328s16.008-4.584,20.6-11.328a30.411,30.411,0,0,0-18.214-5.762A38.12,38.12,0,0,0,249.819,231.084Z" transform="translate(-238.451 -188.734)" fill="#263238" opacity="0.4"/>
          <path id="Path_4815" data-name="Path 4815" d="M255.445,224.805a8.191,8.191,0,0,0,8.293,9.636,11.448,11.448,0,0,0,10.98-9.636,8.191,8.191,0,0,0-8.293-9.636A11.443,11.443,0,0,0,255.445,224.805Z" transform="translate(-232.226 -200.16)" fill="#263238" opacity="0.4"/>
        </g>
        <g id="Group_1423" data-name="Group 1423" transform="translate(277.714 203.518)">
          <path id="Path_4816" data-name="Path 4816" d="M286.319,268.08h33.36a6.244,6.244,0,0,0,5.968-5.237h0a4.464,4.464,0,0,0-4.508-5.237H287.78a6.242,6.242,0,0,0-5.968,5.237h0A4.465,4.465,0,0,0,286.319,268.08Z" transform="translate(-279.045 -257.606)" fill="#fff" opacity="0.4"/>
          <path id="Path_4817" data-name="Path 4817" d="M311.486,268.08h47.653a6.241,6.241,0,0,0,5.966-5.237h0a4.463,4.463,0,0,0-4.508-5.237H312.946a6.237,6.237,0,0,0-5.966,5.237h0A4.462,4.462,0,0,0,311.486,268.08Z" transform="translate(-250.722 -257.606)" fill="#fff" opacity="0.4"/>
          <path id="Path_4818" data-name="Path 4818" d="M285.042,277.252h81.69a6.239,6.239,0,0,0,5.966-5.237h0a4.463,4.463,0,0,0-4.508-5.237H286.5a6.241,6.241,0,0,0-5.968,5.237h0A4.464,4.464,0,0,0,285.042,277.252Z" transform="translate(-280.483 -247.284)" fill="#fff" opacity="0.4"/>
        </g>
        <g id="Group_1424" data-name="Group 1424" transform="translate(189.304 183.482)">
          <path id="Path_4819" data-name="Path 4819" d="M239.195,279.758c-2.431,17.441,9.738,31.579,27.179,31.579s33.549-14.138,35.98-31.579-9.738-31.579-27.179-31.579S241.624,262.317,239.195,279.758Z" transform="translate(-238.885 -248.179)" fill="#fff" opacity="0.4"/>
          <path id="Path_4820" data-name="Path 4820" d="M240.769,277.964a26,26,0,0,0,1.537,13.43c3.532,8.788,12.01,14.765,22.731,14.765s20.865-5.977,26.845-14.765a31.535,31.535,0,0,0,5.279-13.43c2.17-15.577-8.691-28.2-24.265-28.2S242.941,262.389,240.769,277.964Z" transform="translate(-237.076 -246.39)" fill="#fff"/>
          <path id="Path_4821" data-name="Path 4821" d="M244.234,271.155c2.71,6.742,9.216,11.328,17.441,11.328s16.008-4.586,20.6-11.328a30.41,30.41,0,0,0-18.214-5.762A38.159,38.159,0,0,0,244.234,271.155Z" transform="translate(-232.866 -228.807)" fill="#263238" opacity="0.4"/>
          <path id="Path_4822" data-name="Path 4822" d="M249.86,264.876a8.191,8.191,0,0,0,8.293,9.636,11.45,11.45,0,0,0,10.98-9.636,8.19,8.19,0,0,0-8.293-9.636A11.446,11.446,0,0,0,249.86,264.876Z" transform="translate(-226.641 -240.233)" fill="#263238" opacity="0.4"/>
        </g>
        <g id="Group_1425" data-name="Group 1425" transform="translate(265.846 288.683)">
          <path id="Path_4823" data-name="Path 4823" d="M280.734,308.151h58.084a6.244,6.244,0,0,0,5.968-5.237h0a4.465,4.465,0,0,0-4.508-5.237H282.194a6.24,6.24,0,0,0-5.966,5.237h0A4.462,4.462,0,0,0,280.734,308.151Z" transform="translate(-273.461 -297.677)" fill="#fff" opacity="0.4"/>
          <path id="Path_4824" data-name="Path 4824" d="M279.456,317.323H370a6.241,6.241,0,0,0,5.966-5.237h0a4.463,4.463,0,0,0-4.508-5.237H280.916a6.239,6.239,0,0,0-5.966,5.237h0A4.463,4.463,0,0,0,279.456,317.323Z" transform="translate(-274.899 -287.355)" fill="#fff" opacity="0.4"/>
        </g>
        <g id="Group_1426" data-name="Group 1426" transform="translate(161.048 59.487)">
          <path id="Path_4825" data-name="Path 4825" d="M233.775,358.6H372.438a8.756,8.756,0,0,0,8.368-7.343h0a6.258,6.258,0,0,0-6.321-7.343H235.822a8.754,8.754,0,0,0-8.368,7.343h0A6.258,6.258,0,0,0,233.775,358.6Z" transform="translate(-223.573 -16.453)" fill="#fff" opacity="0.2"/>
          <path id="Path_4826" data-name="Path 4826" d="M231.982,371.456h101.89a8.754,8.754,0,0,0,8.368-7.343h0a6.258,6.258,0,0,0-6.321-7.343H234.029a8.755,8.755,0,0,0-8.368,7.343h0A6.26,6.26,0,0,0,231.982,371.456Z" transform="translate(-225.591 -1.979)" fill="#fff" opacity="0.2"/>
          <path id="Path_4827" data-name="Path 4827" d="M254.822,197.434H420.141a4.526,4.526,0,0,0,4.327-3.8h0a3.237,3.237,0,0,0-3.269-3.8H255.881a4.526,4.526,0,0,0-4.327,3.8h0A3.237,3.237,0,0,0,254.822,197.434Z" transform="translate(-196.415 -189.838)" fill="#fff" opacity="0.2"/>
        </g>
        <g id="Group_1427" data-name="Group 1427" transform="translate(177.434 268.648)">
          <path id="Path_4828" data-name="Path 4828" d="M233.61,319.829c-2.431,17.441,9.738,31.579,27.179,31.579s33.549-14.138,35.98-31.579-9.736-31.579-27.177-31.579S236.041,302.388,233.61,319.829Z" transform="translate(-233.3 -288.25)" fill="#fff" opacity="0.4"/>
          <path id="Path_4829" data-name="Path 4829" d="M235.185,318.035a26.025,26.025,0,0,0,1.535,13.43c3.532,8.788,12.01,14.765,22.731,14.765s20.865-5.977,26.845-14.765a31.59,31.59,0,0,0,5.279-13.43c2.17-15.575-8.693-28.2-24.265-28.2S237.355,302.46,235.185,318.035Z" transform="translate(-231.49 -286.461)" fill="#fff"/>
          <path id="Path_4830" data-name="Path 4830" d="M238.649,311.227c2.71,6.742,9.216,11.328,17.441,11.328s16.008-4.586,20.6-11.328a30.4,30.4,0,0,0-18.216-5.762A38.133,38.133,0,0,0,238.649,311.227Z" transform="translate(-227.281 -268.877)" fill="#263238" opacity="0.4"/>
          <path id="Path_4831" data-name="Path 4831" d="M244.275,304.948a8.191,8.191,0,0,0,8.293,9.636,11.448,11.448,0,0,0,10.98-9.636,8.191,8.191,0,0,0-8.293-9.636A11.448,11.448,0,0,0,244.275,304.948Z" transform="translate(-221.056 -280.303)" fill="#263238" opacity="0.4"/>
        </g>
      </g>
    </g>
  </g>
</svg>
