<?xml version="1.0" encoding="utf-8"?>
<!-- Generator: Adobe Illustrator 16.0.0, SVG Export Plug-In . SVG Version: 6.00 Build 0)  -->
<!DOCTYPE svg PUBLIC "-//W3C//DTD SVG 1.1//EN" "http://www.w3.org/Graphics/SVG/1.1/DTD/svg11.dtd">
<svg version="1.1" id="Layer_1" xmlns="http://www.w3.org/2000/svg" xmlns:xlink="http://www.w3.org/1999/xlink" x="0px" y="0px"
	 width="727.044px" height="542.55px" viewBox="0 0 727.044 542.55" enable-background="new 0 0 727.044 542.55"
	 xml:space="preserve">
<g>
	<g>
		<g>
			<g>
				<path fill="#FFFFFF" d="M198.949,296.545c-0.351-31.68-34.312-29.678-34.312-29.678c-0.054,0-5.098,0-21.566,0v-0.012
					c-5,0.012-12.437-0.104-17.531-0.104c-11.517,0-11.268-8.27-11.268-8.27v-45.956c-3.635,0.253-8.517-1.123-18.723,3.976
					c-12.154,6.078-13.088,20.567-13.088,20.567s0.129,10.268,0.377,32.81c0.353,31.681,34.313,29.678,34.313,29.678
					c0.053,0,5.096,0,21.568,0v0.012c5.002-0.012,12.438,0.106,17.531,0.106c11.521,0,11.27,8.265,11.27,8.265v45.957
					c3.633-0.25,8.518,1.123,18.723-3.975c12.154-6.075,13.078-20.568,13.078-20.568S199.198,319.084,198.949,296.545z"/>
				<path fill="#FFFFFF" d="M117.151,191.866c0,10.576-8.584,19.159-19.158,19.159c-10.582,0-19.162-8.583-19.162-19.159
					c0-10.584,8.58-19.16,19.162-19.16C108.567,172.706,117.151,181.282,117.151,191.866z"/>
				<path fill="#FFFFFF" d="M122.361,194.685c6.192-1.34,12.613-2.07,19.206-2.07c5.537,0,10.957,0.51,16.216,1.467v-15.242
					c-5.284-0.82-10.7-1.246-16.216-1.246c-7.592,0-14.994,0.82-22.131,2.348c1.967,3.528,3.098,7.598,3.098,11.926
					C122.534,192.817,122.466,193.758,122.361,194.685z"/>
				<path fill="#FFFFFF" d="M83.718,287.853v64.056c-19.746-16.536-32.307-41.365-32.307-69.132
					c0-28.345,13.088-53.621,33.54-70.146c-4.319-2.715-7.735-6.725-9.683-11.498c-23.72,19.279-38.885,48.687-38.885,81.645
					c0,48.988,33.49,90.15,78.822,101.852v-81.299C109.568,303.217,92.13,301.706,83.718,287.853z"/>
				<path fill="#FFFFFF" d="M164.546,180.135v82.975c0.203-0.007,0.644-0.025,1.281-0.025c4.221,0,20.092,0.779,29.584,11.808
					v-64.434c22.041,16.435,36.314,42.707,36.314,72.318c0,49.79-40.363,90.156-90.158,90.156c-6.731,0-13.29-0.754-19.595-2.15
					v15.326c6.35,1.193,12.896,1.854,19.595,1.854c58.09,0,105.188-47.093,105.188-105.186
					C246.755,232.576,211.584,190.621,164.546,180.135z"/>
			</g>
			<path fill="#FFFFFF" d="M199.206,318.999c-11.404-20.006-39.6-19.133-39.6-19.133l-0.022,0.094
				c8.112,1.43,7.937,7.979,7.937,7.979v45.957c3.633-0.25,8.518,1.123,18.723-3.975c12.154-6.075,13.078-20.568,13.078-20.568
				S199.28,326.017,199.206,318.999z M114.272,258.481v-45.956c-3.635,0.253-8.517-1.123-18.723,3.976
				c-9.441,4.717-12.1,14.484-12.82,18.623c0.897,11.215,7.231,29.136,37.958,30.986
				C114.122,264.182,114.272,258.481,114.272,258.481z"/>
		</g>
		<g opacity="0.4">
			<path fill="#FFFFFF" d="M97.993,208.015c8.908,0,16.148-7.243,16.148-16.148c0-8.912-7.24-16.152-16.148-16.152
				c-8.912,0-16.15,7.24-16.15,16.152C81.843,200.771,89.081,208.015,97.993,208.015z"/>
			<path fill="#FFFFFF" d="M195.755,196.271c-8.789-5.567-18.256-9.695-28.201-12.313v37.788
				C176.522,212.923,185.985,204.376,195.755,196.271z"/>
			<path fill="#FFFFFF" d="M74.288,205.887c-22.215,19.439-34.901,47.304-34.901,76.89c0,32.836,15.673,63.495,42.1,82.698
				c0.653-3.212,1.396-6.433,2.22-9.649l-1.92-1.61c-21.213-17.769-33.379-43.811-33.379-71.438
				c0-26.926,11.515-52.275,31.691-69.986C77.791,210.813,75.827,208.487,74.288,205.887z"/>
			<path fill="#FFFFFF" d="M119.845,268.992c-0.512-0.146-0.988-0.317-1.441-0.501c-5.777-2.378-6.881-7.173-7.086-9.129
				l-0.045-0.67l-0.01-43.149c-3.274-0.042-7.543,0.235-14.369,3.646c-0.529,0.265-1.082,0.586-1.688,0.969l-0.475,0.324
				c-0.367,0.244-0.723,0.51-1.068,0.784c-0.194,0.151-0.318,0.249-0.432,0.351c-0.391,0.328-0.748,0.658-1.092,0.995l-0.256,0.243
				c-0.381,0.391-0.771,0.826-1.137,1.277l-0.139,0.183c-0.33,0.411-0.609,0.794-0.874,1.183l-0.255,0.371
				c-0.231,0.354-0.462,0.732-0.686,1.105l-0.176,0.305c-0.484,0.877-0.939,1.818-1.326,2.787l-0.096,0.239
				c-0.168,0.431-0.287,0.764-0.4,1.093l-0.146,0.425c-0.096,0.294-0.194,0.605-0.28,0.906l-0.065,0.218
				c-0.123,0.453-0.211,0.805-0.293,1.134l-0.326,1.584c-0.16,0.914-0.209,1.536-0.22,1.627h-0.032
				c0.045,0.523,0.055,1.122,0.061,1.764l0.356,30.792c0.198,18.031,12.243,24.173,22.927,26.059
				c5.07-8.723,10.811-17.499,17.094-26.153C123.63,269.756,121.675,269.53,119.845,268.992z"/>
			<path fill="#FFFFFF" d="M154.776,190.552v-9.109c-10.266-1.318-20.831-1.074-31.007,0.719c1.064,2.821,1.661,5.83,1.761,8.848
				C135.175,189.331,145.099,189.175,154.776,190.552z"/>
			<path fill="#FFFFFF" d="M86.72,296.169v49.099c4.236-13.501,9.953-27.028,17.097-40.443
				C98.358,303.483,91.987,300.95,86.72,296.169z"/>
		</g>
	</g>
</g>
<g>
	<g>
		<path fill="#FFFFFF" d="M402.2,253.169h-69.907v-54.084h-17.611v131.411h17.611v-61.861H402.2v61.861h17.61V199.085H402.2V253.169
			z M263.194,330.496h17.61V199.085h-17.61V330.496z M668.948,283.475c-1.848,10.727-6.317,19.206-13.409,25.433
			c-7.093,6.229-15.525,9.342-25.299,9.342c-11.86,0-21.917-4.648-30.171-13.945c-8.255-9.298-12.381-22.379-12.381-39.245
			c0-11.383,1.922-21.111,5.766-29.188c3.845-8.075,9.059-14.183,15.645-18.326c6.584-4.142,14.169-6.213,22.751-6.213
			c6.556,0,12.396,1.252,17.521,3.755c5.125,2.503,9.297,5.931,12.516,10.28c2.383,3.219,4.38,7.45,5.989,12.694h17.164
			c-1.133-7.807-3.457-14.422-6.973-19.846c-4.948-7.51-11.519-13.126-19.712-16.852c-8.195-3.724-17.18-5.587-26.953-5.587
			c-12.099,0-22.9,2.771-32.405,8.313c-9.507,5.543-16.732,13.753-21.679,24.629c-4.947,10.877-7.42,23.287-7.42,37.233
			c0,10.847,1.609,20.859,4.827,30.036c2.325,6.615,5.796,12.726,10.415,18.326c4.618,5.603,10.563,10.251,17.834,13.945
			c7.271,3.695,16.121,5.543,26.551,5.543c8.164,0,15.301-1.178,21.41-3.531c6.108-2.354,11.636-5.735,16.583-10.146
			c4.946-4.409,8.984-9.595,12.113-15.555c3.128-5.959,5.229-12.991,6.302-21.097H668.948z M515.282,258.533l-26.193-6.437
			c-8.999-2.204-14.974-4.813-17.924-7.822c-2.949-3.009-4.425-6.778-4.425-11.309c0-3.813,1.073-7.434,3.219-10.861
			c2.146-3.427,5.497-6.079,10.057-7.956c4.559-1.878,10.265-2.816,17.119-2.816c10.25,0,18.103,2.311,23.556,6.929
			c5.453,4.619,8.537,11.1,9.252,19.443h16.449c-0.239-8.819-2.146-16.271-5.722-22.35c-3.575-6.078-9.178-10.861-16.806-14.348
			c-7.63-3.486-16.42-5.229-26.372-5.229c-9.596,0-17.983,1.595-25.165,4.782c-7.182,3.189-12.649,7.838-16.403,13.946
			c-3.755,6.109-5.632,12.888-5.632,20.337c0,8.166,2.458,14.989,7.375,20.472c4.916,5.484,13.633,9.805,26.147,12.963l23.422,5.811
			c8.998,2.266,15.45,4.932,19.354,8.001c3.902,3.07,5.855,7.674,5.855,13.812c0,3.993-1.028,7.569-3.085,10.728
			c-2.056,3.159-5.229,5.691-9.521,7.599c-5.841,2.682-12.962,4.022-21.365,4.022c-6.854,0-12.636-0.997-17.343-2.995
			c-4.708-1.996-8.447-4.425-11.219-7.285c-2.771-2.861-4.783-6.169-6.034-9.923c-0.836-2.563-1.341-5.959-1.52-10.191h-16.449
			c-0.06,8.046,1.221,14.929,3.844,20.65c3.695,8.105,9.595,14.348,17.7,18.729c8.104,4.38,18.206,6.57,30.306,6.57
			c12.216,0,22.646-2.026,31.288-6.079c7.031-3.218,12.321-7.702,15.867-13.454c3.546-5.75,5.319-12.41,5.319-19.979
			c0-8.819-2.413-16.149-7.241-21.991C538.167,266.46,528.929,261.871,515.282,258.533z"/>
	</g>
</g>
<g>
	<g>
		<path fill="#FFFFFF" d="M369.749,359.738h11.646v-2.477h-11.646v-6.535h12.61v-2.477h-15.446v21.162h15.648v-2.49h-12.813V359.738
			z M354.493,369.412h2.836V348.25h-2.836V369.412z M430.701,369.412h2.836V348.25h-2.836V369.412z M406.072,350.776
			c-0.897-0.945-1.864-1.603-2.901-1.972c-1.036-0.369-2.231-0.555-3.584-0.555h-8.292v21.162h8.191
			c1.285,0,2.351-0.144,3.195-0.432c1.219-0.423,2.184-0.975,2.894-1.655c0.931-0.912,1.689-2.129,2.274-3.649
			c0.586-1.521,0.878-3.237,0.878-5.146c0-1.661-0.218-3.132-0.654-4.413C407.636,352.835,406.97,351.722,406.072,350.776z
			 M405.402,362.286c-0.307,1.056-0.7,1.905-1.181,2.548c-0.354,0.48-0.809,0.878-1.36,1.195c-0.552,0.316-1.11,0.547-1.677,0.69
			c-0.566,0.135-1.252,0.202-2.059,0.202h-4.995v-16.195h4.995c1.151,0,2.111,0.146,2.879,0.438
			c0.768,0.293,1.438,0.754,2.009,1.382c0.57,0.629,1.021,1.464,1.353,2.505c0.331,1.042,0.497,2.263,0.497,3.664
			C405.863,360.04,405.71,361.23,405.402,362.286z M265.92,348.25l-7.961,21.162h3.037l2.274-6.392h8.249l2.274,6.392h3.038
			l-7.673-21.162H265.92z M264.063,360.717l3.325-9.371l3.34,9.371H264.063z M335.726,348.25h-2.836v21.162h13.575v-2.49h-10.739
			V348.25z M317.419,348.25h-8.911v21.162h2.836v-8.781h6.075c2.217,0,3.814-0.423,4.793-1.267c1.325-1.143,1.987-2.808,1.987-4.996
			c0-1.948-0.56-3.455-1.678-4.521C321.403,348.783,319.702,348.25,317.419,348.25z M320.881,356.527
			c-0.303,0.586-0.741,1.004-1.317,1.253c-0.566,0.24-1.382,0.36-2.447,0.36h-5.772v-7.414h5.772c1.497,0,2.574,0.307,3.231,0.921
			c0.658,0.614,0.986,1.521,0.986,2.721C321.334,355.223,321.183,355.942,320.881,356.527z M293.037,348.25h-8.911v21.162h2.836
			v-8.781h6.075c2.217,0,3.814-0.423,4.793-1.267c1.325-1.143,1.987-2.808,1.987-4.996c0-1.948-0.56-3.455-1.678-4.521
			C297.021,348.783,295.32,348.25,293.037,348.25z M296.499,356.527c-0.303,0.586-0.741,1.004-1.317,1.253
			c-0.566,0.24-1.382,0.36-2.447,0.36h-5.772v-7.414h5.772c1.497,0,2.574,0.307,3.231,0.921c0.658,0.614,0.986,1.521,0.986,2.721
			C296.952,355.223,296.801,355.942,296.499,356.527z M636.348,365.381l-10.682-17.131h-3.383v21.162h2.735v-17.131l10.84,17.131
			h3.21V348.25h-2.721V365.381z M600.68,359.738h11.646v-2.477H600.68v-6.535h12.61v-2.477h-15.446v21.162h15.648v-2.49H600.68
			V359.738z M457.242,365.381l-10.682-17.131h-3.383v21.162h2.735v-17.131l10.84,17.131h3.21V348.25h-2.721V365.381z
			 M660.989,365.936c-1.143,1.003-2.501,1.504-4.074,1.504c-1.91,0-3.529-0.748-4.858-2.245c-1.33-1.497-1.994-3.604-1.994-6.32
			c0-1.833,0.31-3.399,0.929-4.7c0.619-1.3,1.458-2.284,2.519-2.951s2.282-1,3.664-1c1.056,0,1.996,0.201,2.821,0.604
			s1.497,0.955,2.016,1.655c0.384,0.519,0.706,1.2,0.965,2.044h2.764c-0.183-1.257-0.557-2.322-1.123-3.195
			c-0.796-1.209-1.854-2.114-3.174-2.714s-2.767-0.899-4.341-0.899c-1.948,0-3.688,0.446-5.218,1.339
			c-1.531,0.893-2.695,2.215-3.491,3.966c-0.797,1.752-1.195,3.75-1.195,5.996c0,1.747,0.26,3.359,0.777,4.837
			c0.375,1.065,0.934,2.049,1.678,2.951c0.743,0.902,1.7,1.65,2.872,2.245c1.171,0.596,2.596,0.893,4.275,0.893
			c1.314,0,2.464-0.189,3.447-0.568c0.984-0.379,1.874-0.924,2.671-1.634c0.796-0.71,1.446-1.545,1.95-2.505
			s0.843-2.092,1.016-3.397h-2.735C662.851,363.567,662.131,364.933,660.989,365.936z M579.465,360.473h6.622
			c-0.01,1.132-0.135,2.075-0.374,2.828c-0.24,0.754-0.626,1.439-1.159,2.059c-0.532,0.619-1.219,1.121-2.059,1.505
			s-1.845,0.575-3.016,0.575c-2.39,0-4.185-0.808-5.384-2.425c-1.2-1.617-1.8-3.587-1.8-5.91c0-2.342,0.547-4.343,1.641-6.003
			c1.276-1.919,3.168-2.879,5.673-2.879c1.074,0,2.051,0.191,2.929,0.575c0.879,0.385,1.586,0.95,2.124,1.699
			c0.422,0.566,0.729,1.291,0.921,2.174h2.822c-0.375-2.39-1.526-4.204-3.455-5.441c-1.564-1.008-3.364-1.512-5.398-1.512
			c-1.892,0-3.621,0.46-5.19,1.382c-1.568,0.921-2.783,2.227-3.642,3.916c-0.859,1.688-1.289,3.651-1.289,5.888
			c0,2.332,0.42,4.34,1.26,6.024s1.979,2.941,3.419,3.771s3.096,1.245,4.967,1.245c1.219,0,2.304-0.168,3.254-0.504
			c0.95-0.335,1.766-0.768,2.447-1.295c0.441-0.336,0.926-0.825,1.454-1.469l0.676,2.735h1.843v-11.329h-9.285V360.473z
			 M677.079,366.922v-7.184h11.646v-2.477h-11.646v-6.535h12.61v-2.477h-15.446v21.162h15.648v-2.49H677.079z M493.511,359.738
			h11.646v-2.477h-11.646v-6.535h12.61v-2.477h-15.446v21.162h15.648v-2.49h-12.813V359.738z M557.774,369.412h2.836V348.25h-2.836
			V369.412z M466.163,350.727h7.197v18.686h2.836v-18.686h7.184v-2.477h-17.217V350.727z M539.007,348.25h-2.836v21.162h13.575
			v-2.49h-10.739V348.25z M517.893,348.25h-2.836v21.162h13.575v-2.49h-10.739V348.25z"/>
	</g>
</g>
</svg>
