<svg id="support" xmlns="http://www.w3.org/2000/svg" xmlns:xlink="http://www.w3.org/1999/xlink" width="60.835" height="67.712" viewBox="0 0 60.835 67.712">
  <defs>
    <linearGradient id="linear-gradient" x1="0.63" y1="1" x2="0.633" gradientUnits="objectBoundingBox">
      <stop offset="0" stop-color="#f37135"/>
      <stop offset="1" stop-color="#cd3033"/>
    </linearGradient>
  </defs>
  <g id="Group_447" data-name="Group 447" transform="translate(43.643 52.371)">
    <g id="Group_446" data-name="Group 446">
      <path id="Path_4379" data-name="Path 4379" d="M357.323,396a1.323,1.323,0,1,0,1.323,1.323A1.323,1.323,0,0,0,357.323,396Z" transform="translate(-356 -396)" fill="url(#linear-gradient)"/>
    </g>
  </g>
  <g id="Group_449" data-name="Group 449" transform="translate(0)">
    <g id="Group_448" data-name="Group 448">
      <path id="Path_4380" data-name="Path 4380" d="M74.222,48.095,67.936,46l-2.257-4.513a14.485,14.485,0,0,0,3.92-7.663l.281-1.687h2.407a3.972,3.972,0,0,0,3.968-3.968V19.838a19.838,19.838,0,1,0-39.675,0v8.332a3.974,3.974,0,0,0,2.645,3.74v1.55a3.972,3.972,0,0,0,3.968,3.968h1.161a14.347,14.347,0,0,0,2.218,3.435c.187.215.383.424.583.627L44.9,46l-6.286,2.095C31.3,50.532,26,58.226,26,66.39a1.322,1.322,0,0,0,1.323,1.323h58.19a1.323,1.323,0,0,0,1.323-1.323C86.835,58.226,81.531,50.532,74.222,48.095ZM73.61,28.169a1.324,1.324,0,0,1-1.323,1.323H70.269c.336-2.6.56-5.375.65-8.1,0-.077,0-.152.007-.227H73.61ZM40.548,29.492a1.324,1.324,0,0,1-1.323-1.323V21.16H41.91q.007.207.014.416s0,.009,0,.014h0c.093,2.655.314,5.354.642,7.9H40.548Zm2.645,5.29a1.324,1.324,0,0,1-1.323-1.323V32.137h1.084l.281,1.687c.054.321.12.64.2.958Zm-1.32-16.267h-2.6a17.193,17.193,0,0,1,34.285,0h-2.6A13.4,13.4,0,0,0,57.6,5.29H55.234A13.4,13.4,0,0,0,41.872,18.515ZM55.234,7.935H57.6A10.754,10.754,0,0,1,68.32,18.7c0,.416,0,.779-.01,1.108,0,0,0,.009,0,.013l-1.654-.236a21.251,21.251,0,0,1-11.948-5.974,1.323,1.323,0,0,0-.935-.387,11.965,11.965,0,0,0-9.2,4.352A10.75,10.75,0,0,1,55.234,7.935ZM46.174,34.782a75.593,75.593,0,0,1-1.587-12.835l1.78-2.373a9.309,9.309,0,0,1,6.884-3.688A23.921,23.921,0,0,0,66.282,22.2l1.947.278c-.13,2.762-.4,5.534-.777,8.083v0c-.121.82-.217,1.347-.46,2.82a11.233,11.233,0,0,1-7.973,9.034,10.405,10.405,0,0,1-11.681-5h2.7a3.974,3.974,0,0,0,3.74,2.645h2.645a3.968,3.968,0,1,0,0-7.935H53.773a3.969,3.969,0,0,0-3.742,2.645ZM53.661,45.1a13.265,13.265,0,0,0,4.919.111l-2.337,2.471Zm.764,4.5L50.231,54.04a50.389,50.389,0,0,1-2.961-6.866l1.575-3.15Zm9.341-6.029,1.8,3.6A50.376,50.376,0,0,1,62.6,54.042l-4.49-4.49ZM52.45,36.1a1.323,1.323,0,0,1,1.323-1.323h2.645a1.323,1.323,0,1,1,0,2.645H53.773A1.324,1.324,0,0,1,52.45,36.1ZM28.7,65.067c.524-6.552,4.884-12.507,10.752-14.463l5.567-1.855a53.014,53.014,0,0,0,3.764,8.165l.007.013h0a53.029,53.029,0,0,0,3.62,5.528l1.627,2.612Zm27.72-1.179-1.794-2.879q-.03-.048-.064-.094a50.424,50.424,0,0,1-2.98-4.452L56.3,51.475l4.97,4.97a50.37,50.37,0,0,1-2.99,4.47C58.211,61,58.3,60.865,56.418,63.889ZM58.8,65.067l1.627-2.612a53.008,53.008,0,0,0,3.645-5.572l.019-.035,0,0a52.972,52.972,0,0,0,3.725-8.1L73.385,50.6c5.868,1.957,10.228,7.912,10.752,14.463H58.8Z" transform="translate(-26)" fill="url(#linear-gradient)"/>
    </g>
  </g>
  <g id="Group_451" data-name="Group 451" transform="translate(48.29 54.896)">
    <g id="Group_450" data-name="Group 450">
      <path id="Path_4381" data-name="Path 4381" d="M397.012,419.908a13.223,13.223,0,0,0-3.744-4.545,1.323,1.323,0,1,0-1.613,2.1,10.562,10.562,0,0,1,2.99,3.631,1.323,1.323,0,0,0,2.366-1.182Z" transform="translate(-391.139 -415.088)" fill="url(#linear-gradient)"/>
    </g>
  </g>
</svg>
