<svg xmlns="http://www.w3.org/2000/svg" xmlns:xlink="http://www.w3.org/1999/xlink" width="1251" height="221" viewBox="0 0 1251 221">
  <defs>
    <filter id="Ellipse_142" x="0" y="0" width="221" height="221" filterUnits="userSpaceOnUse">
      <feOffset dy="3" input="SourceAlpha"/>
      <feGaussianBlur stdDeviation="3" result="blur"/>
      <feFlood flood-opacity="0.161"/>
      <feComposite operator="in" in2="blur"/>
      <feComposite in="SourceGraphic"/>
    </filter>
    <filter id="Ellipse_143" x="515" y="0" width="221" height="221" filterUnits="userSpaceOnUse">
      <feOffset dy="3" input="SourceAlpha"/>
      <feGaussianBlur stdDeviation="3" result="blur-2"/>
      <feFlood flood-opacity="0.161"/>
      <feComposite operator="in" in2="blur-2"/>
      <feComposite in="SourceGraphic"/>
    </filter>
    <filter id="Ellipse_144" x="1030" y="0" width="221" height="221" filterUnits="userSpaceOnUse">
      <feOffset dy="3" input="SourceAlpha"/>
      <feGaussianBlur stdDeviation="3" result="blur-3"/>
      <feFlood flood-opacity="0.161"/>
      <feComposite operator="in" in2="blur-3"/>
      <feComposite in="SourceGraphic"/>
    </filter>
    <linearGradient id="linear-gradient" x1="0.63" y1="1" x2="0.633" gradientUnits="objectBoundingBox">
      <stop offset="0" stop-color="#f37135"/>
      <stop offset="1" stop-color="#cd3033"/>
    </linearGradient>
  </defs>
  <g id="Group_3713" data-name="Group 3713" transform="translate(-335 -2144)">
    <g id="Group_3712" data-name="Group 3712">
      <path id="Path_4834" data-name="Path 4834" d="M4274,2506.5s242.01-178.7,534.2,0,499.313-72.811,499.313-72.811" transform="translate(-3830.5 -250)" fill="none" stroke="#979797" stroke-width="2" stroke-dasharray="6"/>
      <g transform="matrix(1, 0, 0, 1, 335, 2144)" filter="url(#Ellipse_142)">
        <circle id="Ellipse_142-2" data-name="Ellipse 142" cx="101.5" cy="101.5" r="101.5" transform="translate(9 6)" fill="#fff"/>
      </g>
      <g transform="matrix(1, 0, 0, 1, 335, 2144)" filter="url(#Ellipse_143)">
        <circle id="Ellipse_143-2" data-name="Ellipse 143" cx="101.5" cy="101.5" r="101.5" transform="translate(524 6)" fill="#fff"/>
      </g>
      <g transform="matrix(1, 0, 0, 1, 335, 2144)" filter="url(#Ellipse_144)">
        <circle id="Ellipse_144-2" data-name="Ellipse 144" cx="101.5" cy="101.5" r="101.5" transform="translate(1039 6)" fill="#fff"/>
      </g>
      <path id="Polygon_1" data-name="Polygon 1" d="M15.385,4.648a3,3,0,0,1,5.229,0l12.87,22.881A3,3,0,0,1,30.87,32H5.13a3,3,0,0,1-2.615-4.471Z" transform="matrix(-0.035, 0.999, -0.999, -0.035, 730.619, 2159.569)" fill="url(#linear-gradient)"/>
      <path id="Polygon_2" data-name="Polygon 2" d="M15.385,4.648a3,3,0,0,1,5.229,0l12.87,22.881A3,3,0,0,1,30.87,32H5.13a3,3,0,0,1-2.615-4.471Z" transform="matrix(0.087, 0.996, -0.996, 0.087, 1218.461, 2302.757)" fill="url(#linear-gradient)"/>
      <g id="account" transform="translate(398 2195)">
        <g id="Group_1430" data-name="Group 1430" transform="translate(0 0)">
          <g id="Group_1429" data-name="Group 1429">
            <path id="Path_4835" data-name="Path 4835" d="M134.328,23.034,89.226.256A2.191,2.191,0,0,0,88.2,0h-.047a2.189,2.189,0,0,0-1.022.256l-45.1,22.779A2.2,2.2,0,0,0,40.825,25v41.22A31.054,31.054,0,0,0,48.213,86.98c4.6,5.5,10.808,9.506,16.271,12.7,11.266,6.6,22.525,12.673,22.637,12.734a2.2,2.2,0,0,0,1.045.264h.03a2.2,2.2,0,0,0,1.045-.264c.112-.061,11.371-6.139,22.637-12.734a2.2,2.2,0,1,0-2.224-3.8c-9.225,5.4-18.448,10.454-21.473,12.1-3.025-1.646-12.245-6.7-21.473-12.1C56.314,89.8,45.227,81.99,45.227,66.219V26.353L88.181,4.659l42.954,21.694V66.219a26.92,26.92,0,0,1-8.543,20.3,2.2,2.2,0,1,0,3.092,3.132,31.464,31.464,0,0,0,9.852-23.429V25A2.2,2.2,0,0,0,134.328,23.034Z" transform="translate(-40.825 0)" fill="url(#linear-gradient)"/>
          </g>
        </g>
        <g id="Group_1432" data-name="Group 1432" transform="translate(8.803 9.855)">
          <g id="Group_1431" data-name="Group 1431">
            <path id="Path_4836" data-name="Path 4836" d="M157.93,65.339a2.2,2.2,0,0,0-1.209-1.964l-36.352-18.36a2.2,2.2,0,0,0-1.984,0L82.034,63.374a2.2,2.2,0,0,0-1.209,1.964v35.8a22.633,22.633,0,0,0,5.287,15.029c2.968,3.584,7.16,6.825,14.016,10.839s13.668,7.812,18.188,10.3a2.2,2.2,0,0,0,2.122,0c4.52-2.487,11.345-6.293,18.189-10.3s11.048-7.255,14.016-10.839a22.633,22.633,0,0,0,5.287-15.029v-35.8Zm-4.4,35.8c0,10.124-6.019,15.567-17.125,22.069-6.286,3.68-12.561,7.192-17.026,9.657-4.465-2.465-10.74-5.977-17.026-9.657-11.107-6.5-17.125-11.944-17.125-22.069V66.693l34.151-17.248,34.151,17.248Z" transform="translate(-80.825 -44.778)" fill="url(#linear-gradient)"/>
          </g>
        </g>
        <g id="Group_1434" data-name="Group 1434" transform="translate(24.907 23.901)">
          <g id="Group_1433" data-name="Group 1433">
            <path id="Path_4837" data-name="Path 4837" d="M188.622,141.455l-3.607-.789a2.218,2.218,0,0,1-1.621-1.468,12.319,12.319,0,0,0,5.377-10.173v-8.1a12.324,12.324,0,1,0-24.649,0v8.1a12.318,12.318,0,0,0,5.337,10.145,2.221,2.221,0,0,1-1.631,1.5l-3.566.782A13.065,13.065,0,0,0,154,154.212v6.637a2.2,2.2,0,0,0,2.2,2.2h40.495a2.2,2.2,0,0,0,2.2-2.2v-6.631A13.142,13.142,0,0,0,188.622,141.455Zm-20.1-20.529a7.922,7.922,0,0,1,15.335-2.8l-.153.153a15.153,15.153,0,0,1-10.785,4.467h-4.4Zm0,8.1v-1.873h4.4a19.5,19.5,0,0,0,11.449-3.679v5.552a7.923,7.923,0,1,1-15.846,0Zm12.5,14.345a8.145,8.145,0,0,1-9.183-.019,6.706,6.706,0,0,0,1.636-2.365,12.286,12.286,0,0,0,5.892.011A6.7,6.7,0,0,0,181.025,143.371Zm13.469,15.277H158.4v-4.436a8.715,8.715,0,0,1,6.806-8.461l2.175-.477a2.205,2.205,0,0,0,.208.244,12.541,12.541,0,0,0,17.716,0,2.178,2.178,0,0,0,.2-.237l2.174.475a8.714,8.714,0,0,1,6.812,8.463Z" transform="translate(-153.999 -108.602)" fill="url(#linear-gradient)"/>
          </g>
        </g>
        <g id="Group_1436" data-name="Group 1436" transform="translate(74.804 91.089)">
          <g id="Group_1435" data-name="Group 1435">
            <path id="Path_4838" data-name="Path 4838" d="M384.473,414.535a2.194,2.194,0,1,0,.647,1.556A2.213,2.213,0,0,0,384.473,414.535Z" transform="translate(-380.719 -413.89)" fill="url(#linear-gradient)"/>
          </g>
        </g>
        <g id="Group_1438" data-name="Group 1438" transform="translate(17.607 34.984)">
          <g id="Group_1437" data-name="Group 1437">
            <path id="Path_4839" data-name="Path 4839" d="M124.587,159.6a2.2,2.2,0,1,0,.645,1.556A2.218,2.218,0,0,0,124.587,159.6Z" transform="translate(-120.83 -158.96)" fill="url(#linear-gradient)"/>
          </g>
        </g>
        <g id="Group_1440" data-name="Group 1440" transform="translate(17.606 42.342)">
          <g id="Group_1439" data-name="Group 1439">
            <path id="Path_4840" data-name="Path 4840" d="M123.025,192.391a2.2,2.2,0,0,0-2.2,2.2v11.8a2.2,2.2,0,1,0,4.4,0v-11.8A2.2,2.2,0,0,0,123.025,192.391Z" transform="translate(-120.824 -192.391)" fill="url(#linear-gradient)"/>
          </g>
        </g>
      </g>
      <g id="search" transform="translate(905 2202)">
        <g id="Group_1442" data-name="Group 1442" transform="translate(0 0)">
          <g id="Group_1441" data-name="Group 1441">
            <path id="Path_4841" data-name="Path 4841" d="M294.4,125.13h34.13a1.635,1.635,0,0,0,0-3.269H294.4a1.635,1.635,0,1,0,0,3.269Z" transform="translate(-229.063 -101.091)" fill="url(#linear-gradient)"/>
            <path id="Path_4842" data-name="Path 4842" d="M330.164,171.328a1.634,1.634,0,0,0-1.634-1.635H294.4a1.635,1.635,0,1,0,0,3.269h34.13A1.634,1.634,0,0,0,330.164,171.328Z" transform="translate(-229.063 -138.515)" fill="url(#linear-gradient)"/>
            <path id="Path_4843" data-name="Path 4843" d="M309.525,217.525H294.4a1.635,1.635,0,0,0,0,3.269h15.126a1.635,1.635,0,1,0,0-3.269Z" transform="translate(-229.063 -175.94)" fill="url(#linear-gradient)"/>
            <path id="Path_4844" data-name="Path 4844" d="M103.026,31.112h-58.1A29.075,29.075,0,0,0,8.5,76.038c.288.288.584.567.883.842V93.771a8.388,8.388,0,0,0,8.378,8.378H49.288l-2.247,9.7H44.369a10.775,10.775,0,0,0-10.763,10.763,3.708,3.708,0,0,0,3.7,3.7H83.479a3.708,3.708,0,0,0,3.7-3.7A10.775,10.775,0,0,0,76.42,111.851H73.747l-2.247-9.7h31.525a8.388,8.388,0,0,0,8.378-8.378V39.49A8.388,8.388,0,0,0,103.026,31.112ZM29.033,29.67c21.538,0,33.657,24.918,20.289,41.8a25.819,25.819,0,0,1-38.508,2.254C-5.437,57.474,6.24,29.67,29.033,29.67ZM51.891,82.831,56.42,78.3l.021-.021a.355.355,0,0,1,.5,0L70.5,91.841a3.586,3.586,0,1,1-5.072,5.072L51.87,83.354a.355.355,0,0,1,0-.5l.02-.02h0Zm-1.156-3.467-2.247-2.247A29.751,29.751,0,0,0,50.7,74.9l2.247,2.247Zm-21.7,5.186a29.157,29.157,0,0,0,16.887-5.377l2.771,2.771a3.625,3.625,0,0,0,.866,3.722L51.6,87.709H12.654V79.48A28.9,28.9,0,0,0,29.034,84.55ZM12.654,93.771V90.978H54.871l7.9,7.9H17.764a5.115,5.115,0,0,1-5.109-5.109Zm71.26,28.843a.435.435,0,0,1-.435.435H37.31a.435.435,0,0,1-.435-.435,7.5,7.5,0,0,1,7.494-7.494H76.42A7.5,7.5,0,0,1,83.914,122.614ZM70.392,111.851H50.4l2.247-9.7h15.5ZM103.026,98.88H73.133a6.869,6.869,0,0,0,.785-7.9H84.6a1.635,1.635,0,0,0,0-3.269h-13.6L59.254,75.971A3.614,3.614,0,0,0,55.53,75.1l-2.768-2.768a29.061,29.061,0,0,0-3.137-37.419c-.181-.181-.366-.357-.552-.533h53.951a5.115,5.115,0,0,1,5.109,5.109V87.709h-16.5a1.635,1.635,0,0,0,0,3.269h16.5v2.793a5.115,5.115,0,0,1-5.109,5.109Z" transform="translate(0.001 -26.404)" fill="url(#linear-gradient)"/>
            <path id="Path_4845" data-name="Path 4845" d="M51.294,99.971A23.131,23.131,0,1,0,28.43,73.325a1.635,1.635,0,0,0,3.232.494A19.862,19.862,0,1,1,66.378,89.754a6.609,6.609,0,0,0-3.2-2.931,27.932,27.932,0,0,0-6.6-1.514l-.007-1.687a8.894,8.894,0,0,0,3.45-5.643,2.792,2.792,0,0,0,1.642-2.559c-.011-1.69-.012-4.691-.012-4.721V68.262a3.805,3.805,0,0,0-3.06-3.727,3.805,3.805,0,0,0-3.707-2.967h-7.2a6.882,6.882,0,0,0-6.874,6.874V75.45a2.777,2.777,0,0,0,1.622,2.523A8.917,8.917,0,0,0,45.725,83.5l.008,1.86a27.926,27.926,0,0,0-6.588,1.569,6.436,6.436,0,0,0-3,2.761,19.7,19.7,0,0,1-4.417-9.421,1.635,1.635,0,1,0-3.221.561A23.134,23.134,0,0,0,51.294,99.971ZM47.685,64.836h7.2a.53.53,0,0,1,.53.53,2.368,2.368,0,0,0,2.365,2.366h.073a.53.53,0,0,1,.53.53V68.9l-1.646-.154a8.452,8.452,0,0,0-5.173,1.2,5.132,5.132,0,0,1-2.681.756h-4.8V68.441A3.609,3.609,0,0,1,47.685,64.836Zm-3.6,10.18V73.975h4.8a8.4,8.4,0,0,0,4.389-1.237A5.166,5.166,0,0,1,56.431,72l1.952.183c0,.862,0,1.946.008,2.821a2,2,0,0,0-1.526,1.821,5.649,5.649,0,0,1-11.277,0A2.009,2.009,0,0,0,44.08,75.017ZM51.231,85.4a8.912,8.912,0,0,0,2.077-.246l0,.648a2.692,2.692,0,0,0,.212,1.031,4.415,4.415,0,0,1-2.363.689h-.013a4.415,4.415,0,0,1-2.344-.669,2.694,2.694,0,0,0,.2-1.033l0-.706A8.89,8.89,0,0,0,51.231,85.4ZM40.488,89.9a23.838,23.838,0,0,1,5.322-1.257,7.66,7.66,0,0,0,5.335,2.147h.023A7.66,7.66,0,0,0,56.527,88.6a23.835,23.835,0,0,1,5.335,1.213,3.267,3.267,0,0,1,1.963,2.436,19.865,19.865,0,0,1-25.158-.079A3.231,3.231,0,0,1,40.488,89.9Z" transform="translate(-22.229 -47.768)" fill="url(#linear-gradient)"/>
          </g>
        </g>
      </g>
      <g id="apply" transform="translate(1426 2201.307)">
        <g id="Group_1443" data-name="Group 1443" transform="translate(0 0.693)">
          <path id="Path_4846" data-name="Path 4846" d="M124.381,185.257v13.052c0,1.544-1.711,2.57-3.26,1.079a1.463,1.463,0,0,0-2.068,2.07,4.712,4.712,0,0,0,8.254-3.15V185.257a1.463,1.463,0,1,0-2.926,0Z" transform="translate(-95.485 -148.073)" fill="url(#linear-gradient)"/>
          <path id="Path_4847" data-name="Path 4847" d="M333.485,183.795h-4.744a1.463,1.463,0,0,0-1.463,1.463v16.331a1.463,1.463,0,0,0,1.463,1.463h.006s4.363-.02,5.566-.02a5.857,5.857,0,0,0,3.233-10.742,5.217,5.217,0,0,0-4.062-8.5Zm0,2.926a2.295,2.295,0,1,1,0,4.589l-3.28,0v-4.594Zm.829,13.385c-.749,0-2.723.007-4.109.013v-5.872c2.881-.012,1.47,0,4.109-.006a2.933,2.933,0,0,1,0,5.865Z" transform="translate(-263.43 -148.074)" fill="url(#linear-gradient)"/>
          <circle id="Ellipse_145" data-name="Ellipse 145" cx="1.463" cy="1.463" r="1.463" transform="translate(70.746 6.73)" fill="url(#linear-gradient)"/>
          <circle id="Ellipse_146" data-name="Ellipse 146" cx="1.463" cy="1.463" r="1.463" transform="translate(76.793 6.73)" fill="url(#linear-gradient)"/>
          <circle id="Ellipse_147" data-name="Ellipse 147" cx="1.463" cy="1.463" r="1.463" transform="translate(82.841 6.73)" fill="url(#linear-gradient)"/>
          <path id="Path_4848" data-name="Path 4848" d="M93.293.693H6.591A6.6,6.6,0,0,0,0,7.284v66a6.6,6.6,0,0,0,6.591,6.591H9.754a1.463,1.463,0,0,0,0-2.926H6.591a3.669,3.669,0,0,1-3.665-3.665V17.614H96.958v55.67a3.669,3.669,0,0,1-3.665,3.665H58.245a1.463,1.463,0,1,0,0,2.926H93.293a6.6,6.6,0,0,0,6.591-6.591v-66A6.6,6.6,0,0,0,93.293.693ZM2.926,14.688v-7.4A3.669,3.669,0,0,1,6.591,3.619h86.7a3.669,3.669,0,0,1,3.665,3.665v7.4Z" transform="translate(0 -0.693)" fill="url(#linear-gradient)"/>
          <path id="Path_4849" data-name="Path 4849" d="M132.119,178.936a6.639,6.639,0,0,0,6.632-6.632V165.01a1.463,1.463,0,0,0-2.926,0V172.3a3.71,3.71,0,0,1-3.705,3.705H98.255v-4.941A9.628,9.628,0,1,0,96.034,152.8a5,5,0,0,0-2.67-.882,5.072,5.072,0,0,0-5.259,5.072v12.9a5.073,5.073,0,0,0-7.117,3.619,5.059,5.059,0,0,0-6.8,2.324,5.067,5.067,0,0,0-5.2-.09A3.687,3.687,0,0,1,66.66,172.3V150.882a3.71,3.71,0,0,1,3.705-3.705h61.754a3.71,3.71,0,0,1,3.705,3.705v7.291a1.463,1.463,0,1,0,2.926,0v-7.291a6.639,6.639,0,0,0-6.632-6.632H70.366a6.639,6.639,0,0,0-6.632,6.632V172.3a6.6,6.6,0,0,0,3.2,5.68,5.251,5.251,0,0,0-.5,2.25v11.709c0,4.878,1.972,7.341,4.126,12.987a3.72,3.72,0,0,0-1.7,3.122v4.084a3.727,3.727,0,0,0,3.722,3.722H96.163a3.727,3.727,0,0,0,3.722-3.722v-4.084a3.709,3.709,0,0,0-1.222-2.75c1.224-2.5,5.506-5.772,5.506-12.906V181.862a5.216,5.216,0,0,0-.892-2.925h28.842Zm-25.462-17.343a6.7,6.7,0,0,1-8.4,6.482v-11a5.272,5.272,0,0,0-.339-1.866,6.691,6.691,0,0,1,8.741,6.38Zm-9.7,50.543a.8.8,0,0,1-.8.8H72.579a.8.8,0,0,1-.8-.8v-4.084a.8.8,0,0,1,.8-.8H96.163a.8.8,0,0,1,.8.8Zm4.284-19.74c0,6.311-3.634,8.188-5.356,11.934h-22.4c-2.424-6.239-4.123-8.269-4.123-12.386V180.235A2.159,2.159,0,0,1,73,178.6a2.131,2.131,0,0,1,.657,1.546,1.463,1.463,0,1,0,2.926,0v-2a2.159,2.159,0,0,1,3.641-1.633,2.132,2.132,0,0,1,.657,1.547,1.463,1.463,0,1,0,2.926,0V174.58a2.159,2.159,0,0,1,3.641-1.633,2.131,2.131,0,0,1,.657,1.546,1.463,1.463,0,1,0,2.926,0v-17.5a2.147,2.147,0,0,1,2.229-2.148,2.212,2.212,0,0,1,2.069,2.234v21.909a1.464,1.464,0,0,0,2.4,1.127,2.153,2.153,0,0,1,1.5-.489,2.2,2.2,0,0,1,2.018,2.237Z" transform="translate(-51.3 -116.244)" fill="url(#linear-gradient)"/>
        </g>
      </g>
    </g>
  </g>
</svg>
