<svg xmlns="http://www.w3.org/2000/svg" width="95.614" height="97.833" viewBox="0 0 95.614 97.833">
  <g id="Layer_x0020_1" transform="translate(0)">
    <g id="_2156058063824" transform="translate(0 0)">
      <path id="Path_4420" data-name="Path 4420" d="M1733.779,17.416a8.708,8.708,0,1,1,8.708-8.708A8.71,8.71,0,0,1,1733.779,17.416Z" transform="translate(-1705.778 0)" fill="#c64232" fill-rule="evenodd"/>
      <path id="Path_4421" data-name="Path 4421" d="M39.078,206.389a11.509,11.509,0,0,0,.079-1.282,11.1,11.1,0,0,0-1.408-5.419,48.062,48.062,0,0,1,17.428-.5v6.929a41,41,0,0,0-16.1.274ZM59.6,278.749V257.863h0Zm14.454-11.154s-.008-.612-.022-1.875c.015,1.264.022,1.875.022,1.875ZM74,262.888c-4.79-8.333-16-8.687-17.764-8.7-.154,0-.236,0-.236,0l-.006.035a8.834,8.834,0,0,0-1.517-.122c-2.2,0-5.351-.049-7.61-.049h-.358v-.006h-9.8s-.194.012-.541.012c-2.735,0-14.913-.719-15.054-13.5-.113-10.245-.171-14.911-.171-14.911a12.581,12.581,0,0,1,.587-2.768,13.984,13.984,0,0,0-.467,1.885,15.716,15.716,0,0,0,1.295,5.193c2.066,5.032,7.221,7.767,12.893,8.565q1.418.221,3.024.322a7.82,7.82,0,0,0,2.245.293c2.211,0,5.392.049,7.653.049h.314v.005h9.8s.194-.011.54-.011c2.734,0,14.913.718,15.054,13.5C73.936,257.1,73.974,260.473,74,262.888ZM26.858,216.321h0Zm.015-.007.019-.01a14.262,14.262,0,0,1,6.836-1.8c.208,0,.406,0,.6.007s.37.007.543.007.363,0,.535-.016h0c-.172.012-.349.016-.535.016s-.354,0-.543-.007-.387-.007-.6-.007a14.262,14.262,0,0,0-6.836,1.8Zm8.954,76.4a47.81,47.81,0,0,1-18.152-83.4,11.175,11.175,0,0,0,4.4,5.227,40.958,40.958,0,0,0-.561,63.3V248.734c3.824,6.295,11.748,6.984,14.312,7.034Z" transform="translate(0 -196.399)" fill="#f37135" fill-rule="evenodd"/>
      <path id="Path_4422" data-name="Path 4422" d="M3487.187,396.4a48.108,48.108,0,0,1-8.907-.841V388.59a40.98,40.98,0,0,0,33.38-72.869v29.284c-4.315-5.01-11.531-5.364-13.448-5.364-.29,0-.49.006-.582.01V301.94a47.805,47.805,0,0,1-10.444,94.457Z" transform="translate(-3439.381 -298.563)" fill="#c64232" fill-rule="evenodd"/>
      <path id="Path_4423" data-name="Path 4423" d="M1922.069,1682.542v-20.887c0-2.033-1.758-3.308-3.608-3.634l.006-.035c6.58-.234,14.719,2.672,18,8.694,0,.129.029,2.465.033,2.832.014,1.263.022,1.875.022,1.875-.428,6.71-6.363,11.153-12.777,11.153C1923.191,1682.541,1922.633,1682.545,1922.069,1682.542Zm-21.285-39.9-.041,0q-1.609-.1-3.024-.322c-1.478-.257-9.887-1.41-12.893-8.565a15.7,15.7,0,0,1-1.295-5.193,13.946,13.946,0,0,1,.467-1.885c1.709-5.3,6.757-8.385,12.2-8.385.208,0,.406,0,.595.007s.37.007.543.007.363,0,.535-.016v20.888A3.7,3.7,0,0,0,1900.783,1642.645Z" transform="translate(-1862.465 -1600.192)" fill="#c64232" fill-rule="evenodd"/>
      <path id="Path_4424" data-name="Path 4424" d="M1856.825,122.661a7.341,7.341,0,1,0-2.055,14.389h0a7.342,7.342,0,0,0,2.055-14.389Z" transform="translate(-1826.769 -121.001)" fill="#d06244" fill-rule="evenodd"/>
      <path id="Path_4425" data-name="Path 4425" d="M5337.281,467.943c1.985-1.781,4.015-3.535,6.068-5.242a45.844,45.844,0,0,0-10.055-4.782q-1.366-.452-2.764-.819v17.179h0l2.612-2.52Q5335.18,469.824,5337.281,467.943Z" transform="translate(-5270.916 -451.988)" fill="#d06244" fill-rule="evenodd"/>
      <path id="Path_4426" data-name="Path 4426" d="M150.634,358.34a13.8,13.8,0,0,1-7.787-7.2l.121,10.587c.071,6.077,3.1,9.186,6.637,10.733a16.63,16.63,0,0,0,3.786,1.114h0q.982-1.691,2.041-3.389c1.772-2.842,3.687-5.69,5.729-8.5h-.011a9.644,9.644,0,0,1-2.73-.347c-.231-.067-.446-.147-.655-.227a5.38,5.38,0,0,1-1.849-1.214l-.176-.193A23.06,23.06,0,0,1,150.634,358.34Zm17.321-33.072.355,0a42.511,42.511,0,0,1,5.987.424v-4.139a46.661,46.661,0,0,0-5.97-.381h-.3a46.641,46.641,0,0,0-4.942.292q-1.45.16-2.879.413a12.645,12.645,0,0,1,.8,4.021h0q1.027-.179,2.059-.306A42.672,42.672,0,0,1,167.955,325.268Zm-40.018,55.175a42.274,42.274,0,0,1,12.418-44.638,12.9,12.9,0,0,1-2.64-3.139,47.13,47.13,0,0,0-8.153,9.313A46.434,46.434,0,0,0,140.985,405.2h0q.449-2.2,1.008-4.395l-.868-.732a42.166,42.166,0,0,1-13.188-19.63Zm20.815,1.91q1.124-2.371,2.382-4.73a21.8,21.8,0,0,1-2.134-.64,18.251,18.251,0,0,1-3.24-1.514,14.972,14.972,0,0,1-2.395-1.774v22.314h0q1-3.2,2.251-6.4Q147.03,385.979,148.752,382.353Z" transform="translate(-120.488 -317.578)" fill="#f5894e" fill-rule="evenodd"/>
      <path id="Path_4427" data-name="Path 4427" d="M1995.75,1751.379l.04,3.408a13.583,13.583,0,0,0,6.879,6.8,22.093,22.093,0,0,0,6.016,1.759h0a4.949,4.949,0,0,1-1.2-2.74l-.02-.307,0-19.612a11.646,11.646,0,0,0-8.235,2.856A10.866,10.866,0,0,0,1995.75,1751.379Z" transform="translate(-1973.43 -1721.223)" fill="#d06244" fill-rule="evenodd"/>
    </g>
  </g>
</svg>
