<svg xmlns="http://www.w3.org/2000/svg" xmlns:xlink="http://www.w3.org/1999/xlink" width="656.011" height="209" viewBox="0 0 656.011 209">
  <defs>
    <filter id="Ellipse_149" x="0" y="0" width="209" height="209" filterUnits="userSpaceOnUse">
      <feOffset dy="3" input="SourceAlpha"/>
      <feGaussianBlur stdDeviation="7.5" result="blur"/>
      <feFlood flood-opacity="0.161"/>
      <feComposite operator="in" in2="blur"/>
      <feComposite in="SourceGraphic"/>
    </filter>
  </defs>
  <g id="Group_3711" data-name="Group 3711" transform="translate(-137.5 -2825.5)">
    <line id="Line_41" data-name="Line 41" y1="2" x2="469" transform="translate(324.5 2926.5)" fill="none" stroke="#fff" stroke-width="5" stroke-dasharray="5" opacity="0.46"/>
    <g transform="matrix(1, 0, 0, 1, 137.5, 2825.5)" filter="url(#Ellipse_149)">
      <g id="Ellipse_149-2" data-name="Ellipse 149" transform="translate(22.5 19.5)" fill="rgba(186,70,22,0.38)" stroke="#fff" stroke-width="4" stroke-dasharray="5">
        <circle cx="82" cy="82" r="82" stroke="none"/>
        <circle cx="82" cy="82" r="80" fill="none"/>
      </g>
    </g>
    <g id="application" transform="translate(200 2885)">
      <path id="Path_5037" data-name="Path 5037" d="M83.868,43.855A13.568,13.568,0,0,0,72.849,30.548l-.356-1.065a6.676,6.676,0,0,0,3.218-4.424h.136A5.338,5.338,0,0,0,80.3,16.765l.568-2.274A10.856,10.856,0,0,0,70.338,1h-5.41a10.387,10.387,0,0,0-6.974,2.673H9.02A8.028,8.028,0,0,0,1,11.693V75.849a8.028,8.028,0,0,0,8.02,8.02H80.036L78.6,72.388a14.76,14.76,0,0,0,5.267-11.242V53.127a4,4,0,0,0-5.5-3.716,3.976,3.976,0,0,0-5.346-2.673c-.027-.1-.057-.2-.092-.294h10.94ZM73.816,33.567,72.463,36.7,69.2,35.393l2.985-2.237A10.835,10.835,0,0,1,73.816,33.567ZM49.169,53.546l1.657,9.942a13.162,13.162,0,0,0,.4,1.667H9.02V11.693H51.8c0,.056-.013.108-.013.164v.3a8.341,8.341,0,0,0,.251,2.036l.642,2.569a5.338,5.338,0,0,0,4.453,8.293h.135a6.682,6.682,0,0,0,3.218,4.424l-.356,1.065A13.568,13.568,0,0,0,49.117,43.855v2.589H59.81V56.3a.834.834,0,0,1-1.657.138l-.561-3.37a4.718,4.718,0,0,0-4.669-3.954,3.809,3.809,0,0,0-3.805,3.805,3.723,3.723,0,0,0,.052.624Zm5.465-40a5.7,5.7,0,0,1-.171-1.387v-.3a5.7,5.7,0,0,1,3.18-5.11l1.783,5.348a4.013,4.013,0,0,0-2.044,2.27h-.246a5.3,5.3,0,0,0-2.179.474Zm2.5,8.837a2.673,2.673,0,1,1,0-5.346ZM60.521,36.7l-1.353-3.133a10.836,10.836,0,0,1,1.635-.412l2.985,2.237Zm-.711,7.071H51.79A10.886,10.886,0,0,1,56.76,34.73L59.1,40.149l.711-.285Zm10.456-12.52-3.773,2.83-3.773-2.83.309-.926a6.422,6.422,0,0,0,.791.08h5.346a6.47,6.47,0,0,0,.793-.08Zm2.91-7.529a4.015,4.015,0,0,1-4.01,4.01H63.819a4.015,4.015,0,0,1-4.01-4.01V15.7a1.339,1.339,0,0,1,1.337-1.337H71.839A1.339,1.339,0,0,1,73.176,15.7Zm2.673-1.337V17.039a2.673,2.673,0,0,1,0,5.346ZM70.338,3.673a8.183,8.183,0,0,1,7.939,10.169l-.25,1a5.3,5.3,0,0,0-2.179-.474H75.6a4,4,0,0,0-3.764-2.673H62.11L60.018,5.416a7.726,7.726,0,0,1,4.909-1.743ZM3.673,75.849V11.693A5.352,5.352,0,0,1,9.02,6.346H53.883A8.371,8.371,0,0,0,52.294,9.02H9.02a2.676,2.676,0,0,0-2.673,2.673V65.156A2.676,2.676,0,0,0,9.02,67.829H52.377a13.1,13.1,0,0,0,4.661,4.721L55.956,81.2H9.02a5.352,5.352,0,0,1-5.346-5.346ZM58.651,81.2l1-8.02H76.006l1,8.02ZM70.5,47.78V59.81h2.673V50.454a1.337,1.337,0,0,1,2.673,0V59.81h2.673V53.127a1.337,1.337,0,1,1,2.673,0v8.019A12.091,12.091,0,0,1,76.727,70.5H58.8a10.439,10.439,0,0,1-5.337-7.451L51.8,53.109a1.261,1.261,0,0,1-.015-.187,1.133,1.133,0,0,1,1.132-1.132,2.056,2.056,0,0,1,2.033,1.72l.561,3.368a3.507,3.507,0,0,0,6.966-.576V39.761a1.337,1.337,0,1,1,2.673,0V59.81h2.673V47.78a1.337,1.337,0,0,1,2.673,0Zm-2.673-4.01v-4.01a3.972,3.972,0,0,0-.771-2.343l6.829,2.731,2.339-5.419A10.886,10.886,0,0,1,81.2,43.771Z" fill="#fff"/>
      <path id="Path_5038" data-name="Path 5038" d="M53.683,15.835a2.972,2.972,0,0,1-2.673,1.652H47v2.673h4.01a5.63,5.63,0,0,0,5.064-3.13l.14-.282-2.391-1.2Z" transform="translate(15.483 4.898)" fill="#fff"/>
      <path id="Path_5039" data-name="Path 5039" d="M32.366,53H21.673A2.676,2.676,0,0,0,19,55.673v2.673a2.676,2.676,0,0,0,2.673,2.673H32.366a2.676,2.676,0,0,0,2.673-2.673V55.673A2.676,2.676,0,0,0,32.366,53ZM21.673,58.346V55.673H32.366v2.673Z" transform="translate(6.059 17.502)" fill="#fff"/>
      <path id="Path_5040" data-name="Path 5040" d="M22.661,22.751a6.683,6.683,0,1,0-8.61,0A9.359,9.359,0,0,0,9,31.049v1.337H27.712V31.049A9.359,9.359,0,0,0,22.661,22.751Zm-8.315-5.068a4.01,4.01,0,1,1,4.01,4.01A4.015,4.015,0,0,1,14.346,17.683ZM11.808,29.712a6.683,6.683,0,0,1,13.1,0Z" transform="translate(2.693 3.366)" fill="#fff"/>
      <path id="Path_5041" data-name="Path 5041" d="M22.661,42.751a6.683,6.683,0,1,0-8.61,0A9.359,9.359,0,0,0,9,51.049v1.337H27.712V51.049A9.359,9.359,0,0,0,22.661,42.751Zm-8.315-5.068a4.01,4.01,0,1,1,4.01,4.01A4.015,4.015,0,0,1,14.346,37.683ZM11.808,49.712a6.683,6.683,0,0,1,13.1,0Z" transform="translate(2.693 10.098)" fill="#fff"/>
      <path id="Path_5042" data-name="Path 5042" d="M25,25h8.019v2.673H25Z" transform="translate(8.078 8.078)" fill="#fff"/>
      <path id="Path_5043" data-name="Path 5043" d="M25,21H38.366v2.673H25Z" transform="translate(8.078 6.732)" fill="#fff"/>
      <path id="Path_5044" data-name="Path 5044" d="M25,17h5.346v2.673H25Z" transform="translate(8.078 5.385)" fill="#fff"/>
      <path id="Path_5045" data-name="Path 5045" d="M31,17h5.346v2.673H31Z" transform="translate(10.098 5.385)" fill="#fff"/>
      <path id="Path_5046" data-name="Path 5046" d="M25,45h8.019v2.673H25Z" transform="translate(8.078 14.81)" fill="#fff"/>
      <path id="Path_5047" data-name="Path 5047" d="M25,41H38.366v2.673H25Z" transform="translate(8.078 13.463)" fill="#fff"/>
      <path id="Path_5048" data-name="Path 5048" d="M25,37h5.346v2.673H25Z" transform="translate(8.078 12.117)" fill="#fff"/>
      <path id="Path_5049" data-name="Path 5049" d="M31,37h5.346v2.673H31Z" transform="translate(10.098 12.117)" fill="#fff"/>
    </g>
  </g>
</svg>
