<svg xmlns="http://www.w3.org/2000/svg" xmlns:xlink="http://www.w3.org/1999/xlink" width="240" height="240" viewBox="0 0 240 240">
  <defs>
    <filter id="Rectangle_458" x="0" y="0" width="240" height="240" filterUnits="userSpaceOnUse">
      <feOffset dy="3" input="SourceAlpha"/>
      <feGaussianBlur stdDeviation="15" result="blur"/>
      <feFlood flood-opacity="0.102"/>
      <feComposite operator="in" in2="blur"/>
      <feComposite in="SourceGraphic"/>
    </filter>
  </defs>
  <g id="Group_3714" data-name="Group 3714" transform="translate(-1293 -3174)">
    <g transform="matrix(1, 0, 0, 1, 1293, 3174)" filter="url(#Rectangle_458)">
      <g id="Rectangle_458-2" data-name="Rectangle 458" transform="translate(45 42)" fill="#fff" stroke="#de8065" stroke-width="2" stroke-dasharray="5">
        <rect width="150" height="150" rx="75" stroke="none"/>
        <rect x="1" y="1" width="148" height="148" rx="74" fill="none"/>
      </g>
    </g>
    <g id="portfolio" transform="translate(1374 3249.854)">
      <g id="Group_3645" data-name="Group 3645" transform="translate(0 0.146)">
        <path id="Path_5347" data-name="Path 5347" d="M191.082,50.854H165.9a1.212,1.212,0,0,0,0,2.424h25.181a1.212,1.212,0,0,0,0-2.424Z" transform="translate(-138.07 -42.658)" fill="#d13633"/>
        <path id="Path_5348" data-name="Path 5348" d="M191.082,94.756H165.9a1.212,1.212,0,0,0,0,2.424h25.181a1.212,1.212,0,1,0,0-2.424Z" transform="translate(-138.07 -79.464)" fill="#d13633"/>
        <path id="Path_5349" data-name="Path 5349" d="M208.328,199.87h-7.2v-3.384a8.1,8.1,0,0,0-8.089-8.089H179.414a8.1,8.1,0,0,0-8.089,8.089v3.384h-7.2a6.542,6.542,0,0,0-6.542,6.542v27.724a6.55,6.55,0,0,0,6.542,6.542h44.2a6.55,6.55,0,0,0,6.542-6.542v-5.253a1.212,1.212,0,0,0-2.424,0v5.253a4.122,4.122,0,0,1-4.118,4.118h-44.2a4.122,4.122,0,0,1-4.118-4.118V216.955a10.857,10.857,0,0,0,8.016,4.026v1.851a4.43,4.43,0,1,0,8.86,0v-1.842H195.57v1.842a4.43,4.43,0,1,0,8.86,0V220.98a10.857,10.857,0,0,0,8.016-4.026v6.261a1.212,1.212,0,1,0,2.424,0v-16.8A6.541,6.541,0,0,0,208.328,199.87Zm-34.579-3.384a5.671,5.671,0,0,1,5.665-5.665h13.629a5.671,5.671,0,0,1,5.665,5.665v3.384h-2.525v-3.384a3.144,3.144,0,0,0-3.14-3.14H179.414a3.144,3.144,0,0,0-3.14,3.14v3.384h-2.525Zm4.949,3.384v-3.384a.716.716,0,0,1,.716-.715h13.629a.716.716,0,0,1,.716.715v3.384Zm-4.236,22.961a2.006,2.006,0,1,1-4.011,0V218.5a2.006,2.006,0,0,1,4.011,0Zm27.544,0a2.006,2.006,0,1,1-4.011,0v-3.042s0-.008,0-.012,0-.008,0-.012V218.5a2.006,2.006,0,1,1,4.011,0Zm2.424-4.278V218.5a4.43,4.43,0,1,0-8.86,0v.066H176.887V218.5a4.43,4.43,0,1,0-8.86,0v.056a8.456,8.456,0,0,1-8.016-8.435v-3.707a4.117,4.117,0,0,1,4.118-4.117h44.2a4.117,4.117,0,0,1,4.118,4.118v3.707a8.456,8.456,0,0,1-8.016,8.435Z" transform="translate(-132.115 -157.97)" fill="#d13633"/>
        <path id="Path_5350" data-name="Path 5350" d="M23.908,80.43H5.995a3.574,3.574,0,0,1-3.57-3.57V18.631a3.594,3.594,0,0,1,.083-.769H13.539a4.182,4.182,0,0,0,4.177-4.177V2.653a3.6,3.6,0,0,1,.769-.083h41.1a3.574,3.574,0,0,1,3.57,3.57v20.8a1.212,1.212,0,0,0,2.424,0V6.141A6,6,0,0,0,59.586.146h-41.1A5.956,5.956,0,0,0,14.246,1.9L1.756,14.392A5.955,5.955,0,0,0,0,18.631V76.859a6,6,0,0,0,5.995,5.995H23.908a1.212,1.212,0,1,0,0-2.424ZM15.292,4.285v9.4a1.755,1.755,0,0,1-1.753,1.753h-9.4Z" transform="translate(0 -0.146)" fill="#d13633"/>
      </g>
    </g>
  </g>
</svg>
