<svg xmlns="http://www.w3.org/2000/svg" xmlns:xlink="http://www.w3.org/1999/xlink" width="87.133" height="66.298" viewBox="0 0 87.133 66.298">
  <defs>
    <linearGradient id="linear-gradient" x1="0.63" y1="1" x2="0.633" gradientUnits="objectBoundingBox">
      <stop offset="0" stop-color="#f37135"/>
      <stop offset="1" stop-color="#cd3033"/>
    </linearGradient>
  </defs>
  <g id="mortarboard" transform="translate(0 -41.75)">
    <g id="Group_465" data-name="Group 465" transform="translate(0 41.75)">
      <path id="Path_4386" data-name="Path 4386" d="M84.239,59.84,49.505,42.873a14.225,14.225,0,0,0-11.079,0L2.894,59.84C.4,61.038,0,62.735,0,63.633s.4,2.5,2.894,3.793l2.894,1.4V84.793a4.891,4.891,0,0,0-3.094,4.491,4.955,4.955,0,0,0,2.994,4.491L1.2,108.048H13.774L9.282,93.776a4.836,4.836,0,0,0-.1-8.983V70.52l5.29,2.6v20.76a1.61,1.61,0,0,0,.3.9c.5.6,9.781,13.275,28.745,13.275S71.763,95.273,72.162,94.774a1.61,1.61,0,0,0,.3-.9V73.215l11.777-5.789c2.5-1.2,2.894-2.894,2.894-3.793A4.462,4.462,0,0,0,84.239,59.84ZM69.268,93.376a33.376,33.376,0,0,1-25.751,11.578A33.376,33.376,0,0,1,17.766,93.376V74.512l20.661,9.881a13.46,13.46,0,0,0,5.49,1.1,12.153,12.153,0,0,0,5.589-1.2l19.762-9.681ZM82.842,64.631,70.865,70.52a1.147,1.147,0,0,0-1.1.6L48.108,81.6a11.081,11.081,0,0,1-8.384,0L13.075,68.823,43.716,65.23a1.554,1.554,0,1,0-.3-3.094L7.885,66.328l-3.593-1.7a2.013,2.013,0,0,1-1.1-.9c0-.1.2-.5,1.1-.9L39.824,45.767a10.31,10.31,0,0,1,4.092-.8,10.117,10.117,0,0,1,4.192.8L82.842,62.735c.9.4,1.1.8,1.1,1A2.744,2.744,0,0,1,82.842,64.631Z" transform="translate(0 -41.75)" fill="url(#linear-gradient)"/>
    </g>
  </g>
</svg>
