<svg id="worker" xmlns="http://www.w3.org/2000/svg" xmlns:xlink="http://www.w3.org/1999/xlink" width="68.027" height="68.027" viewBox="0 0 68.027 68.027">
  <defs>
    <linearGradient id="linear-gradient" x1="0.63" y1="1" x2="0.633" gradientUnits="objectBoundingBox">
      <stop offset="0" stop-color="#f37135"/>
      <stop offset="1" stop-color="#cd3033"/>
    </linearGradient>
  </defs>
  <g id="Group_452" data-name="Group 452" transform="translate(0)">
    <path id="Path_4382" data-name="Path 4382" d="M64.626,40.816H37.415a3.4,3.4,0,0,0-3.195,2.275l-5.875-1.959V35.793c.1-.077.2-.145.3-.227a18.108,18.108,0,0,0,6.329-11.757h2.443a1.134,1.134,0,0,0,1.134-1.134V18.14a1.134,1.134,0,0,0-1.134-1.134H36.067c-.286-7.222-3.344-15.1-11.124-15.8V1.134A1.134,1.134,0,0,0,23.81,0h-6.8a1.134,1.134,0,0,0-1.134,1.134V1.2c-7.78.7-10.838,8.582-11.124,15.8H3.4A1.134,1.134,0,0,0,2.268,18.14v4.535A1.134,1.134,0,0,0,3.4,23.809H5.854a18.1,18.1,0,0,0,6.32,11.758c.1.08.2.149.3.227v5.339L3.735,44.045A2.267,2.267,0,0,0,2.2,45.959L.006,66.78a1.134,1.134,0,0,0,1.015,1.241,1.122,1.122,0,0,0,.113.006H64.626a3.4,3.4,0,0,0,3.4-3.4V44.217A3.4,3.4,0,0,0,64.626,40.816ZM4.535,21.542V19.274h6.8V17.007H7.03c.19-3.431,1.4-12.677,8.843-13.534V13.605h2.268V2.268h4.535V13.605h2.268V3.473c7.446.857,8.653,10.1,8.843,13.534H13.606v2.268H36.281v2.268Zm3.6,2.268H32.694a15.831,15.831,0,0,1-5.5,10.016,10.591,10.591,0,0,1-13.565,0A15.816,15.816,0,0,1,8.132,23.809ZM26.077,37.221V43.8L20.408,50.41,14.74,43.8V37.222a12.771,12.771,0,0,0,11.338,0ZM20.408,63.492v2.268H2.394L4.453,46.2l8.019-2.673v.7a1.133,1.133,0,0,0,.273.738l6.8,7.936a1.171,1.171,0,0,0,1.655.066c.023-.021.045-.043.066-.066l6.8-7.936a1.133,1.133,0,0,0,.273-.738v-.694l5.669,1.889V61.224H22.676A2.268,2.268,0,0,0,20.408,63.492Zm2.268,2.268V63.492H34.014v1.134a3.362,3.362,0,0,0,.209,1.134Zm29.478-7.935V65.76H49.887V57.823a1.134,1.134,0,0,0-1.134-1.134H47.186l-2.721-5.442.959-.959a1.17,1.17,0,0,0,.113.227l2.268,3.4a1.134,1.134,0,0,0,.948.506h4.535a1.134,1.134,0,0,0,.943-.5l2.268-3.4a1.169,1.169,0,0,0,.113-.227l.959.959L54.85,56.69H53.288A1.134,1.134,0,0,0,52.154,57.824Zm13.605,6.8a1.134,1.134,0,0,1-1.134,1.134h-10.2v-6.8h1.134a1.134,1.134,0,0,0,1.02-.627l3.4-6.8a1.134,1.134,0,0,0-.213-1.308l-4.535-4.535a1.134,1.134,0,0,0-1.878,1.16l.958,2.875-1.628,2.435H49.359l-1.627-2.435.958-2.875a1.134,1.134,0,0,0-1.878-1.16l-4.535,4.535a1.134,1.134,0,0,0-.213,1.308l3.4,6.8a1.134,1.134,0,0,0,1.019.627h1.134v6.8h-10.2a1.134,1.134,0,0,1-1.134-1.134V44.217a1.134,1.134,0,0,1,1.134-1.134H64.626a1.134,1.134,0,0,1,1.134,1.134V64.625Z" transform="translate(0)" fill="url(#linear-gradient)"/>
  </g>
</svg>
