<svg id="fashion" xmlns="http://www.w3.org/2000/svg" xmlns:xlink="http://www.w3.org/1999/xlink" width="82.044" height="68.402" viewBox="0 0 82.044 68.402">
  <defs>
    <linearGradient id="linear-gradient" x1="0.63" y1="1" x2="0.633" gradientUnits="objectBoundingBox">
      <stop offset="0" stop-color="#f37135"/>
      <stop offset="1" stop-color="#cd3033"/>
    </linearGradient>
  </defs>
  <path id="Path_4366" data-name="Path 4366" d="M47.858,52.26a1.148,1.148,0,0,0,1.153-1.153,1.1,1.1,0,0,0-1.153-1.089h-.769l.32-2.242a1.132,1.132,0,0,0-2.242-.32l-.384,2.5a2.018,2.018,0,0,0,1.665,2.306Z" transform="translate(-16.091 -23.503)" fill="url(#linear-gradient)"/>
  <path id="Path_4367" data-name="Path 4367" d="M37.334,45.468A2.434,2.434,0,1,0,34.9,43.034,2.433,2.433,0,0,0,37.334,45.468Z" transform="translate(-12.548 -21.386)" fill="url(#linear-gradient)"/>
  <path id="Path_4368" data-name="Path 4368" d="M55.534,45.468A2.434,2.434,0,1,0,53.1,43.034,2.475,2.475,0,0,0,55.534,45.468Z" transform="translate(-19.091 -21.386)" fill="url(#linear-gradient)"/>
  <path id="Path_4369" data-name="Path 4369" d="M40.771,58.358a1.12,1.12,0,0,0-.128,1.6,6.186,6.186,0,0,0,8.838,0,1.134,1.134,0,0,0-.192-1.6,1.106,1.106,0,0,0-1.537.128,4.043,4.043,0,0,1-5.38,0A1.181,1.181,0,0,0,40.771,58.358Z" transform="translate(-14.512 -27.68)" fill="url(#linear-gradient)"/>
  <path id="Path_4370" data-name="Path 4370" d="M76.216,72.149H71.86V61.517h2.562a5.877,5.877,0,0,0,5.892-5.892,28.531,28.531,0,0,0-1.537-9.287L76.92,40.894a6.8,6.8,0,0,1,.961-6.148l1.153-1.6a6.633,6.633,0,0,0,1.281-3.907,4.547,4.547,0,0,0-2.562-4.163l-4.035-2.049V18.35A1.148,1.148,0,0,0,72.565,17.2h-8.39a1.148,1.148,0,0,0-1.153,1.153v4.675l-4.035,2.049a4.616,4.616,0,0,0-2.562,4.163,6.633,6.633,0,0,0,1.281,3.907l1.153,1.6a7.024,7.024,0,0,1,.961,6.148l-1.857,5.444a28.816,28.816,0,0,0-1.537,9.287,5.877,5.877,0,0,0,5.892,5.892h2.562V72.085H61.1V69.651A13.029,13.029,0,0,0,51.494,57.1a25.43,25.43,0,0,0-4.932-.7,8.76,8.76,0,0,0,1.217-3.779A8.641,8.641,0,0,0,49.06,35.706a4.385,4.385,0,0,0-.448-2.5V23.025A12.437,12.437,0,0,0,36.186,10.6H24.978A12.437,12.437,0,0,0,12.553,23.025V33.208a4.714,4.714,0,0,0-.448,2.5,8.642,8.642,0,0,0,1.281,16.908A7.983,7.983,0,0,0,14.6,56.393a33.678,33.678,0,0,0-5,.769A12.937,12.937,0,0,0,0,69.651v8.2A1.191,1.191,0,0,0,1.153,79H80.891a1.181,1.181,0,0,0,1.153-1.089,5.836,5.836,0,0,0-5.828-5.764ZM58.795,55.625A25.934,25.934,0,0,1,60.2,47.043L62.061,41.6a9.324,9.324,0,0,0-1.217-8.2l-1.153-1.6a4.689,4.689,0,0,1-.833-2.562A2.417,2.417,0,0,1,60.2,27.06l4.675-2.37a1.141,1.141,0,0,0,.64-1.025V19.438h6.148v4.227a1.141,1.141,0,0,0,.64,1.025l4.675,2.37a2.417,2.417,0,0,1,1.345,2.178A4.527,4.527,0,0,1,77.5,31.8l-1.153,1.6a8.936,8.936,0,0,0-1.217,8.2l1.857,5.444a28.013,28.013,0,0,1,1.409,8.582,3.649,3.649,0,0,1-3.651,3.651h-12.3a3.609,3.609,0,0,1-3.651-3.651Zm8.454,5.892h2.434V72.085H67.249Zm-8.262,8.134V76.7H38.044V72.341a17.061,17.061,0,0,1,2.626-9.095l3.01-4.868a39.27,39.27,0,0,1,7.365.9A10.819,10.819,0,0,1,58.987,69.651ZM53.223,44.032a6.423,6.423,0,0,1-6.4,6.4,1.075,1.075,0,0,0-.9.384,1.53,1.53,0,0,0-.32.9A5.675,5.675,0,0,1,44,56.2c-1.665.064-4.419-.384-4.8-2.5-.192-.961-.512-3.907-.512-3.907a12.126,12.126,0,0,0,3.715-5.06,31.692,31.692,0,0,0,1.281-4.8,4.712,4.712,0,0,0,4.675-2.114A6.514,6.514,0,0,1,53.223,44.032ZM17.036,37.692a2.493,2.493,0,0,1-2.754-2.5A2.536,2.536,0,0,1,16.14,32.76,14.523,14.523,0,0,0,16.4,35C16.652,35.706,17.036,37.692,17.036,37.692Zm2.434.576c-.192-.9-.576-2.754-.769-3.651a13.567,13.567,0,0,1-.256-2.242V29.43h8.134a21.391,21.391,0,0,0,10.5-2.882h3.138a2.638,2.638,0,0,1,2.626,2.626s0,3.587-.128,4.739c-.256,1.665-.64,3.266-.9,4.355A35.1,35.1,0,0,1,40.413,43.9a12.049,12.049,0,0,1-3.394,4.419,10.662,10.662,0,0,1-12.745,0A10,10,0,0,1,20.879,43.9a40.875,40.875,0,0,1-1.409-5.636Zm27.412-3.01a2.462,2.462,0,0,1-2.754,2.5s.7-3.01.769-3.651c.064-.32.128-1.217.128-1.281a2.481,2.481,0,0,1,1.857,2.434ZM24.594,51.142a12.915,12.915,0,0,0,12.041,0l.384,2.882a4.535,4.535,0,0,0,.961,2.114,16.174,16.174,0,0,1-7.3,1.6,16.257,16.257,0,0,1-7.365-1.6,4.757,4.757,0,0,0,.961-2.178Zm.384-38.3H36.25A10.168,10.168,0,0,1,46.434,23.025v7.942a5.088,5.088,0,0,0-1.409-.384V29.238a4.865,4.865,0,0,0-4.868-4.868H36.763a2.446,2.446,0,0,0-1.025.384,18.553,18.553,0,0,1-9.223,2.434H17.293a1.181,1.181,0,0,0-1.153,1.089v2.242a5.775,5.775,0,0,0-1.409.384V23.025A10.264,10.264,0,0,1,24.978,12.842Zm-10.568,37.6a6.411,6.411,0,0,1-1.6-12.617,4.775,4.775,0,0,0,4.675,2.114,26.678,26.678,0,0,0,1.281,4.8A12.126,12.126,0,0,0,22.48,49.8l-.512,3.843c-.32,2.434-3.587,2.5-4.8,2.562a6.009,6.009,0,0,1-1.6-4.483A1.086,1.086,0,0,0,14.411,50.437ZM2.242,69.651a10.65,10.65,0,0,1,7.878-10.376,49.069,49.069,0,0,1,7.429-.9l3.01,4.868a17.061,17.061,0,0,1,2.626,9.095V76.76H2.242ZM22.48,62.094l-2.5-3.971a4.752,4.752,0,0,0,1.345-.448,18.667,18.667,0,0,0,9.223,2.37,18.012,18.012,0,0,0,9.223-2.37,5.534,5.534,0,0,0,1.345.448l-2.37,3.971A19.434,19.434,0,0,0,35.8,72.341V76.76H25.427V72.341A19.269,19.269,0,0,0,22.48,62.094ZM61.229,76.76V74.39H76.216a3.586,3.586,0,0,1,3.33,2.37Z" transform="translate(0 -10.6)" fill="url(#linear-gradient)"/>
</svg>
