<svg xmlns="http://www.w3.org/2000/svg" xmlns:xlink="http://www.w3.org/1999/xlink" width="71.425" height="68" viewBox="0 0 71.425 68">
  <defs>
    <linearGradient id="linear-gradient" x1="0.63" y1="1" x2="0.633" gradientUnits="objectBoundingBox">
      <stop offset="0" stop-color="#f37135"/>
      <stop offset="1" stop-color="#cd3033"/>
    </linearGradient>
  </defs>
  <g id="doctor" transform="translate(0 -11.508)">
    <g id="Group_409" data-name="Group 409" transform="translate(0 11.508)">
      <g id="Group_408" data-name="Group 408">
        <path id="Path_4360" data-name="Path 4360" d="M71.338,49.612a8.333,8.333,0,0,0-7.057-7.057V40.39c0-5.971-4.539-10.833-10.118-10.833-5.419,0-9.955,4.714-10.118,10.509h.069l-.069.012V63.538c0,7.5-5.607,13.59-12.5,13.59s-12.5-6.1-12.5-13.59V61.506c1.726,0,3.571-1.251,3.571-4.762V53.75C30.257,51.8,35.712,45.237,35.712,37.8V35.317H33.331l-.05-15.493A5.958,5.958,0,0,0,28.384,14a3.552,3.552,0,1,0-.081,2.427A3.571,3.571,0,0,1,30.9,19.831l.054,15.486H28.569v2.516a9.466,9.466,0,0,1-6.852,8.882,10.824,10.824,0,0,1-6.547,0,9.461,9.461,0,0,1-6.838-8.882V35.317H4.762V19.842A3.571,3.571,0,0,1,7.4,16.409a3.588,3.588,0,1,0-.074-2.418,5.952,5.952,0,0,0-4.95,5.851V35.317H0v2.476C0,45.239,5.458,51.8,13.094,53.75v2.994c0,3.51,1.845,4.762,3.571,4.762v2.032c0,8.809,6.675,15.97,14.88,15.97s14.88-7.17,14.88-15.97v-23.4c.119-4.518,3.593-8.193,7.738-8.193,4.266,0,7.738,3.79,7.738,8.452v2.161a8.333,8.333,0,1,0,9.438,7.057ZM25,16.271a1.19,1.19,0,1,1,1.19-1.19A1.19,1.19,0,0,1,25,16.271ZM10.714,13.89a1.19,1.19,0,1,1-1.19,1.19A1.19,1.19,0,0,1,10.714,13.89Zm-8.333,23.9v-.1H5.952v.136a11.828,11.828,0,0,0,8.5,11.146,13.246,13.246,0,0,0,8,0,11.83,11.83,0,0,0,8.5-11.146V37.7h2.381v.1c0,6.622-5.1,12.449-12.142,13.859a16.981,16.981,0,0,1-5.022.246,15.549,15.549,0,0,1-1.644-.249C7.485,50.242,2.381,44.415,2.381,37.793ZM16.666,59.125c-1.071,0-1.19-1.667-1.19-2.381V54.218c.1.012.193.017.289.026.119.013.238.023.357.033.563.05,1.131.083,1.7.085h.06c.571,0,1.138-.035,1.7-.085.119-.011.245-.02.368-.033.094-.011.192-.014.286-.026v2.526c0,.714-.119,2.381-1.19,2.381Zm46.425-2.381a5.952,5.952,0,1,1,5.952-5.952A5.952,5.952,0,0,1,63.091,56.744Z" transform="translate(0 -11.508)" fill="url(#linear-gradient)"/>
      </g>
    </g>
    <g id="Group_411" data-name="Group 411" transform="translate(59.52 47.221)">
      <g id="Group_410" data-name="Group 410">
        <path id="Path_4361" data-name="Path 4361" d="M403.571,251.515a3.571,3.571,0,1,0,3.571,3.571A3.571,3.571,0,0,0,403.571,251.515Zm0,4.762a1.19,1.19,0,1,1,1.19-1.19A1.19,1.19,0,0,1,403.571,256.277Z" transform="translate(-400 -251.515)" fill="url(#linear-gradient)"/>
      </g>
    </g>
  </g>
</svg>
