<svg id="law" xmlns="http://www.w3.org/2000/svg" xmlns:xlink="http://www.w3.org/1999/xlink" width="64.432" height="64.432" viewBox="0 0 64.432 64.432">
  <defs>
    <linearGradient id="linear-gradient" x1="0.63" y1="1" x2="0.633" gradientUnits="objectBoundingBox">
      <stop offset="0" stop-color="#f37135"/>
      <stop offset="1" stop-color="#cd3033"/>
    </linearGradient>
  </defs>
  <g id="Group_437" data-name="Group 437" transform="translate(12.673 21.572)">
    <g id="Group_436" data-name="Group 436">
      <path id="Path_4371" data-name="Path 4371" d="M102.853,171.788a1.258,1.258,0,1,0,0,1.779A1.259,1.259,0,0,0,102.853,171.788Z" transform="translate(-100.704 -171.42)" fill="url(#linear-gradient)"/>
    </g>
  </g>
  <g id="Group_439" data-name="Group 439" transform="translate(0 49.329)">
    <g id="Group_438" data-name="Group 438">
      <path id="Path_4372" data-name="Path 4372" d="M31.864,399a4.406,4.406,0,0,0-3.55-7.013H6.921A4.4,4.4,0,0,0,3.374,399,6.3,6.3,0,0,0,0,404.571v1.258a1.258,1.258,0,0,0,1.258,1.258H33.977a1.258,1.258,0,0,0,1.258-1.258v-1.258A6.3,6.3,0,0,0,31.864,399ZM5.586,395.056a1.875,1.875,0,0,1,1.335-.553H28.314a1.888,1.888,0,1,1,0,3.775H6.921a1.888,1.888,0,0,1-1.335-3.223Zm-3.069,9.515A3.78,3.78,0,0,1,6.292,400.8H28.943a3.78,3.78,0,0,1,3.775,3.775Z" transform="translate(0 -391.987)" fill="url(#linear-gradient)"/>
    </g>
  </g>
  <g id="Group_441" data-name="Group 441" transform="translate(0.003 0)">
    <g id="Group_440" data-name="Group 440">
      <path id="Path_4373" data-name="Path 4373" d="M63.28,52.871a7.925,7.925,0,0,0-1.516-1.741L55.884,46a1.249,1.249,0,0,0-.5-.437l-3.556-3.1L35.368,28.106a3.768,3.768,0,0,0-1.105-6.01l1.523-1.523a5.037,5.037,0,0,0,4.859-1.3,5.033,5.033,0,0,0,0-7.119L29.967,1.476a5.032,5.032,0,0,0-8.42,4.859L6.355,21.528a5.065,5.065,0,0,0-1.3-.171A5.033,5.033,0,0,0,1.493,29.95L12.171,40.627a5.032,5.032,0,0,0,8.42-4.859l1.52-1.52a3.776,3.776,0,0,0,6.012,1.1L45.653,55.493a1.264,1.264,0,0,0,.171.213c.023.023.046.043.07.063l5.224,6c.13.153.269.3.413.448a7.485,7.485,0,0,0,5.319,2.213,7.725,7.725,0,0,0,1.059-.073,7.615,7.615,0,0,0,5.618-3.89A7.446,7.446,0,0,0,63.28,52.871ZM24.628,3.255a2.516,2.516,0,0,1,3.56,0L38.865,13.933a2.517,2.517,0,0,1-3.559,3.56L24.629,6.815h0A2.519,2.519,0,0,1,24.628,3.255ZM17.51,38.848a2.52,2.52,0,0,1-3.56,0L3.273,28.17A2.517,2.517,0,0,1,6.83,24.61L17.51,35.289A2.519,2.519,0,0,1,17.51,38.848Zm5.3-8.857L19.29,33.51,8.611,22.831,22.848,8.594,33.527,19.272,30,22.8l-.035.033-7.115,7.115ZM27.3,32.616l-.007.007-.886.886a1.259,1.259,0,0,1-1.8-1.764L31.761,24.6a1.259,1.259,0,0,1,2.135.9,1.247,1.247,0,0,1-.369.89l-.881.881-.018.018Zm2.606.953,3.678-3.678L49.158,43.474l-5.682,5.683ZM45.132,51.06l5.927-5.927,1.9,1.658-6.172,6.172Zm16.2,8.181a5.119,5.119,0,0,1-3.767,2.626,5,5,0,0,1-4.254-1.426c-.1-.1-.189-.2-.276-.3l-.012-.014-4.578-5.261,6.417-6.417,5.254,4.583.012.01a5.418,5.418,0,0,1,1.038,1.195A4.969,4.969,0,0,1,61.332,59.241Z" transform="translate(-0.021 -0.001)" fill="url(#linear-gradient)"/>
    </g>
  </g>
  <g id="Group_443" data-name="Group 443" transform="translate(16.232 12.673)">
    <g id="Group_442" data-name="Group 442">
      <path id="Path_4374" data-name="Path 4374" d="M136.473,101.076a1.258,1.258,0,0,0-1.78,0l-5.339,5.339a1.258,1.258,0,0,0,1.78,1.78l5.339-5.339A1.258,1.258,0,0,0,136.473,101.076Z" transform="translate(-128.985 -100.707)" fill="url(#linear-gradient)"/>
    </g>
  </g>
</svg>
