<svg xmlns="http://www.w3.org/2000/svg" xmlns:xlink="http://www.w3.org/1999/xlink" width="72.408" height="69.886" viewBox="0 0 72.408 69.886">
  <defs>
    <linearGradient id="linear-gradient" x1="0.63" y1="1" x2="0.633" gradientUnits="objectBoundingBox">
      <stop offset="0" stop-color="#f37135"/>
      <stop offset="1" stop-color="#cd3033"/>
    </linearGradient>
  </defs>
  <g id="loan" transform="translate(0 -8.084)">
    <g id="Group_454" data-name="Group 454" transform="translate(0 8.085)">
      <g id="Group_453" data-name="Group 453" transform="translate(0 0)">
        <path id="Path_4383" data-name="Path 4383" d="M70.729,27.538l-.066-.044-8.52-5.679h.25V13.08a1.248,1.248,0,0,0-1.248-1.248H54.905a1.248,1.248,0,0,0-1.248,1.248v3.076L41.871,8.294a1.248,1.248,0,0,0-1.385,0l-28.791,19.2a3.843,3.843,0,1,0,4.2,6.439l.066-.044,4.007-2.672V55.507h-2.5a1.248,1.248,0,0,0-1.248-1.248H6.239a1.248,1.248,0,0,0-1.248,1.248H0V58H4.991V70.481H0v2.5H4.991a1.248,1.248,0,0,0,1.248,1.248h9.983a1.248,1.248,0,0,0,1.248-1.248V72.5l9.316,3.868a21.6,21.6,0,0,0,15.88.175L61.943,69.2a4.539,4.539,0,0,0,2.548-2.43,4.617,4.617,0,0,0,.074-3.583,4.529,4.529,0,0,0-2.172-2.38V31.217L66.4,33.889a3.843,3.843,0,1,0,4.33-6.351ZM14.974,71.728H7.487V56.754h7.487Zm41.179-57.4H59.9v5.99l-3.744-2.5Zm6.056,51.43a2.067,2.067,0,0,1-1.156,1.106l-19.277,7.35a19.092,19.092,0,0,1-14.041-.152L17.47,69.8V58h3.163a26.778,26.778,0,0,1,11.921,2.815,8.859,8.859,0,0,0,3.937.928h9.68a1.872,1.872,0,0,1,.413,3.695c-.163.015-.324.049-.49.049H31.2v2.5H46.17c.025,0,.049-.007.075-.007a7.719,7.719,0,0,0,2.88-.609l10.433-4.43a1.982,1.982,0,0,1,1.556,0A2.07,2.07,0,0,1,62.237,64.1,2.145,2.145,0,0,1,62.209,65.758ZM46.17,59.25h-9.68a6.364,6.364,0,0,1-2.821-.665,29.3,29.3,0,0,0-11.208-3.016V29.551L41.179,17.073,59.9,29.551V60.326a4.51,4.51,0,0,0-1.314.314l-8.091,3.437a4.313,4.313,0,0,0,.046-.459A4.367,4.367,0,0,0,46.17,59.25Zm23-27.371v0a1.336,1.336,0,0,1-1.385-.066L41.871,14.537a1.248,1.248,0,0,0-1.385,0L14.575,31.812a1.349,1.349,0,0,1-1.5-2.246l28.1-18.733,28.1,18.736a1.347,1.347,0,0,1,.6,1.123A1.326,1.326,0,0,1,69.168,31.879Z" transform="translate(0 -8.084)" fill="url(#linear-gradient)"/>
      </g>
    </g>
    <g id="Group_456" data-name="Group 456" transform="translate(9.983 66.737)">
      <g id="Group_455" data-name="Group 455" transform="translate(0 0)">
        <rect id="Rectangle_449" data-name="Rectangle 449" width="2.496" height="2.496" fill="url(#linear-gradient)"/>
      </g>
    </g>
    <g id="Group_458" data-name="Group 458" transform="translate(37.435 33.045)">
      <g id="Group_457" data-name="Group 457">
        <path id="Path_4384" data-name="Path 4384" d="M247.325,177.213a3.549,3.549,0,0,0-1.808-2.123l-2.432-1.217a1.066,1.066,0,0,1,.475-2.019h.364a1.068,1.068,0,0,1,1.066,1.066v.182h2.5v-.182a3.555,3.555,0,0,0-2.5-3.38V168.11h-2.5v1.429a3.549,3.549,0,0,0-.527,6.566l2.432,1.217a1.066,1.066,0,0,1-.475,2.019h-.364a1.068,1.068,0,0,1-1.066-1.066v-.182H240v.182a3.555,3.555,0,0,0,2.5,3.38v1.429h2.5v-1.429A3.549,3.549,0,0,0,247.325,177.213Z" transform="translate(-239.999 -168.11)" fill="url(#linear-gradient)"/>
      </g>
    </g>
    <g id="Group_460" data-name="Group 460" transform="translate(28.7 28.054)">
      <g id="Group_459" data-name="Group 459">
        <path id="Path_4385" data-name="Path 4385" d="M196.478,136.11a12.478,12.478,0,1,0,12.478,12.478A12.492,12.492,0,0,0,196.478,136.11Zm0,22.461a9.983,9.983,0,1,1,9.983-9.983A9.983,9.983,0,0,1,196.478,158.571Z" transform="translate(-184 -136.11)" fill="url(#linear-gradient)"/>
      </g>
    </g>
    <g id="Group_462" data-name="Group 462" transform="translate(46.17 39.285)">
      <g id="Group_461" data-name="Group 461">
        <rect id="Rectangle_450" data-name="Rectangle 450" width="2.496" height="2.496" fill="url(#linear-gradient)"/>
      </g>
    </g>
    <g id="Group_464" data-name="Group 464" transform="translate(33.692 39.285)">
      <g id="Group_463" data-name="Group 463">
        <rect id="Rectangle_451" data-name="Rectangle 451" width="2.496" height="2.496" fill="url(#linear-gradient)"/>
      </g>
    </g>
  </g>
</svg>
