<svg xmlns="http://www.w3.org/2000/svg" xmlns:xlink="http://www.w3.org/1999/xlink" width="972" height="1505" viewBox="0 0 972 1505">
  <defs>
    <linearGradient id="linear-gradient" x1="0.63" y1="1" x2="0.633" gradientUnits="objectBoundingBox">
      <stop offset="0" stop-color="#f37135"/>
      <stop offset="1" stop-color="#cd3033"/>
    </linearGradient>
    <linearGradient id="linear-gradient-2" x1="-34.651" y1="0.5" x2="-33.651" y2="0.5" gradientUnits="objectBoundingBox">
      <stop offset="0" stop-color="#3076a1"/>
      <stop offset="1" stop-color="#48c9b6"/>
    </linearGradient>
    <linearGradient id="linear-gradient-3" x1="-17.756" y1="0.5" x2="-16.756" y2="0.5" xlink:href="#linear-gradient-2"/>
    <linearGradient id="linear-gradient-4" x1="-23.761" y1="0.5" x2="-22.761" y2="0.5" xlink:href="#linear-gradient-2"/>
    <linearGradient id="linear-gradient-5" x1="-17.099" y1="0.5" x2="-16.099" y2="0.5" xlink:href="#linear-gradient-2"/>
    <linearGradient id="linear-gradient-6" x1="0.983" y1="0.962" x2="0.233" y2="0.108" xlink:href="#linear-gradient-2"/>
    <linearGradient id="linear-gradient-7" x1="-0.105" y1="0.5" x2="0.895" y2="0.5" gradientUnits="objectBoundingBox">
      <stop offset="0" stop-color="#c9c4c1" stop-opacity="0"/>
      <stop offset="1" stop-color="#fff6de"/>
    </linearGradient>
  </defs>
  <g id="Group_3712" data-name="Group 3712" transform="translate(-160 -243)">
    <path id="Rectangle_479" data-name="Rectangle 479" d="M30,0H716a0,0,0,0,1,0,0V1505a0,0,0,0,1,0,0H30a30,30,0,0,1-30-30V30A30,30,0,0,1,30,0Z" transform="translate(160 243)" fill="url(#linear-gradient)"/>
    <path id="Path_5510" data-name="Path 5510" d="M441,0C597.363,0,734.719,81.377,813.146,204.278A438.753,438.753,0,0,1,882,441c0,243.558-197.442,441-441,441S0,684.558,0,441,197.442,0,441,0Z" transform="translate(250 555)" fill="#fff" opacity="0.12"/>
    <g id="Group_1306" data-name="Group 1306" transform="translate(2705 -1509.742)" opacity="0.42">
      <g id="Group_1375" data-name="Group 1375" transform="translate(-2030.553 2925.742)" style="mix-blend-mode: multiply;isolation: isolate">
        <g id="Group_1301" data-name="Group 1301" transform="translate(89.444 61.63)">
          <path id="Path_4656" data-name="Path 4656" d="M821.861,1469.7c13.031-9.163,28.282-73.028,29.191-111.066.466-19.485,6.226-27.6,11.307-34.765,4.857-6.846,9.052-12.759,6.609-26.334-4.67-25.944,7.608-37.144,7.733-37.254l-1.422-1.62c-.546.479-13.334,12.029-8.433,39.256,2.284,12.685-1.48,17.99-6.246,24.705-5,7.047-11.222,15.818-11.7,35.961-.977,40.823-16.568,101.121-28.276,109.355Z" transform="translate(-820.621 -1258.665)" fill="url(#linear-gradient-2)"/>
        </g>
        <g id="Group_1302" data-name="Group 1302" transform="translate(0 149.48)">
          <path id="Path_4657" data-name="Path 4657" d="M680.817,1562.783c-1.23-2.788-2.5-5.672-3.944-8.713-7.444-15.714-14.038-18.3-24.963-22.589-2.669-1.048-5.7-2.236-9.016-3.728-15.649-7.033-12.62-17.4-9.946-26.542.374-1.279.747-2.555,1.07-3.817,1.376-5.378-1.268-8.076-5.271-12.16a45.655,45.655,0,0,1-9.531-12.78c-3.123-6.53-1.532-10.031.354-11.818,3.97-3.763,13.124-3.07,21.767,1.649,2.685,1.466,4.9,3.781,7.236,6.231,5.51,5.769,12.367,12.949,29.709,13.031,9.888.046,15.3,1.411,18.11,4.564,3.183,3.577,2.584,8.933,1.753,16.345-.288,2.563-.613,5.47-.811,8.609-1.18,18.73,9.878,32.243,9.987,32.375,6.606,7.866,14.745,24.186,11.232,34.232-1.472,4.211-4.765,6.861-9.787,7.876a27.837,27.837,0,0,1-5.51.6C691.124,1586.142,686.685,1576.082,680.817,1562.783ZM640.3,1464.176c-7.718-4.213-15.994-5.063-19.251-1.976-2.476,2.346-1.308,6.365.107,9.324,2.7,5.644,6.114,9.128,9.127,12.2,4.188,4.273,7.5,7.649,5.819,14.2-.329,1.285-.708,2.584-1.09,3.886-2.662,9.107-5.176,17.708,8.761,23.971,3.274,1.471,6.273,2.649,8.92,3.687,11.028,4.328,18.314,7.187,26.124,23.672,1.453,3.068,2.731,5.965,3.967,8.766,6.741,15.279,10.81,24.5,25.549,21.522,4.224-.854,6.977-3.032,8.181-6.475,3.1-8.853-4.311-24.351-10.85-32.137a51.47,51.47,0,0,1-10.485-33.893c.2-3.192.53-6.125.82-8.714.769-6.858,1.324-11.813-1.22-14.672-2.327-2.614-7.419-3.8-16.511-3.842-18.259-.085-25.466-7.633-31.258-13.7-2.318-2.43-4.319-4.525-6.711-5.828Z" transform="translate(-617.446 -1458.219)" fill="url(#linear-gradient-3)"/>
        </g>
        <g id="Group_1303" data-name="Group 1303" transform="translate(16.715 166.687)">
          <path id="Path_4658" data-name="Path 4658" d="M729.785,1620.462l2.152-.113c-.106-2.022-2.821-49.682-21.957-63.63-20.994-15.3-27.613-31.748-30.766-42.787-3.715-13.007-22.621-16.483-23.425-16.625l-.375,2.122c.183.033,18.383,3.387,21.727,15.1,3.24,11.345,10.037,28.242,31.568,43.936C727.026,1571.812,729.76,1619.978,729.785,1620.462Z" transform="translate(-655.416 -1497.306)" fill="url(#linear-gradient-4)"/>
        </g>
        <g id="Group_1304" data-name="Group 1304" transform="translate(70.824 0)">
          <path id="Path_4659" data-name="Path 4659" d="M794.944,1419.233c-4.5-2.243-4.339-11.258-4.092-24.906.312-17.245.74-40.862-8.287-62.586-9.59-23.077-1.037-29.821,7.234-36.344,9.264-7.305,18.014-14.205,1.22-45.351-7.713-14.3-10.162-23.98-7.706-30.449,2.427-6.393,9.236-8.886,16.444-11.524,12.442-4.554,26.545-9.715,24.723-36.05-.559-8.073.391-13.037,2.987-15.624,2.821-2.809,6.978-2.5,11.79-2.153,7.271.532,15.508,1.135,22.683-8.227.746-2.339,7.606-23.219,15.812-26.794a5.809,5.809,0,0,1,5.02.028h0c5.665,2.709,8.952,5.923,10.05,9.824,1.91,6.785-3.06,14.439-8.816,23.3-9.044,13.926-19.3,29.71-8.663,48.494,14.057,24.836,6.633,33.527-3.644,45.556-5.888,6.891-12.56,14.7-17.022,27.443-3.588,10.246,2.532,20.016,8.451,29.464,7.425,11.852,15.1,24.107-1.063,34.741-26.725,17.582-53.117,74.976-53.381,75.554l-.109.239-.207.162c-4.923,3.859-8.508,5.7-11.207,5.7A4.839,4.839,0,0,1,794.944,1419.233Zm65.938-82.953c14.4-9.476,7.924-19.82.421-31.8-5.9-9.42-12.59-20.1-8.659-31.321,4.595-13.121,11.406-21.1,17.417-28.13,10.069-11.786,16.721-19.573,3.406-43.095-11.276-19.922-.182-37,8.732-50.73,5.47-8.422,10.194-15.7,8.549-21.542-.92-3.269-3.833-6.038-8.905-8.464h0a3.691,3.691,0,0,0-3.229,0c-7.614,3.316-14.6,25.42-14.674,25.643l-.056.179-.113.15c-7.908,10.45-17.2,9.77-24.671,9.222-4.463-.327-7.987-.585-10.111,1.531-2.091,2.083-2.863,6.646-2.358,13.948,1.934,27.95-13.628,33.646-26.133,38.222-7.025,2.571-13.092,4.792-15.169,10.264-2.217,5.842.195,14.949,7.588,28.662,17.653,32.738,7.772,40.53-1.783,48.065-7.992,6.3-15.542,12.257-6.579,33.825,9.2,22.14,8.768,46.017,8.452,63.452-.216,11.9-.386,21.3,2.9,22.938,1.922.958,5.6-.659,10.93-4.807C808.972,1407.853,834.249,1353.8,860.882,1336.281Z" transform="translate(-778.327 -1118.671)" fill="url(#linear-gradient-5)"/>
        </g>
        <path id="Path_4660" data-name="Path 4660" d="M700.445,1232.476c13.6-4.663,10.776,21.552,16.523,40.948s63.936,8.462,39.511,57.032,30.89,16.243,14.368,58.628-1.437,87.715-19.4,76.185-10.09-64.9-28.768-71.246-21.726-13.739-3.233-30.98-48.458-34.358-31.936-69.172S684.731,1237.865,700.445,1232.476Z" transform="translate(-655.186 -1182.07)" fill="url(#linear-gradient-6)"/>
        <g id="Group_1305" data-name="Group 1305" transform="translate(54.171 110.457)">
          <path id="Path_4661" data-name="Path 4661" d="M776.331,1539.538c1.71-7.255,16.318-71.109,2.688-78.828-12.013-6.8-11.717-33.262-9.843-58.248,1.659-22.118-26.747-32.455-27.957-32.884l-.721,2.031c.281.1,28.064,10.22,26.529,30.692-1.924,25.66-2.131,52.889,10.93,60.285,10.349,5.86.821,57.178-3.724,76.458Z" transform="translate(-740.498 -1369.578)" fill="#fff"/>
        </g>
        <path id="Path_4662" data-name="Path 4662" d="M833.9,1704l-19.419,73.673h-43.4L751.66,1704Z" transform="translate(-692.575 -1446.32)" fill="#d43c33"/>
        <path id="Path_4663" data-name="Path 4663" d="M833.9,1704s-42.751,8.027-42.751,73.674H771.08L751.661,1704Z" transform="translate(-692.576 -1446.32)" fill="url(#linear-gradient-7)"/>
      </g>
    </g>
    <rect id="Rectangle_515" data-name="Rectangle 515" width="551" height="5" rx="2.5" transform="translate(160 1564)" fill="#af5128"/>
    <g id="Group_681" data-name="Group 681" transform="translate(226.618 338.771)" style="mix-blend-mode: multiply;isolation: isolate">
      <g id="Group_627" data-name="Group 627" transform="translate(9.02 0.284)">
        <g id="Group_626" data-name="Group 626">
          <g id="Group_625" data-name="Group 625">
            <g id="Group_624" data-name="Group 624">
              <rect id="Rectangle_484" data-name="Rectangle 484" width="172.579" height="250.145" fill="#e0e0e0"/>
            </g>
          </g>
        </g>
      </g>
      <g id="Group_631" data-name="Group 631" transform="translate(0.374 0.284)">
        <g id="Group_630" data-name="Group 630">
          <g id="Group_629" data-name="Group 629">
            <g id="Group_628" data-name="Group 628">
              <rect id="Rectangle_485" data-name="Rectangle 485" width="172.577" height="250.145" fill="#f5f5f5"/>
            </g>
          </g>
        </g>
      </g>
      <g id="Group_641" data-name="Group 641" transform="translate(21.347 26.904)">
        <g id="Group_635" data-name="Group 635" transform="translate(0.469 0.471)">
          <g id="Group_634" data-name="Group 634">
            <g id="Group_633" data-name="Group 633">
              <g id="Group_632" data-name="Group 632">
                <rect id="Rectangle_486" data-name="Rectangle 486" width="129.695" height="195.96" fill="#fff"/>
              </g>
            </g>
          </g>
        </g>
        <g id="Group_640" data-name="Group 640">
          <g id="Group_639" data-name="Group 639">
            <g id="Group_638" data-name="Group 638">
              <g id="Group_637" data-name="Group 637">
                <g id="Group_636" data-name="Group 636">
                  <path id="Path_4432" data-name="Path 4432" d="M191.408,266.688s-.016-.333-.025-.959c-.005-.647-.014-1.571-.025-2.779-.012-2.464-.03-6.069-.053-10.749-.027-9.392-.065-23.077-.115-40.367-.051-34.555-.126-83.486-.212-141.107l.43.43L61.729,71.2h-.014l.469-.469c-.037,73.924-.069,142.084-.1,195.96l-.373-.373,94.4.2,26.081.1,6.847.041c1.549.012,2.365.041,2.365.041s-.764.026-2.287.041l-6.776.041-26,.1-94.633.2H61.34v-.375c-.027-53.877-.058-122.036-.1-195.96v-.47h.486c46.147.014,90.055.028,129.679.039h.432v.432c-.087,57.738-.159,106.767-.212,141.39-.05,17.247-.088,30.9-.115,40.27-.023,4.643-.041,8.219-.053,10.662q-.016,1.78-.025,2.731C191.426,266.389,191.408,266.688,191.408,266.688Z" transform="translate(-61.244 -70.255)" fill="#e0e0e0"/>
                </g>
              </g>
            </g>
          </g>
        </g>
      </g>
      <g id="Group_646" data-name="Group 646" transform="translate(145.498 28.683)">
        <g id="Group_645" data-name="Group 645">
          <g id="Group_644" data-name="Group 644">
            <g id="Group_643" data-name="Group 643">
              <g id="Group_642" data-name="Group 642">
                <path id="Path_4433" data-name="Path 4433" d="M131.435,71.261" transform="translate(-131.435 -71.261)" fill="none" stroke="#fbfbfb" stroke-miterlimit="10" stroke-width="0.25"/>
              </g>
            </g>
          </g>
        </g>
      </g>
      <g id="Group_651" data-name="Group 651" transform="translate(149.933 0.281)">
        <g id="Group_650" data-name="Group 650">
          <g id="Group_649" data-name="Group 649">
            <g id="Group_648" data-name="Group 648">
              <g id="Group_647" data-name="Group 647">
                <path id="Path_4434" data-name="Path 4434" d="M157.447,55.206a29.79,29.79,0,0,1-3.076,4.468c-2,2.681-4.85,6.329-8.1,10.271s-6.283,7.436-8.529,9.918a29.924,29.924,0,0,1-3.8,3.875,32.306,32.306,0,0,1,3.293-4.309c2.314-2.807,5.16-6.261,8.31-10.082l8.3-10.086A32.1,32.1,0,0,1,157.447,55.206Z" transform="translate(-133.942 -55.203)" fill="#e0e0e0"/>
              </g>
            </g>
          </g>
        </g>
      </g>
      <g id="Group_661" data-name="Group 661" transform="translate(152.166 222.703)">
        <g id="Group_655" data-name="Group 655" transform="translate(0.006 0.002)">
          <g id="Group_654" data-name="Group 654">
            <g id="Group_653" data-name="Group 653">
              <g id="Group_652" data-name="Group 652">
                <path id="Path_4435" data-name="Path 4435" d="M135.208,180.954a160.6,160.6,0,0,0,22.623,28.291" transform="translate(-135.208 -180.954)" fill="#fff"/>
              </g>
            </g>
          </g>
        </g>
        <g id="Group_660" data-name="Group 660">
          <g id="Group_659" data-name="Group 659">
            <g id="Group_658" data-name="Group 658">
              <g id="Group_657" data-name="Group 657">
                <g id="Group_656" data-name="Group 656">
                  <path id="Path_4436" data-name="Path 4436" d="M157.833,209.245a25.813,25.813,0,0,1-3.944-3.587,126.438,126.438,0,0,1-16.045-20.067,25.834,25.834,0,0,1-2.632-4.636,35.67,35.67,0,0,1,3.182,4.264c1.9,2.671,4.576,6.323,7.7,10.229s6.1,7.312,8.283,9.755A36.015,36.015,0,0,1,157.833,209.245Z" transform="translate(-135.205 -180.953)" fill="#e0e0e0"/>
                </g>
              </g>
            </g>
          </g>
        </g>
      </g>
      <g id="Group_671" data-name="Group 671" transform="translate(0 222.054)">
        <g id="Group_665" data-name="Group 665" transform="translate(0.35 0.286)">
          <g id="Group_664" data-name="Group 664">
            <g id="Group_663" data-name="Group 663">
              <g id="Group_662" data-name="Group 662">
                <path id="Path_4437" data-name="Path 4437" d="M49.373,208.638l22.6-27.89" transform="translate(-49.373 -180.748)" fill="#fff"/>
              </g>
            </g>
          </g>
        </g>
        <g id="Group_670" data-name="Group 670" transform="translate(0 0)">
          <g id="Group_669" data-name="Group 669">
            <g id="Group_668" data-name="Group 668">
              <g id="Group_667" data-name="Group 667">
                <g id="Group_666" data-name="Group 666">
                  <ellipse id="Ellipse_119" data-name="Ellipse 119" cx="17.949" cy="0.469" rx="17.949" ry="0.469" transform="translate(0 27.89) rotate(-50.974)" fill="#e0e0e0"/>
                </g>
              </g>
            </g>
          </g>
        </g>
      </g>
      <g id="Group_676" data-name="Group 676" transform="translate(0.007)">
        <g id="Group_675" data-name="Group 675" transform="translate(0)">
          <g id="Group_674" data-name="Group 674">
            <g id="Group_673" data-name="Group 673">
              <g id="Group_672" data-name="Group 672">
                <ellipse id="Ellipse_120" data-name="Ellipse 120" cx="17.093" cy="0.47" rx="17.093" ry="0.47" transform="matrix(-0.62, -0.784, 0.784, -0.62, 21.206, 27.396)" fill="#e0e0e0"/>
              </g>
            </g>
          </g>
        </g>
      </g>
      <g id="Group_680" data-name="Group 680" transform="translate(67.678 67.163)">
        <g id="Group_679" data-name="Group 679">
          <g id="Group_678" data-name="Group 678">
            <g id="Group_677" data-name="Group 677">
              <rect id="Rectangle_487" data-name="Rectangle 487" width="43.427" height="123.301" fill="#e0e0e0"/>
            </g>
          </g>
        </g>
      </g>
    </g>
  </g>
</svg>
