<svg id="mail" xmlns="http://www.w3.org/2000/svg" width="32.291" height="24.218" viewBox="0 0 32.291 24.218">
  <g id="Group_606" data-name="Group 606" transform="translate(0 0)">
    <path id="Path_1454" data-name="Path 1454" d="M29.6,64H2.691A2.694,2.694,0,0,0,0,66.691V85.527a2.694,2.694,0,0,0,2.691,2.691H29.6a2.694,2.694,0,0,0,2.691-2.691V66.691A2.694,2.694,0,0,0,29.6,64ZM2.691,65.345H29.6a1.28,1.28,0,0,1,.28.057c-2.33,2.132-10.054,9.2-12.758,11.635a1.349,1.349,0,0,1-1.953,0C12.466,74.6,4.74,67.534,2.411,65.4A1.286,1.286,0,0,1,2.691,65.345ZM1.345,85.527V66.691a1.3,1.3,0,0,1,.075-.372C3.2,67.951,8.594,72.882,12.089,76.06c-3.484,2.992-8.875,8.1-10.672,9.818A1.3,1.3,0,0,1,1.345,85.527ZM29.6,86.873H2.691a1.286,1.286,0,0,1-.3-.061c1.857-1.77,7.283-6.911,10.705-9.839.446.4.854.774,1.175,1.063a2.687,2.687,0,0,0,3.755,0c.321-.29.729-.659,1.176-1.064C22.621,79.9,28.046,85.04,29.9,86.811A1.285,1.285,0,0,1,29.6,86.873Zm1.345-1.345a1.3,1.3,0,0,1-.071.351c-1.8-1.715-7.189-6.826-10.672-9.818,3.5-3.178,8.884-8.109,10.668-9.741a1.3,1.3,0,0,1,.075.372Z" transform="translate(0 -64)" fill="#a2a2a2"/>
  </g>
</svg>
