<svg xmlns="http://www.w3.org/2000/svg" width="69" height="69" viewBox="0 0 69 69">
  <g id="Group_3712" data-name="Group 3712" transform="translate(-8676 -3478)">
    <g id="Group_3694" data-name="Group 3694" transform="translate(7863 3561)">
      <g id="Group_3711" data-name="Group 3711" transform="translate(268 -510)">
        <g id="Group_3678" data-name="Group 3678" transform="translate(-3 -249)">
          <circle id="Ellipse_241" data-name="Ellipse 241" cx="34.5" cy="34.5" r="34.5" transform="translate(548 676)" fill="#ed6635" opacity="0.16"/>
        </g>
      </g>
      <g id="portfolio_1_" data-name="portfolio(1)" transform="translate(832.5 -66)">
        <path id="Path_5397" data-name="Path 5397" d="M20.611.23A.749.749,0,0,0,20.077,0H4.239A3.749,3.749,0,0,0,.5,3.731V31.7a3.749,3.749,0,0,0,3.739,3.731h20.81A3.749,3.749,0,0,0,28.788,31.7V8.943a.758.758,0,0,0-.219-.521Zm.212,2.359,5.444,5.6h-4.7a.736.736,0,0,1-.743-.728Zm4.226,31.357H4.239A2.258,2.258,0,0,1,1.989,31.7V3.731a2.258,2.258,0,0,1,2.25-2.242H19.334V7.454a2.226,2.226,0,0,0,2.228,2.223H27.3V31.7a2.258,2.258,0,0,1-2.25,2.242Zm0,0" fill="#ecb7a4"/>
        <path id="Path_5398" data-name="Path 5398" d="M80.2,382H63.065a.744.744,0,0,0,0,1.489H80.2a.744.744,0,0,0,0-1.489Zm0,0" transform="translate(-57.219 -353.563)" fill="#ecb7a4"/>
        <path id="Path_5399" data-name="Path 5399" d="M63.065,329.489H73.324a.744.744,0,1,0,0-1.489H63.065a.744.744,0,1,0,0,1.489Zm0,0" transform="translate(-57.218 -303.583)" fill="#ecb7a4"/>
        <path id="Path_5400" data-name="Path 5400" d="M70.243,198.848H80.556a.787.787,0,0,0,.78-.757v-.941A5.168,5.168,0,0,0,76.15,192h-1.5a5.137,5.137,0,0,0-5.148,5.125v.967a.754.754,0,0,0,.743.757Zm.746-1.7a3.664,3.664,0,0,1,3.66-3.661h1.5a3.7,3.7,0,0,1,3.7,3.661v.21H70.989Zm0,0" transform="translate(-63.863 -177.707)" fill="#ecb7a4"/>
        <path id="Path_5401" data-name="Path 5401" d="M102.782,95.6a3.708,3.708,0,1,0-3.708-3.708A3.708,3.708,0,0,0,102.782,95.6Zm0-5.927a2.219,2.219,0,1,1-2.219,2.219A2.219,2.219,0,0,1,102.782,89.669Zm0,0" transform="translate(-91.236 -81.616)" fill="#ecb7a4"/>
      </g>
    </g>
  </g>
</svg>
